M48
; DRILL file {KiCad (6.0.6-69-g6d26e8e3e8)} date Wed Mar  1 00:35:37 2023
; FORMAT={-:-/ absolute / metric / decimal}
; #@! TF.CreationDate,2023-03-01T00:35:37-07:00
; #@! TF.GenerationSoftware,Kicad,Pcbnew,(6.0.6-69-g6d26e8e3e8)
; #@! TF.FileFunction,Plated,1,2,PTH
FMAT,2
METRIC
; #@! TA.AperFunction,Plated,PTH,ViaDrill
T1C0.400
; #@! TA.AperFunction,Plated,PTH,ComponentDrill
T2C0.800
; #@! TA.AperFunction,Plated,PTH,ComponentDrill
T3C1.000
; #@! TA.AperFunction,Plated,PTH,ComponentDrill
T4C1.092
; #@! TA.AperFunction,Plated,PTH,ComponentDrill
T5C1.500
%
G90
G05
T1
X151.259Y-54.882
X154.769Y-54.112
X155.709Y-53.387
X156.809Y-52.617
X163.249Y-54.882
X178.673Y-119.962
X179.363Y-106.79
X183.775Y-110.65
X188.623Y-71.687
T2
X34.316Y-53.86
X35.639Y-46.356
X41.954Y-53.772
X43.277Y-46.268
X48.344Y-53.622
X49.667Y-46.118
X54.294Y-53.552
X55.617Y-46.048
X61.044Y-53.692
X62.367Y-46.188
X67.364Y-53.112
X68.687Y-45.608
X73.724Y-53.092
X75.047Y-45.588
X80.284Y-53.402
X81.607Y-45.898
X86.824Y-53.802
X88.147Y-46.298
X92.704Y-54.602
X94.027Y-47.098
X98.916Y-55.54
X100.239Y-48.036
X104.994Y-57.132
X106.317Y-49.628
X110.514Y-58.732
X111.837Y-51.228
X114.724Y-60.082
X116.047Y-52.578
X119.464Y-61.342
X120.787Y-53.838
X123.824Y-62.892
X125.147Y-55.388
X128.664Y-64.582
X129.987Y-57.078
X133.214Y-65.992
X134.537Y-58.488
X135.826Y-119.88
X137.149Y-112.376
X137.946Y-67.21
X139.269Y-59.706
X142.666Y-68.12
X143.989Y-60.616
X165.297Y-134.938
X165.297Y-142.558
X169.656Y-60.726
X170.979Y-68.23
X174.247Y-59.488
X175.571Y-66.992
X175.612Y-111.235
X176.935Y-118.739
X179.257Y-58.538
X180.581Y-66.042
X184.047Y-57.088
X185.371Y-64.592
X188.407Y-55.708
X189.731Y-63.212
X193.337Y-54.186
X194.661Y-61.69
X198.057Y-52.808
X199.381Y-60.312
X202.347Y-51.638
X203.671Y-59.142
X207.527Y-49.948
X208.851Y-57.452
X213.577Y-48.188
X214.901Y-55.692
X220.307Y-46.978
X221.631Y-54.482
X226.317Y-46.518
X227.641Y-54.022
X232.307Y-46.298
X233.631Y-53.802
X239.266Y-46.036
X240.589Y-53.54
X245.787Y-46.078
X247.111Y-53.582
X252.827Y-45.938
X254.151Y-53.442
X259.217Y-46.078
X260.541Y-53.582
X265.397Y-46.368
X266.721Y-53.872
X271.817Y-46.218
X273.141Y-53.722
X278.496Y-46.386
X279.819Y-53.89
T3
X154.137Y-68.918
X156.677Y-68.918
X159.217Y-68.918
T4
X149.257Y-56.218
X149.257Y-58.758
X149.257Y-61.298
X149.257Y-63.838
X149.257Y-66.378
X149.257Y-68.918
X149.257Y-71.458
X149.257Y-73.998
X149.257Y-76.538
X149.257Y-79.078
X149.257Y-81.618
X149.257Y-84.158
X164.497Y-56.218
X164.497Y-58.758
X164.497Y-61.298
X164.497Y-63.838
X164.497Y-66.378
X164.497Y-68.918
X164.497Y-71.458
X164.497Y-73.998
X164.497Y-76.538
X164.497Y-79.078
X164.497Y-81.618
X164.497Y-84.158
T5
X27.318Y-106.173
X29.706Y-100.055
X30.638Y-87.403
X31.993Y-109.028
X33.026Y-81.285
X33.958Y-68.663
X35.313Y-90.258
X36.346Y-62.545
X36.401Y-98.656
X38.633Y-71.518
X39.721Y-79.886
X43.041Y-61.146
X46.488Y-107.153
X48.876Y-101.035
X49.828Y-88.383
X51.163Y-110.008
X52.216Y-82.265
X53.158Y-69.603
X54.503Y-91.238
X55.546Y-63.485
X55.571Y-99.636
X57.833Y-72.458
X58.911Y-80.866
X62.241Y-62.086
X66.048Y-105.773
X68.436Y-99.655
X69.368Y-86.983
X70.723Y-108.628
X71.756Y-80.865
X72.708Y-68.163
X74.043Y-89.838
X75.096Y-62.045
X75.131Y-98.256
X77.383Y-71.018
X78.451Y-79.466
X81.791Y-60.646
X85.238Y-106.753
X87.626Y-100.635
X88.518Y-87.943
X89.913Y-109.608
X90.906Y-81.825
X91.854Y-69.195
X93.193Y-90.798
X94.243Y-63.076
X94.321Y-99.236
X96.529Y-72.05
X97.601Y-80.426
X100.238Y-131.153
X100.937Y-61.678
X102.626Y-125.035
X103.574Y-112.395
X104.913Y-134.008
X105.963Y-106.276
X106.874Y-93.635
X108.249Y-115.25
X109.263Y-87.516
X109.321Y-123.636
X110.174Y-74.845
X111.549Y-96.49
X112.563Y-68.726
X112.657Y-104.878
X114.849Y-77.7
X115.957Y-86.118
X118.608Y-136.763
X119.257Y-67.328
X120.996Y-130.645
X121.894Y-118.005
X123.283Y-139.618
X124.283Y-111.886
X125.204Y-99.245
X126.569Y-120.86
X127.593Y-93.126
X127.691Y-129.246
X128.518Y-80.453
X129.879Y-102.1
X130.906Y-74.335
X130.977Y-110.488
X133.193Y-83.308
X134.287Y-91.728
X137.601Y-72.936
X140.658Y-121.333
X143.046Y-115.215
X145.333Y-124.188
X149.741Y-113.816
X151.434Y-142.409
X152.724Y-135.969
X156.534Y-144.409
X159.074Y-133.429
X162.912Y-123.05
X163.065Y-116.484
X168.282Y-124.134
X168.877Y-112.88
X174.853Y-81.361
X175.005Y-74.795
X178.203Y-100.091
X178.355Y-93.525
X180.223Y-82.445
X180.818Y-71.191
X181.517Y-118.856
X181.669Y-112.29
X183.573Y-101.175
X184.168Y-89.921
X184.829Y-137.641
X184.981Y-131.075
X186.887Y-119.94
X187.481Y-108.686
X190.199Y-138.725
X190.794Y-127.471
X193.253Y-75.811
X193.405Y-69.245
X196.563Y-94.581
X196.715Y-88.015
X198.623Y-76.895
X199.218Y-65.641
X199.903Y-113.291
X200.055Y-106.725
X201.933Y-95.665
X202.528Y-84.411
X203.243Y-132.071
X203.395Y-125.505
X205.273Y-114.375
X205.868Y-103.121
X208.613Y-133.155
X209.208Y-121.901
X211.613Y-70.071
X211.765Y-63.505
X214.913Y-88.851
X215.065Y-82.285
X216.983Y-71.155
X217.578Y-59.901
X218.213Y-107.581
X218.365Y-101.015
X220.283Y-89.935
X220.878Y-78.681
X223.583Y-108.665
X224.178Y-97.411
X230.793Y-69.131
X230.945Y-62.565
X234.103Y-87.921
X234.255Y-81.355
X236.163Y-70.215
X236.758Y-58.961
X237.423Y-106.671
X237.575Y-100.105
X239.473Y-89.005
X240.068Y-77.751
X242.793Y-107.755
X243.388Y-96.501
X250.393Y-70.491
X250.545Y-63.925
X253.693Y-89.271
X253.845Y-82.705
X255.763Y-71.575
X256.358Y-60.321
X257.003Y-108.071
X257.155Y-101.505
X259.063Y-90.355
X259.658Y-79.101
X262.373Y-109.155
X262.968Y-97.901
X269.583Y-69.551
X269.735Y-62.985
X272.914Y-88.325
X273.066Y-81.759
X274.953Y-70.635
X275.548Y-59.381
X276.194Y-107.145
X276.346Y-100.579
X278.283Y-89.409
X278.878Y-78.155
X281.563Y-108.229
X282.158Y-96.975
T0
M30
