G04 #@! TF.GenerationSoftware,KiCad,Pcbnew,(6.0.6-69-g6d26e8e3e8)*
G04 #@! TF.CreationDate,2023-03-01T00:35:34-07:00*
G04 #@! TF.ProjectId,AirShip-rounded,41697253-6869-4702-9d72-6f756e646564,rev?*
G04 #@! TF.SameCoordinates,Original*
G04 #@! TF.FileFunction,Soldermask,Top*
G04 #@! TF.FilePolarity,Negative*
%FSLAX46Y46*%
G04 Gerber Fmt 4.6, Leading zero omitted, Abs format (unit mm)*
G04 Created by KiCad (PCBNEW (6.0.6-69-g6d26e8e3e8)) date 2023-03-01 00:35:34*
%MOMM*%
%LPD*%
G01*
G04 APERTURE LIST*
G04 Aperture macros list*
%AMHorizOval*
0 Thick line with rounded ends*
0 $1 width*
0 $2 $3 position (X,Y) of the first rounded end (center of the circle)*
0 $4 $5 position (X,Y) of the second rounded end (center of the circle)*
0 Add line between two ends*
20,1,$1,$2,$3,$4,$5,0*
0 Add two circle primitives to create the rounded ends*
1,1,$1,$2,$3*
1,1,$1,$4,$5*%
%AMRotRect*
0 Rectangle, with rotation*
0 The origin of the aperture is its center*
0 $1 length*
0 $2 width*
0 $3 Rotation angle, in degrees counterclockwise*
0 Add horizontal line*
21,1,$1,$2,0,0,$3*%
G04 Aperture macros list end*
%ADD10RotRect,1.600000X1.600000X260.000000*%
%ADD11HorizOval,1.600000X0.000000X0.000000X0.000000X0.000000X0*%
%ADD12RotRect,1.600000X1.600000X280.000000*%
%ADD13HorizOval,1.600000X0.000000X0.000000X0.000000X0.000000X0*%
%ADD14C,4.000000*%
%ADD15C,2.100000*%
%ADD16C,1.900000*%
%ADD17C,2.200000*%
%ADD18R,1.752600X1.752600*%
%ADD19R,3.250000X2.000000*%
%ADD20C,1.752600*%
%ADD21R,1.600000X1.600000*%
%ADD22O,1.600000X1.600000*%
%ADD23R,1.700000X1.700000*%
%ADD24O,1.700000X1.700000*%
G04 APERTURE END LIST*
D10*
X49667383Y-46117713D03*
D11*
X48344184Y-53621948D03*
D10*
X75047387Y-45587717D03*
D11*
X73724188Y-53091952D03*
D10*
X143988988Y-60615594D03*
D11*
X142665789Y-68119829D03*
D10*
X62367386Y-46187716D03*
D11*
X61044187Y-53691951D03*
D12*
X202347388Y-51637719D03*
D13*
X203670587Y-59141954D03*
D10*
X139268992Y-59705597D03*
D11*
X137945793Y-67209832D03*
D14*
X156533839Y-138509472D03*
D15*
X162033839Y-138509472D03*
D16*
X161613839Y-138509472D03*
X151453839Y-138509472D03*
D15*
X151033839Y-138509472D03*
D17*
X151433839Y-142409472D03*
X152723839Y-135969472D03*
X159073839Y-133429472D03*
X156533839Y-144409472D03*
D15*
X180445599Y-115084496D03*
D16*
X190864865Y-113247298D03*
D14*
X185862042Y-114129431D03*
D15*
X191278485Y-113174366D03*
D16*
X180859219Y-115011564D03*
D17*
X181668858Y-112289619D03*
X181516750Y-118855787D03*
X186886566Y-119939797D03*
X187481321Y-108685541D03*
X209207530Y-121900897D03*
X208612775Y-133155153D03*
X203395067Y-125504975D03*
X203242959Y-132071143D03*
D14*
X207588251Y-127344787D03*
D15*
X213004694Y-126389722D03*
X202171808Y-128299852D03*
D16*
X212591074Y-126462654D03*
X202585428Y-128226920D03*
X63860210Y-67529847D03*
D15*
X53440944Y-65692649D03*
D16*
X53854564Y-65765581D03*
D15*
X64273830Y-67602779D03*
D14*
X58857387Y-66647714D03*
D17*
X55546336Y-63484703D03*
X53157640Y-69602859D03*
X62240931Y-62085957D03*
X57832863Y-72458080D03*
D12*
X188407386Y-55707716D03*
D13*
X189730585Y-63211951D03*
D15*
X213841803Y-85079855D03*
D16*
X214255423Y-85006923D03*
D14*
X219258246Y-84124790D03*
D16*
X224261069Y-83242657D03*
D15*
X224674689Y-83169725D03*
D17*
X215065062Y-82284978D03*
X214912954Y-88851146D03*
X220282770Y-89935156D03*
X220877525Y-78680900D03*
D15*
X140940945Y-117422649D03*
D16*
X151360211Y-119259847D03*
X141354565Y-117495581D03*
D15*
X151773831Y-119332779D03*
D14*
X146357388Y-118377714D03*
D17*
X140657641Y-121332859D03*
X143046337Y-115214703D03*
X145332864Y-124188080D03*
X149740932Y-113815957D03*
D14*
X127593840Y-115049471D03*
D16*
X122591017Y-114167338D03*
X132596663Y-115931604D03*
D15*
X133010283Y-116004536D03*
X122177397Y-114094406D03*
D17*
X124282789Y-111886460D03*
X121894093Y-118004616D03*
X130977384Y-110487714D03*
X126569316Y-120859837D03*
D12*
X175611855Y-111234531D03*
D13*
X176935054Y-118738766D03*
D16*
X249735427Y-66646920D03*
X259741073Y-64882654D03*
D14*
X254738250Y-65764787D03*
D15*
X249321807Y-66719852D03*
X260154693Y-64809722D03*
D17*
X250545066Y-63924975D03*
X250392958Y-70491143D03*
X256357529Y-60320897D03*
X255762774Y-71575153D03*
D16*
X184171556Y-133796772D03*
D15*
X194590822Y-131959574D03*
X183757936Y-133869704D03*
D14*
X189174379Y-132914639D03*
D16*
X194177202Y-132032506D03*
D17*
X184829087Y-137640995D03*
X184981195Y-131074827D03*
X190198903Y-138725005D03*
X190793658Y-127470749D03*
D18*
X149257386Y-56217715D03*
D19*
X147479386Y-56217715D03*
X147479386Y-58757715D03*
D20*
X149257386Y-58757715D03*
D19*
X147479386Y-61297715D03*
D20*
X149257386Y-61297715D03*
D19*
X147479386Y-63837715D03*
D20*
X149257386Y-63837715D03*
X149257386Y-66377715D03*
D19*
X147479386Y-66377715D03*
X147479386Y-68917715D03*
D20*
X149257386Y-68917715D03*
D19*
X147479386Y-71457715D03*
D20*
X149257386Y-71457715D03*
X149257386Y-73997715D03*
D19*
X147479386Y-73997715D03*
D20*
X149257386Y-76537715D03*
D19*
X147479386Y-76537715D03*
D20*
X149257386Y-79077715D03*
D19*
X147479386Y-79077715D03*
D20*
X149257386Y-81617715D03*
D19*
X147479386Y-81617715D03*
X147479386Y-84157715D03*
D20*
X149257386Y-84157715D03*
X164497386Y-84157715D03*
D19*
X166275386Y-84157715D03*
X166275386Y-81617715D03*
D20*
X164497386Y-81617715D03*
D19*
X166275386Y-79077715D03*
D20*
X164497386Y-79077715D03*
X164497386Y-76537715D03*
D19*
X166275386Y-76537715D03*
D20*
X164497386Y-73997715D03*
D19*
X166275386Y-73997715D03*
D20*
X164497386Y-71457715D03*
D19*
X166275386Y-71457715D03*
D20*
X164497386Y-68917715D03*
D19*
X166275386Y-68917715D03*
X166275386Y-66377715D03*
D20*
X164497386Y-66377715D03*
D19*
X166275386Y-63837715D03*
D20*
X164497386Y-63837715D03*
X164497386Y-61297715D03*
D19*
X166275386Y-61297715D03*
X166275386Y-58757715D03*
D20*
X164497386Y-58757715D03*
D19*
X166275386Y-56217715D03*
D20*
X164497386Y-56217715D03*
D16*
X129310206Y-134689848D03*
D14*
X124307383Y-133807715D03*
D15*
X129723826Y-134762780D03*
X118890940Y-132852650D03*
D16*
X119304560Y-132925582D03*
D17*
X120996332Y-130644704D03*
X118607636Y-136762860D03*
X123282859Y-139618081D03*
X127690927Y-129245958D03*
D12*
X245787385Y-46077716D03*
D13*
X247110584Y-53581951D03*
D16*
X38020208Y-104099847D03*
D15*
X27600942Y-102262649D03*
D14*
X33017385Y-103217714D03*
D15*
X38433828Y-104172779D03*
D16*
X28014562Y-102335581D03*
D17*
X27317638Y-106172859D03*
X29706334Y-100054703D03*
X31992861Y-109028080D03*
X36400929Y-98655957D03*
D10*
X116047386Y-52577717D03*
D11*
X114724187Y-60081952D03*
D10*
X137148987Y-112375596D03*
D11*
X135825788Y-119879831D03*
D16*
X220961070Y-64462654D03*
D15*
X210541804Y-66299852D03*
D16*
X210955424Y-66226920D03*
D14*
X215958247Y-65344787D03*
D15*
X221374690Y-64389722D03*
D17*
X211612955Y-70071143D03*
X211765063Y-63504975D03*
X217577526Y-59900897D03*
X216982771Y-71155153D03*
D15*
X92137396Y-65284409D03*
D16*
X102556662Y-67121607D03*
D14*
X97553839Y-66239474D03*
D15*
X102970282Y-67194539D03*
D16*
X92551016Y-65357341D03*
D17*
X94242788Y-63076463D03*
X91854092Y-69194619D03*
X100937383Y-61677717D03*
X96529315Y-72049840D03*
D12*
X207527387Y-49947715D03*
D13*
X208850586Y-57451950D03*
D15*
X206324695Y-88899723D03*
D14*
X200908252Y-89854788D03*
D15*
X195491809Y-90809853D03*
D16*
X195905429Y-90736921D03*
X205911075Y-88972655D03*
D17*
X196715068Y-88014976D03*
X196562960Y-94581144D03*
X201932776Y-95665154D03*
X202527531Y-84410898D03*
D12*
X198057387Y-52807714D03*
D13*
X199380586Y-60311949D03*
D16*
X282261792Y-82716546D03*
D15*
X282675412Y-82643614D03*
X271842526Y-84553744D03*
D16*
X272256146Y-84480812D03*
D14*
X277258969Y-83598679D03*
D17*
X273065785Y-81758867D03*
X272913677Y-88325035D03*
X278878248Y-78154789D03*
X278283493Y-89409045D03*
D15*
X229721806Y-65359851D03*
D14*
X235138249Y-64404786D03*
D16*
X230135426Y-65286919D03*
D15*
X240554692Y-63449721D03*
D16*
X240141072Y-63522653D03*
D17*
X230945065Y-62564974D03*
X230792957Y-69131142D03*
X236757528Y-58960896D03*
X236162773Y-70215152D03*
D15*
X107157397Y-89724408D03*
D16*
X107571017Y-89797340D03*
D15*
X117990283Y-91634538D03*
D14*
X112573840Y-90679473D03*
D16*
X117576663Y-91561606D03*
D17*
X109262789Y-87516462D03*
X106874093Y-93634618D03*
X111549316Y-96489839D03*
X115957384Y-86117716D03*
D16*
X266351073Y-102462656D03*
D15*
X266764693Y-102389724D03*
D14*
X261348250Y-103344789D03*
D16*
X256345427Y-104226922D03*
D15*
X255931807Y-104299854D03*
D17*
X257155066Y-101504977D03*
X257002958Y-108071145D03*
X262372774Y-109155155D03*
X262967529Y-97900899D03*
D15*
X275122526Y-103373744D03*
X285955412Y-101463614D03*
D16*
X285541792Y-101536546D03*
D14*
X280538969Y-102418679D03*
D16*
X275536146Y-103300812D03*
D17*
X276193677Y-107145035D03*
X276345785Y-100578867D03*
X281563493Y-108229045D03*
X282158248Y-96974789D03*
D15*
X247184691Y-100989724D03*
X236351805Y-102899854D03*
D14*
X241768248Y-101944789D03*
D16*
X236765425Y-102826922D03*
X246771071Y-101062656D03*
D17*
X237575064Y-100104977D03*
X237422956Y-106671145D03*
X243387527Y-96500899D03*
X242792772Y-107755155D03*
D10*
X88147385Y-46297715D03*
D11*
X86824186Y-53801950D03*
D12*
X259217386Y-46077717D03*
D13*
X260540585Y-53581952D03*
D12*
X278495786Y-46385600D03*
D13*
X279818985Y-53889835D03*
D12*
X226317384Y-46517714D03*
D13*
X227640583Y-54021949D03*
D16*
X57190206Y-105079848D03*
D15*
X46770940Y-103242650D03*
D14*
X52187383Y-104197715D03*
D16*
X47184560Y-103315582D03*
D15*
X57603826Y-105152780D03*
D17*
X46487636Y-107152860D03*
X48876332Y-101034704D03*
X51162859Y-110008081D03*
X55570927Y-99635958D03*
D14*
X197598248Y-71084787D03*
D15*
X203014691Y-70129722D03*
D16*
X192595425Y-71966920D03*
X202601071Y-70202654D03*
D15*
X192181805Y-72039852D03*
D17*
X193405064Y-69244975D03*
X193252956Y-75811143D03*
X199217527Y-65640897D03*
X198622772Y-76895153D03*
D12*
X220307385Y-46977717D03*
D13*
X221630584Y-54481952D03*
D12*
X184047389Y-57087718D03*
D13*
X185370588Y-64591953D03*
D12*
X213577389Y-48187714D03*
D13*
X214900588Y-55691949D03*
D10*
X94027385Y-47097715D03*
D11*
X92704186Y-54601950D03*
D15*
X184614693Y-75679724D03*
D14*
X179198250Y-76634789D03*
D16*
X184201073Y-75752656D03*
D15*
X173781807Y-77589854D03*
D16*
X174195427Y-77516922D03*
D17*
X174852958Y-81361145D03*
X175005066Y-74794977D03*
X180817529Y-71190899D03*
X180222774Y-82445155D03*
D15*
X110457394Y-70934406D03*
X121290280Y-72844536D03*
D16*
X120876660Y-72771604D03*
X110871014Y-71007338D03*
D14*
X115873837Y-71889471D03*
D17*
X112562786Y-68726460D03*
X110174090Y-74844616D03*
X119257381Y-67327714D03*
X114849313Y-77699837D03*
D10*
X35638986Y-46355601D03*
D11*
X34315787Y-53859836D03*
D16*
X227561075Y-101972656D03*
D15*
X217141809Y-103809854D03*
D16*
X217555429Y-103736922D03*
D15*
X227974695Y-101899724D03*
D14*
X222558252Y-102854789D03*
D17*
X218365068Y-101014977D03*
X218212960Y-107581145D03*
X223582776Y-108665155D03*
X224177531Y-97410899D03*
D12*
X265397388Y-46367715D03*
D13*
X266720587Y-53871950D03*
D10*
X125147386Y-55387717D03*
D11*
X123824187Y-62891952D03*
D14*
X39657385Y-65707715D03*
D16*
X44660208Y-66589848D03*
X34654562Y-64825582D03*
D15*
X45073828Y-66662780D03*
X34240942Y-64752650D03*
D17*
X36346334Y-62544704D03*
X33957638Y-68662860D03*
X38632861Y-71518081D03*
X43040929Y-61145958D03*
D15*
X50110943Y-84472650D03*
D16*
X50524563Y-84545582D03*
D15*
X60943829Y-86382780D03*
D16*
X60530209Y-86309848D03*
D14*
X55527386Y-85427715D03*
D17*
X52216335Y-82264704D03*
X49827639Y-88382860D03*
X54502862Y-91238081D03*
X58910930Y-80865958D03*
D10*
X129987385Y-57077713D03*
D11*
X128664186Y-64581948D03*
D10*
X55617386Y-46047714D03*
D11*
X54294187Y-53551949D03*
D10*
X68687386Y-45607716D03*
D11*
X67364187Y-53111951D03*
D10*
X106317389Y-49627715D03*
D11*
X104994190Y-57131950D03*
D10*
X134537386Y-58487717D03*
D11*
X133214187Y-65991952D03*
D16*
X104271016Y-108557340D03*
D15*
X103857396Y-108484408D03*
D14*
X109273839Y-109439473D03*
D16*
X114276662Y-110321606D03*
D15*
X114690282Y-110394538D03*
D17*
X105962788Y-106276462D03*
X103574092Y-112394618D03*
X112657383Y-104877716D03*
X108249315Y-115249839D03*
D14*
X167257736Y-118323755D03*
D15*
X161841293Y-119278820D03*
D16*
X172260559Y-117441622D03*
D15*
X172674179Y-117368690D03*
D16*
X162254913Y-119205888D03*
D17*
X162912444Y-123050111D03*
X163064552Y-116483943D03*
X168877015Y-112879865D03*
X168282260Y-124134121D03*
D10*
X43277386Y-46267716D03*
D11*
X41954187Y-53771951D03*
D15*
X83823831Y-66162781D03*
X72990945Y-64252651D03*
D16*
X83410211Y-66089849D03*
D14*
X78407388Y-65207716D03*
D16*
X73404565Y-64325583D03*
D17*
X72707641Y-68162861D03*
X75096337Y-62044705D03*
X77382864Y-71018082D03*
X81790932Y-60645959D03*
D21*
X165297388Y-134937715D03*
D22*
X165297388Y-142557715D03*
D15*
X96353828Y-104752780D03*
X85520942Y-102842650D03*
D16*
X85934562Y-102915582D03*
D14*
X90937385Y-103797715D03*
D16*
X95940208Y-104679848D03*
D17*
X87626334Y-100634704D03*
X85237638Y-106752860D03*
X89912861Y-109608081D03*
X94320929Y-99235958D03*
D15*
X41753829Y-85402781D03*
D16*
X31334563Y-83565583D03*
X41340209Y-85329849D03*
D14*
X36337386Y-84447716D03*
D15*
X30920943Y-83492651D03*
D17*
X33026335Y-81284705D03*
X30637639Y-87402861D03*
X39720930Y-79885959D03*
X35312862Y-90258082D03*
D12*
X179257386Y-58537715D03*
D13*
X180580585Y-66041950D03*
D16*
X99220209Y-85869848D03*
D15*
X99633829Y-85942780D03*
D16*
X89214563Y-84105582D03*
D14*
X94217386Y-84987715D03*
D15*
X88800943Y-84032650D03*
D17*
X90906335Y-81824704D03*
X88517639Y-87942860D03*
X97600930Y-80425958D03*
X93192862Y-90798081D03*
D14*
X130903840Y-96289473D03*
D16*
X125901017Y-95407340D03*
X135906663Y-97171606D03*
D15*
X125487397Y-95334408D03*
X136320283Y-97244538D03*
D17*
X127592789Y-93126462D03*
X125204093Y-99244618D03*
X134287384Y-91727716D03*
X129879316Y-102099839D03*
D10*
X111837385Y-51227714D03*
D11*
X110514186Y-58731949D03*
D14*
X105937387Y-128197714D03*
D15*
X111353830Y-129152779D03*
D16*
X110940210Y-129079847D03*
D15*
X100520944Y-127242649D03*
D16*
X100934564Y-127315581D03*
D17*
X102626336Y-125034703D03*
X100237640Y-131152859D03*
X104912863Y-134008080D03*
X109320931Y-123635957D03*
D12*
X232307386Y-46297718D03*
D13*
X233630585Y-53801953D03*
D12*
X271817383Y-46217715D03*
D13*
X273140582Y-53721950D03*
D14*
X75067383Y-84027714D03*
D15*
X80483826Y-84982779D03*
D16*
X70064560Y-83145581D03*
X80070206Y-84909847D03*
D15*
X69650940Y-83072649D03*
D17*
X69367636Y-86982859D03*
X71756332Y-80864703D03*
X78450927Y-79465957D03*
X74042859Y-89838080D03*
D16*
X76750207Y-103699848D03*
X66744561Y-101935582D03*
D15*
X77163827Y-103772780D03*
D14*
X71747384Y-102817715D03*
D15*
X66330941Y-101862650D03*
D17*
X66047637Y-105772860D03*
X68436333Y-99654704D03*
X75130928Y-98255958D03*
X70722860Y-108628081D03*
D10*
X100238984Y-48035600D03*
D11*
X98915785Y-55539835D03*
D15*
X177131807Y-96319853D03*
D16*
X177545427Y-96246921D03*
D14*
X182548250Y-95364788D03*
D16*
X187551073Y-94482655D03*
D15*
X187964693Y-94409723D03*
D17*
X178355066Y-93524976D03*
X178202958Y-100091144D03*
X184167529Y-89920898D03*
X183572774Y-101175154D03*
D15*
X128800942Y-76542651D03*
X139633828Y-78452781D03*
D14*
X134217385Y-77497716D03*
D16*
X129214562Y-76615583D03*
X139220208Y-78379849D03*
D17*
X130906334Y-74334705D03*
X128517638Y-80452861D03*
X137600929Y-72935959D03*
X133192861Y-83308082D03*
D10*
X120787387Y-53837716D03*
D11*
X119464188Y-61341951D03*
D12*
X193337385Y-54185599D03*
D13*
X194660584Y-61689834D03*
D15*
X252621807Y-85499851D03*
D16*
X253035427Y-85426919D03*
X263041073Y-83662653D03*
D15*
X263454693Y-83589721D03*
D14*
X258038250Y-84544786D03*
D17*
X253692958Y-89271142D03*
X253845066Y-82704974D03*
X259062774Y-90355152D03*
X259657529Y-79100896D03*
D16*
X278931072Y-63942653D03*
X268925426Y-65706919D03*
D15*
X279344692Y-63869721D03*
D14*
X273928249Y-64824786D03*
D15*
X268511806Y-65779851D03*
D17*
X269582957Y-69551142D03*
X269735065Y-62984974D03*
X275547528Y-59380896D03*
X274952773Y-70635152D03*
D10*
X81607388Y-45897714D03*
D11*
X80284189Y-53401949D03*
D12*
X239265784Y-46035601D03*
D13*
X240588983Y-53539836D03*
D12*
X169655788Y-60725595D03*
D13*
X170978987Y-68229830D03*
D12*
X174247385Y-59487716D03*
D13*
X175570584Y-66991951D03*
D15*
X209664691Y-107609723D03*
D16*
X209251071Y-107682655D03*
D14*
X204248248Y-108564788D03*
D16*
X199245425Y-109446921D03*
D15*
X198831805Y-109519853D03*
D17*
X200055064Y-106724976D03*
X199902956Y-113291144D03*
X205867527Y-103120898D03*
X205272772Y-114375154D03*
D15*
X243864691Y-82239723D03*
D16*
X243451071Y-82312655D03*
X233445425Y-84076921D03*
D15*
X233031805Y-84149853D03*
D14*
X238448248Y-83194788D03*
D17*
X234102956Y-87921144D03*
X234255064Y-81354976D03*
X240067527Y-77750898D03*
X239472772Y-89005154D03*
D12*
X252827386Y-45937716D03*
D13*
X254150585Y-53441951D03*
D23*
X159217387Y-68917716D03*
D24*
X156677387Y-68917716D03*
X154137387Y-68917716D03*
M02*
