G04 #@! TF.GenerationSoftware,KiCad,Pcbnew,(6.0.6-69-g6d26e8e3e8)*
G04 #@! TF.CreationDate,2023-03-01T00:35:34-07:00*
G04 #@! TF.ProjectId,AirShip-rounded,41697253-6869-4702-9d72-6f756e646564,rev?*
G04 #@! TF.SameCoordinates,Original*
G04 #@! TF.FileFunction,Legend,Top*
G04 #@! TF.FilePolarity,Positive*
%FSLAX46Y46*%
G04 Gerber Fmt 4.6, Leading zero omitted, Abs format (unit mm)*
G04 Created by KiCad (PCBNEW (6.0.6-69-g6d26e8e3e8)) date 2023-03-01 00:35:34*
%MOMM*%
%LPD*%
G01*
G04 APERTURE LIST*
G04 Aperture macros list*
%AMHorizOval*
0 Thick line with rounded ends*
0 $1 width*
0 $2 $3 position (X,Y) of the first rounded end (center of the circle)*
0 $4 $5 position (X,Y) of the second rounded end (center of the circle)*
0 Add line between two ends*
20,1,$1,$2,$3,$4,$5,0*
0 Add two circle primitives to create the rounded ends*
1,1,$1,$2,$3*
1,1,$1,$4,$5*%
%AMRotRect*
0 Rectangle, with rotation*
0 The origin of the aperture is its center*
0 $1 length*
0 $2 width*
0 $3 Rotation angle, in degrees counterclockwise*
0 Add horizontal line*
21,1,$1,$2,0,0,$3*%
G04 Aperture macros list end*
%ADD10C,0.150000*%
%ADD11C,0.120000*%
%ADD12C,0.381000*%
%ADD13R,1.752600X1.752600*%
%ADD14C,1.752600*%
%ADD15RotRect,1.600000X1.600000X260.000000*%
%ADD16HorizOval,1.600000X0.000000X0.000000X0.000000X0.000000X0*%
%ADD17RotRect,1.600000X1.600000X280.000000*%
%ADD18HorizOval,1.600000X0.000000X0.000000X0.000000X0.000000X0*%
%ADD19C,4.000000*%
%ADD20C,2.100000*%
%ADD21C,1.900000*%
%ADD22C,2.200000*%
%ADD23R,3.250000X2.000000*%
%ADD24R,1.600000X1.600000*%
%ADD25O,1.600000X1.600000*%
%ADD26R,1.700000X1.700000*%
%ADD27O,1.700000X1.700000*%
G04 APERTURE END LIST*
D10*
X231470002Y-58601945D02*
X231296354Y-57617138D01*
X231748658Y-58262689D01*
X231952892Y-57501372D01*
X232126541Y-58486180D01*
X232328057Y-57435220D02*
X233158244Y-58304263D01*
X232984596Y-57319455D02*
X232501706Y-58420028D01*
X234049261Y-58147152D02*
X233486513Y-58246380D01*
X233767887Y-58196766D02*
X233594239Y-57211958D01*
X233525254Y-57369183D01*
X233448001Y-57479512D01*
X233362479Y-57542946D01*
X234485255Y-57054848D02*
X234579046Y-57038310D01*
X234681107Y-57068668D01*
X234736271Y-57107295D01*
X234799705Y-57192817D01*
X234879676Y-57372130D01*
X234921021Y-57606608D01*
X234907201Y-57802460D01*
X234876844Y-57904520D01*
X234838217Y-57959685D01*
X234752695Y-58023118D01*
X234658903Y-58039656D01*
X234556843Y-58009298D01*
X234501679Y-57970672D01*
X234438245Y-57885149D01*
X234358274Y-57705836D01*
X234316929Y-57471358D01*
X234330749Y-57275507D01*
X234361106Y-57173446D01*
X234399733Y-57118282D01*
X234485255Y-57054848D01*
X255158417Y-78081459D02*
X254984769Y-77096652D01*
X255437073Y-77742203D01*
X255641307Y-76980886D01*
X255814956Y-77965694D01*
X256016472Y-76914734D02*
X256846659Y-77783777D01*
X256673011Y-76798969D02*
X256190121Y-77899542D01*
X257017818Y-76834877D02*
X257056445Y-76779713D01*
X257141967Y-76716279D01*
X257376445Y-76674935D01*
X257478505Y-76705292D01*
X257533670Y-76743919D01*
X257597103Y-76829441D01*
X257613641Y-76923232D01*
X257591552Y-77072188D01*
X257128033Y-77734163D01*
X257737676Y-77626666D01*
X257892297Y-76583976D02*
X258501940Y-76476480D01*
X258239822Y-76909527D01*
X258380509Y-76884720D01*
X258482569Y-76915078D01*
X258537734Y-76953705D01*
X258601167Y-77039227D01*
X258642512Y-77273705D01*
X258612154Y-77375765D01*
X258573528Y-77430930D01*
X258488005Y-77494363D01*
X258206632Y-77543977D01*
X258104571Y-77513619D01*
X258049407Y-77474993D01*
X235568417Y-76731459D02*
X235394769Y-75746652D01*
X235847073Y-76392203D01*
X236051307Y-75630886D01*
X236224956Y-76615694D01*
X236426472Y-75564734D02*
X237256659Y-76433777D01*
X237083011Y-75448969D02*
X236600121Y-76549542D01*
X237427818Y-75484877D02*
X237466445Y-75429713D01*
X237551967Y-75366279D01*
X237786445Y-75324935D01*
X237888505Y-75355292D01*
X237943670Y-75393919D01*
X238007103Y-75479441D01*
X238023641Y-75573232D01*
X238001552Y-75722188D01*
X237538033Y-76384163D01*
X238147676Y-76276666D01*
X238365730Y-75319498D02*
X238404357Y-75264334D01*
X238489879Y-75200900D01*
X238724357Y-75159555D01*
X238826417Y-75189913D01*
X238881582Y-75228540D01*
X238945015Y-75314062D01*
X238961553Y-75407853D01*
X238939465Y-75556809D01*
X238475945Y-76218784D01*
X239085588Y-76111287D01*
X271048417Y-58361460D02*
X270874769Y-57376653D01*
X271327073Y-58022204D01*
X271531307Y-57260887D01*
X271704956Y-58245695D01*
X271906472Y-57194735D02*
X272736659Y-58063778D01*
X272563011Y-57078970D02*
X272080121Y-58179543D01*
X273627676Y-57906667D02*
X273064928Y-58005895D01*
X273346302Y-57956281D02*
X273172654Y-56971473D01*
X273103669Y-57128698D01*
X273026416Y-57239027D01*
X272940894Y-57302461D01*
X273845730Y-56949499D02*
X273884357Y-56894335D01*
X273969879Y-56830901D01*
X274204357Y-56789556D01*
X274306417Y-56819914D01*
X274361582Y-56858541D01*
X274425015Y-56944063D01*
X274441553Y-57037854D01*
X274419465Y-57186810D01*
X273955945Y-57848785D01*
X274565588Y-57741288D01*
X70165919Y-94799556D02*
X70339567Y-93814748D01*
X70543802Y-94576065D01*
X70996106Y-93930514D01*
X70822457Y-94915322D01*
X71371270Y-93996666D02*
X71854161Y-95097239D01*
X72027809Y-94112431D02*
X71197622Y-94981473D01*
X72339540Y-94264105D02*
X72394705Y-94225478D01*
X72496765Y-94195121D01*
X72731243Y-94236465D01*
X72816765Y-94299899D01*
X72855392Y-94355064D01*
X72885750Y-94457124D01*
X72869212Y-94550915D01*
X72797509Y-94683333D01*
X72135534Y-95146853D01*
X72745177Y-95254349D01*
X73247095Y-94327424D02*
X73903633Y-94443189D01*
X73307925Y-95353577D01*
X179668417Y-88901459D02*
X179494769Y-87916652D01*
X179947073Y-88562203D01*
X180151307Y-87800886D01*
X180324956Y-88785694D01*
X180526472Y-87734734D02*
X181356659Y-88603777D01*
X181183011Y-87618969D02*
X180700121Y-88719542D01*
X182247676Y-88446666D02*
X181684928Y-88545894D01*
X181966302Y-88496280D02*
X181792654Y-87511472D01*
X181723669Y-87668697D01*
X181646416Y-87779026D01*
X181560894Y-87842460D01*
X182716632Y-88363977D02*
X182904214Y-88330901D01*
X182989736Y-88267467D01*
X183028363Y-88212303D01*
X183097347Y-88055078D01*
X183111167Y-87859227D01*
X183045015Y-87484062D01*
X182981582Y-87398540D01*
X182926417Y-87359913D01*
X182824357Y-87329555D01*
X182636775Y-87362631D01*
X182551252Y-87426065D01*
X182512626Y-87481229D01*
X182482268Y-87583289D01*
X182523613Y-87817767D01*
X182587046Y-87903290D01*
X182642211Y-87941916D01*
X182744271Y-87972274D01*
X182931854Y-87939198D01*
X183017376Y-87875765D01*
X183056002Y-87820600D01*
X183086360Y-87718540D01*
X201368417Y-102101460D02*
X201194769Y-101116653D01*
X201647073Y-101762204D01*
X201851307Y-101000887D01*
X202024956Y-101985695D01*
X202226472Y-100934735D02*
X203056659Y-101803778D01*
X202883011Y-100818970D02*
X202400121Y-101919543D01*
X203164384Y-100769356D02*
X203774027Y-100661860D01*
X203511910Y-101094907D01*
X203652597Y-101070100D01*
X203754657Y-101100458D01*
X203809821Y-101139085D01*
X203873255Y-101224607D01*
X203914600Y-101459085D01*
X203884242Y-101561145D01*
X203845615Y-101616310D01*
X203760093Y-101679743D01*
X203478719Y-101729357D01*
X203376659Y-101698999D01*
X203321495Y-101660373D01*
X204676031Y-100841288D02*
X204791796Y-101497826D01*
X204375401Y-100507468D02*
X204264958Y-101252247D01*
X204874601Y-101144750D01*
X73485918Y-76009556D02*
X73659566Y-75024748D01*
X73863801Y-75786065D01*
X74316105Y-75140514D01*
X74142456Y-76125322D01*
X74691269Y-75206666D02*
X75174160Y-76307239D01*
X75347808Y-75322431D02*
X74517621Y-76191473D01*
X76065176Y-76464349D02*
X75502429Y-76365122D01*
X75783803Y-76414735D02*
X75957451Y-75429928D01*
X75838853Y-75554076D01*
X75728524Y-75631330D01*
X75626463Y-75661687D01*
X77129841Y-75636652D02*
X76660885Y-75553962D01*
X76531300Y-76014649D01*
X76586464Y-75976022D01*
X76688524Y-75945665D01*
X76923003Y-75987010D01*
X77008525Y-76050443D01*
X77047151Y-76105608D01*
X77077509Y-76207668D01*
X77036164Y-76442146D01*
X76972731Y-76527668D01*
X76917566Y-76566295D01*
X76815506Y-76596652D01*
X76581028Y-76555308D01*
X76495506Y-76491874D01*
X76456879Y-76436710D01*
X133104874Y-69562246D02*
X133278522Y-68577438D01*
X133482757Y-69338755D01*
X133935061Y-68693204D01*
X133761412Y-69678011D01*
X134310226Y-68759355D02*
X134793116Y-69859928D01*
X134966764Y-68875121D02*
X134136577Y-69744163D01*
X135763989Y-69015693D02*
X135576407Y-68982617D01*
X135474347Y-69012975D01*
X135419182Y-69051601D01*
X135300584Y-69175750D01*
X135220613Y-69355064D01*
X135154461Y-69730229D01*
X135184819Y-69832289D01*
X135223445Y-69887453D01*
X135308968Y-69950887D01*
X135496550Y-69983963D01*
X135598610Y-69953605D01*
X135653775Y-69914978D01*
X135717208Y-69829456D01*
X135758553Y-69594978D01*
X135728195Y-69492918D01*
X135689569Y-69437753D01*
X135604046Y-69374320D01*
X135416464Y-69341244D01*
X135314404Y-69371602D01*
X135259239Y-69410228D01*
X135195806Y-69495751D01*
X107692374Y-101421313D02*
X107866022Y-100436505D01*
X108070257Y-101197822D01*
X108522561Y-100552271D01*
X108348912Y-101537079D01*
X108897725Y-100618423D02*
X109380616Y-101718996D01*
X109554264Y-100734188D02*
X108724077Y-101603230D01*
X109865995Y-100885862D02*
X109921160Y-100847235D01*
X110023220Y-100816878D01*
X110257698Y-100858222D01*
X110343220Y-100921656D01*
X110381847Y-100976821D01*
X110412205Y-101078881D01*
X110395667Y-101172672D01*
X110323964Y-101305090D01*
X109661989Y-101768610D01*
X110271632Y-101876106D01*
X110740588Y-101958796D02*
X110928171Y-101991872D01*
X111030231Y-101961514D01*
X111085396Y-101922887D01*
X111203994Y-101798738D01*
X111283965Y-101619425D01*
X111350117Y-101244260D01*
X111319759Y-101142200D01*
X111281132Y-101087035D01*
X111195610Y-101023602D01*
X111008028Y-100990526D01*
X110905968Y-101020884D01*
X110850803Y-101059510D01*
X110787369Y-101145032D01*
X110746025Y-101379510D01*
X110776382Y-101481571D01*
X110815009Y-101536735D01*
X110900531Y-101600169D01*
X111088114Y-101633245D01*
X111190174Y-101602887D01*
X111245338Y-101564260D01*
X111308772Y-101478738D01*
X34755918Y-76429556D02*
X34929566Y-75444748D01*
X35133801Y-76206065D01*
X35586105Y-75560514D01*
X35412456Y-76545322D01*
X35961269Y-75626666D02*
X36444160Y-76727239D01*
X36617808Y-75742431D02*
X35787621Y-76611473D01*
X37335176Y-76884349D02*
X36772429Y-76785122D01*
X37053803Y-76834735D02*
X37227451Y-75849928D01*
X37108853Y-75974076D01*
X36998524Y-76051330D01*
X36896463Y-76081687D01*
X37837094Y-75957424D02*
X38446737Y-76064921D01*
X38052316Y-76382203D01*
X38193003Y-76407010D01*
X38278525Y-76470443D01*
X38317151Y-76525608D01*
X38347509Y-76627668D01*
X38306164Y-76862146D01*
X38242731Y-76947668D01*
X38187566Y-76986295D01*
X38085506Y-77016652D01*
X37804132Y-76967039D01*
X37718610Y-76903605D01*
X37679983Y-76848441D01*
X77294875Y-57272246D02*
X77468523Y-56287438D01*
X77672758Y-57048755D01*
X78125062Y-56403204D01*
X77951413Y-57388011D01*
X78500227Y-56469355D02*
X78983117Y-57569928D01*
X79156765Y-56585121D02*
X78326578Y-57454163D01*
X79438139Y-56634734D02*
X80047782Y-56742231D01*
X79653361Y-57059513D01*
X79794047Y-57084320D01*
X79879570Y-57147753D01*
X79918196Y-57202918D01*
X79948554Y-57304978D01*
X79907209Y-57539456D01*
X79843776Y-57624978D01*
X79788611Y-57663605D01*
X79686551Y-57693963D01*
X79405177Y-57644349D01*
X79319655Y-57580916D01*
X79281028Y-57525751D01*
X92635918Y-76969556D02*
X92809566Y-75984748D01*
X93013801Y-76746065D01*
X93466105Y-76100514D01*
X93292456Y-77085322D01*
X93841269Y-76166666D02*
X94324160Y-77267239D01*
X94497808Y-76282431D02*
X93667621Y-77151473D01*
X95215176Y-77424349D02*
X94652429Y-77325122D01*
X94933803Y-77374735D02*
X95107451Y-76389928D01*
X94988853Y-76514076D01*
X94878524Y-76591330D01*
X94776463Y-76621687D01*
X96232945Y-76588383D02*
X96045363Y-76555307D01*
X95943303Y-76585664D01*
X95888138Y-76624291D01*
X95769540Y-76748440D01*
X95689569Y-76927753D01*
X95623417Y-77302918D01*
X95653775Y-77404978D01*
X95692401Y-77460143D01*
X95777924Y-77523577D01*
X95965506Y-77556652D01*
X96067566Y-77526295D01*
X96122731Y-77487668D01*
X96186164Y-77402146D01*
X96227509Y-77167668D01*
X96197151Y-77065608D01*
X96158525Y-77010443D01*
X96073003Y-76947010D01*
X95885420Y-76913934D01*
X95783360Y-76944291D01*
X95728195Y-76982918D01*
X95664762Y-77068440D01*
X104355919Y-120179556D02*
X104529567Y-119194748D01*
X104733802Y-119956065D01*
X105186106Y-119310514D01*
X105012457Y-120295322D01*
X105561270Y-119376666D02*
X106044161Y-120477239D01*
X106217809Y-119492431D02*
X105387622Y-120361473D01*
X106499183Y-119542045D02*
X107108825Y-119649541D01*
X106714405Y-119966823D01*
X106855091Y-119991630D01*
X106940614Y-120055064D01*
X106979240Y-120110228D01*
X107009598Y-120212289D01*
X106968253Y-120446767D01*
X106904820Y-120532289D01*
X106849655Y-120570916D01*
X106747595Y-120601273D01*
X106466221Y-120551659D01*
X106380699Y-120488226D01*
X106342072Y-120433061D01*
X107404133Y-120717039D02*
X107591716Y-120750115D01*
X107693776Y-120719757D01*
X107748941Y-120681130D01*
X107867539Y-120556981D01*
X107947510Y-120377668D01*
X108013662Y-120002503D01*
X107983304Y-119900443D01*
X107944677Y-119845278D01*
X107859155Y-119781845D01*
X107671573Y-119748769D01*
X107569513Y-119779127D01*
X107514348Y-119817753D01*
X107450914Y-119903275D01*
X107409570Y-120137753D01*
X107439927Y-120239814D01*
X107478554Y-120294978D01*
X107564076Y-120358412D01*
X107751659Y-120391488D01*
X107853719Y-120361130D01*
X107908883Y-120322503D01*
X107972317Y-120236981D01*
X164228417Y-110951460D02*
X164054769Y-109966653D01*
X164507073Y-110612204D01*
X164711307Y-109850887D01*
X164884956Y-110835695D01*
X165086472Y-109784735D02*
X165916659Y-110653778D01*
X165743011Y-109668970D02*
X165260121Y-110769543D01*
X166024384Y-109619356D02*
X166634027Y-109511860D01*
X166371910Y-109944907D01*
X166512597Y-109920100D01*
X166614657Y-109950458D01*
X166669821Y-109989085D01*
X166733255Y-110074607D01*
X166774600Y-110309085D01*
X166744242Y-110411145D01*
X166705615Y-110466310D01*
X166620093Y-110529743D01*
X166338719Y-110579357D01*
X166236659Y-110548999D01*
X166181495Y-110510373D01*
X167025730Y-109539499D02*
X167064357Y-109484335D01*
X167149879Y-109420901D01*
X167384357Y-109379556D01*
X167486417Y-109409914D01*
X167541582Y-109448541D01*
X167605015Y-109534063D01*
X167621553Y-109627854D01*
X167599465Y-109776810D01*
X167135945Y-110438785D01*
X167745588Y-110331288D01*
X89355918Y-95779556D02*
X89529566Y-94794748D01*
X89733801Y-95556065D01*
X90186105Y-94910514D01*
X90012456Y-95895322D01*
X90561269Y-94976666D02*
X91044160Y-96077239D01*
X91217808Y-95092431D02*
X90387621Y-95961473D01*
X91529539Y-95244105D02*
X91584704Y-95205478D01*
X91686764Y-95175121D01*
X91921242Y-95216465D01*
X92006764Y-95279899D01*
X92045391Y-95335064D01*
X92075749Y-95437124D01*
X92059211Y-95530915D01*
X91987508Y-95663333D01*
X91325533Y-96126853D01*
X91935176Y-96234349D01*
X92597151Y-95770829D02*
X92511629Y-95707396D01*
X92473002Y-95652231D01*
X92442645Y-95550171D01*
X92450913Y-95503275D01*
X92514347Y-95417753D01*
X92569512Y-95379127D01*
X92671572Y-95348769D01*
X92859154Y-95381845D01*
X92944676Y-95445278D01*
X92983303Y-95500443D01*
X93013661Y-95602503D01*
X93005392Y-95649399D01*
X92941958Y-95734921D01*
X92886794Y-95773547D01*
X92784734Y-95803905D01*
X92597151Y-95770829D01*
X92495091Y-95801187D01*
X92439926Y-95839814D01*
X92376493Y-95925336D01*
X92343417Y-96112918D01*
X92373775Y-96214978D01*
X92412401Y-96270143D01*
X92497924Y-96333577D01*
X92685506Y-96366652D01*
X92787566Y-96336295D01*
X92842731Y-96297668D01*
X92906164Y-96212146D01*
X92939240Y-96024563D01*
X92908882Y-95922503D01*
X92870256Y-95867339D01*
X92784734Y-95803905D01*
X129322374Y-88271313D02*
X129496022Y-87286505D01*
X129700257Y-88047822D01*
X130152561Y-87402271D01*
X129978912Y-88387079D01*
X130527725Y-87468423D02*
X131010616Y-88568996D01*
X131184264Y-87584188D02*
X130354077Y-88453230D01*
X131901632Y-88726106D02*
X131338885Y-88626879D01*
X131620259Y-88676492D02*
X131793907Y-87691685D01*
X131675309Y-87815833D01*
X131564980Y-87893087D01*
X131462919Y-87923444D01*
X132563607Y-88262586D02*
X132478085Y-88199153D01*
X132439458Y-88143988D01*
X132409101Y-88041928D01*
X132417369Y-87995032D01*
X132480803Y-87909510D01*
X132535968Y-87870884D01*
X132638028Y-87840526D01*
X132825610Y-87873602D01*
X132911132Y-87937035D01*
X132949759Y-87992200D01*
X132980117Y-88094260D01*
X132971848Y-88141156D01*
X132908414Y-88226678D01*
X132853250Y-88265304D01*
X132751190Y-88295662D01*
X132563607Y-88262586D01*
X132461547Y-88292944D01*
X132406382Y-88331571D01*
X132342949Y-88417093D01*
X132309873Y-88604675D01*
X132340231Y-88706735D01*
X132378857Y-88761900D01*
X132464380Y-88825334D01*
X132651962Y-88858409D01*
X132754022Y-88828052D01*
X132809187Y-88789425D01*
X132872620Y-88703903D01*
X132905696Y-88516320D01*
X132875338Y-88414260D01*
X132836712Y-88359096D01*
X132751190Y-88295662D01*
X53945918Y-77409556D02*
X54119566Y-76424748D01*
X54323801Y-77186065D01*
X54776105Y-76540514D01*
X54602456Y-77525322D01*
X55151269Y-76606666D02*
X55634160Y-77707239D01*
X55807808Y-76722431D02*
X54977621Y-77591473D01*
X56525176Y-77864349D02*
X55962429Y-77765122D01*
X56243803Y-77814735D02*
X56417451Y-76829928D01*
X56298853Y-76954076D01*
X56188524Y-77031330D01*
X56086463Y-77061687D01*
X57485063Y-77356652D02*
X57369297Y-78013190D01*
X57316736Y-76940142D02*
X56958224Y-77602232D01*
X57567867Y-77709728D01*
X195187373Y-64538770D02*
X195013725Y-63553962D01*
X195466029Y-64199513D01*
X195670264Y-63438197D01*
X195843912Y-64423004D01*
X196045428Y-63372045D02*
X196875615Y-64241087D01*
X196701967Y-63256279D02*
X196219077Y-64356853D01*
X197292239Y-63587381D02*
X197190179Y-63557024D01*
X197135015Y-63518397D01*
X197071581Y-63432875D01*
X197063312Y-63385979D01*
X197093670Y-63283919D01*
X197132296Y-63228754D01*
X197217819Y-63165321D01*
X197405401Y-63132245D01*
X197507461Y-63162603D01*
X197562626Y-63201229D01*
X197626059Y-63286752D01*
X197634328Y-63333647D01*
X197603971Y-63435707D01*
X197565344Y-63490872D01*
X197479822Y-63554305D01*
X197292239Y-63587381D01*
X197206717Y-63650815D01*
X197168090Y-63705979D01*
X197137733Y-63808040D01*
X197170809Y-63995622D01*
X197234242Y-64081144D01*
X197289407Y-64119771D01*
X197391467Y-64150129D01*
X197579049Y-64117053D01*
X197664571Y-64053619D01*
X197703198Y-63998455D01*
X197733556Y-63896394D01*
X197700480Y-63708812D01*
X197637046Y-63623290D01*
X197581882Y-63584663D01*
X197479822Y-63554305D01*
X50605918Y-96179556D02*
X50779566Y-95194748D01*
X50983801Y-95956065D01*
X51436105Y-95310514D01*
X51262456Y-96295322D01*
X51811269Y-95376666D02*
X52294160Y-96477239D01*
X52467808Y-95492431D02*
X51637621Y-96361473D01*
X52779539Y-95644105D02*
X52834704Y-95605478D01*
X52936764Y-95575121D01*
X53171242Y-95616465D01*
X53256764Y-95679899D01*
X53295391Y-95735064D01*
X53325749Y-95837124D01*
X53309211Y-95930915D01*
X53237508Y-96063333D01*
X52575533Y-96526853D01*
X53185176Y-96634349D01*
X54202945Y-95798383D02*
X54015363Y-95765307D01*
X53913303Y-95795664D01*
X53858138Y-95834291D01*
X53739540Y-95958440D01*
X53659569Y-96137753D01*
X53593417Y-96512918D01*
X53623775Y-96614978D01*
X53662401Y-96670143D01*
X53747924Y-96733577D01*
X53935506Y-96766652D01*
X54037566Y-96736295D01*
X54092731Y-96697668D01*
X54156164Y-96612146D01*
X54197509Y-96377668D01*
X54167151Y-96275608D01*
X54128525Y-96220443D01*
X54043003Y-96157010D01*
X53855420Y-96123934D01*
X53753360Y-96154291D01*
X53698195Y-96192918D01*
X53634762Y-96278440D01*
X176787373Y-70088770D02*
X176613725Y-69103962D01*
X177066029Y-69749513D01*
X177270264Y-68988197D01*
X177443912Y-69973004D01*
X177645428Y-68922045D02*
X178475615Y-69791087D01*
X178301967Y-68806279D02*
X177819077Y-69906853D01*
X178583341Y-68756666D02*
X179239879Y-68640900D01*
X178991467Y-69700129D01*
X114761330Y-63954003D02*
X114934978Y-62969195D01*
X115139213Y-63730512D01*
X115591517Y-63084961D01*
X115417868Y-64069768D01*
X115966682Y-63151112D02*
X116449572Y-64251685D01*
X116623220Y-63266878D02*
X115793033Y-64135920D01*
X117467341Y-63415719D02*
X116998385Y-63333029D01*
X116868800Y-63793716D01*
X116923964Y-63755090D01*
X117026024Y-63724732D01*
X117260502Y-63766077D01*
X117346025Y-63829510D01*
X117384651Y-63884675D01*
X117415009Y-63986735D01*
X117373664Y-64221213D01*
X117310231Y-64306735D01*
X117255066Y-64345362D01*
X117153006Y-64375720D01*
X116918528Y-64334375D01*
X116833006Y-64270941D01*
X116794379Y-64215777D01*
X38544874Y-57772246D02*
X38718522Y-56787438D01*
X38922757Y-57548755D01*
X39375061Y-56903204D01*
X39201412Y-57888011D01*
X39750226Y-56969355D02*
X40233116Y-58069928D01*
X40406764Y-57085121D02*
X39576577Y-57954163D01*
X41124132Y-58227039D02*
X40561385Y-58127811D01*
X40842759Y-58177425D02*
X41016407Y-57192617D01*
X40897809Y-57316766D01*
X40787480Y-57394019D01*
X40685420Y-57424377D01*
X219678417Y-96391460D02*
X219504769Y-95406653D01*
X219957073Y-96052204D01*
X220161307Y-95290887D01*
X220334956Y-96275695D01*
X220536472Y-95224735D02*
X221366659Y-96093778D01*
X221193011Y-95108970D02*
X220710121Y-96209543D01*
X221474384Y-95059356D02*
X222084027Y-94951860D01*
X221821910Y-95384907D01*
X221962597Y-95360100D01*
X222064657Y-95390458D01*
X222119821Y-95429085D01*
X222183255Y-95514607D01*
X222224600Y-95749085D01*
X222194242Y-95851145D01*
X222155615Y-95906310D01*
X222070093Y-95969743D01*
X221788719Y-96019357D01*
X221686659Y-95988999D01*
X221631495Y-95950373D01*
X222975044Y-94794749D02*
X222506088Y-94877439D01*
X222541882Y-95354664D01*
X222580508Y-95299500D01*
X222666031Y-95236066D01*
X222900509Y-95194721D01*
X223002569Y-95225079D01*
X223057734Y-95263706D01*
X223121167Y-95349228D01*
X223162512Y-95583706D01*
X223132154Y-95685766D01*
X223093528Y-95740931D01*
X223008005Y-95804364D01*
X222773527Y-95845709D01*
X222671467Y-95815351D01*
X222616302Y-95776725D01*
X277659138Y-95955349D02*
X277485490Y-94970542D01*
X277937794Y-95616093D01*
X278142028Y-94854776D01*
X278315677Y-95839584D01*
X278517193Y-94788624D02*
X279347380Y-95657667D01*
X279173732Y-94672859D02*
X278690842Y-95773432D01*
X279455105Y-94623245D02*
X280064748Y-94515749D01*
X279802631Y-94948796D01*
X279943318Y-94923989D01*
X280045378Y-94954347D01*
X280100542Y-94992974D01*
X280163976Y-95078496D01*
X280205321Y-95312974D01*
X280174963Y-95415034D01*
X280136336Y-95470199D01*
X280050814Y-95533632D01*
X279769440Y-95583246D01*
X279667380Y-95552888D01*
X279612216Y-95514262D01*
X280701916Y-94838582D02*
X280599856Y-94808224D01*
X280544692Y-94769597D01*
X280481258Y-94684075D01*
X280472989Y-94637179D01*
X280503347Y-94535119D01*
X280541973Y-94479955D01*
X280627496Y-94416521D01*
X280815078Y-94383445D01*
X280917138Y-94413803D01*
X280972303Y-94452430D01*
X281035736Y-94537952D01*
X281044005Y-94584848D01*
X281013648Y-94686908D01*
X280975021Y-94742072D01*
X280889499Y-94805506D01*
X280701916Y-94838582D01*
X280616394Y-94902015D01*
X280577767Y-94957180D01*
X280547410Y-95059240D01*
X280580486Y-95246822D01*
X280643919Y-95332345D01*
X280699084Y-95370971D01*
X280801144Y-95401329D01*
X280988726Y-95368253D01*
X281074249Y-95304820D01*
X281112875Y-95249655D01*
X281143233Y-95147595D01*
X281110157Y-94960012D01*
X281046723Y-94874490D01*
X280991559Y-94835863D01*
X280889499Y-94805506D01*
X96441330Y-58304003D02*
X96614978Y-57319195D01*
X96819213Y-58080512D01*
X97271517Y-57434961D01*
X97097868Y-58419768D01*
X97646682Y-57501112D02*
X98129572Y-58601685D01*
X98303220Y-57616878D02*
X97473033Y-58485920D01*
X99042563Y-58085719D02*
X98926797Y-58742258D01*
X98874236Y-57669210D02*
X98515724Y-58331299D01*
X99125367Y-58438795D01*
X258468417Y-96881459D02*
X258294769Y-95896652D01*
X258747073Y-96542203D01*
X258951307Y-95780886D01*
X259124956Y-96765694D01*
X259326472Y-95714734D02*
X260156659Y-96583777D01*
X259983011Y-95598969D02*
X259500121Y-96699542D01*
X260264384Y-95549355D02*
X260874027Y-95441859D01*
X260611910Y-95874906D01*
X260752597Y-95850099D01*
X260854657Y-95880457D01*
X260909821Y-95919084D01*
X260973255Y-96004606D01*
X261014600Y-96239084D01*
X260984242Y-96341144D01*
X260945615Y-96396309D01*
X260860093Y-96459742D01*
X260578719Y-96509356D01*
X260476659Y-96478998D01*
X260421495Y-96440372D01*
X261202297Y-95383976D02*
X261858835Y-95268211D01*
X261610423Y-96327439D01*
X110992374Y-82661313D02*
X111166022Y-81676505D01*
X111370257Y-82437822D01*
X111822561Y-81792271D01*
X111648912Y-82777079D01*
X112197725Y-81858423D02*
X112680616Y-82958996D01*
X112854264Y-81974188D02*
X112024077Y-82843230D01*
X113571632Y-83116106D02*
X113008885Y-83016879D01*
X113290259Y-83066492D02*
X113463907Y-82081685D01*
X113345309Y-82205833D01*
X113234980Y-82283087D01*
X113132919Y-82313444D01*
X114073550Y-82189181D02*
X114730088Y-82304946D01*
X114134380Y-83215334D01*
X31435918Y-95199556D02*
X31609566Y-94214748D01*
X31813801Y-94976065D01*
X32266105Y-94330514D01*
X32092456Y-95315322D01*
X32641269Y-94396666D02*
X33124160Y-95497239D01*
X33297808Y-94512431D02*
X32467621Y-95381473D01*
X33609539Y-94664105D02*
X33664704Y-94625478D01*
X33766764Y-94595121D01*
X34001242Y-94636465D01*
X34086764Y-94699899D01*
X34125391Y-94755064D01*
X34155749Y-94857124D01*
X34139211Y-94950915D01*
X34067508Y-95083333D01*
X33405533Y-95546853D01*
X34015176Y-95654349D01*
X35079841Y-94826652D02*
X34610885Y-94743962D01*
X34481300Y-95204649D01*
X34536464Y-95166022D01*
X34638524Y-95135665D01*
X34873003Y-95177010D01*
X34958525Y-95240443D01*
X34997151Y-95295608D01*
X35027509Y-95397668D01*
X34986164Y-95632146D01*
X34922731Y-95717668D01*
X34867566Y-95756295D01*
X34765506Y-95786652D01*
X34531028Y-95745308D01*
X34445506Y-95681874D01*
X34406879Y-95626710D01*
X213547373Y-58798770D02*
X213373725Y-57813962D01*
X213826029Y-58459513D01*
X214030264Y-57698197D01*
X214203912Y-58683004D01*
X214405428Y-57632045D02*
X215235615Y-58501087D01*
X215061967Y-57516279D02*
X214579077Y-58616853D01*
X215657676Y-58426666D02*
X215845258Y-58393591D01*
X215930780Y-58330157D01*
X215969407Y-58274993D01*
X216038391Y-58117768D01*
X216052211Y-57921916D01*
X215986059Y-57546752D01*
X215922626Y-57461229D01*
X215867461Y-57422603D01*
X215765401Y-57392245D01*
X215577819Y-57425321D01*
X215492296Y-57488754D01*
X215453670Y-57543919D01*
X215423312Y-57645979D01*
X215464657Y-57880457D01*
X215528090Y-57965979D01*
X215583255Y-58004606D01*
X215685315Y-58034964D01*
X215872898Y-58001888D01*
X215958420Y-57938454D01*
X215997046Y-57883290D01*
X216027404Y-57781230D01*
X274379138Y-77135349D02*
X274205490Y-76150542D01*
X274657794Y-76796093D01*
X274862028Y-76034776D01*
X275035677Y-77019584D01*
X275237193Y-75968624D02*
X276067380Y-76837667D01*
X275893732Y-75852859D02*
X275410842Y-76953432D01*
X276238539Y-75888767D02*
X276277166Y-75833603D01*
X276362688Y-75770169D01*
X276597166Y-75728825D01*
X276699226Y-75759182D01*
X276754391Y-75797809D01*
X276817824Y-75883331D01*
X276834362Y-75977122D01*
X276812273Y-76126078D01*
X276348754Y-76788053D01*
X276958397Y-76680556D01*
X277686752Y-75875177D02*
X277802517Y-76531715D01*
X277386122Y-75541357D02*
X277275679Y-76286136D01*
X277885322Y-76178639D01*
X198028417Y-83391459D02*
X197854769Y-82406652D01*
X198307073Y-83052203D01*
X198511307Y-82290886D01*
X198684956Y-83275694D01*
X198886472Y-82224734D02*
X199716659Y-83093777D01*
X199543011Y-82108969D02*
X199060121Y-83209542D01*
X199887818Y-82144877D02*
X199926445Y-82089713D01*
X200011967Y-82026279D01*
X200246445Y-81984935D01*
X200348505Y-82015292D01*
X200403670Y-82053919D01*
X200467103Y-82139441D01*
X200483641Y-82233232D01*
X200461552Y-82382188D01*
X199998033Y-83044163D01*
X200607676Y-82936666D01*
X201043670Y-81844362D02*
X201137461Y-81827824D01*
X201239522Y-81858182D01*
X201294686Y-81896809D01*
X201358120Y-81982331D01*
X201438091Y-82161644D01*
X201479436Y-82396122D01*
X201465616Y-82591974D01*
X201435259Y-82694034D01*
X201396632Y-82749199D01*
X201311110Y-82812632D01*
X201217318Y-82829170D01*
X201115258Y-82798812D01*
X201060094Y-82760186D01*
X200996660Y-82674663D01*
X200916689Y-82495350D01*
X200875344Y-82260872D01*
X200889164Y-82065021D01*
X200919521Y-81962960D01*
X200958148Y-81907796D01*
X201043670Y-81844362D01*
X122725918Y-125789556D02*
X122899566Y-124804748D01*
X123103801Y-125566065D01*
X123556105Y-124920514D01*
X123382456Y-125905322D01*
X123931269Y-124986666D02*
X124414160Y-126087239D01*
X124587808Y-125102431D02*
X123757621Y-125971473D01*
X125327151Y-125571273D02*
X125211385Y-126227811D01*
X125158824Y-125154763D02*
X124800312Y-125816852D01*
X125409955Y-125924349D01*
X126088467Y-125367038D02*
X126182259Y-125383576D01*
X126267781Y-125447009D01*
X126306407Y-125502174D01*
X126336765Y-125604234D01*
X126350585Y-125800085D01*
X126309240Y-126034563D01*
X126229269Y-126213877D01*
X126165835Y-126299399D01*
X126110671Y-126338026D01*
X126008610Y-126368383D01*
X125914819Y-126351846D01*
X125829297Y-126288412D01*
X125790670Y-126233247D01*
X125760313Y-126131187D01*
X125746493Y-125935336D01*
X125787838Y-125700858D01*
X125867809Y-125521544D01*
X125931243Y-125436022D01*
X125986407Y-125397395D01*
X126088467Y-125367038D01*
X238888417Y-95481460D02*
X238714769Y-94496653D01*
X239167073Y-95142204D01*
X239371307Y-94380887D01*
X239544956Y-95365695D01*
X239746472Y-94314735D02*
X240576659Y-95183778D01*
X240403011Y-94198970D02*
X239920121Y-95299543D01*
X240684384Y-94149356D02*
X241294027Y-94041860D01*
X241031910Y-94474907D01*
X241172597Y-94450100D01*
X241274657Y-94480458D01*
X241329821Y-94519085D01*
X241393255Y-94604607D01*
X241434600Y-94839085D01*
X241404242Y-94941145D01*
X241365615Y-94996310D01*
X241280093Y-95059743D01*
X240998719Y-95109357D01*
X240896659Y-95078999D01*
X240841495Y-95040373D01*
X242138148Y-93893018D02*
X241950566Y-93926094D01*
X241865044Y-93989528D01*
X241826417Y-94044692D01*
X241757433Y-94201917D01*
X241743613Y-94397768D01*
X241809765Y-94772933D01*
X241873198Y-94858456D01*
X241928363Y-94897082D01*
X242030423Y-94927440D01*
X242218005Y-94894364D01*
X242303528Y-94830931D01*
X242342154Y-94775766D01*
X242372512Y-94673706D01*
X242331167Y-94439228D01*
X242267734Y-94353706D01*
X242212569Y-94315079D01*
X242110509Y-94284721D01*
X241922926Y-94317797D01*
X241837404Y-94381231D01*
X241798777Y-94436395D01*
X241768420Y-94538455D01*
X251858417Y-59301459D02*
X251684769Y-58316652D01*
X252137073Y-58962203D01*
X252341307Y-58200886D01*
X252514956Y-59185694D01*
X252716472Y-58134734D02*
X253546659Y-59003777D01*
X253373011Y-58018969D02*
X252890121Y-59119542D01*
X254437676Y-58846666D02*
X253874928Y-58945894D01*
X254156302Y-58896280D02*
X253982654Y-57911472D01*
X253913669Y-58068697D01*
X253836416Y-58179026D01*
X253750894Y-58242460D01*
X255375588Y-58681287D02*
X254812840Y-58780515D01*
X255094214Y-58730901D02*
X254920566Y-57746093D01*
X254851582Y-57903318D01*
X254774328Y-58013647D01*
X254688806Y-58077081D01*
X186338417Y-126411459D02*
X186164769Y-125426652D01*
X186617073Y-126072203D01*
X186821307Y-125310886D01*
X186994956Y-126295694D01*
X187196472Y-125244734D02*
X188026659Y-126113777D01*
X187853011Y-125128969D02*
X187370121Y-126229542D01*
X188708119Y-125316666D02*
X188823884Y-125973204D01*
X188407489Y-124982846D02*
X188297046Y-125727625D01*
X188906688Y-125620128D01*
X189135730Y-124999498D02*
X189174357Y-124944334D01*
X189259879Y-124880900D01*
X189494357Y-124839555D01*
X189596417Y-124869913D01*
X189651582Y-124908540D01*
X189715015Y-124994062D01*
X189731553Y-125087853D01*
X189709465Y-125236809D01*
X189245945Y-125898784D01*
X189855588Y-125791287D01*
X216378417Y-77661459D02*
X216204769Y-76676652D01*
X216657073Y-77322203D01*
X216861307Y-76560886D01*
X217034956Y-77545694D01*
X217236472Y-76494734D02*
X218066659Y-77363777D01*
X217893011Y-76378969D02*
X217410121Y-77479542D01*
X218237818Y-76414877D02*
X218276445Y-76359713D01*
X218361967Y-76296279D01*
X218596445Y-76254935D01*
X218698505Y-76285292D01*
X218753670Y-76323919D01*
X218817103Y-76409441D01*
X218833641Y-76503232D01*
X218811552Y-76652188D01*
X218348033Y-77314163D01*
X218957676Y-77206666D01*
X219895588Y-77041287D02*
X219332840Y-77140515D01*
X219614214Y-77090901D02*
X219440566Y-76106093D01*
X219371582Y-76263318D01*
X219294328Y-76373647D01*
X219208806Y-76437081D01*
X144775919Y-110359556D02*
X144949567Y-109374748D01*
X145153802Y-110136065D01*
X145606106Y-109490514D01*
X145432457Y-110475322D01*
X145981270Y-109556666D02*
X146464161Y-110657239D01*
X146637809Y-109672431D02*
X145807622Y-110541473D01*
X146919183Y-109722045D02*
X147528825Y-109829541D01*
X147134405Y-110146823D01*
X147275091Y-110171630D01*
X147360614Y-110235064D01*
X147399240Y-110290228D01*
X147429598Y-110392289D01*
X147388253Y-110626767D01*
X147324820Y-110712289D01*
X147269655Y-110750916D01*
X147167595Y-110781273D01*
X146886221Y-110731659D01*
X146800699Y-110668226D01*
X146762072Y-110613061D01*
X148293089Y-110979728D02*
X147730342Y-110880501D01*
X148011716Y-110930115D02*
X148185364Y-109945307D01*
X148066766Y-110069456D01*
X147956437Y-110146709D01*
X147854377Y-110177067D01*
X126012374Y-107031313D02*
X126186022Y-106046505D01*
X126390257Y-106807822D01*
X126842561Y-106162271D01*
X126668912Y-107147079D01*
X127217725Y-106228423D02*
X127700616Y-107328996D01*
X127874264Y-106344188D02*
X127044077Y-107213230D01*
X128155638Y-106393802D02*
X128765280Y-106501298D01*
X128370860Y-106818580D01*
X128511546Y-106843387D01*
X128597069Y-106906821D01*
X128635695Y-106961985D01*
X128666053Y-107064046D01*
X128624708Y-107298524D01*
X128561275Y-107384046D01*
X128506110Y-107422673D01*
X128404050Y-107453030D01*
X128122676Y-107403416D01*
X128037154Y-107339983D01*
X127998527Y-107284818D01*
X129374923Y-106608795D02*
X129468715Y-106625333D01*
X129554237Y-106688766D01*
X129592863Y-106743931D01*
X129623221Y-106845991D01*
X129637041Y-107041842D01*
X129595696Y-107276320D01*
X129515725Y-107455634D01*
X129452291Y-107541156D01*
X129397127Y-107579783D01*
X129295066Y-107610140D01*
X129201275Y-107593603D01*
X129115753Y-107530169D01*
X129077126Y-107475004D01*
X129046769Y-107372944D01*
X129032949Y-107177093D01*
X129074294Y-106942615D01*
X129154265Y-106763301D01*
X129217699Y-106677779D01*
X129272863Y-106639152D01*
X129374923Y-106608795D01*
X57744874Y-58712246D02*
X57918522Y-57727438D01*
X58122757Y-58488755D01*
X58575061Y-57843204D01*
X58401412Y-58828011D01*
X58950226Y-57909355D02*
X59433116Y-59009928D01*
X59606764Y-58025121D02*
X58776577Y-58894163D01*
X59918495Y-58176795D02*
X59973660Y-58138168D01*
X60075720Y-58107810D01*
X60310198Y-58149155D01*
X60395720Y-58212589D01*
X60434347Y-58267753D01*
X60464705Y-58369813D01*
X60448167Y-58463605D01*
X60376464Y-58596022D01*
X59714489Y-59059542D01*
X60324132Y-59167039D01*
X182998417Y-107671460D02*
X182824769Y-106686653D01*
X183277073Y-107332204D01*
X183481307Y-106570887D01*
X183654956Y-107555695D01*
X183856472Y-106504735D02*
X184686659Y-107373778D01*
X184513011Y-106388970D02*
X184030121Y-107489543D01*
X184794384Y-106339356D02*
X185404027Y-106231860D01*
X185141910Y-106664907D01*
X185282597Y-106640100D01*
X185384657Y-106670458D01*
X185439821Y-106709085D01*
X185503255Y-106794607D01*
X185544600Y-107029085D01*
X185514242Y-107131145D01*
X185475615Y-107186310D01*
X185390093Y-107249743D01*
X185108719Y-107299357D01*
X185006659Y-107268999D01*
X184951495Y-107230373D01*
X185732297Y-106173977D02*
X186341940Y-106066481D01*
X186079822Y-106499528D01*
X186220509Y-106474721D01*
X186322569Y-106505079D01*
X186377734Y-106543706D01*
X186441167Y-106629228D01*
X186482512Y-106863706D01*
X186452154Y-106965766D01*
X186413528Y-107020931D01*
X186328005Y-107084364D01*
X186046632Y-107133978D01*
X185944571Y-107103620D01*
X185889407Y-107064994D01*
X154480401Y-131202756D02*
X154480401Y-130202756D01*
X154813734Y-130917042D01*
X155147067Y-130202756D01*
X155147067Y-131202756D01*
X155528020Y-130202756D02*
X156194686Y-131202756D01*
X156194686Y-130202756D02*
X155528020Y-131202756D01*
X157004210Y-130536090D02*
X157004210Y-131202756D01*
X156766115Y-130155137D02*
X156528020Y-130869423D01*
X157147067Y-130869423D01*
X158051829Y-131202756D02*
X157480401Y-131202756D01*
X157766115Y-131202756D02*
X157766115Y-130202756D01*
X157670877Y-130345614D01*
X157575639Y-130440852D01*
X157480401Y-130488471D01*
X204708417Y-120881459D02*
X204534769Y-119896652D01*
X204987073Y-120542203D01*
X205191307Y-119780886D01*
X205364956Y-120765694D01*
X205566472Y-119714734D02*
X206396659Y-120583777D01*
X206223011Y-119598969D02*
X205740121Y-120699542D01*
X207078119Y-119786666D02*
X207193884Y-120443204D01*
X206777489Y-119452846D02*
X206667046Y-120197625D01*
X207276688Y-120090128D01*
X207442297Y-119383976D02*
X208051940Y-119276480D01*
X207789822Y-119709527D01*
X207930509Y-119684720D01*
X208032569Y-119715078D01*
X208087734Y-119753705D01*
X208151167Y-119839227D01*
X208192512Y-120073705D01*
X208162154Y-120175765D01*
X208123528Y-120230930D01*
X208038005Y-120294363D01*
X207756632Y-120343977D01*
X207654571Y-120313619D01*
X207599407Y-120274993D01*
X51328225Y-51512358D02*
X50343418Y-51338709D01*
X50384762Y-51104231D01*
X50456465Y-50971814D01*
X50566794Y-50894560D01*
X50668854Y-50864203D01*
X50864706Y-50850383D01*
X51005392Y-50875190D01*
X51184706Y-50955161D01*
X51270228Y-51018595D01*
X51347481Y-51128924D01*
X51369570Y-51277880D01*
X51328225Y-51512358D01*
X50602588Y-50417335D02*
X50563961Y-50362171D01*
X50533604Y-50260110D01*
X50574948Y-50025632D01*
X50638382Y-49940110D01*
X50693547Y-49901484D01*
X50795607Y-49871126D01*
X50889398Y-49887664D01*
X51021816Y-49959366D01*
X51485336Y-50621341D01*
X51592832Y-50011698D01*
X50765135Y-48947033D02*
X50682445Y-49415990D01*
X51143132Y-49545575D01*
X51104505Y-49490410D01*
X51074148Y-49388350D01*
X51115492Y-49153872D01*
X51178926Y-49068350D01*
X51234091Y-49029723D01*
X51336151Y-48999365D01*
X51570629Y-49040710D01*
X51656151Y-49104144D01*
X51694778Y-49159308D01*
X51725135Y-49261368D01*
X51683791Y-49495847D01*
X51620357Y-49581369D01*
X51565192Y-49619995D01*
X76790919Y-50513406D02*
X75806111Y-50339757D01*
X75847456Y-50105279D01*
X75919158Y-49972861D01*
X76029488Y-49895608D01*
X76131548Y-49865250D01*
X76327399Y-49851431D01*
X76468086Y-49876238D01*
X76647399Y-49956209D01*
X76732922Y-50019643D01*
X76810175Y-50129972D01*
X76832264Y-50278928D01*
X76790919Y-50513406D01*
X75963221Y-49448741D02*
X76070718Y-48839098D01*
X76388000Y-49233519D01*
X76412807Y-49092832D01*
X76476240Y-49007310D01*
X76531405Y-48968683D01*
X76633465Y-48938325D01*
X76867943Y-48979670D01*
X76953465Y-49043104D01*
X76992092Y-49098268D01*
X77022450Y-49200329D01*
X76972836Y-49481702D01*
X76909402Y-49567224D01*
X76854238Y-49605851D01*
X145134649Y-65999393D02*
X144149842Y-65825744D01*
X144191186Y-65591266D01*
X144262889Y-65458849D01*
X144373218Y-65381595D01*
X144475278Y-65351238D01*
X144671130Y-65337418D01*
X144811816Y-65362225D01*
X144991130Y-65442196D01*
X145076652Y-65505630D01*
X145153905Y-65615959D01*
X145175994Y-65764915D01*
X145134649Y-65999393D01*
X144726180Y-64476759D02*
X145382718Y-64592524D01*
X144309670Y-64645085D02*
X144971759Y-65003598D01*
X145079256Y-64393955D01*
X144521945Y-63715442D02*
X144538483Y-63621651D01*
X144601916Y-63536129D01*
X144657081Y-63497502D01*
X144759141Y-63467144D01*
X144954992Y-63453325D01*
X145189470Y-63494669D01*
X145368784Y-63574641D01*
X145454306Y-63638074D01*
X145492933Y-63693239D01*
X145523290Y-63795299D01*
X145506753Y-63889090D01*
X145443319Y-63974613D01*
X145388154Y-64013239D01*
X145286094Y-64043597D01*
X145090243Y-64057417D01*
X144855765Y-64016072D01*
X144676451Y-63936100D01*
X144590929Y-63872667D01*
X144552302Y-63817502D01*
X144521945Y-63715442D01*
X64028228Y-51582361D02*
X63043421Y-51408712D01*
X63084765Y-51174234D01*
X63156468Y-51041817D01*
X63266797Y-50964563D01*
X63368857Y-50934206D01*
X63564709Y-50920386D01*
X63705395Y-50945193D01*
X63884709Y-51025164D01*
X63970231Y-51088598D01*
X64047484Y-51198927D01*
X64069573Y-51347883D01*
X64028228Y-51582361D01*
X64292835Y-50081701D02*
X64193607Y-50644448D01*
X64243221Y-50363075D02*
X63258413Y-50189427D01*
X63382562Y-50308025D01*
X63459816Y-50418354D01*
X63490173Y-50520414D01*
X63785138Y-49121815D02*
X64441676Y-49237580D01*
X63368628Y-49290141D02*
X64030717Y-49648654D01*
X64138214Y-49039011D01*
X201702664Y-56568162D02*
X200717856Y-56741810D01*
X200676511Y-56507332D01*
X200698600Y-56358377D01*
X200775853Y-56248048D01*
X200861375Y-56184614D01*
X201040689Y-56104643D01*
X201181376Y-56079836D01*
X201377227Y-56093655D01*
X201479287Y-56124013D01*
X201589616Y-56201266D01*
X201661319Y-56333684D01*
X201702664Y-56568162D01*
X200941461Y-55541895D02*
X200911104Y-55643955D01*
X200872477Y-55699120D01*
X200786955Y-55762554D01*
X200740059Y-55770822D01*
X200637999Y-55740465D01*
X200582834Y-55701838D01*
X200519401Y-55616316D01*
X200486325Y-55428733D01*
X200516683Y-55326673D01*
X200555309Y-55271509D01*
X200640832Y-55208075D01*
X200687727Y-55199806D01*
X200789787Y-55230164D01*
X200844952Y-55268791D01*
X200908385Y-55354313D01*
X200941461Y-55541895D01*
X201004895Y-55627417D01*
X201060059Y-55666044D01*
X201162120Y-55696402D01*
X201349702Y-55663326D01*
X201435224Y-55599892D01*
X201473851Y-55544728D01*
X201504209Y-55442668D01*
X201471133Y-55255085D01*
X201407699Y-55169563D01*
X201352535Y-55130936D01*
X201250474Y-55100579D01*
X201062892Y-55133655D01*
X200977370Y-55197088D01*
X200938743Y-55252253D01*
X200908385Y-55354313D01*
X140929834Y-65100242D02*
X139945027Y-64926593D01*
X139986371Y-64692115D01*
X140058074Y-64559698D01*
X140168403Y-64482444D01*
X140270463Y-64452087D01*
X140466315Y-64438267D01*
X140607001Y-64463074D01*
X140786315Y-64543045D01*
X140871837Y-64606479D01*
X140949090Y-64716808D01*
X140971179Y-64865764D01*
X140929834Y-65100242D01*
X140102137Y-64035577D02*
X140209633Y-63425934D01*
X140526915Y-63820355D01*
X140551722Y-63679668D01*
X140615156Y-63594146D01*
X140670320Y-63555519D01*
X140772381Y-63525162D01*
X141006859Y-63566506D01*
X141092381Y-63629940D01*
X141131007Y-63685104D01*
X141161365Y-63787165D01*
X141111751Y-64068538D01*
X141048318Y-64154061D01*
X140993153Y-64192687D01*
X140317130Y-62816291D02*
X140333668Y-62722500D01*
X140397101Y-62636978D01*
X140452266Y-62598351D01*
X140554326Y-62567993D01*
X140750177Y-62554174D01*
X140984655Y-62595518D01*
X141163969Y-62675490D01*
X141249491Y-62738923D01*
X141288118Y-62794088D01*
X141318475Y-62896148D01*
X141301938Y-62989939D01*
X141238504Y-63075462D01*
X141183339Y-63114088D01*
X141081279Y-63144446D01*
X140885428Y-63158266D01*
X140650950Y-63116921D01*
X140471636Y-63036949D01*
X140386114Y-62973516D01*
X140347487Y-62918351D01*
X140317130Y-62816291D01*
X187875351Y-61417116D02*
X186890544Y-61590765D01*
X186849199Y-61356286D01*
X186871287Y-61207331D01*
X186948541Y-61097002D01*
X187034063Y-61033568D01*
X187213376Y-60953597D01*
X187354063Y-60928790D01*
X187549915Y-60942609D01*
X187651975Y-60972967D01*
X187762304Y-61050220D01*
X187834006Y-61182638D01*
X187875351Y-61417116D01*
X186970744Y-60126014D02*
X187627282Y-60010248D01*
X186636924Y-60426643D02*
X187381703Y-60537087D01*
X187274206Y-59927444D01*
X186568054Y-59761836D02*
X186460558Y-59152193D01*
X186893605Y-59414311D01*
X186868798Y-59273624D01*
X186899156Y-59171564D01*
X186937783Y-59116399D01*
X187023305Y-59052965D01*
X187257783Y-59011621D01*
X187359843Y-59041978D01*
X187415008Y-59080605D01*
X187478441Y-59166127D01*
X187528055Y-59447501D01*
X187497697Y-59549561D01*
X187459071Y-59604726D01*
X179017613Y-115735796D02*
X178032806Y-115909445D01*
X177991461Y-115674966D01*
X178013549Y-115526011D01*
X178090803Y-115415682D01*
X178176325Y-115352248D01*
X178355638Y-115272277D01*
X178496325Y-115247470D01*
X178692177Y-115261289D01*
X178794237Y-115291647D01*
X178904566Y-115368900D01*
X178976268Y-115501318D01*
X179017613Y-115735796D01*
X177875695Y-115018428D02*
X177768199Y-114408785D01*
X178201246Y-114670903D01*
X178176439Y-114530216D01*
X178206797Y-114428156D01*
X178245424Y-114372991D01*
X178330946Y-114309558D01*
X178565424Y-114268213D01*
X178667484Y-114298570D01*
X178722649Y-114337197D01*
X178786082Y-114422719D01*
X178835696Y-114704093D01*
X178805338Y-114806153D01*
X178766712Y-114861318D01*
X177795838Y-114017082D02*
X177740674Y-113978456D01*
X177677240Y-113892933D01*
X177635895Y-113658455D01*
X177666253Y-113556395D01*
X177704880Y-113501231D01*
X177790402Y-113437797D01*
X177884193Y-113421259D01*
X178033149Y-113443348D01*
X178695124Y-113906868D01*
X178587627Y-113297225D01*
X150825909Y-59119619D02*
X150825909Y-58319619D01*
X151016386Y-58319619D01*
X151130671Y-58357715D01*
X151206862Y-58433905D01*
X151244957Y-58510095D01*
X151283052Y-58662476D01*
X151283052Y-58776762D01*
X151244957Y-58929143D01*
X151206862Y-59005334D01*
X151130671Y-59081524D01*
X151016386Y-59119619D01*
X150825909Y-59119619D01*
X151587814Y-58395810D02*
X151625909Y-58357715D01*
X151702100Y-58319619D01*
X151892576Y-58319619D01*
X151968766Y-58357715D01*
X152006862Y-58395810D01*
X152044957Y-58472000D01*
X152044957Y-58548191D01*
X152006862Y-58662476D01*
X151549719Y-59119619D01*
X152044957Y-59119619D01*
X162071719Y-73940572D02*
X161805052Y-73940572D01*
X161805052Y-74359619D02*
X161805052Y-73559619D01*
X162186005Y-73559619D01*
X162414576Y-73559619D02*
X162947909Y-73559619D01*
X162605052Y-74359619D01*
X150806862Y-63437715D02*
X150730671Y-63399619D01*
X150616386Y-63399619D01*
X150502100Y-63437715D01*
X150425909Y-63513905D01*
X150387814Y-63590095D01*
X150349719Y-63742476D01*
X150349719Y-63856762D01*
X150387814Y-64009143D01*
X150425909Y-64085334D01*
X150502100Y-64161524D01*
X150616386Y-64199619D01*
X150692576Y-64199619D01*
X150806862Y-64161524D01*
X150844957Y-64123429D01*
X150844957Y-63856762D01*
X150692576Y-63856762D01*
X151187814Y-64199619D02*
X151187814Y-63399619D01*
X151644957Y-64199619D01*
X151644957Y-63399619D01*
X152025909Y-64199619D02*
X152025909Y-63399619D01*
X152216386Y-63399619D01*
X152330671Y-63437715D01*
X152406862Y-63513905D01*
X152444957Y-63590095D01*
X152483052Y-63742476D01*
X152483052Y-63856762D01*
X152444957Y-64009143D01*
X152406862Y-64085334D01*
X152330671Y-64161524D01*
X152216386Y-64199619D01*
X152025909Y-64199619D01*
X161271719Y-63399619D02*
X161538386Y-64199619D01*
X161805052Y-63399619D01*
X162528862Y-64123429D02*
X162490766Y-64161524D01*
X162376481Y-64199619D01*
X162300290Y-64199619D01*
X162186005Y-64161524D01*
X162109814Y-64085334D01*
X162071719Y-64009143D01*
X162033624Y-63856762D01*
X162033624Y-63742476D01*
X162071719Y-63590095D01*
X162109814Y-63513905D01*
X162186005Y-63437715D01*
X162300290Y-63399619D01*
X162376481Y-63399619D01*
X162490766Y-63437715D01*
X162528862Y-63475810D01*
X163328862Y-64123429D02*
X163290766Y-64161524D01*
X163176481Y-64199619D01*
X163100290Y-64199619D01*
X162986005Y-64161524D01*
X162909814Y-64085334D01*
X162871719Y-64009143D01*
X162833624Y-63856762D01*
X162833624Y-63742476D01*
X162871719Y-63590095D01*
X162909814Y-63513905D01*
X162986005Y-63437715D01*
X163100290Y-63399619D01*
X163176481Y-63399619D01*
X163290766Y-63437715D01*
X163328862Y-63475810D01*
X162014576Y-84100572D02*
X162128862Y-84138667D01*
X162166957Y-84176762D01*
X162205052Y-84252953D01*
X162205052Y-84367238D01*
X162166957Y-84443429D01*
X162128862Y-84481524D01*
X162052671Y-84519619D01*
X161747909Y-84519619D01*
X161747909Y-83719619D01*
X162014576Y-83719619D01*
X162090766Y-83757715D01*
X162128862Y-83795810D01*
X162166957Y-83872000D01*
X162166957Y-83948191D01*
X162128862Y-84024381D01*
X162090766Y-84062476D01*
X162014576Y-84100572D01*
X161747909Y-84100572D01*
X162890766Y-83719619D02*
X162738386Y-83719619D01*
X162662195Y-83757715D01*
X162624100Y-83795810D01*
X162547909Y-83910095D01*
X162509814Y-84062476D01*
X162509814Y-84367238D01*
X162547909Y-84443429D01*
X162586005Y-84481524D01*
X162662195Y-84519619D01*
X162814576Y-84519619D01*
X162890766Y-84481524D01*
X162928862Y-84443429D01*
X162966957Y-84367238D01*
X162966957Y-84176762D01*
X162928862Y-84100572D01*
X162890766Y-84062476D01*
X162814576Y-84024381D01*
X162662195Y-84024381D01*
X162586005Y-84062476D01*
X162547909Y-84100572D01*
X162509814Y-84176762D01*
X151283052Y-74283429D02*
X151244957Y-74321524D01*
X151130671Y-74359619D01*
X151054481Y-74359619D01*
X150940195Y-74321524D01*
X150864005Y-74245334D01*
X150825909Y-74169143D01*
X150787814Y-74016762D01*
X150787814Y-73902476D01*
X150825909Y-73750095D01*
X150864005Y-73673905D01*
X150940195Y-73597715D01*
X151054481Y-73559619D01*
X151130671Y-73559619D01*
X151244957Y-73597715D01*
X151283052Y-73635810D01*
X151968766Y-73559619D02*
X151816386Y-73559619D01*
X151740195Y-73597715D01*
X151702100Y-73635810D01*
X151625909Y-73750095D01*
X151587814Y-73902476D01*
X151587814Y-74207238D01*
X151625909Y-74283429D01*
X151664005Y-74321524D01*
X151740195Y-74359619D01*
X151892576Y-74359619D01*
X151968766Y-74321524D01*
X152006862Y-74283429D01*
X152044957Y-74207238D01*
X152044957Y-74016762D01*
X152006862Y-73940572D01*
X151968766Y-73902476D01*
X151892576Y-73864381D01*
X151740195Y-73864381D01*
X151664005Y-73902476D01*
X151625909Y-73940572D01*
X151587814Y-74016762D01*
X162014576Y-56160572D02*
X162128862Y-56198667D01*
X162166957Y-56236762D01*
X162205052Y-56312953D01*
X162205052Y-56427238D01*
X162166957Y-56503429D01*
X162128862Y-56541524D01*
X162052671Y-56579619D01*
X161747909Y-56579619D01*
X161747909Y-55779619D01*
X162014576Y-55779619D01*
X162090766Y-55817715D01*
X162128862Y-55855810D01*
X162166957Y-55932000D01*
X162166957Y-56008191D01*
X162128862Y-56084381D01*
X162090766Y-56122476D01*
X162014576Y-56160572D01*
X161747909Y-56160572D01*
X162700290Y-55779619D02*
X162776481Y-55779619D01*
X162852671Y-55817715D01*
X162890766Y-55855810D01*
X162928862Y-55932000D01*
X162966957Y-56084381D01*
X162966957Y-56274857D01*
X162928862Y-56427238D01*
X162890766Y-56503429D01*
X162852671Y-56541524D01*
X162776481Y-56579619D01*
X162700290Y-56579619D01*
X162624100Y-56541524D01*
X162586005Y-56503429D01*
X162547909Y-56427238D01*
X162509814Y-56274857D01*
X162509814Y-56084381D01*
X162547909Y-55932000D01*
X162586005Y-55855810D01*
X162624100Y-55817715D01*
X162700290Y-55779619D01*
X150825909Y-69279619D02*
X150825909Y-68479619D01*
X151016386Y-68479619D01*
X151130671Y-68517715D01*
X151206862Y-68593905D01*
X151244957Y-68670095D01*
X151283052Y-68822476D01*
X151283052Y-68936762D01*
X151244957Y-69089143D01*
X151206862Y-69165334D01*
X151130671Y-69241524D01*
X151016386Y-69279619D01*
X150825909Y-69279619D01*
X151778290Y-68479619D02*
X151854481Y-68479619D01*
X151930671Y-68517715D01*
X151968766Y-68555810D01*
X152006862Y-68632000D01*
X152044957Y-68784381D01*
X152044957Y-68974857D01*
X152006862Y-69127238D01*
X151968766Y-69203429D01*
X151930671Y-69241524D01*
X151854481Y-69279619D01*
X151778290Y-69279619D01*
X151702100Y-69241524D01*
X151664005Y-69203429D01*
X151625909Y-69127238D01*
X151587814Y-68974857D01*
X151587814Y-68784381D01*
X151625909Y-68632000D01*
X151664005Y-68555810D01*
X151702100Y-68517715D01*
X151778290Y-68479619D01*
X162071719Y-68860572D02*
X161805052Y-68860572D01*
X161805052Y-69279619D02*
X161805052Y-68479619D01*
X162186005Y-68479619D01*
X162871719Y-68479619D02*
X162490766Y-68479619D01*
X162452671Y-68860572D01*
X162490766Y-68822476D01*
X162566957Y-68784381D01*
X162757433Y-68784381D01*
X162833624Y-68822476D01*
X162871719Y-68860572D01*
X162909814Y-68936762D01*
X162909814Y-69127238D01*
X162871719Y-69203429D01*
X162833624Y-69241524D01*
X162757433Y-69279619D01*
X162566957Y-69279619D01*
X162490766Y-69241524D01*
X162452671Y-69203429D01*
X151092576Y-84100572D02*
X151206862Y-84138667D01*
X151244957Y-84176762D01*
X151283052Y-84252953D01*
X151283052Y-84367238D01*
X151244957Y-84443429D01*
X151206862Y-84481524D01*
X151130671Y-84519619D01*
X150825909Y-84519619D01*
X150825909Y-83719619D01*
X151092576Y-83719619D01*
X151168766Y-83757715D01*
X151206862Y-83795810D01*
X151244957Y-83872000D01*
X151244957Y-83948191D01*
X151206862Y-84024381D01*
X151168766Y-84062476D01*
X151092576Y-84100572D01*
X150825909Y-84100572D01*
X152006862Y-83719619D02*
X151625909Y-83719619D01*
X151587814Y-84100572D01*
X151625909Y-84062476D01*
X151702100Y-84024381D01*
X151892576Y-84024381D01*
X151968766Y-84062476D01*
X152006862Y-84100572D01*
X152044957Y-84176762D01*
X152044957Y-84367238D01*
X152006862Y-84443429D01*
X151968766Y-84481524D01*
X151892576Y-84519619D01*
X151702100Y-84519619D01*
X151625909Y-84481524D01*
X151587814Y-84443429D01*
X162014576Y-76480572D02*
X162128862Y-76518667D01*
X162166957Y-76556762D01*
X162205052Y-76632953D01*
X162205052Y-76747238D01*
X162166957Y-76823429D01*
X162128862Y-76861524D01*
X162052671Y-76899619D01*
X161747909Y-76899619D01*
X161747909Y-76099619D01*
X162014576Y-76099619D01*
X162090766Y-76137715D01*
X162128862Y-76175810D01*
X162166957Y-76252000D01*
X162166957Y-76328191D01*
X162128862Y-76404381D01*
X162090766Y-76442476D01*
X162014576Y-76480572D01*
X161747909Y-76480572D01*
X162966957Y-76899619D02*
X162509814Y-76899619D01*
X162738386Y-76899619D02*
X162738386Y-76099619D01*
X162662195Y-76213905D01*
X162586005Y-76290095D01*
X162509814Y-76328191D01*
X150825909Y-76899619D02*
X150825909Y-76099619D01*
X151016386Y-76099619D01*
X151130671Y-76137715D01*
X151206862Y-76213905D01*
X151244957Y-76290095D01*
X151283052Y-76442476D01*
X151283052Y-76556762D01*
X151244957Y-76709143D01*
X151206862Y-76785334D01*
X151130671Y-76861524D01*
X151016386Y-76899619D01*
X150825909Y-76899619D01*
X151549719Y-76099619D02*
X152083052Y-76099619D01*
X151740195Y-76899619D01*
X162014576Y-79020572D02*
X162128862Y-79058667D01*
X162166957Y-79096762D01*
X162205052Y-79172953D01*
X162205052Y-79287238D01*
X162166957Y-79363429D01*
X162128862Y-79401524D01*
X162052671Y-79439619D01*
X161747909Y-79439619D01*
X161747909Y-78639619D01*
X162014576Y-78639619D01*
X162090766Y-78677715D01*
X162128862Y-78715810D01*
X162166957Y-78792000D01*
X162166957Y-78868191D01*
X162128862Y-78944381D01*
X162090766Y-78982476D01*
X162014576Y-79020572D01*
X161747909Y-79020572D01*
X162471719Y-78639619D02*
X162966957Y-78639619D01*
X162700290Y-78944381D01*
X162814576Y-78944381D01*
X162890766Y-78982476D01*
X162928862Y-79020572D01*
X162966957Y-79096762D01*
X162966957Y-79287238D01*
X162928862Y-79363429D01*
X162890766Y-79401524D01*
X162814576Y-79439619D01*
X162586005Y-79439619D01*
X162509814Y-79401524D01*
X162471719Y-79363429D01*
X151115037Y-55779619D02*
X151572180Y-55779619D01*
X151343609Y-56579619D02*
X151343609Y-55779619D01*
X151762656Y-55779619D02*
X152295990Y-56579619D01*
X152295990Y-55779619D02*
X151762656Y-56579619D01*
X152753133Y-55779619D02*
X152829323Y-55779619D01*
X152905514Y-55817715D01*
X152943609Y-55855810D01*
X152981704Y-55932000D01*
X153019799Y-56084381D01*
X153019799Y-56274857D01*
X152981704Y-56427238D01*
X152943609Y-56503429D01*
X152905514Y-56541524D01*
X152829323Y-56579619D01*
X152753133Y-56579619D01*
X152676942Y-56541524D01*
X152638847Y-56503429D01*
X152600752Y-56427238D01*
X152562656Y-56274857D01*
X152562656Y-56084381D01*
X152600752Y-55932000D01*
X152638847Y-55855810D01*
X152676942Y-55817715D01*
X152753133Y-55779619D01*
X153934085Y-55741524D02*
X153248371Y-56770095D01*
X154200752Y-56579619D02*
X154200752Y-55779619D01*
X154391228Y-55779619D01*
X154505514Y-55817715D01*
X154581704Y-55893905D01*
X154619799Y-55970095D01*
X154657894Y-56122476D01*
X154657894Y-56236762D01*
X154619799Y-56389143D01*
X154581704Y-56465334D01*
X154505514Y-56541524D01*
X154391228Y-56579619D01*
X154200752Y-56579619D01*
X154924561Y-55779619D02*
X155419799Y-55779619D01*
X155153133Y-56084381D01*
X155267418Y-56084381D01*
X155343609Y-56122476D01*
X155381704Y-56160572D01*
X155419799Y-56236762D01*
X155419799Y-56427238D01*
X155381704Y-56503429D01*
X155343609Y-56541524D01*
X155267418Y-56579619D01*
X155038847Y-56579619D01*
X154962656Y-56541524D01*
X154924561Y-56503429D01*
X162071719Y-66320572D02*
X161805052Y-66320572D01*
X161805052Y-66739619D02*
X161805052Y-65939619D01*
X162186005Y-65939619D01*
X162833624Y-66206286D02*
X162833624Y-66739619D01*
X162643147Y-65901524D02*
X162452671Y-66472953D01*
X162947909Y-66472953D01*
X162077172Y-61591524D02*
X162191458Y-61629619D01*
X162381934Y-61629619D01*
X162458125Y-61591524D01*
X162496220Y-61553429D01*
X162534315Y-61477238D01*
X162534315Y-61401048D01*
X162496220Y-61324857D01*
X162458125Y-61286762D01*
X162381934Y-61248667D01*
X162229553Y-61210572D01*
X162153363Y-61172476D01*
X162115267Y-61134381D01*
X162077172Y-61058191D01*
X162077172Y-60982000D01*
X162115267Y-60905810D01*
X162153363Y-60867715D01*
X162229553Y-60829619D01*
X162420029Y-60829619D01*
X162534315Y-60867715D01*
X162762886Y-60829619D02*
X163220029Y-60829619D01*
X162991458Y-61629619D02*
X162991458Y-60829619D01*
X150825909Y-71819619D02*
X150825909Y-71019619D01*
X151016386Y-71019619D01*
X151130671Y-71057715D01*
X151206862Y-71133905D01*
X151244957Y-71210095D01*
X151283052Y-71362476D01*
X151283052Y-71476762D01*
X151244957Y-71629143D01*
X151206862Y-71705334D01*
X151130671Y-71781524D01*
X151016386Y-71819619D01*
X150825909Y-71819619D01*
X151968766Y-71286286D02*
X151968766Y-71819619D01*
X151778290Y-70981524D02*
X151587814Y-71552953D01*
X152083052Y-71552953D01*
X162014576Y-81560572D02*
X162128862Y-81598667D01*
X162166957Y-81636762D01*
X162205052Y-81712953D01*
X162205052Y-81827238D01*
X162166957Y-81903429D01*
X162128862Y-81941524D01*
X162052671Y-81979619D01*
X161747909Y-81979619D01*
X161747909Y-81179619D01*
X162014576Y-81179619D01*
X162090766Y-81217715D01*
X162128862Y-81255810D01*
X162166957Y-81332000D01*
X162166957Y-81408191D01*
X162128862Y-81484381D01*
X162090766Y-81522476D01*
X162014576Y-81560572D01*
X161747909Y-81560572D01*
X162509814Y-81255810D02*
X162547909Y-81217715D01*
X162624100Y-81179619D01*
X162814576Y-81179619D01*
X162890766Y-81217715D01*
X162928862Y-81255810D01*
X162966957Y-81332000D01*
X162966957Y-81408191D01*
X162928862Y-81522476D01*
X162471719Y-81979619D01*
X162966957Y-81979619D01*
X150825909Y-66739619D02*
X150825909Y-65939619D01*
X151016386Y-65939619D01*
X151130671Y-65977715D01*
X151206862Y-66053905D01*
X151244957Y-66130095D01*
X151283052Y-66282476D01*
X151283052Y-66396762D01*
X151244957Y-66549143D01*
X151206862Y-66625334D01*
X151130671Y-66701524D01*
X151016386Y-66739619D01*
X150825909Y-66739619D01*
X152044957Y-66739619D02*
X151587814Y-66739619D01*
X151816386Y-66739619D02*
X151816386Y-65939619D01*
X151740195Y-66053905D01*
X151664005Y-66130095D01*
X151587814Y-66168191D01*
X150806862Y-60897715D02*
X150730671Y-60859619D01*
X150616386Y-60859619D01*
X150502100Y-60897715D01*
X150425909Y-60973905D01*
X150387814Y-61050095D01*
X150349719Y-61202476D01*
X150349719Y-61316762D01*
X150387814Y-61469143D01*
X150425909Y-61545334D01*
X150502100Y-61621524D01*
X150616386Y-61659619D01*
X150692576Y-61659619D01*
X150806862Y-61621524D01*
X150844957Y-61583429D01*
X150844957Y-61316762D01*
X150692576Y-61316762D01*
X151187814Y-61659619D02*
X151187814Y-60859619D01*
X151644957Y-61659619D01*
X151644957Y-60859619D01*
X152025909Y-61659619D02*
X152025909Y-60859619D01*
X152216386Y-60859619D01*
X152330671Y-60897715D01*
X152406862Y-60973905D01*
X152444957Y-61050095D01*
X152483052Y-61202476D01*
X152483052Y-61316762D01*
X152444957Y-61469143D01*
X152406862Y-61545334D01*
X152330671Y-61621524D01*
X152216386Y-61659619D01*
X152025909Y-61659619D01*
X161728862Y-58357715D02*
X161652671Y-58319619D01*
X161538386Y-58319619D01*
X161424100Y-58357715D01*
X161347909Y-58433905D01*
X161309814Y-58510095D01*
X161271719Y-58662476D01*
X161271719Y-58776762D01*
X161309814Y-58929143D01*
X161347909Y-59005334D01*
X161424100Y-59081524D01*
X161538386Y-59119619D01*
X161614576Y-59119619D01*
X161728862Y-59081524D01*
X161766957Y-59043429D01*
X161766957Y-58776762D01*
X161614576Y-58776762D01*
X162109814Y-59119619D02*
X162109814Y-58319619D01*
X162566957Y-59119619D01*
X162566957Y-58319619D01*
X162947909Y-59119619D02*
X162947909Y-58319619D01*
X163138386Y-58319619D01*
X163252671Y-58357715D01*
X163328862Y-58433905D01*
X163366957Y-58510095D01*
X163405052Y-58662476D01*
X163405052Y-58776762D01*
X163366957Y-58929143D01*
X163328862Y-59005334D01*
X163252671Y-59081524D01*
X163138386Y-59119619D01*
X162947909Y-59119619D01*
X151092576Y-81560572D02*
X151206862Y-81598667D01*
X151244957Y-81636762D01*
X151283052Y-81712953D01*
X151283052Y-81827238D01*
X151244957Y-81903429D01*
X151206862Y-81941524D01*
X151130671Y-81979619D01*
X150825909Y-81979619D01*
X150825909Y-81179619D01*
X151092576Y-81179619D01*
X151168766Y-81217715D01*
X151206862Y-81255810D01*
X151244957Y-81332000D01*
X151244957Y-81408191D01*
X151206862Y-81484381D01*
X151168766Y-81522476D01*
X151092576Y-81560572D01*
X150825909Y-81560572D01*
X151968766Y-81446286D02*
X151968766Y-81979619D01*
X151778290Y-81141524D02*
X151587814Y-81712953D01*
X152083052Y-81712953D01*
X162071719Y-71400572D02*
X161805052Y-71400572D01*
X161805052Y-71819619D02*
X161805052Y-71019619D01*
X162186005Y-71019619D01*
X162833624Y-71019619D02*
X162681243Y-71019619D01*
X162605052Y-71057715D01*
X162566957Y-71095810D01*
X162490766Y-71210095D01*
X162452671Y-71362476D01*
X162452671Y-71667238D01*
X162490766Y-71743429D01*
X162528862Y-71781524D01*
X162605052Y-71819619D01*
X162757433Y-71819619D01*
X162833624Y-71781524D01*
X162871719Y-71743429D01*
X162909814Y-71667238D01*
X162909814Y-71476762D01*
X162871719Y-71400572D01*
X162833624Y-71362476D01*
X162757433Y-71324381D01*
X162605052Y-71324381D01*
X162528862Y-71362476D01*
X162490766Y-71400572D01*
X162452671Y-71476762D01*
X150864005Y-79020572D02*
X151130671Y-79020572D01*
X151244957Y-79439619D02*
X150864005Y-79439619D01*
X150864005Y-78639619D01*
X151244957Y-78639619D01*
X151930671Y-78639619D02*
X151778290Y-78639619D01*
X151702100Y-78677715D01*
X151664005Y-78715810D01*
X151587814Y-78830095D01*
X151549719Y-78982476D01*
X151549719Y-79287238D01*
X151587814Y-79363429D01*
X151625909Y-79401524D01*
X151702100Y-79439619D01*
X151854481Y-79439619D01*
X151930671Y-79401524D01*
X151968766Y-79363429D01*
X152006862Y-79287238D01*
X152006862Y-79096762D01*
X151968766Y-79020572D01*
X151930671Y-78982476D01*
X151854481Y-78944381D01*
X151702100Y-78944381D01*
X151625909Y-78982476D01*
X151587814Y-79020572D01*
X151549719Y-79096762D01*
X245255350Y-51957116D02*
X244270543Y-52130765D01*
X244229198Y-51896286D01*
X244251286Y-51747331D01*
X244328540Y-51637002D01*
X244414062Y-51573568D01*
X244593375Y-51493597D01*
X244734062Y-51468790D01*
X244929914Y-51482609D01*
X245031974Y-51512967D01*
X245142303Y-51590220D01*
X245214005Y-51722638D01*
X245255350Y-51957116D01*
X244113432Y-51239748D02*
X244005936Y-50630105D01*
X244438983Y-50892223D01*
X244414176Y-50751536D01*
X244444534Y-50649476D01*
X244483161Y-50594311D01*
X244568683Y-50530878D01*
X244803161Y-50489533D01*
X244905221Y-50519890D01*
X244960386Y-50558517D01*
X245023819Y-50644039D01*
X245073433Y-50925413D01*
X245043075Y-51027473D01*
X245004449Y-51082638D01*
X243948053Y-50301836D02*
X243832288Y-49645297D01*
X244891516Y-49893710D01*
X117708228Y-57972362D02*
X116723421Y-57798713D01*
X116764765Y-57564235D01*
X116836468Y-57431818D01*
X116946797Y-57354564D01*
X117048857Y-57324207D01*
X117244709Y-57310387D01*
X117385395Y-57335194D01*
X117564709Y-57415165D01*
X117650231Y-57478599D01*
X117727484Y-57588928D01*
X117749573Y-57737884D01*
X117708228Y-57972362D01*
X117972835Y-56471702D02*
X117873607Y-57034449D01*
X117923221Y-56753076D02*
X116938413Y-56579428D01*
X117062562Y-56698026D01*
X117139816Y-56808355D01*
X117170173Y-56910415D01*
X117045910Y-55969785D02*
X117161675Y-55313246D01*
X118072063Y-55908955D01*
X138809829Y-117770241D02*
X137825022Y-117596592D01*
X137866366Y-117362114D01*
X137938069Y-117229697D01*
X138048398Y-117152443D01*
X138150458Y-117122086D01*
X138346310Y-117108266D01*
X138486996Y-117133073D01*
X138666310Y-117213044D01*
X138751832Y-117276478D01*
X138829085Y-117386807D01*
X138851174Y-117535763D01*
X138809829Y-117770241D01*
X137982132Y-116705576D02*
X138089628Y-116095933D01*
X138406910Y-116490354D01*
X138431717Y-116349667D01*
X138495151Y-116264145D01*
X138550315Y-116225518D01*
X138652376Y-116195161D01*
X138886854Y-116236505D01*
X138972376Y-116299939D01*
X139011002Y-116355103D01*
X139041360Y-116457164D01*
X138991746Y-116738537D01*
X138928313Y-116824060D01*
X138873148Y-116862686D01*
X139239815Y-115331669D02*
X139140588Y-115894416D01*
X139190201Y-115613043D02*
X138205394Y-115439395D01*
X138329543Y-115557993D01*
X138406796Y-115668322D01*
X138437154Y-115770382D01*
X207055352Y-55697115D02*
X206070545Y-55870764D01*
X206029200Y-55636285D01*
X206051288Y-55487330D01*
X206128542Y-55377001D01*
X206214064Y-55313567D01*
X206393377Y-55233596D01*
X206534064Y-55208789D01*
X206729916Y-55222608D01*
X206831976Y-55252966D01*
X206942305Y-55330219D01*
X207014007Y-55462637D01*
X207055352Y-55697115D01*
X205913434Y-54979747D02*
X205805938Y-54370104D01*
X206238985Y-54632222D01*
X206214178Y-54491535D01*
X206244536Y-54389475D01*
X206283163Y-54334310D01*
X206368685Y-54270877D01*
X206603163Y-54229532D01*
X206705223Y-54259889D01*
X206760388Y-54298516D01*
X206823821Y-54384038D01*
X206873435Y-54665412D01*
X206843077Y-54767472D01*
X206804451Y-54822637D01*
X205648828Y-53479088D02*
X205731517Y-53948044D01*
X206208742Y-53912250D01*
X206153578Y-53873623D01*
X206090144Y-53788101D01*
X206048799Y-53553623D01*
X206079157Y-53451563D01*
X206117784Y-53396398D01*
X206203306Y-53332964D01*
X206437784Y-53291620D01*
X206539844Y-53321977D01*
X206595009Y-53360604D01*
X206658442Y-53446126D01*
X206699787Y-53680604D01*
X206669429Y-53782664D01*
X206630803Y-53837829D01*
X197555352Y-58427114D02*
X196570545Y-58600763D01*
X196529200Y-58366284D01*
X196551288Y-58217329D01*
X196628542Y-58107000D01*
X196714064Y-58043566D01*
X196893377Y-57963595D01*
X197034064Y-57938788D01*
X197229916Y-57952607D01*
X197331976Y-57982965D01*
X197442305Y-58060218D01*
X197514007Y-58192636D01*
X197555352Y-58427114D01*
X196498957Y-57646312D02*
X196443792Y-57607686D01*
X196380358Y-57522164D01*
X196339014Y-57287686D01*
X196369371Y-57185625D01*
X196407998Y-57130461D01*
X196493520Y-57067027D01*
X196587311Y-57050489D01*
X196736267Y-57072578D01*
X197398242Y-57536098D01*
X197290746Y-56926455D01*
X196198441Y-56490460D02*
X196181903Y-56396669D01*
X196212261Y-56294609D01*
X196250888Y-56239444D01*
X196336410Y-56176011D01*
X196515723Y-56096039D01*
X196750201Y-56054694D01*
X196946053Y-56068514D01*
X197048113Y-56098872D01*
X197103278Y-56137499D01*
X197166711Y-56223021D01*
X197183249Y-56316812D01*
X197152891Y-56418872D01*
X197114265Y-56474037D01*
X197028742Y-56537470D01*
X196849429Y-56617442D01*
X196614951Y-56658787D01*
X196419100Y-56644967D01*
X196317039Y-56614609D01*
X196261875Y-56575982D01*
X196198441Y-56490460D01*
X89808227Y-51692360D02*
X88823420Y-51518711D01*
X88864764Y-51284233D01*
X88936467Y-51151816D01*
X89046796Y-51074562D01*
X89148856Y-51044205D01*
X89344708Y-51030385D01*
X89485394Y-51055192D01*
X89664708Y-51135163D01*
X89750230Y-51198597D01*
X89827483Y-51308926D01*
X89849572Y-51457882D01*
X89808227Y-51692360D01*
X89082590Y-50597337D02*
X89043963Y-50542173D01*
X89013606Y-50440112D01*
X89054950Y-50205634D01*
X89118384Y-50120112D01*
X89173549Y-50081486D01*
X89275609Y-50051128D01*
X89369400Y-50067666D01*
X89501818Y-50139368D01*
X89965338Y-50801343D01*
X90072834Y-50191700D01*
X89145909Y-49689783D02*
X89261674Y-49033244D01*
X90172062Y-49628953D01*
X258675352Y-51707116D02*
X257690545Y-51880765D01*
X257649200Y-51646286D01*
X257671288Y-51497331D01*
X257748542Y-51387002D01*
X257834064Y-51323568D01*
X258013377Y-51243597D01*
X258154064Y-51218790D01*
X258349916Y-51232609D01*
X258451976Y-51262967D01*
X258562305Y-51340220D01*
X258634007Y-51472638D01*
X258675352Y-51707116D01*
X258410746Y-50206457D02*
X258509973Y-50769204D01*
X258460359Y-50487831D02*
X257475552Y-50661479D01*
X257632776Y-50730463D01*
X257743105Y-50807716D01*
X257806539Y-50893239D01*
X258245366Y-49268545D02*
X258344594Y-49831292D01*
X258294980Y-49549918D02*
X257310172Y-49723567D01*
X257467397Y-49792551D01*
X257577726Y-49869804D01*
X257641160Y-49955326D01*
X278013751Y-52114999D02*
X277028944Y-52288648D01*
X276987599Y-52054169D01*
X277009687Y-51905214D01*
X277086941Y-51794885D01*
X277172463Y-51731451D01*
X277351776Y-51651480D01*
X277492463Y-51626673D01*
X277688315Y-51640492D01*
X277790375Y-51670850D01*
X277900704Y-51748103D01*
X277972406Y-51880521D01*
X278013751Y-52114999D01*
X277749145Y-50614340D02*
X277848372Y-51177087D01*
X277798758Y-50895714D02*
X276813951Y-51069362D01*
X276971175Y-51138346D01*
X277081504Y-51215599D01*
X277144938Y-51301122D01*
X276791976Y-50396285D02*
X276736812Y-50357659D01*
X276673378Y-50272136D01*
X276632033Y-50037658D01*
X276662391Y-49935598D01*
X276701018Y-49880434D01*
X276786540Y-49817000D01*
X276880331Y-49800462D01*
X277029287Y-49822551D01*
X277691262Y-50286071D01*
X277583765Y-49676428D01*
X225755351Y-52077115D02*
X224770544Y-52250764D01*
X224729199Y-52016285D01*
X224751287Y-51867330D01*
X224828541Y-51757001D01*
X224914063Y-51693567D01*
X225093376Y-51613596D01*
X225234063Y-51588789D01*
X225429915Y-51602608D01*
X225531975Y-51632966D01*
X225642304Y-51710219D01*
X225714006Y-51842637D01*
X225755351Y-52077115D01*
X224613433Y-51359747D02*
X224505937Y-50750104D01*
X224938984Y-51012222D01*
X224914177Y-50871535D01*
X224944535Y-50769475D01*
X224983162Y-50714310D01*
X225068684Y-50650877D01*
X225303162Y-50609532D01*
X225405222Y-50639889D01*
X225460387Y-50678516D01*
X225523820Y-50764038D01*
X225573434Y-51045412D01*
X225543076Y-51147472D01*
X225504450Y-51202637D01*
X224357095Y-49905983D02*
X224390171Y-50093566D01*
X224453605Y-50179088D01*
X224508769Y-50217715D01*
X224665994Y-50286699D01*
X224861846Y-50300519D01*
X225237010Y-50234367D01*
X225322533Y-50170933D01*
X225361159Y-50115769D01*
X225391517Y-50013709D01*
X225358441Y-49826126D01*
X225295008Y-49740604D01*
X225239843Y-49701977D01*
X225137783Y-49671620D01*
X224903305Y-49712964D01*
X224817783Y-49776398D01*
X224779156Y-49831563D01*
X224748798Y-49933623D01*
X224781874Y-50121205D01*
X224845308Y-50206727D01*
X224900472Y-50245354D01*
X225002532Y-50275712D01*
X219532661Y-51878160D02*
X218547853Y-52051808D01*
X218506508Y-51817330D01*
X218528597Y-51668375D01*
X218605850Y-51558046D01*
X218691372Y-51494612D01*
X218870686Y-51414641D01*
X219011373Y-51389834D01*
X219207224Y-51403653D01*
X219309284Y-51434011D01*
X219419613Y-51511264D01*
X219491316Y-51643682D01*
X219532661Y-51878160D01*
X219350744Y-50846457D02*
X219317668Y-50658874D01*
X219254234Y-50573352D01*
X219199070Y-50534726D01*
X219041845Y-50465741D01*
X218845993Y-50451921D01*
X218470829Y-50518073D01*
X218385306Y-50581507D01*
X218346680Y-50636671D01*
X218316322Y-50738731D01*
X218349398Y-50926314D01*
X218412831Y-51011836D01*
X218467996Y-51050463D01*
X218570056Y-51080820D01*
X218804534Y-51039476D01*
X218890056Y-50976042D01*
X218928683Y-50920878D01*
X218959041Y-50818817D01*
X218925965Y-50631235D01*
X218862531Y-50545713D01*
X218807367Y-50507086D01*
X218705307Y-50476728D01*
X183302665Y-61718161D02*
X182317857Y-61891809D01*
X182276512Y-61657331D01*
X182298601Y-61508376D01*
X182375854Y-61398047D01*
X182461376Y-61334613D01*
X182640690Y-61254642D01*
X182781377Y-61229835D01*
X182977228Y-61243654D01*
X183079288Y-61274012D01*
X183189617Y-61351265D01*
X183261320Y-61483683D01*
X183302665Y-61718161D01*
X182160747Y-61000793D02*
X182044981Y-60344254D01*
X183104210Y-60592667D01*
X213035354Y-53747114D02*
X212050547Y-53920763D01*
X212009202Y-53686284D01*
X212031290Y-53537329D01*
X212108544Y-53427000D01*
X212194066Y-53363566D01*
X212373379Y-53283595D01*
X212514066Y-53258788D01*
X212709918Y-53272607D01*
X212811978Y-53302965D01*
X212922307Y-53380218D01*
X212994009Y-53512636D01*
X213035354Y-53747114D01*
X211978959Y-52966312D02*
X211923794Y-52927686D01*
X211860360Y-52842164D01*
X211819016Y-52607686D01*
X211849373Y-52505625D01*
X211888000Y-52450461D01*
X211973522Y-52387027D01*
X212067313Y-52370489D01*
X212216269Y-52392578D01*
X212878244Y-52856098D01*
X212770748Y-52246455D01*
X212605368Y-51308543D02*
X212704596Y-51871290D01*
X212654982Y-51589916D02*
X211670174Y-51763565D01*
X211827399Y-51832549D01*
X211937728Y-51909802D01*
X212001162Y-51995324D01*
X95770917Y-52023404D02*
X94786109Y-51849755D01*
X94827454Y-51615277D01*
X94899156Y-51482859D01*
X95009486Y-51405606D01*
X95111546Y-51375248D01*
X95307397Y-51361429D01*
X95448084Y-51386236D01*
X95627397Y-51466207D01*
X95712920Y-51529641D01*
X95790173Y-51639970D01*
X95812262Y-51788926D01*
X95770917Y-52023404D01*
X95362447Y-50500770D02*
X96018986Y-50616535D01*
X94945938Y-50669096D02*
X95608027Y-51027609D01*
X95715523Y-50417966D01*
X37382518Y-51281290D02*
X36397710Y-51107641D01*
X36439055Y-50873163D01*
X36510757Y-50740745D01*
X36621087Y-50663492D01*
X36723147Y-50633134D01*
X36918998Y-50619315D01*
X37059685Y-50644122D01*
X37238998Y-50724093D01*
X37324521Y-50787527D01*
X37401774Y-50897856D01*
X37423863Y-51046812D01*
X37382518Y-51281290D01*
X37647125Y-49780630D02*
X37547897Y-50343377D01*
X37597511Y-50062004D02*
X36612703Y-49888356D01*
X36736852Y-50006954D01*
X36814105Y-50117283D01*
X36844463Y-50219343D01*
X264925354Y-52227115D02*
X263940547Y-52400764D01*
X263899202Y-52166285D01*
X263921290Y-52017330D01*
X263998544Y-51907001D01*
X264084066Y-51843567D01*
X264263379Y-51763596D01*
X264404066Y-51738789D01*
X264599918Y-51752608D01*
X264701978Y-51782966D01*
X264812307Y-51860219D01*
X264884009Y-51992637D01*
X264925354Y-52227115D01*
X263783436Y-51509747D02*
X263675940Y-50900104D01*
X264108987Y-51162222D01*
X264084180Y-51021535D01*
X264114538Y-50919475D01*
X264153165Y-50864310D01*
X264238687Y-50800877D01*
X264473165Y-50759532D01*
X264575225Y-50789889D01*
X264630390Y-50828516D01*
X264693823Y-50914038D01*
X264743437Y-51195412D01*
X264713079Y-51297472D01*
X264674453Y-51352637D01*
X263998773Y-50262936D02*
X263968415Y-50364996D01*
X263929788Y-50420161D01*
X263844266Y-50483594D01*
X263797371Y-50491863D01*
X263695310Y-50461506D01*
X263640146Y-50422879D01*
X263576712Y-50337357D01*
X263543636Y-50149774D01*
X263573994Y-50047714D01*
X263612621Y-49992550D01*
X263698143Y-49929116D01*
X263745039Y-49920847D01*
X263847099Y-49951205D01*
X263902263Y-49989831D01*
X263965697Y-50075354D01*
X263998773Y-50262936D01*
X264062206Y-50348458D01*
X264117371Y-50387085D01*
X264219431Y-50417443D01*
X264407013Y-50384367D01*
X264492536Y-50320933D01*
X264531162Y-50265769D01*
X264561520Y-50163709D01*
X264528444Y-49976126D01*
X264465011Y-49890604D01*
X264409846Y-49851977D01*
X264307786Y-49821620D01*
X264120203Y-49854695D01*
X264034681Y-49918129D01*
X263996055Y-49973294D01*
X263965697Y-50075354D01*
X126808228Y-60782362D02*
X125823421Y-60608713D01*
X125864765Y-60374235D01*
X125936468Y-60241818D01*
X126046797Y-60164564D01*
X126148857Y-60134207D01*
X126344709Y-60120387D01*
X126485395Y-60145194D01*
X126664709Y-60225165D01*
X126750231Y-60288599D01*
X126827484Y-60398928D01*
X126849573Y-60547884D01*
X126808228Y-60782362D01*
X125980531Y-59717697D02*
X126088027Y-59108054D01*
X126405309Y-59502475D01*
X126430116Y-59361788D01*
X126493550Y-59276266D01*
X126548714Y-59237639D01*
X126650775Y-59207282D01*
X126885253Y-59248626D01*
X126970775Y-59312060D01*
X127009401Y-59367224D01*
X127039759Y-59469285D01*
X126990145Y-59750658D01*
X126926712Y-59836181D01*
X126871547Y-59874807D01*
X127155525Y-58812746D02*
X127188600Y-58625164D01*
X127158243Y-58523104D01*
X127119616Y-58467939D01*
X126995467Y-58349341D01*
X126816154Y-58269369D01*
X126440989Y-58203218D01*
X126338929Y-58233575D01*
X126283764Y-58272202D01*
X126220331Y-58357724D01*
X126187255Y-58545307D01*
X126217612Y-58647367D01*
X126256239Y-58702531D01*
X126341761Y-58765965D01*
X126576239Y-58807310D01*
X126678300Y-58776952D01*
X126733464Y-58738325D01*
X126796898Y-58652803D01*
X126829974Y-58465221D01*
X126799616Y-58363161D01*
X126760989Y-58307996D01*
X126675467Y-58244563D01*
X131730917Y-62003402D02*
X130746109Y-61829753D01*
X130787454Y-61595275D01*
X130859156Y-61462857D01*
X130969486Y-61385604D01*
X131071546Y-61355246D01*
X131267397Y-61341427D01*
X131408084Y-61366234D01*
X131587397Y-61446205D01*
X131672920Y-61509639D01*
X131750173Y-61619968D01*
X131772262Y-61768924D01*
X131730917Y-62003402D01*
X130994178Y-60422885D02*
X130961102Y-60610468D01*
X130991460Y-60712528D01*
X131030086Y-60767692D01*
X131154235Y-60886290D01*
X131333549Y-60966262D01*
X131708714Y-61032414D01*
X131810774Y-61002056D01*
X131865938Y-60963429D01*
X131929372Y-60877907D01*
X131962448Y-60690325D01*
X131932090Y-60588264D01*
X131893463Y-60533100D01*
X131807941Y-60469666D01*
X131573463Y-60428321D01*
X131471403Y-60458679D01*
X131416238Y-60497306D01*
X131352805Y-60582828D01*
X131319729Y-60770410D01*
X131350087Y-60872471D01*
X131388713Y-60927635D01*
X131474236Y-60991069D01*
X57360918Y-50973403D02*
X56376110Y-50799754D01*
X56417455Y-50565276D01*
X56489157Y-50432858D01*
X56599487Y-50355605D01*
X56701547Y-50325247D01*
X56897398Y-50311428D01*
X57038085Y-50336235D01*
X57217398Y-50416206D01*
X57302921Y-50479640D01*
X57380174Y-50589969D01*
X57402263Y-50738925D01*
X57360918Y-50973403D01*
X56635281Y-49878380D02*
X56596654Y-49823216D01*
X56566296Y-49721155D01*
X56607641Y-49486677D01*
X56671075Y-49401155D01*
X56726239Y-49362528D01*
X56828299Y-49332171D01*
X56922091Y-49348709D01*
X57054508Y-49420411D01*
X57518028Y-50082386D01*
X57625525Y-49472743D01*
X70348228Y-51002361D02*
X69363421Y-50828712D01*
X69404765Y-50594234D01*
X69476468Y-50461817D01*
X69586797Y-50384563D01*
X69688857Y-50354206D01*
X69884709Y-50340386D01*
X70025395Y-50365193D01*
X70204709Y-50445164D01*
X70290231Y-50508598D01*
X70367484Y-50618927D01*
X70389573Y-50767883D01*
X70348228Y-51002361D01*
X69622591Y-49907338D02*
X69583964Y-49852174D01*
X69553607Y-49750113D01*
X69594951Y-49515635D01*
X69658385Y-49430113D01*
X69713550Y-49391487D01*
X69815610Y-49361129D01*
X69909401Y-49377667D01*
X70041819Y-49449369D01*
X70505339Y-50111344D01*
X70612835Y-49501701D01*
X69776869Y-48483932D02*
X69743793Y-48671515D01*
X69774150Y-48773575D01*
X69812777Y-48828739D01*
X69936926Y-48947337D01*
X70116239Y-49027309D01*
X70491404Y-49093460D01*
X70593464Y-49063103D01*
X70648629Y-49024476D01*
X70712063Y-48938954D01*
X70745138Y-48751371D01*
X70714781Y-48649311D01*
X70676154Y-48594147D01*
X70590632Y-48530713D01*
X70356154Y-48489368D01*
X70254094Y-48519726D01*
X70198929Y-48558353D01*
X70135495Y-48643875D01*
X70102420Y-48831457D01*
X70132777Y-48933518D01*
X70171404Y-48988682D01*
X70256926Y-49052116D01*
X107978231Y-55022360D02*
X106993424Y-54848711D01*
X107034768Y-54614233D01*
X107106471Y-54481816D01*
X107216800Y-54404562D01*
X107318860Y-54374205D01*
X107514712Y-54360385D01*
X107655398Y-54385192D01*
X107834712Y-54465163D01*
X107920234Y-54528597D01*
X107997487Y-54638926D01*
X108019576Y-54787882D01*
X107978231Y-55022360D01*
X107252594Y-53927337D02*
X107213967Y-53872173D01*
X107183610Y-53770112D01*
X107224954Y-53535634D01*
X107288388Y-53450112D01*
X107343553Y-53411486D01*
X107445613Y-53381128D01*
X107539404Y-53397666D01*
X107671822Y-53469368D01*
X108135342Y-54131343D01*
X108242838Y-53521700D01*
X107779318Y-52859725D02*
X107715885Y-52945248D01*
X107660720Y-52983874D01*
X107558660Y-53014232D01*
X107511764Y-53005963D01*
X107426242Y-52942529D01*
X107387615Y-52887365D01*
X107357258Y-52785305D01*
X107390334Y-52597722D01*
X107453767Y-52512200D01*
X107508932Y-52473573D01*
X107610992Y-52443216D01*
X107657888Y-52451485D01*
X107743410Y-52514918D01*
X107782036Y-52570083D01*
X107812394Y-52672143D01*
X107779318Y-52859725D01*
X107809676Y-52961786D01*
X107848303Y-53016950D01*
X107933825Y-53080384D01*
X108121407Y-53113459D01*
X108223467Y-53083102D01*
X108278632Y-53044475D01*
X108342066Y-52958953D01*
X108375141Y-52771370D01*
X108344784Y-52669310D01*
X108306157Y-52614146D01*
X108220635Y-52550712D01*
X108033052Y-52517636D01*
X107930992Y-52547994D01*
X107875828Y-52586621D01*
X107812394Y-52672143D01*
X136198228Y-63882362D02*
X135213421Y-63708713D01*
X135254765Y-63474235D01*
X135326468Y-63341818D01*
X135436797Y-63264564D01*
X135538857Y-63234207D01*
X135734709Y-63220387D01*
X135875395Y-63245194D01*
X136054709Y-63325165D01*
X136140231Y-63388599D01*
X136217484Y-63498928D01*
X136239573Y-63647884D01*
X136198228Y-63882362D01*
X136462835Y-62381702D02*
X136363607Y-62944449D01*
X136413221Y-62663076D02*
X135428413Y-62489428D01*
X135552562Y-62608026D01*
X135629816Y-62718355D01*
X135660173Y-62820415D01*
X135999315Y-61719727D02*
X135935882Y-61805250D01*
X135880717Y-61843876D01*
X135778657Y-61874234D01*
X135731761Y-61865965D01*
X135646239Y-61802531D01*
X135607612Y-61747367D01*
X135577255Y-61645307D01*
X135610331Y-61457724D01*
X135673764Y-61372202D01*
X135728929Y-61333575D01*
X135830989Y-61303218D01*
X135877885Y-61311487D01*
X135963407Y-61374920D01*
X136002033Y-61430085D01*
X136032391Y-61532145D01*
X135999315Y-61719727D01*
X136029673Y-61821788D01*
X136068300Y-61876952D01*
X136153822Y-61940386D01*
X136341404Y-61973461D01*
X136443464Y-61943104D01*
X136498629Y-61904477D01*
X136562063Y-61818955D01*
X136595138Y-61631372D01*
X136564781Y-61529312D01*
X136526154Y-61474148D01*
X136440632Y-61410714D01*
X136253049Y-61377638D01*
X136150989Y-61407996D01*
X136095825Y-61446623D01*
X136032391Y-61532145D01*
X44938228Y-51662361D02*
X43953421Y-51488712D01*
X43994765Y-51254234D01*
X44066468Y-51121817D01*
X44176797Y-51044563D01*
X44278857Y-51014206D01*
X44474709Y-51000386D01*
X44615395Y-51025193D01*
X44794709Y-51105164D01*
X44880231Y-51168598D01*
X44957484Y-51278927D01*
X44979573Y-51427883D01*
X44938228Y-51662361D01*
X45202835Y-50161701D02*
X45103607Y-50724448D01*
X45153221Y-50443075D02*
X44168413Y-50269427D01*
X44292562Y-50388025D01*
X44369816Y-50498354D01*
X44400173Y-50600414D01*
X44275910Y-49659784D02*
X44383406Y-49050141D01*
X44700689Y-49444562D01*
X44725495Y-49303875D01*
X44788929Y-49218353D01*
X44844094Y-49179726D01*
X44946154Y-49149368D01*
X45180632Y-49190713D01*
X45266154Y-49254147D01*
X45304781Y-49309311D01*
X45335138Y-49411371D01*
X45285525Y-49692745D01*
X45222091Y-49778267D01*
X45166927Y-49816894D01*
X167869768Y-139962000D02*
X166869768Y-139962000D01*
X166869768Y-139723905D01*
X166917388Y-139581048D01*
X167012626Y-139485810D01*
X167107864Y-139438191D01*
X167298340Y-139390572D01*
X167441197Y-139390572D01*
X167631673Y-139438191D01*
X167726911Y-139485810D01*
X167822149Y-139581048D01*
X167869768Y-139723905D01*
X167869768Y-139962000D01*
X167203102Y-138533429D02*
X167869768Y-138533429D01*
X166822149Y-138771524D02*
X167536435Y-139009619D01*
X167536435Y-138390572D01*
X167869768Y-137485810D02*
X167869768Y-138057238D01*
X167869768Y-137771524D02*
X166869768Y-137771524D01*
X167012626Y-137866762D01*
X167107864Y-137962000D01*
X167155483Y-138057238D01*
X178695351Y-63887114D02*
X177710544Y-64060763D01*
X177669199Y-63826284D01*
X177691287Y-63677329D01*
X177768541Y-63567000D01*
X177854063Y-63503566D01*
X178033376Y-63423595D01*
X178174063Y-63398788D01*
X178369915Y-63412607D01*
X178471975Y-63442965D01*
X178582304Y-63520218D01*
X178654006Y-63652636D01*
X178695351Y-63887114D01*
X178430745Y-62386455D02*
X178529972Y-62949202D01*
X178480358Y-62667829D02*
X177495551Y-62841477D01*
X177652775Y-62910461D01*
X177763104Y-62987714D01*
X177826538Y-63073237D01*
X178348055Y-61917499D02*
X178314979Y-61729916D01*
X178251546Y-61644394D01*
X178196381Y-61605768D01*
X178039156Y-61536783D01*
X177843305Y-61522963D01*
X177468140Y-61589115D01*
X177382618Y-61652549D01*
X177343991Y-61707713D01*
X177313633Y-61809773D01*
X177346709Y-61997356D01*
X177410143Y-62082878D01*
X177465307Y-62121505D01*
X177567368Y-62151862D01*
X177801846Y-62110518D01*
X177887368Y-62047084D01*
X177925994Y-61991919D01*
X177956352Y-61889859D01*
X177923276Y-61702277D01*
X177859843Y-61616755D01*
X177804678Y-61578128D01*
X177702618Y-61547770D01*
X113580917Y-56153403D02*
X112596109Y-55979754D01*
X112637454Y-55745276D01*
X112709156Y-55612858D01*
X112819486Y-55535605D01*
X112921546Y-55505247D01*
X113117397Y-55491428D01*
X113258084Y-55516235D01*
X113437397Y-55596206D01*
X113522920Y-55659640D01*
X113600173Y-55769969D01*
X113622262Y-55918925D01*
X113580917Y-56153403D01*
X112852447Y-54525991D02*
X112769757Y-54994947D01*
X113230444Y-55124532D01*
X113191818Y-55069367D01*
X113161460Y-54967307D01*
X113202805Y-54732829D01*
X113266238Y-54647307D01*
X113321403Y-54608680D01*
X113423463Y-54578322D01*
X113657941Y-54619667D01*
X113743463Y-54683101D01*
X113782090Y-54738265D01*
X113812448Y-54840326D01*
X113771103Y-55074804D01*
X113707669Y-55160326D01*
X113652505Y-55198952D01*
X231635351Y-52027118D02*
X230650544Y-52200767D01*
X230609199Y-51966288D01*
X230631287Y-51817333D01*
X230708541Y-51707004D01*
X230794063Y-51643570D01*
X230973376Y-51563599D01*
X231114063Y-51538792D01*
X231309915Y-51552611D01*
X231411975Y-51582969D01*
X231522304Y-51660222D01*
X231594006Y-51792640D01*
X231635351Y-52027118D01*
X230578956Y-51246316D02*
X230523791Y-51207690D01*
X230460357Y-51122168D01*
X230419013Y-50887690D01*
X230449370Y-50785629D01*
X230487997Y-50730465D01*
X230573519Y-50667031D01*
X230667310Y-50650493D01*
X230816266Y-50672582D01*
X231478241Y-51136102D01*
X231370745Y-50526459D01*
X230413576Y-50308404D02*
X230358412Y-50269778D01*
X230294978Y-50184255D01*
X230253633Y-49949777D01*
X230283991Y-49847717D01*
X230322618Y-49792553D01*
X230408140Y-49729119D01*
X230501931Y-49712581D01*
X230650887Y-49734670D01*
X231312862Y-50198190D01*
X231205365Y-49588547D01*
X271295349Y-51907116D02*
X270310542Y-52080765D01*
X270269197Y-51846286D01*
X270291285Y-51697331D01*
X270368539Y-51587002D01*
X270454061Y-51523568D01*
X270633374Y-51443597D01*
X270774061Y-51418790D01*
X270969913Y-51432609D01*
X271071973Y-51462967D01*
X271182302Y-51540220D01*
X271254004Y-51672638D01*
X271295349Y-51907116D01*
X270238954Y-51126314D02*
X270183789Y-51087688D01*
X270120355Y-51002166D01*
X270079011Y-50767688D01*
X270109368Y-50665627D01*
X270147995Y-50610463D01*
X270233517Y-50547029D01*
X270327308Y-50530491D01*
X270476264Y-50552580D01*
X271138239Y-51016100D01*
X271030743Y-50406457D01*
X270225363Y-49678101D02*
X270881901Y-49562336D01*
X269891543Y-49978731D02*
X270636322Y-50089175D01*
X270528825Y-49479532D01*
X101899826Y-53430245D02*
X100915019Y-53256596D01*
X100956363Y-53022118D01*
X101028066Y-52889701D01*
X101138395Y-52812447D01*
X101240455Y-52782090D01*
X101436307Y-52768270D01*
X101576993Y-52793077D01*
X101756307Y-52873048D01*
X101841829Y-52936482D01*
X101919082Y-53046811D01*
X101941171Y-53195767D01*
X101899826Y-53430245D01*
X102164433Y-51929585D02*
X102065205Y-52492332D01*
X102114819Y-52210959D02*
X101130011Y-52037311D01*
X101254160Y-52155909D01*
X101331414Y-52266238D01*
X101361771Y-52368298D01*
X101328467Y-50911816D02*
X101295391Y-51099399D01*
X101325748Y-51201459D01*
X101364375Y-51256623D01*
X101488524Y-51375221D01*
X101667837Y-51455193D01*
X102043002Y-51521344D01*
X102145062Y-51490987D01*
X102200227Y-51452360D01*
X102263661Y-51366838D01*
X102296736Y-51179255D01*
X102266379Y-51077195D01*
X102227752Y-51022031D01*
X102142230Y-50958597D01*
X101907752Y-50917252D01*
X101805692Y-50947610D01*
X101750527Y-50986237D01*
X101687093Y-51071759D01*
X101654018Y-51259341D01*
X101684375Y-51361402D01*
X101723002Y-51416566D01*
X101808524Y-51480000D01*
X122448229Y-59232361D02*
X121463422Y-59058712D01*
X121504766Y-58824234D01*
X121576469Y-58691817D01*
X121686798Y-58614563D01*
X121788858Y-58584206D01*
X121984710Y-58570386D01*
X122125396Y-58595193D01*
X122304710Y-58675164D01*
X122390232Y-58738598D01*
X122467485Y-58848927D01*
X122489574Y-58997883D01*
X122448229Y-59232361D01*
X121722592Y-58137338D02*
X121683965Y-58082174D01*
X121653608Y-57980113D01*
X121694952Y-57745635D01*
X121758386Y-57660113D01*
X121813551Y-57621487D01*
X121915611Y-57591129D01*
X122009402Y-57607667D01*
X122141820Y-57679369D01*
X122605340Y-58341344D01*
X122712836Y-57731701D01*
X122795526Y-57262745D02*
X122828601Y-57075163D01*
X122798244Y-56973103D01*
X122759617Y-56917938D01*
X122635468Y-56799340D01*
X122456155Y-56719368D01*
X122080990Y-56653217D01*
X121978930Y-56683574D01*
X121923765Y-56722201D01*
X121860332Y-56807723D01*
X121827256Y-56995306D01*
X121857613Y-57097366D01*
X121896240Y-57152530D01*
X121981762Y-57215964D01*
X122216240Y-57257309D01*
X122318301Y-57226951D01*
X122373465Y-57188324D01*
X122436899Y-57102802D01*
X122469975Y-56915220D01*
X122439617Y-56813160D01*
X122400990Y-56757995D01*
X122315468Y-56694562D01*
X192805350Y-59794998D02*
X191820543Y-59968647D01*
X191779198Y-59734168D01*
X191801286Y-59585213D01*
X191878540Y-59474884D01*
X191964062Y-59411450D01*
X192143375Y-59331479D01*
X192284062Y-59306672D01*
X192479914Y-59320491D01*
X192581974Y-59350849D01*
X192692303Y-59428102D01*
X192764005Y-59560520D01*
X192805350Y-59794998D01*
X191663432Y-59077630D02*
X191555936Y-58467987D01*
X191988983Y-58730105D01*
X191964176Y-58589418D01*
X191994534Y-58487358D01*
X192033161Y-58432193D01*
X192118683Y-58368760D01*
X192353161Y-58327415D01*
X192455221Y-58357772D01*
X192510386Y-58396399D01*
X192573819Y-58481921D01*
X192623433Y-58763295D01*
X192593075Y-58865355D01*
X192554449Y-58920520D01*
X191735364Y-57565983D02*
X192391902Y-57450218D01*
X191401544Y-57866613D02*
X192146323Y-57977057D01*
X192038826Y-57367414D01*
X83268230Y-51292359D02*
X82283423Y-51118710D01*
X82324767Y-50884232D01*
X82396470Y-50751815D01*
X82506799Y-50674561D01*
X82608859Y-50644204D01*
X82804711Y-50630384D01*
X82945397Y-50655191D01*
X83124711Y-50735162D01*
X83210233Y-50798596D01*
X83287486Y-50908925D01*
X83309575Y-51057881D01*
X83268230Y-51292359D01*
X83532837Y-49791699D02*
X83433609Y-50354446D01*
X83483223Y-50073073D02*
X82498415Y-49899425D01*
X82622564Y-50018023D01*
X82699818Y-50128352D01*
X82730175Y-50230412D01*
X82705140Y-48727034D02*
X82622450Y-49195991D01*
X83083137Y-49325576D01*
X83044510Y-49270411D01*
X83014153Y-49168351D01*
X83055497Y-48933873D01*
X83118931Y-48848351D01*
X83174096Y-48809724D01*
X83276156Y-48779366D01*
X83510634Y-48820711D01*
X83596156Y-48884145D01*
X83634783Y-48939309D01*
X83665140Y-49041369D01*
X83623796Y-49275848D01*
X83560362Y-49361370D01*
X83505197Y-49399996D01*
X238573749Y-51415000D02*
X237588942Y-51588649D01*
X237547597Y-51354170D01*
X237569685Y-51205215D01*
X237646939Y-51094886D01*
X237732461Y-51031452D01*
X237911774Y-50951481D01*
X238052461Y-50926674D01*
X238248313Y-50940493D01*
X238350373Y-50970851D01*
X238460702Y-51048104D01*
X238532404Y-51180522D01*
X238573749Y-51415000D01*
X238309143Y-49914341D02*
X238408370Y-50477088D01*
X238358756Y-50195715D02*
X237373949Y-50369363D01*
X237531173Y-50438347D01*
X237641502Y-50515600D01*
X237704936Y-50601123D01*
X237216838Y-49478346D02*
X237200300Y-49384555D01*
X237230658Y-49282495D01*
X237269285Y-49227330D01*
X237354807Y-49163897D01*
X237534120Y-49083925D01*
X237768598Y-49042580D01*
X237964450Y-49056400D01*
X238066510Y-49086758D01*
X238121675Y-49125385D01*
X238185108Y-49210907D01*
X238201646Y-49304698D01*
X238171288Y-49406758D01*
X238132662Y-49461923D01*
X238047139Y-49525356D01*
X237867826Y-49605328D01*
X237633348Y-49646673D01*
X237437497Y-49632853D01*
X237335436Y-49602495D01*
X237280272Y-49563868D01*
X237216838Y-49478346D01*
X168943753Y-65944995D02*
X167958946Y-66118644D01*
X167917601Y-65884165D01*
X167939689Y-65735210D01*
X168016943Y-65624881D01*
X168102465Y-65561447D01*
X168281778Y-65481476D01*
X168422465Y-65456669D01*
X168618317Y-65470488D01*
X168720377Y-65500846D01*
X168830706Y-65578099D01*
X168902408Y-65710517D01*
X168943753Y-65944995D01*
X168039146Y-64653893D02*
X168695684Y-64538127D01*
X167705326Y-64954522D02*
X168450105Y-65064966D01*
X168342608Y-64455323D01*
X167721978Y-64226281D02*
X167666814Y-64187655D01*
X167603380Y-64102132D01*
X167562035Y-63867654D01*
X167592393Y-63765594D01*
X167631020Y-63710430D01*
X167716542Y-63646996D01*
X167810333Y-63630458D01*
X167959289Y-63652547D01*
X168621264Y-64116067D01*
X168513767Y-63506424D01*
X173655350Y-64847115D02*
X172670543Y-65020764D01*
X172629198Y-64786285D01*
X172651286Y-64637330D01*
X172728540Y-64527001D01*
X172814062Y-64463567D01*
X172993375Y-64383596D01*
X173134062Y-64358789D01*
X173329914Y-64372608D01*
X173431974Y-64402966D01*
X173542303Y-64480219D01*
X173614005Y-64612637D01*
X173655350Y-64847115D01*
X172513432Y-64129747D02*
X172405936Y-63520104D01*
X172838983Y-63782222D01*
X172814176Y-63641535D01*
X172844534Y-63539475D01*
X172883161Y-63484310D01*
X172968683Y-63420877D01*
X173203161Y-63379532D01*
X173305221Y-63409889D01*
X173360386Y-63448516D01*
X173423819Y-63534038D01*
X173473433Y-63815412D01*
X173443075Y-63917472D01*
X173404449Y-63972637D01*
X172348053Y-63191835D02*
X172240557Y-62582192D01*
X172673604Y-62844310D01*
X172648797Y-62703623D01*
X172679155Y-62601563D01*
X172717782Y-62546398D01*
X172803304Y-62482964D01*
X173037782Y-62441620D01*
X173139842Y-62471977D01*
X173195007Y-62510604D01*
X173258440Y-62596126D01*
X173308054Y-62877500D01*
X173277696Y-62979560D01*
X173239070Y-63034725D01*
X252255351Y-51637115D02*
X251270544Y-51810764D01*
X251229199Y-51576285D01*
X251251287Y-51427330D01*
X251328541Y-51317001D01*
X251414063Y-51253567D01*
X251593376Y-51173596D01*
X251734063Y-51148789D01*
X251929915Y-51162608D01*
X252031975Y-51192966D01*
X252142304Y-51270219D01*
X252214006Y-51402637D01*
X252255351Y-51637115D01*
X251198956Y-50856313D02*
X251143791Y-50817687D01*
X251080357Y-50732165D01*
X251039013Y-50497687D01*
X251069370Y-50395626D01*
X251107997Y-50340462D01*
X251193519Y-50277028D01*
X251287310Y-50260490D01*
X251436266Y-50282579D01*
X252098241Y-50746099D01*
X251990745Y-50136456D01*
X250948054Y-49981835D02*
X250840558Y-49372192D01*
X251273605Y-49634310D01*
X251248798Y-49493623D01*
X251279156Y-49391563D01*
X251317783Y-49336398D01*
X251403305Y-49272964D01*
X251637783Y-49231620D01*
X251739843Y-49261977D01*
X251795008Y-49300604D01*
X251858441Y-49386126D01*
X251908055Y-49667500D01*
X251877697Y-49769560D01*
X251839071Y-49824725D01*
G36*
X158857418Y-90576879D02*
G01*
X158841443Y-90592854D01*
X158825468Y-90576879D01*
X158841443Y-90560905D01*
X158857418Y-90576879D01*
G37*
G36*
X152723078Y-89554489D02*
G01*
X152707103Y-89570464D01*
X152691129Y-89554489D01*
X152707103Y-89538515D01*
X152723078Y-89554489D01*
G37*
G36*
X163617921Y-90369206D02*
G01*
X163708463Y-90324642D01*
X163756067Y-90310850D01*
X163774535Y-90329210D01*
X163777668Y-90381102D01*
X163777670Y-90385181D01*
X163771428Y-90435103D01*
X163741120Y-90458331D01*
X163669371Y-90464859D01*
X163638805Y-90465055D01*
X163527015Y-90475250D01*
X163425221Y-90500493D01*
X163407169Y-90507865D01*
X163311545Y-90552282D01*
X163234525Y-90588404D01*
X163154651Y-90626132D01*
X163242512Y-90608884D01*
X163305762Y-90599915D01*
X163330374Y-90602840D01*
X163305601Y-90624274D01*
X163241068Y-90668946D01*
X163162638Y-90719622D01*
X162918642Y-90874608D01*
X162722760Y-91002969D01*
X162567977Y-91110386D01*
X162447278Y-91202546D01*
X162353649Y-91285133D01*
X162280074Y-91363830D01*
X162219539Y-91444322D01*
X162169670Y-91524270D01*
X162114140Y-91631504D01*
X162047275Y-91777622D01*
X161978131Y-91940948D01*
X161915765Y-92099807D01*
X161869235Y-92232525D01*
X161857971Y-92270213D01*
X161754004Y-92668904D01*
X161677599Y-93023815D01*
X161629029Y-93347653D01*
X161608567Y-93653127D01*
X161616485Y-93952946D01*
X161653056Y-94259818D01*
X161718554Y-94586450D01*
X161813252Y-94945553D01*
X161923167Y-95305433D01*
X162050679Y-95711409D01*
X162156344Y-96063732D01*
X162241767Y-96368190D01*
X162308550Y-96630570D01*
X162358297Y-96856661D01*
X162370253Y-96918892D01*
X162395733Y-97055144D01*
X162421530Y-97190727D01*
X162436976Y-97270338D01*
X162449835Y-97354991D01*
X162465398Y-97487064D01*
X162481926Y-97650230D01*
X162497679Y-97828166D01*
X162501634Y-97877383D01*
X162517199Y-98458240D01*
X162474861Y-99056549D01*
X162420948Y-99425528D01*
X162393827Y-99578696D01*
X162370806Y-99698031D01*
X162347331Y-99801200D01*
X162318850Y-99905875D01*
X162280811Y-100029724D01*
X162228662Y-100190416D01*
X162206562Y-100257634D01*
X161998510Y-100798815D01*
X161740871Y-101305313D01*
X161429804Y-101783494D01*
X161061466Y-102239723D01*
X160912999Y-102400980D01*
X160719334Y-102590505D01*
X160480219Y-102801966D01*
X160206575Y-103027211D01*
X159909327Y-103258090D01*
X159599396Y-103486451D01*
X159287704Y-103704143D01*
X158985175Y-103903015D01*
X158702730Y-104074915D01*
X158569871Y-104149608D01*
X158468587Y-104206807D01*
X158385504Y-104257530D01*
X158346223Y-104284967D01*
X158305163Y-104309800D01*
X158215225Y-104358515D01*
X158084892Y-104426834D01*
X157922647Y-104510480D01*
X157736973Y-104605177D01*
X157536352Y-104706647D01*
X157329268Y-104810613D01*
X157124203Y-104912799D01*
X156929639Y-105008928D01*
X156754061Y-105094722D01*
X156605951Y-105165905D01*
X156509116Y-105211211D01*
X156280785Y-105315774D01*
X156099106Y-105398690D01*
X155952696Y-105465050D01*
X155830169Y-105519944D01*
X155720142Y-105568462D01*
X155611230Y-105615693D01*
X155492049Y-105666728D01*
X155454776Y-105682611D01*
X155253865Y-105765441D01*
X155027263Y-105853385D01*
X154762339Y-105951240D01*
X154512261Y-106040613D01*
X154373891Y-106091153D01*
X154257120Y-106136884D01*
X154175699Y-106172227D01*
X154144839Y-106189654D01*
X154136758Y-106206205D01*
X154145968Y-106231451D01*
X154178193Y-106271237D01*
X154239156Y-106331407D01*
X154334580Y-106417806D01*
X154470190Y-106536279D01*
X154561288Y-106614912D01*
X154764603Y-106787370D01*
X154927627Y-106917863D01*
X155056333Y-107008502D01*
X155156696Y-107061397D01*
X155234688Y-107078661D01*
X155296284Y-107062403D01*
X155347457Y-107014735D01*
X155394180Y-106937769D01*
X155406199Y-106913504D01*
X155451280Y-106840864D01*
X155504539Y-106814430D01*
X155549017Y-106814035D01*
X155625009Y-106827683D01*
X155667822Y-106847837D01*
X155670415Y-106889004D01*
X155650979Y-106970570D01*
X155614780Y-107072122D01*
X155573873Y-107177092D01*
X155544997Y-107259393D01*
X155534651Y-107299780D01*
X155561764Y-107325533D01*
X155633927Y-107369427D01*
X155737375Y-107424626D01*
X155858341Y-107484294D01*
X155983060Y-107541593D01*
X156097767Y-107589688D01*
X156173644Y-107617126D01*
X156373232Y-107671943D01*
X156592161Y-107716922D01*
X156816949Y-107750734D01*
X157034114Y-107772051D01*
X157230173Y-107779544D01*
X157391643Y-107771885D01*
X157503891Y-107748187D01*
X157585752Y-107736840D01*
X157700648Y-107743220D01*
X157821359Y-107763782D01*
X157920666Y-107794979D01*
X157940946Y-107805145D01*
X157944525Y-107835938D01*
X157904500Y-107887044D01*
X157832704Y-107947000D01*
X157740972Y-108004343D01*
X157728668Y-108010769D01*
X157623421Y-108051030D01*
X157475266Y-108090644D01*
X157305100Y-108125491D01*
X157133819Y-108151450D01*
X156982320Y-108164403D01*
X156945762Y-108165138D01*
X156858562Y-108176112D01*
X156818996Y-108201678D01*
X156831321Y-108230905D01*
X156899798Y-108252864D01*
X156910990Y-108254372D01*
X157001349Y-108273409D01*
X157052261Y-108290578D01*
X157112754Y-108315572D01*
X157211851Y-108356058D01*
X157328905Y-108403602D01*
X157337600Y-108407124D01*
X157540766Y-108498819D01*
X157762519Y-108615002D01*
X157991401Y-108748169D01*
X158215951Y-108890814D01*
X158424711Y-109035432D01*
X158606221Y-109174517D01*
X158749023Y-109300566D01*
X158821308Y-109378873D01*
X158887397Y-109471909D01*
X158949244Y-109576726D01*
X158996025Y-109673052D01*
X159016914Y-109740613D01*
X159017166Y-109745665D01*
X158989987Y-109762305D01*
X158918711Y-109759390D01*
X158818729Y-109740693D01*
X158705431Y-109709987D01*
X158594210Y-109671047D01*
X158500457Y-109627645D01*
X158475951Y-109612971D01*
X158418649Y-109567184D01*
X158331869Y-109487900D01*
X158229753Y-109388318D01*
X158170500Y-109327939D01*
X157972151Y-109136741D01*
X157785531Y-108991985D01*
X157592758Y-108883491D01*
X157375949Y-108801078D01*
X157135240Y-108738508D01*
X156993884Y-108711317D01*
X156852637Y-108691015D01*
X156725215Y-108678715D01*
X156625340Y-108675531D01*
X156566728Y-108682579D01*
X156557041Y-108691551D01*
X156569396Y-108725956D01*
X156601947Y-108802437D01*
X156647925Y-108905138D01*
X156652890Y-108915999D01*
X156718003Y-109079232D01*
X156742252Y-109205558D01*
X156724615Y-109308024D01*
X156664072Y-109399680D01*
X156611036Y-109451156D01*
X156524736Y-109504071D01*
X156458372Y-109498348D01*
X156415731Y-109437174D01*
X156400599Y-109323738D01*
X156402283Y-109275436D01*
X156383721Y-109135784D01*
X156315641Y-108975377D01*
X156204953Y-108803447D01*
X156058568Y-108629225D01*
X155883394Y-108461943D01*
X155686341Y-108310833D01*
X155674146Y-108302598D01*
X155263761Y-108060134D01*
X154805638Y-107848498D01*
X154309644Y-107670855D01*
X153785645Y-107530372D01*
X153243504Y-107430213D01*
X152802953Y-107381216D01*
X152634728Y-107362991D01*
X152447461Y-107335107D01*
X152295165Y-107306348D01*
X152042975Y-107251460D01*
X152182484Y-107132045D01*
X152275756Y-107057802D01*
X152357261Y-107012581D01*
X152445147Y-106992494D01*
X152557563Y-106993650D01*
X152712655Y-107012163D01*
X152730206Y-107014674D01*
X152912850Y-107039558D01*
X153113583Y-107064464D01*
X153322410Y-107088419D01*
X153529335Y-107110449D01*
X153724365Y-107129580D01*
X153897504Y-107144839D01*
X154038758Y-107155252D01*
X154138131Y-107159846D01*
X154185628Y-107157647D01*
X154187694Y-107156645D01*
X154191131Y-107121994D01*
X154153997Y-107054442D01*
X154074286Y-106951263D01*
X153949991Y-106809732D01*
X153863677Y-106716451D01*
X153568783Y-106401935D01*
X153377566Y-106438806D01*
X152847147Y-106516428D01*
X152344402Y-106539686D01*
X152109935Y-106531204D01*
X151750481Y-106500043D01*
X151469090Y-106459598D01*
X152595280Y-106459598D01*
X152623143Y-106468142D01*
X152690439Y-106471844D01*
X152693014Y-106471848D01*
X152755440Y-106464245D01*
X152774477Y-106445783D01*
X152773651Y-106444183D01*
X152737886Y-106431797D01*
X152675631Y-106432330D01*
X152617856Y-106443105D01*
X152595280Y-106459598D01*
X151469090Y-106459598D01*
X151426163Y-106453428D01*
X151116775Y-106386724D01*
X150802112Y-106295295D01*
X150461969Y-106174508D01*
X150328368Y-106122541D01*
X150118687Y-106036009D01*
X149932612Y-105950393D01*
X149756750Y-105857964D01*
X149577710Y-105750996D01*
X149382097Y-105621762D01*
X149156519Y-105462533D01*
X149048864Y-105384302D01*
X148928784Y-105301643D01*
X148801029Y-105221525D01*
X148719559Y-105175451D01*
X148565977Y-105095089D01*
X148256289Y-105189423D01*
X148081909Y-105241367D01*
X147925962Y-105284450D01*
X147776886Y-105320851D01*
X147623118Y-105352747D01*
X147453097Y-105382314D01*
X147255262Y-105411731D01*
X147018048Y-105443173D01*
X146729896Y-105478818D01*
X146700563Y-105482368D01*
X146452249Y-105515985D01*
X146174123Y-105559742D01*
X145880117Y-105610933D01*
X145584163Y-105666857D01*
X145300191Y-105724810D01*
X145042132Y-105782088D01*
X144823918Y-105835989D01*
X144703707Y-105869845D01*
X144448204Y-105948384D01*
X144214942Y-106022846D01*
X143997461Y-106096110D01*
X143789299Y-106171057D01*
X143583993Y-106250566D01*
X143375083Y-106337516D01*
X143156107Y-106434787D01*
X142920602Y-106545259D01*
X142662107Y-106671811D01*
X142374161Y-106817323D01*
X142050302Y-106984675D01*
X141684067Y-107176745D01*
X141268996Y-107396415D01*
X141221192Y-107421796D01*
X141107868Y-107481730D01*
X140954394Y-107562548D01*
X140777272Y-107655579D01*
X140593005Y-107752150D01*
X140502324Y-107799588D01*
X140303652Y-107903587D01*
X140087429Y-108017004D01*
X139875916Y-108128148D01*
X139691374Y-108225329D01*
X139639682Y-108252610D01*
X139432558Y-108360892D01*
X139204210Y-108478379D01*
X138965615Y-108599595D01*
X138727747Y-108719061D01*
X138501584Y-108831300D01*
X138298102Y-108930833D01*
X138128277Y-109012183D01*
X138003085Y-109069871D01*
X137994273Y-109073764D01*
X137850909Y-109137094D01*
X137695853Y-109206082D01*
X137594902Y-109251311D01*
X137388160Y-109340322D01*
X137131263Y-109444362D01*
X136835038Y-109559377D01*
X136510314Y-109681309D01*
X136167918Y-109806103D01*
X135818676Y-109929702D01*
X135473418Y-110048051D01*
X135422324Y-110065206D01*
X135054159Y-110184212D01*
X134738891Y-110276485D01*
X134471748Y-110342823D01*
X134247963Y-110384023D01*
X134062767Y-110400881D01*
X133911390Y-110394197D01*
X133789063Y-110364767D01*
X133744965Y-110345698D01*
X133667795Y-110296474D01*
X133632904Y-110234614D01*
X133623190Y-110169432D01*
X133622331Y-110105058D01*
X133625040Y-110095662D01*
X134004152Y-110095662D01*
X134011884Y-110131113D01*
X134075969Y-110139524D01*
X134196276Y-110121413D01*
X134247714Y-110109842D01*
X134452225Y-110051779D01*
X134647007Y-109974578D01*
X134849095Y-109870210D01*
X135075528Y-109730649D01*
X135132832Y-109692734D01*
X135381333Y-109535178D01*
X135628377Y-109397987D01*
X135897136Y-109268993D01*
X136130451Y-109168838D01*
X136622273Y-108961790D01*
X137115875Y-108746381D01*
X137600996Y-108527406D01*
X138067378Y-108309661D01*
X138504761Y-108097939D01*
X138902887Y-107897038D01*
X139251494Y-107711752D01*
X139272261Y-107700327D01*
X139413675Y-107622892D01*
X139582029Y-107531511D01*
X139747813Y-107442184D01*
X139799431Y-107414545D01*
X140015580Y-107294167D01*
X140179049Y-107191340D01*
X140296931Y-107101030D01*
X140376321Y-107018202D01*
X140395184Y-106991802D01*
X140492594Y-106866546D01*
X140629805Y-106729297D01*
X140811141Y-106576455D01*
X141040930Y-106404420D01*
X141323497Y-106209591D01*
X141380940Y-106171398D01*
X141559665Y-106053423D01*
X141726268Y-105943961D01*
X141871340Y-105849154D01*
X141985470Y-105775143D01*
X142059250Y-105728071D01*
X142074404Y-105718732D01*
X142133301Y-105681130D01*
X142229816Y-105617178D01*
X142352487Y-105534704D01*
X142489849Y-105441537D01*
X142630440Y-105345503D01*
X142762796Y-105254432D01*
X142875453Y-105176150D01*
X142956950Y-105118486D01*
X142994399Y-105090501D01*
X143031214Y-105063096D01*
X143109855Y-105006737D01*
X143219700Y-104928972D01*
X143350127Y-104837347D01*
X143386775Y-104811713D01*
X143509565Y-104724826D01*
X143653946Y-104620942D01*
X143810882Y-104506757D01*
X143971336Y-104388963D01*
X144126272Y-104274256D01*
X144266652Y-104169329D01*
X144348193Y-104107571D01*
X149176663Y-104107571D01*
X149188353Y-104133869D01*
X149197963Y-104128871D01*
X149201787Y-104090954D01*
X149197963Y-104086271D01*
X149178969Y-104090657D01*
X149176663Y-104107571D01*
X144348193Y-104107571D01*
X144383439Y-104080876D01*
X144467598Y-104015591D01*
X144510091Y-103980168D01*
X144512009Y-103978189D01*
X144545145Y-103950229D01*
X144611647Y-103898911D01*
X144655339Y-103866260D01*
X144750266Y-103794305D01*
X144837819Y-103725125D01*
X144863012Y-103704323D01*
X144914801Y-103660905D01*
X145005213Y-103585396D01*
X145123735Y-103486563D01*
X145259860Y-103373172D01*
X145341819Y-103304952D01*
X145524112Y-103146666D01*
X145736502Y-102951411D01*
X145957920Y-102739793D01*
X148441820Y-102739793D01*
X148471388Y-102751195D01*
X148550588Y-102760035D01*
X148665168Y-102765029D01*
X148729368Y-102765684D01*
X148856001Y-102767393D01*
X148954180Y-102771968D01*
X149009647Y-102778587D01*
X149016915Y-102782294D01*
X149001683Y-102817279D01*
X148963356Y-102885717D01*
X148943896Y-102918080D01*
X148838896Y-103125954D01*
X148793116Y-103311679D01*
X148806657Y-103477358D01*
X148879621Y-103625092D01*
X148983052Y-103733637D01*
X149073645Y-103793881D01*
X149167379Y-103833696D01*
X149176980Y-103836069D01*
X149264653Y-103876570D01*
X149325599Y-103935243D01*
X149351149Y-103983907D01*
X149361203Y-104039194D01*
X149355403Y-104116944D01*
X149333387Y-104232998D01*
X149317152Y-104306088D01*
X149311172Y-104355214D01*
X149328006Y-104392075D01*
X149379363Y-104428954D01*
X149476955Y-104478137D01*
X149484671Y-104481812D01*
X149552624Y-104513274D01*
X149612075Y-104536180D01*
X149674484Y-104551766D01*
X149751311Y-104561267D01*
X149854014Y-104565919D01*
X149994052Y-104566959D01*
X150182884Y-104565623D01*
X150254965Y-104564900D01*
X150460856Y-104562982D01*
X150611487Y-104562684D01*
X150715491Y-104564967D01*
X150781505Y-104570788D01*
X150818164Y-104581108D01*
X150834102Y-104596886D01*
X150837955Y-104619082D01*
X150838047Y-104629678D01*
X150819875Y-104713641D01*
X150794756Y-104763418D01*
X150730516Y-104885565D01*
X150673566Y-105043874D01*
X150632157Y-105210619D01*
X150614536Y-105358069D01*
X150614399Y-105369671D01*
X150620311Y-105482539D01*
X150645125Y-105562407D01*
X150699460Y-105639637D01*
X150715204Y-105657894D01*
X150818901Y-105760434D01*
X150938149Y-105854760D01*
X151056022Y-105929391D01*
X151155592Y-105972849D01*
X151188877Y-105979114D01*
X151300745Y-105986694D01*
X151360060Y-105992923D01*
X151378024Y-106000790D01*
X151365835Y-106013287D01*
X151351446Y-106022514D01*
X151357288Y-106035112D01*
X151416978Y-106042405D01*
X151520722Y-106044861D01*
X151658731Y-106042948D01*
X151821211Y-106037135D01*
X151998373Y-106027888D01*
X152180425Y-106015676D01*
X152357574Y-106000966D01*
X152520031Y-105984227D01*
X152658003Y-105965926D01*
X152707103Y-105957740D01*
X152846580Y-105932325D01*
X152957982Y-105911147D01*
X153055986Y-105890798D01*
X153155265Y-105867869D01*
X153270494Y-105838949D01*
X153416349Y-105800631D01*
X153607504Y-105749505D01*
X153633644Y-105742491D01*
X153979727Y-105646008D01*
X154350488Y-105536102D01*
X154737747Y-105415648D01*
X155133320Y-105287518D01*
X155529028Y-105154588D01*
X155916688Y-105019730D01*
X156288120Y-104885818D01*
X156635141Y-104755726D01*
X156949570Y-104632327D01*
X157223225Y-104518496D01*
X157447926Y-104417105D01*
X157547481Y-104367788D01*
X157830242Y-104218811D01*
X158097603Y-104071994D01*
X158366829Y-103917443D01*
X158655188Y-103745260D01*
X158953267Y-103562123D01*
X159516973Y-103179578D01*
X160027164Y-102765304D01*
X160483050Y-102320306D01*
X160883842Y-101845588D01*
X161228749Y-101342153D01*
X161516981Y-100811004D01*
X161747749Y-100253146D01*
X161873392Y-99851971D01*
X161990064Y-99349638D01*
X162059103Y-98858909D01*
X162084117Y-98353213D01*
X162084336Y-98298418D01*
X162077398Y-97991363D01*
X162055382Y-97688182D01*
X162016482Y-97379507D01*
X161958896Y-97055969D01*
X161880819Y-96708201D01*
X161780447Y-96326835D01*
X161655976Y-95902503D01*
X161569466Y-95624930D01*
X161506613Y-95426730D01*
X161446998Y-95238507D01*
X161394615Y-95072885D01*
X161353456Y-94942488D01*
X161327515Y-94859941D01*
X161326952Y-94858137D01*
X161285404Y-94728504D01*
X161252391Y-94650203D01*
X161216912Y-94613726D01*
X161167967Y-94609564D01*
X161094555Y-94628209D01*
X161069670Y-94635751D01*
X160926893Y-94664166D01*
X160748556Y-94678702D01*
X160561567Y-94678914D01*
X160392836Y-94664360D01*
X160311129Y-94648242D01*
X160086805Y-94571294D01*
X159919991Y-94473364D01*
X159807034Y-94351970D01*
X159768665Y-94279462D01*
X159746268Y-94193102D01*
X159727366Y-94058460D01*
X159712703Y-93891091D01*
X159703021Y-93706553D01*
X159699065Y-93520404D01*
X159701578Y-93348199D01*
X159711302Y-93205497D01*
X159715709Y-93170947D01*
X159776222Y-92917962D01*
X159884680Y-92667726D01*
X160044590Y-92414444D01*
X160259460Y-92152324D01*
X160454415Y-91950716D01*
X160570773Y-91836166D01*
X160686850Y-91720418D01*
X160783841Y-91622275D01*
X160814799Y-91590373D01*
X160948677Y-91464895D01*
X161096427Y-91355948D01*
X161267128Y-91259290D01*
X161469861Y-91170680D01*
X161713706Y-91085879D01*
X162007741Y-91000643D01*
X162166291Y-90959117D01*
X162386996Y-90901103D01*
X162562053Y-90850068D01*
X162708356Y-90799892D01*
X162842799Y-90744456D01*
X162982278Y-90677640D01*
X163073789Y-90630393D01*
X163206179Y-90559302D01*
X163291150Y-90508595D01*
X163338746Y-90470712D01*
X163359013Y-90438091D01*
X163362324Y-90413219D01*
X163333154Y-90380509D01*
X163244385Y-90364961D01*
X163226537Y-90364093D01*
X163146213Y-90360504D01*
X163126812Y-90356658D01*
X163165387Y-90350310D01*
X163202575Y-90345841D01*
X163286991Y-90328056D01*
X163343369Y-90302255D01*
X163346349Y-90299501D01*
X163339812Y-90283763D01*
X163276852Y-90279457D01*
X163154514Y-90286448D01*
X163122701Y-90289186D01*
X163001515Y-90302621D01*
X162907003Y-90317944D01*
X162855513Y-90332357D01*
X162851129Y-90335698D01*
X162811726Y-90356696D01*
X162736068Y-90377211D01*
X162723330Y-90379660D01*
X162555253Y-90412845D01*
X162356396Y-90456286D01*
X162139021Y-90506878D01*
X161915394Y-90561515D01*
X161697779Y-90617094D01*
X161498440Y-90670508D01*
X161329642Y-90718654D01*
X161203649Y-90758427D01*
X161153384Y-90777111D01*
X160952386Y-90867296D01*
X160750285Y-90969471D01*
X160562338Y-91075065D01*
X160403801Y-91175507D01*
X160290111Y-91262067D01*
X160141640Y-91384301D01*
X160007311Y-91468020D01*
X159862764Y-91525703D01*
X159693186Y-91567879D01*
X159498573Y-91591863D01*
X159310069Y-91579130D01*
X159119585Y-91526491D01*
X158919032Y-91430761D01*
X158700321Y-91288751D01*
X158455362Y-91097273D01*
X158416930Y-91064999D01*
X158252656Y-90951933D01*
X158039351Y-90844774D01*
X157791881Y-90749361D01*
X157525115Y-90671533D01*
X157291883Y-90623165D01*
X157281293Y-90621817D01*
X158637561Y-90621817D01*
X158679081Y-90686684D01*
X158697670Y-90704678D01*
X158745727Y-90762896D01*
X158761569Y-90805479D01*
X158774759Y-90844265D01*
X158817388Y-90832095D01*
X158867674Y-90792540D01*
X158911641Y-90757030D01*
X158921290Y-90769413D01*
X158909518Y-90824489D01*
X158901412Y-90887870D01*
X158926747Y-90910547D01*
X158952388Y-90912351D01*
X159020683Y-90887249D01*
X159053239Y-90853722D01*
X159114012Y-90809156D01*
X159165278Y-90809512D01*
X159214886Y-90813536D01*
X159230116Y-90788008D01*
X159220614Y-90716679D01*
X159220558Y-90716379D01*
X159212530Y-90678371D01*
X161316907Y-90678371D01*
X161332085Y-90688703D01*
X161365749Y-90676707D01*
X161444345Y-90644460D01*
X161554379Y-90597579D01*
X161627620Y-90565748D01*
X161775149Y-90504059D01*
X161924456Y-90446364D01*
X162050152Y-90402332D01*
X162084336Y-90391803D01*
X162220439Y-90356899D01*
X162237040Y-90353232D01*
X162531632Y-90353232D01*
X162547607Y-90369206D01*
X162563581Y-90353232D01*
X162547607Y-90337257D01*
X162531632Y-90353232D01*
X162237040Y-90353232D01*
X162400378Y-90317152D01*
X162604664Y-90276264D01*
X162813808Y-90237939D01*
X163008319Y-90205880D01*
X163168710Y-90183789D01*
X163193636Y-90181033D01*
X163339413Y-90156759D01*
X163423169Y-90122804D01*
X163445562Y-90081915D01*
X163407249Y-90036838D01*
X163308890Y-89990320D01*
X163151142Y-89945106D01*
X163136287Y-89941698D01*
X162900141Y-89900231D01*
X162692480Y-89893412D01*
X162497811Y-89924479D01*
X162300644Y-89996674D01*
X162085486Y-90113236D01*
X161972512Y-90185078D01*
X161743044Y-90338922D01*
X161561181Y-90466407D01*
X161428491Y-90566300D01*
X161346543Y-90637366D01*
X161316907Y-90678371D01*
X159212530Y-90678371D01*
X159206083Y-90647850D01*
X159184949Y-90602978D01*
X159143380Y-90570745D01*
X159067597Y-90540133D01*
X158954325Y-90503455D01*
X158829217Y-90469065D01*
X158744894Y-90456757D01*
X158707042Y-90466139D01*
X158721349Y-90496814D01*
X158746860Y-90517857D01*
X158783244Y-90548770D01*
X158766813Y-90559677D01*
X158719751Y-90560905D01*
X158651502Y-90577385D01*
X158637561Y-90621817D01*
X157281293Y-90621817D01*
X157151810Y-90605335D01*
X156987782Y-90592923D01*
X156813218Y-90585939D01*
X156641535Y-90584390D01*
X156486151Y-90588285D01*
X156360484Y-90597632D01*
X156277952Y-90612441D01*
X156256285Y-90622508D01*
X156200792Y-90691165D01*
X156131670Y-90812437D01*
X156052593Y-90977430D01*
X155967234Y-91177246D01*
X155879267Y-91402989D01*
X155792365Y-91645764D01*
X155710202Y-91896673D01*
X155657244Y-92073190D01*
X155610115Y-92245710D01*
X155579738Y-92386316D01*
X155562498Y-92520688D01*
X155554784Y-92674505D01*
X155553092Y-92813357D01*
X155553018Y-92975862D01*
X155556406Y-93090924D01*
X155566469Y-93174998D01*
X155586419Y-93244539D01*
X155619467Y-93316004D01*
X155668704Y-93405629D01*
X155743339Y-93523179D01*
X155845634Y-93663870D01*
X155958692Y-93805038D01*
X156014139Y-93868899D01*
X156114460Y-93984180D01*
X156202565Y-94091820D01*
X156266754Y-94177183D01*
X156290661Y-94214827D01*
X156319566Y-94298481D01*
X156299556Y-94341985D01*
X156233136Y-94343125D01*
X156169861Y-94321632D01*
X156104682Y-94281912D01*
X156010061Y-94209162D01*
X155897274Y-94113799D01*
X155777596Y-94006238D01*
X155662306Y-93896894D01*
X155562678Y-93796184D01*
X155489989Y-93714524D01*
X155455517Y-93662328D01*
X155455272Y-93661585D01*
X155413881Y-93597773D01*
X155352693Y-93585023D01*
X155278942Y-93616500D01*
X155199865Y-93685368D01*
X155122697Y-93784788D01*
X155054673Y-93907926D01*
X155003029Y-94047944D01*
X154989794Y-94101387D01*
X154972535Y-94202947D01*
X154971263Y-94292194D01*
X154990883Y-94376325D01*
X155036304Y-94462538D01*
X155112432Y-94558032D01*
X155224174Y-94670004D01*
X155376436Y-94805652D01*
X155574127Y-94972175D01*
X155595516Y-94989918D01*
X155786508Y-95160314D01*
X155932456Y-95316547D01*
X156029792Y-95454111D01*
X156074948Y-95568498D01*
X156077795Y-95599235D01*
X156056860Y-95659777D01*
X156005535Y-95670394D01*
X155964374Y-95647351D01*
X155883562Y-95603338D01*
X155753814Y-95559682D01*
X155590037Y-95519451D01*
X155407135Y-95485715D01*
X155220017Y-95461542D01*
X155043586Y-95450000D01*
X155003023Y-95449448D01*
X154817659Y-95460239D01*
X154599136Y-95489897D01*
X154373705Y-95533760D01*
X154167617Y-95587167D01*
X154094788Y-95610747D01*
X153985735Y-95644898D01*
X153892120Y-95667456D01*
X153849063Y-95672854D01*
X153786585Y-95684717D01*
X153763682Y-95701182D01*
X153723115Y-95725581D01*
X153646867Y-95748002D01*
X153635118Y-95750344D01*
X153553284Y-95773512D01*
X153508529Y-95800631D01*
X153508528Y-95823171D01*
X153560958Y-95832603D01*
X153561086Y-95832603D01*
X153621434Y-95828339D01*
X153729452Y-95816746D01*
X153869564Y-95799621D01*
X154018255Y-95779859D01*
X154197126Y-95757409D01*
X154380937Y-95738084D01*
X154544932Y-95724304D01*
X154640059Y-95719064D01*
X154825103Y-95721144D01*
X155030137Y-95736896D01*
X155235284Y-95763617D01*
X155420665Y-95798601D01*
X155566402Y-95839143D01*
X155590975Y-95848460D01*
X155737580Y-95935893D01*
X155830006Y-96055266D01*
X155867526Y-96203506D01*
X155849414Y-96377539D01*
X155774943Y-96574293D01*
X155766478Y-96591023D01*
X155582962Y-96885461D01*
X155339108Y-97172810D01*
X155034029Y-97453898D01*
X154666840Y-97729551D01*
X154288476Y-97970157D01*
X154119826Y-98070242D01*
X153946353Y-98173460D01*
X153787229Y-98268388D01*
X153661623Y-98343603D01*
X153649619Y-98350818D01*
X153532692Y-98420722D01*
X153430340Y-98481163D01*
X153359723Y-98522033D01*
X153346097Y-98529617D01*
X153264860Y-98579883D01*
X153147120Y-98660647D01*
X153006082Y-98762254D01*
X152854950Y-98875050D01*
X152706929Y-98989379D01*
X152600279Y-99074924D01*
X152484610Y-99168667D01*
X152375791Y-99255050D01*
X152291326Y-99320242D01*
X152267415Y-99337911D01*
X152198433Y-99390634D01*
X152154361Y-99429921D01*
X152150592Y-99434452D01*
X152109109Y-99474676D01*
X152028473Y-99540429D01*
X151922485Y-99621480D01*
X151804948Y-99707597D01*
X151689663Y-99788549D01*
X151590433Y-99854104D01*
X151556915Y-99874554D01*
X151475516Y-99919629D01*
X151349651Y-99985977D01*
X151192309Y-100066903D01*
X151016477Y-100155715D01*
X150869997Y-100228551D01*
X150498875Y-100420231D01*
X150181173Y-100603481D01*
X149907999Y-100784018D01*
X149670459Y-100967559D01*
X149537238Y-101085316D01*
X149328533Y-101298097D01*
X149120154Y-101544226D01*
X148922661Y-101808818D01*
X148746615Y-102076991D01*
X148602576Y-102333861D01*
X148516339Y-102524132D01*
X148477625Y-102626515D01*
X148450682Y-102705017D01*
X148441820Y-102739793D01*
X145957920Y-102739793D01*
X145967446Y-102730689D01*
X146205403Y-102496003D01*
X146438833Y-102258853D01*
X146656194Y-102030744D01*
X146691249Y-101992397D01*
X147304214Y-101992397D01*
X147331028Y-101986338D01*
X147393486Y-101953246D01*
X147490161Y-101897207D01*
X147503421Y-101889469D01*
X147624320Y-101818396D01*
X147744564Y-101746832D01*
X147818802Y-101702013D01*
X147910749Y-101648214D01*
X148052610Y-101568355D01*
X148237728Y-101466094D01*
X148459449Y-101345091D01*
X148711118Y-101209003D01*
X148905091Y-101104824D01*
X149160890Y-100966337D01*
X149393185Y-100837686D01*
X149593702Y-100723584D01*
X149754167Y-100628742D01*
X149866305Y-100557871D01*
X149870237Y-100555216D01*
X149961823Y-100481263D01*
X150010116Y-100405291D01*
X150026204Y-100344877D01*
X150048538Y-100247457D01*
X150074476Y-100168027D01*
X150077222Y-100161785D01*
X150096412Y-100117740D01*
X150085744Y-100124627D01*
X150057042Y-100159904D01*
X150019389Y-100196866D01*
X150009890Y-100180455D01*
X150027837Y-100114312D01*
X150072526Y-100002077D01*
X150099400Y-99941406D01*
X150166279Y-99822902D01*
X150270742Y-99673235D01*
X150403142Y-99504282D01*
X150553836Y-99327921D01*
X150713177Y-99156030D01*
X150837560Y-99032414D01*
X150892359Y-98975124D01*
X150911684Y-98943655D01*
X150901946Y-98941858D01*
X150858776Y-98958269D01*
X150765961Y-98994590D01*
X150633183Y-99046996D01*
X150470126Y-99111662D01*
X150286472Y-99184766D01*
X150242345Y-99202367D01*
X149630668Y-99446452D01*
X149295077Y-99788144D01*
X149089818Y-100001177D01*
X148856026Y-100250807D01*
X148605573Y-100524131D01*
X148350334Y-100808244D01*
X148203088Y-100974816D01*
X148120299Y-101068159D01*
X148005284Y-101196573D01*
X147868931Y-101347966D01*
X147722129Y-101510246D01*
X147581929Y-101664559D01*
X147451901Y-101807503D01*
X147363224Y-101907067D01*
X147314471Y-101967335D01*
X147304214Y-101992397D01*
X146691249Y-101992397D01*
X146845943Y-101823176D01*
X146956910Y-101695370D01*
X147046878Y-101591064D01*
X147121393Y-101509229D01*
X147171325Y-101459613D01*
X147187190Y-101449433D01*
X147210571Y-101431323D01*
X147248541Y-101374277D01*
X147254814Y-101363125D01*
X147303889Y-101290906D01*
X147381277Y-101194719D01*
X147467938Y-101097867D01*
X147544241Y-101016065D01*
X147651947Y-100898924D01*
X147779846Y-100758719D01*
X147916725Y-100607727D01*
X148005506Y-100509274D01*
X148133526Y-100369937D01*
X148252571Y-100245817D01*
X148353946Y-100145566D01*
X148428955Y-100077838D01*
X148464203Y-100052855D01*
X148524776Y-100016861D01*
X148610148Y-99955480D01*
X148710110Y-99877419D01*
X148814452Y-99791385D01*
X148912965Y-99706083D01*
X148995438Y-99630222D01*
X149051662Y-99572506D01*
X149071427Y-99541644D01*
X149067047Y-99538766D01*
X149015270Y-99554996D01*
X148924747Y-99598124D01*
X148810031Y-99659805D01*
X148685678Y-99731694D01*
X148566243Y-99805447D01*
X148466280Y-99872718D01*
X148413071Y-99913703D01*
X148292352Y-100020960D01*
X148160936Y-100145918D01*
X148014288Y-100293391D01*
X147847872Y-100468194D01*
X147657153Y-100675141D01*
X147437593Y-100919048D01*
X147184658Y-101204728D01*
X147020537Y-101391848D01*
X146801294Y-101641979D01*
X146619813Y-101847645D01*
X146472265Y-102012894D01*
X146354821Y-102141772D01*
X146263653Y-102238327D01*
X146194931Y-102306604D01*
X146144827Y-102350652D01*
X146109512Y-102374517D01*
X146085157Y-102382246D01*
X146083475Y-102382288D01*
X145995024Y-102404186D01*
X145866012Y-102470154D01*
X145695876Y-102580601D01*
X145484054Y-102735938D01*
X145229982Y-102936575D01*
X144933099Y-103182920D01*
X144643672Y-103431160D01*
X144499461Y-103555237D01*
X144346410Y-103685019D01*
X144204803Y-103803398D01*
X144113314Y-103878455D01*
X144004602Y-103967184D01*
X143908287Y-104047157D01*
X143840174Y-104105201D01*
X143825289Y-104118478D01*
X143774669Y-104161440D01*
X143681594Y-104237091D01*
X143554179Y-104339063D01*
X143400543Y-104460988D01*
X143228802Y-104596499D01*
X143047073Y-104739226D01*
X142863473Y-104882802D01*
X142686120Y-105020858D01*
X142523130Y-105147026D01*
X142382620Y-105254937D01*
X142272708Y-105338225D01*
X142232471Y-105368123D01*
X142103033Y-105461509D01*
X141960372Y-105561540D01*
X141814612Y-105661463D01*
X141675876Y-105754522D01*
X141554289Y-105833963D01*
X141459972Y-105893033D01*
X141403050Y-105924977D01*
X141392266Y-105928703D01*
X141355221Y-105946151D01*
X141290095Y-105989400D01*
X141272132Y-106002566D01*
X141209030Y-106045009D01*
X141099524Y-106113666D01*
X140952743Y-106203138D01*
X140777815Y-106308026D01*
X140583868Y-106422929D01*
X140380030Y-106542450D01*
X140175429Y-106661189D01*
X139979193Y-106773746D01*
X139800450Y-106874723D01*
X139751506Y-106902005D01*
X139299778Y-107151704D01*
X138892797Y-107373940D01*
X138520382Y-107573898D01*
X138172351Y-107756764D01*
X137838524Y-107927726D01*
X137508719Y-108091969D01*
X137172756Y-108254680D01*
X136820452Y-108421046D01*
X136441628Y-108596251D01*
X136284965Y-108667885D01*
X135908645Y-108851811D01*
X135502330Y-109072769D01*
X135080720Y-109322123D01*
X134658515Y-109591238D01*
X134320389Y-109821861D01*
X134158273Y-109941555D01*
X134052905Y-110032649D01*
X134004152Y-110095662D01*
X133625040Y-110095662D01*
X133638040Y-110050572D01*
X133679280Y-109990471D01*
X133755011Y-109909253D01*
X133798913Y-109865458D01*
X133923428Y-109754212D01*
X134092752Y-109622852D01*
X134309087Y-109469902D01*
X134574633Y-109293889D01*
X134891591Y-109093340D01*
X135262162Y-108866782D01*
X135529356Y-108706935D01*
X135670284Y-108628434D01*
X135842269Y-108540211D01*
X136017127Y-108456493D01*
X136093267Y-108422319D01*
X136444718Y-108266082D01*
X136797791Y-108103121D01*
X137160127Y-107929595D01*
X137539367Y-107741663D01*
X137943154Y-107535482D01*
X138379128Y-107307211D01*
X138854930Y-107053009D01*
X139336160Y-106791984D01*
X139476033Y-106715207D01*
X139596517Y-106648222D01*
X139685974Y-106597561D01*
X139732765Y-106569756D01*
X139735531Y-106567853D01*
X139778483Y-106541404D01*
X139859955Y-106495081D01*
X139959179Y-106440618D01*
X140094979Y-106364668D01*
X140245255Y-106276836D01*
X140342575Y-106217691D01*
X140450097Y-106151542D01*
X140592307Y-106065139D01*
X140748904Y-105970774D01*
X140869745Y-105898497D01*
X141143524Y-105730902D01*
X141431107Y-105546876D01*
X141717113Y-105356751D01*
X141986164Y-105170855D01*
X142222879Y-104999516D01*
X142333176Y-104915649D01*
X142453140Y-104821895D01*
X142597621Y-104708278D01*
X142757828Y-104581785D01*
X142924967Y-104449404D01*
X143090247Y-104318124D01*
X143244876Y-104194934D01*
X143380062Y-104086821D01*
X143487013Y-104000774D01*
X143556937Y-103943781D01*
X143575239Y-103928388D01*
X143629441Y-103881939D01*
X143717947Y-103806714D01*
X143826178Y-103715088D01*
X143891095Y-103660276D01*
X143993458Y-103573201D01*
X144120584Y-103463971D01*
X144261133Y-103342452D01*
X144403765Y-103218509D01*
X144537139Y-103102008D01*
X144649914Y-103002815D01*
X144730751Y-102930795D01*
X144754142Y-102909458D01*
X144791432Y-102875884D01*
X144864896Y-102810469D01*
X144962793Y-102723651D01*
X145041689Y-102653860D01*
X145271091Y-102445936D01*
X145537993Y-102194844D01*
X145837648Y-101905361D01*
X146165309Y-101582261D01*
X146516228Y-101230318D01*
X146885659Y-100854306D01*
X147268854Y-100459000D01*
X147661067Y-100049174D01*
X148057549Y-99629604D01*
X148097378Y-99587084D01*
X148505720Y-99587084D01*
X148520951Y-99599775D01*
X148570854Y-99594073D01*
X148661742Y-99568240D01*
X148799927Y-99520535D01*
X148953015Y-99463857D01*
X149010597Y-99442917D01*
X149352386Y-99442917D01*
X149359629Y-99470269D01*
X149382451Y-99474867D01*
X149426165Y-99458186D01*
X149432261Y-99442917D01*
X149409330Y-99411882D01*
X149402197Y-99410967D01*
X149358926Y-99434192D01*
X149352386Y-99442917D01*
X149010597Y-99442917D01*
X149101197Y-99409970D01*
X149287828Y-99344997D01*
X149490290Y-99276671D01*
X149685968Y-99212727D01*
X149708765Y-99205446D01*
X149985088Y-99113697D01*
X150272309Y-99011681D01*
X150550474Y-98906838D01*
X150799630Y-98806608D01*
X150933896Y-98748655D01*
X151233250Y-98612036D01*
X151475445Y-98495221D01*
X151663411Y-98396280D01*
X151800080Y-98313286D01*
X151888382Y-98244310D01*
X151931248Y-98187422D01*
X151931608Y-98140695D01*
X151904306Y-98110089D01*
X151834791Y-98076097D01*
X151796160Y-98069081D01*
X151741157Y-98077758D01*
X151634298Y-98102046D01*
X151484971Y-98139329D01*
X151302564Y-98186992D01*
X151096466Y-98242420D01*
X150876066Y-98302996D01*
X150650750Y-98366105D01*
X150429909Y-98429132D01*
X150222930Y-98489462D01*
X150039203Y-98544478D01*
X149888114Y-98591566D01*
X149779053Y-98628109D01*
X149748222Y-98639611D01*
X149676995Y-98664223D01*
X149569853Y-98697483D01*
X149473389Y-98725527D01*
X149398102Y-98748579D01*
X149333769Y-98775435D01*
X149270683Y-98813540D01*
X149199135Y-98870340D01*
X149109419Y-98953278D01*
X148991828Y-99069800D01*
X148890307Y-99172711D01*
X148764306Y-99302203D01*
X148655630Y-99416326D01*
X148571590Y-99507207D01*
X148519491Y-99566973D01*
X148505720Y-99587084D01*
X148097378Y-99587084D01*
X148202198Y-99475183D01*
X148297262Y-99373622D01*
X148375779Y-99290054D01*
X148427697Y-99235158D01*
X148442763Y-99219575D01*
X148470177Y-99190786D01*
X148531326Y-99125421D01*
X148616565Y-99033818D01*
X148696447Y-98947697D01*
X148918656Y-98708419D01*
X149113179Y-98500529D01*
X149292694Y-98310778D01*
X149469881Y-98125918D01*
X149657419Y-97932698D01*
X149867988Y-97717869D01*
X150052148Y-97531060D01*
X150453206Y-97128810D01*
X150823188Y-96766586D01*
X151172083Y-96435457D01*
X151509881Y-96126493D01*
X151846574Y-95830766D01*
X152192151Y-95539344D01*
X152556603Y-95243299D01*
X152949919Y-94933700D01*
X153010625Y-94886622D01*
X153245700Y-94704770D01*
X153439146Y-94555641D01*
X153599775Y-94432732D01*
X153736404Y-94329541D01*
X153857844Y-94239565D01*
X153972911Y-94156304D01*
X154090419Y-94073253D01*
X154219180Y-93983912D01*
X154368011Y-93881778D01*
X154432386Y-93837764D01*
X154558516Y-93744554D01*
X154682841Y-93641090D01*
X154780461Y-93548220D01*
X154788359Y-93539700D01*
X154938725Y-93337496D01*
X155078695Y-93072363D01*
X155208283Y-92744266D01*
X155327504Y-92353169D01*
X155392605Y-92094489D01*
X155464075Y-91809222D01*
X155541523Y-91533373D01*
X155620412Y-91281721D01*
X155696206Y-91069048D01*
X155740151Y-90962124D01*
X155786826Y-90847339D01*
X155824507Y-90738448D01*
X155838462Y-90687387D01*
X155861343Y-90583211D01*
X155679560Y-90604576D01*
X155497238Y-90610890D01*
X155352956Y-90584476D01*
X155254306Y-90527399D01*
X155220360Y-90479697D01*
X155199276Y-90417131D01*
X158921317Y-90417131D01*
X158937292Y-90433106D01*
X158953267Y-90417131D01*
X158937292Y-90401156D01*
X158921317Y-90417131D01*
X155199276Y-90417131D01*
X155187627Y-90382563D01*
X155201018Y-90318002D01*
X155265465Y-90269733D01*
X155287041Y-90259659D01*
X155332058Y-90238198D01*
X155342060Y-90226050D01*
X155309607Y-90222057D01*
X155227258Y-90225062D01*
X155111317Y-90232331D01*
X154977553Y-90240404D01*
X154895112Y-90241488D01*
X154851598Y-90233363D01*
X154834613Y-90213806D01*
X154831758Y-90182222D01*
X154825802Y-90143877D01*
X154798017Y-90123253D01*
X154733530Y-90114969D01*
X154642139Y-90113609D01*
X154483710Y-90105706D01*
X154365897Y-90076849D01*
X154266798Y-90019313D01*
X154194789Y-89955840D01*
X154122690Y-89895451D01*
X154061611Y-89861049D01*
X154046629Y-89858011D01*
X153886825Y-89850119D01*
X153696194Y-89828478D01*
X153490357Y-89796145D01*
X153284938Y-89756173D01*
X153095558Y-89711619D01*
X152937838Y-89665538D01*
X152827403Y-89620984D01*
X152823219Y-89618752D01*
X152773665Y-89585974D01*
X152784301Y-89574237D01*
X152854986Y-89583533D01*
X152985575Y-89613855D01*
X153053320Y-89631540D01*
X153283402Y-89687803D01*
X153496131Y-89730072D01*
X153676186Y-89755611D01*
X153785443Y-89762162D01*
X153867143Y-89770201D01*
X153917646Y-89789963D01*
X153921192Y-89794112D01*
X153967252Y-89823122D01*
X153989259Y-89826062D01*
X154020323Y-89818683D01*
X153998408Y-89787304D01*
X153995360Y-89784264D01*
X153945571Y-89758173D01*
X153851137Y-89726248D01*
X153730219Y-89694417D01*
X153697544Y-89687073D01*
X153485509Y-89639400D01*
X153307219Y-89595878D01*
X153168998Y-89558299D01*
X153077175Y-89528453D01*
X153038075Y-89508132D01*
X153041951Y-89501448D01*
X153035024Y-89484724D01*
X152979981Y-89452159D01*
X152889042Y-89408958D01*
X152774424Y-89360326D01*
X152648346Y-89311469D01*
X152523026Y-89267593D01*
X152419556Y-89236278D01*
X152306765Y-89210148D01*
X152160951Y-89182314D01*
X152012552Y-89158556D01*
X152004210Y-89157384D01*
X151922135Y-89145707D01*
X153028264Y-89145707D01*
X153410828Y-89213453D01*
X154261228Y-89341660D01*
X155100415Y-89422058D01*
X155231129Y-89430443D01*
X155368320Y-89439504D01*
X155474573Y-89448136D01*
X155538535Y-89455303D01*
X155550625Y-89459625D01*
X155507687Y-89465904D01*
X155415172Y-89476844D01*
X155287096Y-89490855D01*
X155151254Y-89504953D01*
X154953074Y-89526283D01*
X154768505Y-89548460D01*
X154607162Y-89570093D01*
X154478660Y-89589793D01*
X154392612Y-89606172D01*
X154358634Y-89617838D01*
X154358911Y-89619463D01*
X154398511Y-89635769D01*
X154486944Y-89661331D01*
X154610390Y-89692842D01*
X154755029Y-89726998D01*
X154907043Y-89760491D01*
X155052612Y-89790017D01*
X155135280Y-89805178D01*
X155297131Y-89832127D01*
X155451589Y-89855018D01*
X155605703Y-89874217D01*
X155766517Y-89890085D01*
X155941078Y-89902987D01*
X156136433Y-89913288D01*
X156359628Y-89921349D01*
X156617709Y-89927536D01*
X156917724Y-89932212D01*
X157266718Y-89935740D01*
X157671738Y-89938486D01*
X157723204Y-89938773D01*
X158051993Y-89941161D01*
X158368507Y-89944577D01*
X158665618Y-89948868D01*
X158936198Y-89953880D01*
X159173121Y-89959461D01*
X159369259Y-89965457D01*
X159517486Y-89971714D01*
X159610674Y-89978081D01*
X159624210Y-89979628D01*
X159979617Y-90002468D01*
X160326804Y-89978238D01*
X160648113Y-89908363D01*
X160695697Y-89893124D01*
X160896529Y-89818722D01*
X161035074Y-89751522D01*
X161111094Y-89691755D01*
X161124353Y-89639652D01*
X161074612Y-89595447D01*
X161022009Y-89575107D01*
X160933607Y-89550175D01*
X160798978Y-89515200D01*
X160634259Y-89474071D01*
X160455587Y-89430674D01*
X160279097Y-89388898D01*
X160120926Y-89352630D01*
X159997210Y-89325758D01*
X159943707Y-89315312D01*
X159856860Y-89299442D01*
X159724796Y-89274726D01*
X159565032Y-89244465D01*
X159395085Y-89211960D01*
X159384588Y-89209941D01*
X159112080Y-89160237D01*
X158796428Y-89107170D01*
X158454421Y-89053216D01*
X158102849Y-89000856D01*
X157758504Y-88952569D01*
X157438177Y-88910832D01*
X157158658Y-88878125D01*
X157084210Y-88870337D01*
X156536705Y-88822007D01*
X156036897Y-88793007D01*
X155571705Y-88782941D01*
X155128045Y-88791413D01*
X154887023Y-88803923D01*
X154666469Y-88818565D01*
X154485956Y-88832936D01*
X154330542Y-88849473D01*
X154185281Y-88870614D01*
X154035231Y-88898795D01*
X153865448Y-88936453D01*
X153660988Y-88986024D01*
X153458753Y-89036822D01*
X153028264Y-89145707D01*
X151922135Y-89145707D01*
X151866382Y-89137775D01*
X151738452Y-89118859D01*
X151645420Y-89104342D01*
X151636789Y-89102903D01*
X151565067Y-89089317D01*
X151550968Y-89077371D01*
X151589053Y-89058407D01*
X151604839Y-89052055D01*
X151745327Y-89004698D01*
X151939761Y-88952154D01*
X152178582Y-88896303D01*
X152452230Y-88839023D01*
X152751144Y-88782193D01*
X153065763Y-88727695D01*
X153386528Y-88677405D01*
X153703879Y-88633204D01*
X153793393Y-88621857D01*
X153952266Y-88606792D01*
X154162496Y-88593815D01*
X154414662Y-88582973D01*
X154699340Y-88574311D01*
X155007106Y-88567875D01*
X155328538Y-88563711D01*
X155654212Y-88561864D01*
X155974706Y-88562381D01*
X156280597Y-88565306D01*
X156562461Y-88570687D01*
X156810875Y-88578569D01*
X157016416Y-88588997D01*
X157169662Y-88602017D01*
X157196034Y-88605318D01*
X157457838Y-88641211D01*
X157670832Y-88671212D01*
X157849591Y-88697531D01*
X158008689Y-88722376D01*
X158162701Y-88747955D01*
X158326202Y-88776478D01*
X158330248Y-88777196D01*
X158494658Y-88806079D01*
X158656182Y-88833900D01*
X158792283Y-88856805D01*
X158857418Y-88867384D01*
X159054618Y-88899582D01*
X159210198Y-88927685D01*
X159345921Y-88955694D01*
X159384588Y-88964351D01*
X159462658Y-88982042D01*
X159587440Y-89010241D01*
X159743305Y-89045419D01*
X159914626Y-89084048D01*
X159959682Y-89094201D01*
X160168226Y-89141339D01*
X160399873Y-89193942D01*
X160625559Y-89245398D01*
X160806349Y-89286823D01*
X161125746Y-89359343D01*
X161407652Y-89421007D01*
X161676284Y-89476825D01*
X161955856Y-89531808D01*
X162270585Y-89590965D01*
X162323959Y-89600810D01*
X162598735Y-89652644D01*
X162822267Y-89698263D01*
X163006505Y-89740914D01*
X163163402Y-89783844D01*
X163304906Y-89830302D01*
X163442969Y-89883535D01*
X163577984Y-89941626D01*
X163683350Y-89990307D01*
X163743069Y-90027485D01*
X163770093Y-90067131D01*
X163777379Y-90123216D01*
X163777669Y-90156966D01*
X163775536Y-90235718D01*
X163763619Y-90260987D01*
X163733645Y-90243169D01*
X163719242Y-90230385D01*
X163626940Y-90188483D01*
X163492818Y-90187860D01*
X163378298Y-90212096D01*
X163329130Y-90227451D01*
X163335071Y-90231695D01*
X163399879Y-90225941D01*
X163418236Y-90223913D01*
X163506106Y-90220908D01*
X163551110Y-90234011D01*
X163554022Y-90241030D01*
X163529942Y-90272359D01*
X163522072Y-90273357D01*
X163491043Y-90296937D01*
X163490122Y-90304304D01*
X163513911Y-90320934D01*
X163543288Y-90314850D01*
X163579351Y-90310348D01*
X163573352Y-90331827D01*
X163525150Y-90363328D01*
X163488237Y-90369206D01*
X163437352Y-90382949D01*
X163426223Y-90401156D01*
X163443052Y-90429344D01*
X163497833Y-90422560D01*
X163510404Y-90417131D01*
X163713770Y-90417131D01*
X163729745Y-90433106D01*
X163745720Y-90417131D01*
X163729745Y-90401156D01*
X163713770Y-90417131D01*
X163510404Y-90417131D01*
X163597006Y-90379730D01*
X163617921Y-90369206D01*
G37*
G36*
X141189242Y-112622162D02*
G01*
X141173267Y-112638137D01*
X141157292Y-112622162D01*
X141173267Y-112606188D01*
X141189242Y-112622162D01*
G37*
D11*
X47534665Y-51763137D02*
X49740634Y-52152109D01*
X50476902Y-47976524D02*
X48270933Y-47587552D01*
X48270933Y-47587552D02*
X47534665Y-51763137D01*
X50372713Y-48567409D02*
X48166744Y-48178437D01*
X49740634Y-52152109D02*
X50476902Y-47976524D01*
X50331038Y-48803763D02*
X48125068Y-48414791D01*
X49486789Y-47141913D02*
X49373918Y-47782038D01*
X50351876Y-48685586D02*
X48145906Y-48296614D01*
X48524778Y-52597748D02*
X48637649Y-51957623D01*
X72914669Y-51233141D02*
X75120638Y-51622113D01*
X74866793Y-46611917D02*
X74753922Y-47252042D01*
X75711042Y-48273767D02*
X73505072Y-47884795D01*
X73904782Y-52067752D02*
X74017653Y-51427627D01*
X73650937Y-47057556D02*
X72914669Y-51233141D01*
X75752717Y-48037413D02*
X73546748Y-47648441D01*
X75120638Y-51622113D02*
X75856906Y-47446528D01*
X75731880Y-48155590D02*
X73525910Y-47766618D01*
X75856906Y-47446528D02*
X73650937Y-47057556D01*
X144652643Y-63301644D02*
X142446673Y-62912672D01*
X144798507Y-62474405D02*
X142592538Y-62085433D01*
X141856270Y-66261018D02*
X144062239Y-66649990D01*
X144673481Y-63183467D02*
X142467511Y-62794495D01*
X143808394Y-61639794D02*
X143695523Y-62279919D01*
X144694318Y-63065290D02*
X142488349Y-62676318D01*
X142592538Y-62085433D02*
X141856270Y-66261018D01*
X142846383Y-67095629D02*
X142959254Y-66455504D01*
X144062239Y-66649990D02*
X144798507Y-62474405D01*
X60234668Y-51833140D02*
X62440637Y-52222112D01*
X61224781Y-52667751D02*
X61337652Y-52027626D01*
X63031041Y-48873766D02*
X60825071Y-48484794D01*
X62440637Y-52222112D02*
X63176905Y-48046527D01*
X63176905Y-48046527D02*
X60970936Y-47657555D01*
X63051879Y-48755589D02*
X60845909Y-48366617D01*
X63072716Y-48637412D02*
X60866747Y-48248440D01*
X62186792Y-47211916D02*
X62073921Y-47852041D01*
X60970936Y-47657555D02*
X60234668Y-51833140D01*
X203489993Y-58117754D02*
X203377122Y-57477629D01*
X202527982Y-52661919D02*
X202640853Y-53302044D01*
X202274137Y-57672115D02*
X204480106Y-57283143D01*
X203743838Y-53107558D02*
X201537869Y-53496530D01*
X203848027Y-53698443D02*
X201642058Y-54087415D01*
X204480106Y-57283143D02*
X203743838Y-53107558D01*
X201537869Y-53496530D02*
X202274137Y-57672115D01*
X203868865Y-53816620D02*
X201662895Y-54205592D01*
X203889703Y-53934797D02*
X201683733Y-54323769D01*
X139088398Y-60729797D02*
X138975527Y-61369922D01*
X139932647Y-62391647D02*
X137726677Y-62002675D01*
X137872542Y-61175436D02*
X137136274Y-65351021D01*
X138126387Y-66185632D02*
X138239258Y-65545507D01*
X139974322Y-62155293D02*
X137768353Y-61766321D01*
X137136274Y-65351021D02*
X139342243Y-65739993D01*
X139342243Y-65739993D02*
X140078511Y-61564408D01*
X139953485Y-62273470D02*
X137747515Y-61884498D01*
X140078511Y-61564408D02*
X137872542Y-61175436D01*
X188587980Y-56731916D02*
X188700851Y-57372041D01*
X187597867Y-57566527D02*
X188334135Y-61742112D01*
X188334135Y-61742112D02*
X190540104Y-61353140D01*
X189949701Y-58004794D02*
X187743731Y-58393766D01*
X189928863Y-57886617D02*
X187722893Y-58275589D01*
X189549991Y-62187751D02*
X189437120Y-61547626D01*
X189908025Y-57768440D02*
X187702056Y-58157412D01*
X190540104Y-61353140D02*
X189803836Y-57177555D01*
X189803836Y-57177555D02*
X187597867Y-57566527D01*
X177744573Y-116879955D02*
X177008305Y-112704370D01*
X175792449Y-112258731D02*
X175905320Y-112898856D01*
X176754460Y-117714566D02*
X176641589Y-117074441D01*
X177133332Y-113413432D02*
X174927362Y-113802404D01*
X177112494Y-113295255D02*
X174906525Y-113684227D01*
X175538604Y-117268927D02*
X177744573Y-116879955D01*
X177008305Y-112704370D02*
X174802336Y-113093342D01*
X177154170Y-113531609D02*
X174948200Y-113920581D01*
X174802336Y-113093342D02*
X175538604Y-117268927D01*
D12*
X147987386Y-85427715D02*
X165767386Y-85427715D01*
X147987386Y-54947715D02*
X147987386Y-85427715D01*
X147987386Y-52407715D02*
X147987386Y-54947715D01*
X165767386Y-85427715D02*
X165767386Y-54947715D01*
X150527386Y-54947715D02*
X147987386Y-54947715D01*
X150527386Y-57487715D02*
X147987386Y-57487715D01*
X165767386Y-52407715D02*
X147987386Y-52407715D01*
X165767386Y-54947715D02*
X165767386Y-52407715D01*
X150527386Y-54947715D02*
X150527386Y-57487715D01*
G36*
X161608954Y-61327075D02*
G01*
X161508954Y-61327075D01*
X161508954Y-61227075D01*
X161608954Y-61227075D01*
X161608954Y-61327075D01*
G37*
D10*
X161608954Y-61327075D02*
X161508954Y-61327075D01*
X161508954Y-61227075D01*
X161608954Y-61227075D01*
X161608954Y-61327075D01*
G36*
X161408954Y-61627075D02*
G01*
X161308954Y-61627075D01*
X161308954Y-60827075D01*
X161408954Y-60827075D01*
X161408954Y-61627075D01*
G37*
X161408954Y-61627075D02*
X161308954Y-61627075D01*
X161308954Y-60827075D01*
X161408954Y-60827075D01*
X161408954Y-61627075D01*
G36*
X161808954Y-61127075D02*
G01*
X161708954Y-61127075D01*
X161708954Y-60827075D01*
X161808954Y-60827075D01*
X161808954Y-61127075D01*
G37*
X161808954Y-61127075D02*
X161708954Y-61127075D01*
X161708954Y-60827075D01*
X161808954Y-60827075D01*
X161808954Y-61127075D01*
G36*
X161808954Y-60927075D02*
G01*
X161308954Y-60927075D01*
X161308954Y-60827075D01*
X161808954Y-60827075D01*
X161808954Y-60927075D01*
G37*
X161808954Y-60927075D02*
X161308954Y-60927075D01*
X161308954Y-60827075D01*
X161808954Y-60827075D01*
X161808954Y-60927075D01*
G36*
X161808954Y-61627075D02*
G01*
X161708954Y-61627075D01*
X161708954Y-61427075D01*
X161808954Y-61427075D01*
X161808954Y-61627075D01*
G37*
X161808954Y-61627075D02*
X161708954Y-61627075D01*
X161708954Y-61427075D01*
X161808954Y-61427075D01*
X161808954Y-61627075D01*
D11*
X245714134Y-52112112D02*
X247920103Y-51723140D01*
X247920103Y-51723140D02*
X247183835Y-47547555D01*
X247308862Y-48256617D02*
X245102892Y-48645589D01*
X246929990Y-52557751D02*
X246817119Y-51917626D01*
X247183835Y-47547555D02*
X244977866Y-47936527D01*
X244977866Y-47936527D02*
X245714134Y-52112112D01*
X245967979Y-47101916D02*
X246080850Y-47742041D01*
X247329700Y-48374794D02*
X245123730Y-48763766D01*
X247288024Y-48138440D02*
X245082055Y-48527412D01*
X114904781Y-59057752D02*
X115017652Y-58417627D01*
X116711041Y-55263767D02*
X114505071Y-54874795D01*
X116731879Y-55145590D02*
X114525909Y-54756618D01*
X116856905Y-54436528D02*
X114650936Y-54047556D01*
X116752716Y-55027413D02*
X114546747Y-54638441D01*
X114650936Y-54047556D02*
X113914668Y-58223141D01*
X116120637Y-58612113D02*
X116856905Y-54436528D01*
X113914668Y-58223141D02*
X116120637Y-58612113D01*
X115866792Y-53601917D02*
X115753921Y-54242042D01*
X137854317Y-114825292D02*
X135648348Y-114436320D01*
X137222238Y-118409992D02*
X137958506Y-114234407D01*
X135752537Y-113845435D02*
X135016269Y-118021020D01*
X137958506Y-114234407D02*
X135752537Y-113845435D01*
X136006382Y-118855631D02*
X136119253Y-118215506D01*
X137812642Y-115061646D02*
X135606672Y-114672674D01*
X136968393Y-113399796D02*
X136855522Y-114039921D01*
X135016269Y-118021020D02*
X137222238Y-118409992D01*
X137833480Y-114943469D02*
X135627510Y-114554497D01*
X206717868Y-51806526D02*
X207454136Y-55982111D01*
X209048864Y-52126616D02*
X206842894Y-52515588D01*
X207454136Y-55982111D02*
X209660105Y-55593139D01*
X208669992Y-56427750D02*
X208557121Y-55787625D01*
X209028026Y-52008439D02*
X206822057Y-52397411D01*
X209069702Y-52244793D02*
X206863732Y-52633765D01*
X209660105Y-55593139D02*
X208923837Y-51417554D01*
X207707981Y-50971915D02*
X207820852Y-51612040D01*
X208923837Y-51417554D02*
X206717868Y-51806526D01*
X200190105Y-58453138D02*
X199453837Y-54277553D01*
X199453837Y-54277553D02*
X197247868Y-54666525D01*
X197247868Y-54666525D02*
X197984136Y-58842110D01*
X199578864Y-54986615D02*
X197372894Y-55375587D01*
X199599702Y-55104792D02*
X197393732Y-55493764D01*
X199558026Y-54868438D02*
X197352057Y-55257410D01*
X198237981Y-53831914D02*
X198350852Y-54472039D01*
X199199992Y-59287749D02*
X199087121Y-58647624D01*
X197984136Y-58842110D02*
X200190105Y-58453138D01*
X87004780Y-52777750D02*
X87117651Y-52137625D01*
X88852715Y-48747411D02*
X86646746Y-48358439D01*
X88956904Y-48156526D02*
X86750935Y-47767554D01*
X88811040Y-48983765D02*
X86605070Y-48594793D01*
X86014667Y-51943139D02*
X88220636Y-52332111D01*
X88831878Y-48865588D02*
X86625908Y-48476616D01*
X88220636Y-52332111D02*
X88956904Y-48156526D01*
X86750935Y-47767554D02*
X86014667Y-51943139D01*
X87966791Y-47321915D02*
X87853920Y-47962040D01*
X259397980Y-47101917D02*
X259510851Y-47742042D01*
X260613836Y-47547556D02*
X258407867Y-47936528D01*
X258407867Y-47936528D02*
X259144135Y-52112113D01*
X260738863Y-48256618D02*
X258532893Y-48645590D01*
X261350104Y-51723141D02*
X260613836Y-47547556D01*
X260718025Y-48138441D02*
X258512056Y-48527413D01*
X259144135Y-52112113D02*
X261350104Y-51723141D01*
X260359991Y-52557752D02*
X260247120Y-51917627D01*
X260759701Y-48374795D02*
X258553731Y-48763767D01*
X279892236Y-47855439D02*
X277686267Y-48244411D01*
X279638391Y-52865635D02*
X279525520Y-52225510D01*
X280017263Y-48564501D02*
X277811293Y-48953473D01*
X280038101Y-48682678D02*
X277832131Y-49071650D01*
X278676380Y-47409800D02*
X278789251Y-48049925D01*
X278422535Y-52419996D02*
X280628504Y-52031024D01*
X280628504Y-52031024D02*
X279892236Y-47855439D01*
X277686267Y-48244411D02*
X278422535Y-52419996D01*
X279996425Y-48446324D02*
X277790456Y-48835296D01*
X225507865Y-48376525D02*
X226244133Y-52552110D01*
X228450102Y-52163138D02*
X227713834Y-47987553D01*
X226497978Y-47541914D02*
X226610849Y-48182039D01*
X227713834Y-47987553D02*
X225507865Y-48376525D01*
X227838861Y-48696615D02*
X225632891Y-49085587D01*
X227818023Y-48578438D02*
X225612054Y-48967410D01*
X227859699Y-48814792D02*
X225653729Y-49203764D01*
X226244133Y-52552110D02*
X228450102Y-52163138D01*
X227459989Y-52997749D02*
X227347118Y-52357624D01*
X221849700Y-49274795D02*
X219643730Y-49663767D01*
X221449990Y-53457752D02*
X221337119Y-52817627D01*
X220487979Y-48001917D02*
X220600850Y-48642042D01*
X219497866Y-48836528D02*
X220234134Y-53012113D01*
X222440103Y-52623141D02*
X221703835Y-48447556D01*
X221828862Y-49156618D02*
X219622892Y-49545590D01*
X221703835Y-48447556D02*
X219497866Y-48836528D01*
X220234134Y-53012113D02*
X222440103Y-52623141D01*
X221808024Y-49038441D02*
X219602055Y-49427413D01*
X185589704Y-59384796D02*
X183383734Y-59773768D01*
X184227983Y-58111918D02*
X184340854Y-58752043D01*
X183974138Y-63122114D02*
X186180107Y-62733142D01*
X185189994Y-63567753D02*
X185077123Y-62927628D01*
X185568866Y-59266619D02*
X183362896Y-59655591D01*
X183237870Y-58946529D02*
X183974138Y-63122114D01*
X186180107Y-62733142D02*
X185443839Y-58557557D01*
X185548028Y-59148442D02*
X183342059Y-59537414D01*
X185443839Y-58557557D02*
X183237870Y-58946529D01*
X215119704Y-50484792D02*
X212913734Y-50873764D01*
X213757983Y-49211914D02*
X213870854Y-49852039D01*
X214973839Y-49657553D02*
X212767870Y-50046525D01*
X215078028Y-50248438D02*
X212872059Y-50637410D01*
X215710107Y-53833138D02*
X214973839Y-49657553D01*
X212767870Y-50046525D02*
X213504138Y-54222110D01*
X215098866Y-50366615D02*
X212892896Y-50755587D01*
X213504138Y-54222110D02*
X215710107Y-53833138D01*
X214719994Y-54667749D02*
X214607123Y-54027624D01*
X94732715Y-49547411D02*
X92526746Y-49158439D01*
X92884780Y-53577750D02*
X92997651Y-52937625D01*
X94836904Y-48956526D02*
X92630935Y-48567554D01*
X94711878Y-49665588D02*
X92505908Y-49276616D01*
X94691040Y-49783765D02*
X92485070Y-49394793D01*
X93846791Y-48121915D02*
X93733920Y-48762040D01*
X91894667Y-52743139D02*
X94100636Y-53132111D01*
X94100636Y-53132111D02*
X94836904Y-48956526D01*
X92630935Y-48567554D02*
X91894667Y-52743139D01*
X36344316Y-48805297D02*
X34138347Y-48416325D01*
X35712237Y-52389997D02*
X36448505Y-48214412D01*
X36323479Y-48923474D02*
X34117509Y-48534502D01*
X36302641Y-49041651D02*
X34096671Y-48652679D01*
X34496381Y-52835636D02*
X34609252Y-52195511D01*
X35458392Y-47379801D02*
X35345521Y-48019926D01*
X33506268Y-52001025D02*
X35712237Y-52389997D01*
X36448505Y-48214412D02*
X34242536Y-47825440D01*
X34242536Y-47825440D02*
X33506268Y-52001025D01*
X267530106Y-52013139D02*
X266793838Y-47837554D01*
X265577982Y-47391915D02*
X265690853Y-48032040D01*
X266793838Y-47837554D02*
X264587869Y-48226526D01*
X265324137Y-52402111D02*
X267530106Y-52013139D01*
X266539993Y-52847750D02*
X266427122Y-52207625D01*
X266898027Y-48428439D02*
X264692058Y-48817411D01*
X264587869Y-48226526D02*
X265324137Y-52402111D01*
X266918865Y-48546616D02*
X264712895Y-48935588D01*
X266939703Y-48664793D02*
X264733733Y-49053765D01*
X125852716Y-57837413D02*
X123646747Y-57448441D01*
X124966792Y-56411917D02*
X124853921Y-57052042D01*
X125956905Y-57246528D02*
X123750936Y-56857556D01*
X124004781Y-61867752D02*
X124117652Y-61227627D01*
X125811041Y-58073767D02*
X123605071Y-57684795D01*
X123014668Y-61033141D02*
X125220637Y-61422113D01*
X125831879Y-57955590D02*
X123625909Y-57566618D01*
X123750936Y-56857556D02*
X123014668Y-61033141D01*
X125220637Y-61422113D02*
X125956905Y-57246528D01*
X130692715Y-59527409D02*
X128486746Y-59138437D01*
X130060636Y-63112109D02*
X130796904Y-58936524D01*
X130796904Y-58936524D02*
X128590935Y-58547552D01*
X128590935Y-58547552D02*
X127854667Y-62723137D01*
X129806791Y-58101913D02*
X129693920Y-58742038D01*
X130651040Y-59763763D02*
X128445070Y-59374791D01*
X127854667Y-62723137D02*
X130060636Y-63112109D01*
X130671878Y-59645586D02*
X128465908Y-59256614D01*
X128844780Y-63557748D02*
X128957651Y-62917623D01*
X53484668Y-51693138D02*
X55690637Y-52082110D01*
X56426905Y-47906525D02*
X54220936Y-47517553D01*
X54220936Y-47517553D02*
X53484668Y-51693138D01*
X56281041Y-48733764D02*
X54075071Y-48344792D01*
X55436792Y-47071914D02*
X55323921Y-47712039D01*
X54474781Y-52527749D02*
X54587652Y-51887624D01*
X56322716Y-48497410D02*
X54116747Y-48108438D01*
X55690637Y-52082110D02*
X56426905Y-47906525D01*
X56301879Y-48615587D02*
X54095909Y-48226615D01*
X66554668Y-51253140D02*
X68760637Y-51642112D01*
X67544781Y-52087751D02*
X67657652Y-51447626D01*
X69351041Y-48293766D02*
X67145071Y-47904794D01*
X69392716Y-48057412D02*
X67186747Y-47668440D01*
X67290936Y-47077555D02*
X66554668Y-51253140D01*
X68506792Y-46631916D02*
X68393921Y-47272041D01*
X68760637Y-51642112D02*
X69496905Y-47466527D01*
X69496905Y-47466527D02*
X67290936Y-47077555D01*
X69371879Y-48175589D02*
X67165909Y-47786617D01*
X106136795Y-50651915D02*
X106023924Y-51292040D01*
X106390640Y-55662111D02*
X107126908Y-51486526D01*
X107001882Y-52195588D02*
X104795912Y-51806616D01*
X106981044Y-52313765D02*
X104775074Y-51924793D01*
X107022719Y-52077411D02*
X104816750Y-51688439D01*
X105174784Y-56107750D02*
X105287655Y-55467625D01*
X104920939Y-51097554D02*
X104184671Y-55273139D01*
X107126908Y-51486526D02*
X104920939Y-51097554D01*
X104184671Y-55273139D02*
X106390640Y-55662111D01*
X133394781Y-64967752D02*
X133507652Y-64327627D01*
X135221879Y-61055590D02*
X133015909Y-60666618D01*
X132404668Y-64133141D02*
X134610637Y-64522113D01*
X133140936Y-59957556D02*
X132404668Y-64133141D01*
X135201041Y-61173767D02*
X132995071Y-60784795D01*
X135242716Y-60937413D02*
X133036747Y-60548441D01*
X134356792Y-59511917D02*
X134243921Y-60152042D01*
X134610637Y-64522113D02*
X135346905Y-60346528D01*
X135346905Y-60346528D02*
X133140936Y-59957556D01*
X41144668Y-51913140D02*
X43350637Y-52302112D01*
X41880936Y-47737555D02*
X41144668Y-51913140D01*
X43961879Y-48835589D02*
X41755909Y-48446617D01*
X43982716Y-48717412D02*
X41776747Y-48328440D01*
X43350637Y-52302112D02*
X44086905Y-48126527D01*
X43941041Y-48953766D02*
X41735071Y-48564794D01*
X42134781Y-52747751D02*
X42247652Y-52107626D01*
X44086905Y-48126527D02*
X41880936Y-47737555D01*
X43096792Y-47291916D02*
X42983921Y-47932041D01*
X165297388Y-135977715D02*
X165297388Y-136627715D01*
X166417388Y-136627715D02*
X164177388Y-136627715D01*
X165297388Y-141517715D02*
X165297388Y-140867715D01*
X164177388Y-136627715D02*
X164177388Y-140867715D01*
X166417388Y-137347715D02*
X164177388Y-137347715D01*
X166417388Y-137467715D02*
X164177388Y-137467715D01*
X166417388Y-137227715D02*
X164177388Y-137227715D01*
X166417388Y-140867715D02*
X166417388Y-136627715D01*
X164177388Y-140867715D02*
X166417388Y-140867715D01*
X179437980Y-59561915D02*
X179550851Y-60202040D01*
X180758025Y-60598439D02*
X178552056Y-60987411D01*
X178447867Y-60396526D02*
X179184135Y-64572111D01*
X180799701Y-60834793D02*
X178593731Y-61223765D01*
X180778863Y-60716616D02*
X178572893Y-61105588D01*
X180653836Y-60007554D02*
X178447867Y-60396526D01*
X180399991Y-65017750D02*
X180287120Y-64377625D01*
X181390104Y-64183139D02*
X180653836Y-60007554D01*
X179184135Y-64572111D02*
X181390104Y-64183139D01*
X109704667Y-56873138D02*
X111910636Y-57262110D01*
X112521878Y-53795587D02*
X110315908Y-53406615D01*
X111656791Y-52251914D02*
X111543920Y-52892039D01*
X112542715Y-53677410D02*
X110336746Y-53288438D01*
X110694780Y-57707749D02*
X110807651Y-57067624D01*
X110440935Y-52697553D02*
X109704667Y-56873138D01*
X112646904Y-53086525D02*
X110440935Y-52697553D01*
X112501040Y-53913764D02*
X110295070Y-53524792D01*
X111910636Y-57262110D02*
X112646904Y-53086525D01*
X233808025Y-48358442D02*
X231602056Y-48747414D01*
X233849701Y-48594796D02*
X231643731Y-48983768D01*
X232234135Y-52332114D02*
X234440104Y-51943142D01*
X233703836Y-47767557D02*
X231497867Y-48156529D01*
X231497867Y-48156529D02*
X232234135Y-52332114D01*
X234440104Y-51943142D02*
X233703836Y-47767557D01*
X233449991Y-52777753D02*
X233337120Y-52137628D01*
X232487980Y-47321918D02*
X232600851Y-47962043D01*
X233828863Y-48476619D02*
X231622893Y-48865591D01*
X271007864Y-48076526D02*
X271744132Y-52252111D01*
X273950101Y-51863139D02*
X273213833Y-47687554D01*
X273359698Y-48514793D02*
X271153728Y-48903765D01*
X271997977Y-47241915D02*
X272110848Y-47882040D01*
X271744132Y-52252111D02*
X273950101Y-51863139D01*
X272959988Y-52697750D02*
X272847117Y-52057625D01*
X273338860Y-48396616D02*
X271132890Y-48785588D01*
X273318022Y-48278439D02*
X271112053Y-48667411D01*
X273213833Y-47687554D02*
X271007864Y-48076526D01*
X98842534Y-49505439D02*
X98106266Y-53681024D01*
X100923477Y-50603473D02*
X98717507Y-50214501D01*
X100944314Y-50485296D02*
X98738345Y-50096324D01*
X100058390Y-49059800D02*
X99945519Y-49699925D01*
X100902639Y-50721650D02*
X98696669Y-50332678D01*
X101048503Y-49894411D02*
X98842534Y-49505439D01*
X98106266Y-53681024D02*
X100312235Y-54069996D01*
X99096379Y-54515635D02*
X99209250Y-53875510D01*
X100312235Y-54069996D02*
X101048503Y-49894411D01*
X121471880Y-56405589D02*
X119265910Y-56016617D01*
X119390937Y-55307555D02*
X118654669Y-59483140D01*
X121492717Y-56287412D02*
X119286748Y-55898440D01*
X120860638Y-59872112D02*
X121596906Y-55696527D01*
X121451042Y-56523766D02*
X119245072Y-56134794D01*
X120606793Y-54861916D02*
X120493922Y-55502041D01*
X121596906Y-55696527D02*
X119390937Y-55307555D01*
X119644782Y-60317751D02*
X119757653Y-59677626D01*
X118654669Y-59483140D02*
X120860638Y-59872112D01*
X192527866Y-56044410D02*
X193264134Y-60219995D01*
X194879700Y-56482677D02*
X192673730Y-56871649D01*
X194838024Y-56246323D02*
X192632055Y-56635295D01*
X195470103Y-59831023D02*
X194733835Y-55655438D01*
X193517979Y-55209799D02*
X193630850Y-55849924D01*
X193264134Y-60219995D02*
X195470103Y-59831023D01*
X194733835Y-55655438D02*
X192527866Y-56044410D01*
X194479990Y-60665634D02*
X194367119Y-60025509D01*
X194858862Y-56364500D02*
X192652892Y-56753472D01*
X82312718Y-48347410D02*
X80106749Y-47958438D01*
X79474670Y-51543138D02*
X81680639Y-51932110D01*
X81680639Y-51932110D02*
X82416907Y-47756525D01*
X81426794Y-46921914D02*
X81313923Y-47562039D01*
X82271043Y-48583764D02*
X80065073Y-48194792D01*
X82291881Y-48465587D02*
X80085911Y-48076615D01*
X80464783Y-52377749D02*
X80577654Y-51737624D01*
X80210938Y-47367553D02*
X79474670Y-51543138D01*
X82416907Y-47756525D02*
X80210938Y-47367553D01*
X240787261Y-48214502D02*
X238581291Y-48603474D01*
X241398502Y-51681025D02*
X240662234Y-47505440D01*
X240408389Y-52515636D02*
X240295518Y-51875511D01*
X239192533Y-52069997D02*
X241398502Y-51681025D01*
X239446378Y-47059801D02*
X239559249Y-47699926D01*
X238456265Y-47894412D02*
X239192533Y-52069997D01*
X240766423Y-48096325D02*
X238560454Y-48485297D01*
X240808099Y-48332679D02*
X238602129Y-48721651D01*
X240662234Y-47505440D02*
X238456265Y-47894412D01*
X171788506Y-66371019D02*
X171052238Y-62195434D01*
X171177265Y-62904496D02*
X168971295Y-63293468D01*
X170798393Y-67205630D02*
X170685522Y-66565505D01*
X169582537Y-66759991D02*
X171788506Y-66371019D01*
X171198103Y-63022673D02*
X168992133Y-63411645D01*
X169836382Y-61749795D02*
X169949253Y-62389920D01*
X168846269Y-62584406D02*
X169582537Y-66759991D01*
X171052238Y-62195434D02*
X168846269Y-62584406D01*
X171156427Y-62786319D02*
X168950458Y-63175291D01*
X175768862Y-61666617D02*
X173562892Y-62055589D01*
X174427979Y-60511916D02*
X174540850Y-61152041D01*
X175643835Y-60957555D02*
X173437866Y-61346527D01*
X173437866Y-61346527D02*
X174174134Y-65522112D01*
X175748024Y-61548440D02*
X173542055Y-61937412D01*
X175789700Y-61784794D02*
X173583730Y-62173766D01*
X174174134Y-65522112D02*
X176380103Y-65133140D01*
X176380103Y-65133140D02*
X175643835Y-60957555D01*
X175389990Y-65967751D02*
X175277119Y-65327626D01*
X254348863Y-48116617D02*
X252142893Y-48505589D01*
X254960104Y-51583140D02*
X254223836Y-47407555D01*
X253007980Y-46961916D02*
X253120851Y-47602041D01*
X253969991Y-52417751D02*
X253857120Y-51777626D01*
X254223836Y-47407555D02*
X252017867Y-47796527D01*
X252017867Y-47796527D02*
X252754135Y-51972112D01*
X254328025Y-47998440D02*
X252122056Y-48387412D01*
X252754135Y-51972112D02*
X254960104Y-51583140D01*
X254369701Y-48234794D02*
X252163731Y-48623766D01*
D13*
X149257386Y-56217715D03*
D14*
X149257386Y-58757715D03*
X149257386Y-61297715D03*
X149257386Y-63837715D03*
X149257386Y-66377715D03*
X149257386Y-68917715D03*
X149257386Y-71457715D03*
X149257386Y-73997715D03*
X149257386Y-76537715D03*
X149257386Y-79077715D03*
X149257386Y-81617715D03*
X149257386Y-84157715D03*
X164497386Y-84157715D03*
X164497386Y-81617715D03*
X164497386Y-79077715D03*
X164497386Y-76537715D03*
X164497386Y-73997715D03*
X164497386Y-71457715D03*
X164497386Y-68917715D03*
X164497386Y-66377715D03*
X164497386Y-63837715D03*
X164497386Y-61297715D03*
X164497386Y-58757715D03*
X164497386Y-56217715D03*
%LPC*%
D15*
X49667383Y-46117713D03*
D16*
X48344184Y-53621948D03*
D15*
X75047387Y-45587717D03*
D16*
X73724188Y-53091952D03*
D15*
X143988988Y-60615594D03*
D16*
X142665789Y-68119829D03*
D15*
X62367386Y-46187716D03*
D16*
X61044187Y-53691951D03*
D17*
X202347388Y-51637719D03*
D18*
X203670587Y-59141954D03*
D15*
X139268992Y-59705597D03*
D16*
X137945793Y-67209832D03*
D19*
X156533839Y-138509472D03*
D20*
X162033839Y-138509472D03*
D21*
X161613839Y-138509472D03*
X151453839Y-138509472D03*
D20*
X151033839Y-138509472D03*
D22*
X151433839Y-142409472D03*
X152723839Y-135969472D03*
X159073839Y-133429472D03*
X156533839Y-144409472D03*
D20*
X180445599Y-115084496D03*
D21*
X190864865Y-113247298D03*
D19*
X185862042Y-114129431D03*
D20*
X191278485Y-113174366D03*
D21*
X180859219Y-115011564D03*
D22*
X181668858Y-112289619D03*
X181516750Y-118855787D03*
X186886566Y-119939797D03*
X187481321Y-108685541D03*
X209207530Y-121900897D03*
X208612775Y-133155153D03*
X203395067Y-125504975D03*
X203242959Y-132071143D03*
D19*
X207588251Y-127344787D03*
D20*
X213004694Y-126389722D03*
X202171808Y-128299852D03*
D21*
X212591074Y-126462654D03*
X202585428Y-128226920D03*
X63860210Y-67529847D03*
D20*
X53440944Y-65692649D03*
D21*
X53854564Y-65765581D03*
D20*
X64273830Y-67602779D03*
D19*
X58857387Y-66647714D03*
D22*
X55546336Y-63484703D03*
X53157640Y-69602859D03*
X62240931Y-62085957D03*
X57832863Y-72458080D03*
D17*
X188407386Y-55707716D03*
D18*
X189730585Y-63211951D03*
D20*
X213841803Y-85079855D03*
D21*
X214255423Y-85006923D03*
D19*
X219258246Y-84124790D03*
D21*
X224261069Y-83242657D03*
D20*
X224674689Y-83169725D03*
D22*
X215065062Y-82284978D03*
X214912954Y-88851146D03*
X220282770Y-89935156D03*
X220877525Y-78680900D03*
D20*
X140940945Y-117422649D03*
D21*
X151360211Y-119259847D03*
X141354565Y-117495581D03*
D20*
X151773831Y-119332779D03*
D19*
X146357388Y-118377714D03*
D22*
X140657641Y-121332859D03*
X143046337Y-115214703D03*
X145332864Y-124188080D03*
X149740932Y-113815957D03*
D19*
X127593840Y-115049471D03*
D21*
X122591017Y-114167338D03*
X132596663Y-115931604D03*
D20*
X133010283Y-116004536D03*
X122177397Y-114094406D03*
D22*
X124282789Y-111886460D03*
X121894093Y-118004616D03*
X130977384Y-110487714D03*
X126569316Y-120859837D03*
D17*
X175611855Y-111234531D03*
D18*
X176935054Y-118738766D03*
D21*
X249735427Y-66646920D03*
X259741073Y-64882654D03*
D19*
X254738250Y-65764787D03*
D20*
X249321807Y-66719852D03*
X260154693Y-64809722D03*
D22*
X250545066Y-63924975D03*
X250392958Y-70491143D03*
X256357529Y-60320897D03*
X255762774Y-71575153D03*
D21*
X184171556Y-133796772D03*
D20*
X194590822Y-131959574D03*
X183757936Y-133869704D03*
D19*
X189174379Y-132914639D03*
D21*
X194177202Y-132032506D03*
D22*
X184829087Y-137640995D03*
X184981195Y-131074827D03*
X190198903Y-138725005D03*
X190793658Y-127470749D03*
D13*
X149257386Y-56217715D03*
D23*
X147479386Y-56217715D03*
X147479386Y-58757715D03*
D14*
X149257386Y-58757715D03*
D23*
X147479386Y-61297715D03*
D14*
X149257386Y-61297715D03*
D23*
X147479386Y-63837715D03*
D14*
X149257386Y-63837715D03*
X149257386Y-66377715D03*
D23*
X147479386Y-66377715D03*
X147479386Y-68917715D03*
D14*
X149257386Y-68917715D03*
D23*
X147479386Y-71457715D03*
D14*
X149257386Y-71457715D03*
X149257386Y-73997715D03*
D23*
X147479386Y-73997715D03*
D14*
X149257386Y-76537715D03*
D23*
X147479386Y-76537715D03*
D14*
X149257386Y-79077715D03*
D23*
X147479386Y-79077715D03*
D14*
X149257386Y-81617715D03*
D23*
X147479386Y-81617715D03*
X147479386Y-84157715D03*
D14*
X149257386Y-84157715D03*
X164497386Y-84157715D03*
D23*
X166275386Y-84157715D03*
X166275386Y-81617715D03*
D14*
X164497386Y-81617715D03*
D23*
X166275386Y-79077715D03*
D14*
X164497386Y-79077715D03*
X164497386Y-76537715D03*
D23*
X166275386Y-76537715D03*
D14*
X164497386Y-73997715D03*
D23*
X166275386Y-73997715D03*
D14*
X164497386Y-71457715D03*
D23*
X166275386Y-71457715D03*
D14*
X164497386Y-68917715D03*
D23*
X166275386Y-68917715D03*
X166275386Y-66377715D03*
D14*
X164497386Y-66377715D03*
D23*
X166275386Y-63837715D03*
D14*
X164497386Y-63837715D03*
X164497386Y-61297715D03*
D23*
X166275386Y-61297715D03*
X166275386Y-58757715D03*
D14*
X164497386Y-58757715D03*
D23*
X166275386Y-56217715D03*
D14*
X164497386Y-56217715D03*
D21*
X129310206Y-134689848D03*
D19*
X124307383Y-133807715D03*
D20*
X129723826Y-134762780D03*
X118890940Y-132852650D03*
D21*
X119304560Y-132925582D03*
D22*
X120996332Y-130644704D03*
X118607636Y-136762860D03*
X123282859Y-139618081D03*
X127690927Y-129245958D03*
D17*
X245787385Y-46077716D03*
D18*
X247110584Y-53581951D03*
D21*
X38020208Y-104099847D03*
D20*
X27600942Y-102262649D03*
D19*
X33017385Y-103217714D03*
D20*
X38433828Y-104172779D03*
D21*
X28014562Y-102335581D03*
D22*
X27317638Y-106172859D03*
X29706334Y-100054703D03*
X31992861Y-109028080D03*
X36400929Y-98655957D03*
D15*
X116047386Y-52577717D03*
D16*
X114724187Y-60081952D03*
D15*
X137148987Y-112375596D03*
D16*
X135825788Y-119879831D03*
D21*
X220961070Y-64462654D03*
D20*
X210541804Y-66299852D03*
D21*
X210955424Y-66226920D03*
D19*
X215958247Y-65344787D03*
D20*
X221374690Y-64389722D03*
D22*
X211612955Y-70071143D03*
X211765063Y-63504975D03*
X217577526Y-59900897D03*
X216982771Y-71155153D03*
D20*
X92137396Y-65284409D03*
D21*
X102556662Y-67121607D03*
D19*
X97553839Y-66239474D03*
D20*
X102970282Y-67194539D03*
D21*
X92551016Y-65357341D03*
D22*
X94242788Y-63076463D03*
X91854092Y-69194619D03*
X100937383Y-61677717D03*
X96529315Y-72049840D03*
D17*
X207527387Y-49947715D03*
D18*
X208850586Y-57451950D03*
D20*
X206324695Y-88899723D03*
D19*
X200908252Y-89854788D03*
D20*
X195491809Y-90809853D03*
D21*
X195905429Y-90736921D03*
X205911075Y-88972655D03*
D22*
X196715068Y-88014976D03*
X196562960Y-94581144D03*
X201932776Y-95665154D03*
X202527531Y-84410898D03*
D17*
X198057387Y-52807714D03*
D18*
X199380586Y-60311949D03*
D21*
X282261792Y-82716546D03*
D20*
X282675412Y-82643614D03*
X271842526Y-84553744D03*
D21*
X272256146Y-84480812D03*
D19*
X277258969Y-83598679D03*
D22*
X273065785Y-81758867D03*
X272913677Y-88325035D03*
X278878248Y-78154789D03*
X278283493Y-89409045D03*
D20*
X229721806Y-65359851D03*
D19*
X235138249Y-64404786D03*
D21*
X230135426Y-65286919D03*
D20*
X240554692Y-63449721D03*
D21*
X240141072Y-63522653D03*
D22*
X230945065Y-62564974D03*
X230792957Y-69131142D03*
X236757528Y-58960896D03*
X236162773Y-70215152D03*
D20*
X107157397Y-89724408D03*
D21*
X107571017Y-89797340D03*
D20*
X117990283Y-91634538D03*
D19*
X112573840Y-90679473D03*
D21*
X117576663Y-91561606D03*
D22*
X109262789Y-87516462D03*
X106874093Y-93634618D03*
X111549316Y-96489839D03*
X115957384Y-86117716D03*
D21*
X266351073Y-102462656D03*
D20*
X266764693Y-102389724D03*
D19*
X261348250Y-103344789D03*
D21*
X256345427Y-104226922D03*
D20*
X255931807Y-104299854D03*
D22*
X257155066Y-101504977D03*
X257002958Y-108071145D03*
X262372774Y-109155155D03*
X262967529Y-97900899D03*
D20*
X275122526Y-103373744D03*
X285955412Y-101463614D03*
D21*
X285541792Y-101536546D03*
D19*
X280538969Y-102418679D03*
D21*
X275536146Y-103300812D03*
D22*
X276193677Y-107145035D03*
X276345785Y-100578867D03*
X281563493Y-108229045D03*
X282158248Y-96974789D03*
D20*
X247184691Y-100989724D03*
X236351805Y-102899854D03*
D19*
X241768248Y-101944789D03*
D21*
X236765425Y-102826922D03*
X246771071Y-101062656D03*
D22*
X237575064Y-100104977D03*
X237422956Y-106671145D03*
X243387527Y-96500899D03*
X242792772Y-107755155D03*
D15*
X88147385Y-46297715D03*
D16*
X86824186Y-53801950D03*
D17*
X259217386Y-46077717D03*
D18*
X260540585Y-53581952D03*
D17*
X278495786Y-46385600D03*
D18*
X279818985Y-53889835D03*
D17*
X226317384Y-46517714D03*
D18*
X227640583Y-54021949D03*
D21*
X57190206Y-105079848D03*
D20*
X46770940Y-103242650D03*
D19*
X52187383Y-104197715D03*
D21*
X47184560Y-103315582D03*
D20*
X57603826Y-105152780D03*
D22*
X46487636Y-107152860D03*
X48876332Y-101034704D03*
X51162859Y-110008081D03*
X55570927Y-99635958D03*
D19*
X197598248Y-71084787D03*
D20*
X203014691Y-70129722D03*
D21*
X192595425Y-71966920D03*
X202601071Y-70202654D03*
D20*
X192181805Y-72039852D03*
D22*
X193405064Y-69244975D03*
X193252956Y-75811143D03*
X199217527Y-65640897D03*
X198622772Y-76895153D03*
D17*
X220307385Y-46977717D03*
D18*
X221630584Y-54481952D03*
D17*
X184047389Y-57087718D03*
D18*
X185370588Y-64591953D03*
D17*
X213577389Y-48187714D03*
D18*
X214900588Y-55691949D03*
D15*
X94027385Y-47097715D03*
D16*
X92704186Y-54601950D03*
D20*
X184614693Y-75679724D03*
D19*
X179198250Y-76634789D03*
D21*
X184201073Y-75752656D03*
D20*
X173781807Y-77589854D03*
D21*
X174195427Y-77516922D03*
D22*
X174852958Y-81361145D03*
X175005066Y-74794977D03*
X180817529Y-71190899D03*
X180222774Y-82445155D03*
D20*
X110457394Y-70934406D03*
X121290280Y-72844536D03*
D21*
X120876660Y-72771604D03*
X110871014Y-71007338D03*
D19*
X115873837Y-71889471D03*
D22*
X112562786Y-68726460D03*
X110174090Y-74844616D03*
X119257381Y-67327714D03*
X114849313Y-77699837D03*
D15*
X35638986Y-46355601D03*
D16*
X34315787Y-53859836D03*
D21*
X227561075Y-101972656D03*
D20*
X217141809Y-103809854D03*
D21*
X217555429Y-103736922D03*
D20*
X227974695Y-101899724D03*
D19*
X222558252Y-102854789D03*
D22*
X218365068Y-101014977D03*
X218212960Y-107581145D03*
X223582776Y-108665155D03*
X224177531Y-97410899D03*
D17*
X265397388Y-46367715D03*
D18*
X266720587Y-53871950D03*
D15*
X125147386Y-55387717D03*
D16*
X123824187Y-62891952D03*
D19*
X39657385Y-65707715D03*
D21*
X44660208Y-66589848D03*
X34654562Y-64825582D03*
D20*
X45073828Y-66662780D03*
X34240942Y-64752650D03*
D22*
X36346334Y-62544704D03*
X33957638Y-68662860D03*
X38632861Y-71518081D03*
X43040929Y-61145958D03*
D20*
X50110943Y-84472650D03*
D21*
X50524563Y-84545582D03*
D20*
X60943829Y-86382780D03*
D21*
X60530209Y-86309848D03*
D19*
X55527386Y-85427715D03*
D22*
X52216335Y-82264704D03*
X49827639Y-88382860D03*
X54502862Y-91238081D03*
X58910930Y-80865958D03*
D15*
X129987385Y-57077713D03*
D16*
X128664186Y-64581948D03*
D15*
X55617386Y-46047714D03*
D16*
X54294187Y-53551949D03*
D15*
X68687386Y-45607716D03*
D16*
X67364187Y-53111951D03*
D15*
X106317389Y-49627715D03*
D16*
X104994190Y-57131950D03*
D15*
X134537386Y-58487717D03*
D16*
X133214187Y-65991952D03*
D21*
X104271016Y-108557340D03*
D20*
X103857396Y-108484408D03*
D19*
X109273839Y-109439473D03*
D21*
X114276662Y-110321606D03*
D20*
X114690282Y-110394538D03*
D22*
X105962788Y-106276462D03*
X103574092Y-112394618D03*
X112657383Y-104877716D03*
X108249315Y-115249839D03*
D19*
X167257736Y-118323755D03*
D20*
X161841293Y-119278820D03*
D21*
X172260559Y-117441622D03*
D20*
X172674179Y-117368690D03*
D21*
X162254913Y-119205888D03*
D22*
X162912444Y-123050111D03*
X163064552Y-116483943D03*
X168877015Y-112879865D03*
X168282260Y-124134121D03*
D15*
X43277386Y-46267716D03*
D16*
X41954187Y-53771951D03*
D20*
X83823831Y-66162781D03*
X72990945Y-64252651D03*
D21*
X83410211Y-66089849D03*
D19*
X78407388Y-65207716D03*
D21*
X73404565Y-64325583D03*
D22*
X72707641Y-68162861D03*
X75096337Y-62044705D03*
X77382864Y-71018082D03*
X81790932Y-60645959D03*
D24*
X165297388Y-134937715D03*
D25*
X165297388Y-142557715D03*
D20*
X96353828Y-104752780D03*
X85520942Y-102842650D03*
D21*
X85934562Y-102915582D03*
D19*
X90937385Y-103797715D03*
D21*
X95940208Y-104679848D03*
D22*
X87626334Y-100634704D03*
X85237638Y-106752860D03*
X89912861Y-109608081D03*
X94320929Y-99235958D03*
D20*
X41753829Y-85402781D03*
D21*
X31334563Y-83565583D03*
X41340209Y-85329849D03*
D19*
X36337386Y-84447716D03*
D20*
X30920943Y-83492651D03*
D22*
X33026335Y-81284705D03*
X30637639Y-87402861D03*
X39720930Y-79885959D03*
X35312862Y-90258082D03*
D17*
X179257386Y-58537715D03*
D18*
X180580585Y-66041950D03*
D21*
X99220209Y-85869848D03*
D20*
X99633829Y-85942780D03*
D21*
X89214563Y-84105582D03*
D19*
X94217386Y-84987715D03*
D20*
X88800943Y-84032650D03*
D22*
X90906335Y-81824704D03*
X88517639Y-87942860D03*
X97600930Y-80425958D03*
X93192862Y-90798081D03*
D19*
X130903840Y-96289473D03*
D21*
X125901017Y-95407340D03*
X135906663Y-97171606D03*
D20*
X125487397Y-95334408D03*
X136320283Y-97244538D03*
D22*
X127592789Y-93126462D03*
X125204093Y-99244618D03*
X134287384Y-91727716D03*
X129879316Y-102099839D03*
D15*
X111837385Y-51227714D03*
D16*
X110514186Y-58731949D03*
D19*
X105937387Y-128197714D03*
D20*
X111353830Y-129152779D03*
D21*
X110940210Y-129079847D03*
D20*
X100520944Y-127242649D03*
D21*
X100934564Y-127315581D03*
D22*
X102626336Y-125034703D03*
X100237640Y-131152859D03*
X104912863Y-134008080D03*
X109320931Y-123635957D03*
D17*
X232307386Y-46297718D03*
D18*
X233630585Y-53801953D03*
D17*
X271817383Y-46217715D03*
D18*
X273140582Y-53721950D03*
D19*
X75067383Y-84027714D03*
D20*
X80483826Y-84982779D03*
D21*
X70064560Y-83145581D03*
X80070206Y-84909847D03*
D20*
X69650940Y-83072649D03*
D22*
X69367636Y-86982859D03*
X71756332Y-80864703D03*
X78450927Y-79465957D03*
X74042859Y-89838080D03*
D21*
X76750207Y-103699848D03*
X66744561Y-101935582D03*
D20*
X77163827Y-103772780D03*
D19*
X71747384Y-102817715D03*
D20*
X66330941Y-101862650D03*
D22*
X66047637Y-105772860D03*
X68436333Y-99654704D03*
X75130928Y-98255958D03*
X70722860Y-108628081D03*
D15*
X100238984Y-48035600D03*
D16*
X98915785Y-55539835D03*
D20*
X177131807Y-96319853D03*
D21*
X177545427Y-96246921D03*
D19*
X182548250Y-95364788D03*
D21*
X187551073Y-94482655D03*
D20*
X187964693Y-94409723D03*
D22*
X178355066Y-93524976D03*
X178202958Y-100091144D03*
X184167529Y-89920898D03*
X183572774Y-101175154D03*
D20*
X128800942Y-76542651D03*
X139633828Y-78452781D03*
D19*
X134217385Y-77497716D03*
D21*
X129214562Y-76615583D03*
X139220208Y-78379849D03*
D22*
X130906334Y-74334705D03*
X128517638Y-80452861D03*
X137600929Y-72935959D03*
X133192861Y-83308082D03*
D15*
X120787387Y-53837716D03*
D16*
X119464188Y-61341951D03*
D17*
X193337385Y-54185599D03*
D18*
X194660584Y-61689834D03*
D20*
X252621807Y-85499851D03*
D21*
X253035427Y-85426919D03*
X263041073Y-83662653D03*
D20*
X263454693Y-83589721D03*
D19*
X258038250Y-84544786D03*
D22*
X253692958Y-89271142D03*
X253845066Y-82704974D03*
X259062774Y-90355152D03*
X259657529Y-79100896D03*
D21*
X278931072Y-63942653D03*
X268925426Y-65706919D03*
D20*
X279344692Y-63869721D03*
D19*
X273928249Y-64824786D03*
D20*
X268511806Y-65779851D03*
D22*
X269582957Y-69551142D03*
X269735065Y-62984974D03*
X275547528Y-59380896D03*
X274952773Y-70635152D03*
D15*
X81607388Y-45897714D03*
D16*
X80284189Y-53401949D03*
D17*
X239265784Y-46035601D03*
D18*
X240588983Y-53539836D03*
D17*
X169655788Y-60725595D03*
D18*
X170978987Y-68229830D03*
D17*
X174247385Y-59487716D03*
D18*
X175570584Y-66991951D03*
D20*
X209664691Y-107609723D03*
D21*
X209251071Y-107682655D03*
D19*
X204248248Y-108564788D03*
D21*
X199245425Y-109446921D03*
D20*
X198831805Y-109519853D03*
D22*
X200055064Y-106724976D03*
X199902956Y-113291144D03*
X205867527Y-103120898D03*
X205272772Y-114375154D03*
D20*
X243864691Y-82239723D03*
D21*
X243451071Y-82312655D03*
X233445425Y-84076921D03*
D20*
X233031805Y-84149853D03*
D19*
X238448248Y-83194788D03*
D22*
X234102956Y-87921144D03*
X234255064Y-81354976D03*
X240067527Y-77750898D03*
X239472772Y-89005154D03*
D17*
X252827386Y-45937716D03*
D18*
X254150585Y-53441951D03*
D26*
X159217387Y-68917716D03*
D27*
X156677387Y-68917716D03*
X154137387Y-68917716D03*
M02*
