M48
; DRILL file {KiCad (6.0.6-69-g6d26e8e3e8)} date Wed Mar  1 00:35:37 2023
; FORMAT={-:-/ absolute / metric / decimal}
; #@! TF.CreationDate,2023-03-01T00:35:37-07:00
; #@! TF.GenerationSoftware,Kicad,Pcbnew,(6.0.6-69-g6d26e8e3e8)
; #@! TF.FileFunction,NonPlated,1,2,NPTH
FMAT,2
METRIC
; #@! TA.AperFunction,NonPlated,NPTH,ComponentDrill
T1C1.700
; #@! TA.AperFunction,NonPlated,NPTH,ComponentDrill
T2C1.900
; #@! TA.AperFunction,NonPlated,NPTH,ComponentDrill
T3C4.000
%
G90
G05
T1
X28.015Y-102.336
X31.335Y-83.566
X34.655Y-64.826
X38.02Y-104.1
X41.34Y-85.33
X44.66Y-66.59
X47.185Y-103.316
X50.525Y-84.546
X53.855Y-65.766
X57.19Y-105.08
X60.53Y-86.31
X63.86Y-67.53
X66.745Y-101.936
X70.065Y-83.146
X73.405Y-64.326
X76.75Y-103.7
X80.07Y-84.91
X83.41Y-66.09
X85.935Y-102.916
X89.215Y-84.106
X92.551Y-65.357
X95.94Y-104.68
X99.22Y-85.87
X100.935Y-127.316
X102.557Y-67.122
X104.271Y-108.557
X107.571Y-89.797
X110.871Y-71.007
X110.94Y-129.08
X114.277Y-110.322
X117.577Y-91.562
X119.305Y-132.926
X120.877Y-72.772
X122.591Y-114.167
X125.901Y-95.407
X129.215Y-76.616
X129.31Y-134.69
X132.597Y-115.932
X135.907Y-97.172
X139.22Y-78.38
X141.355Y-117.496
X151.36Y-119.26
X151.454Y-138.509
X161.614Y-138.509
X162.255Y-119.206
X172.261Y-117.442
X174.195Y-77.517
X177.545Y-96.247
X180.859Y-115.012
X184.172Y-133.797
X184.201Y-75.753
X187.551Y-94.483
X190.865Y-113.247
X192.595Y-71.967
X194.177Y-132.033
X195.905Y-90.737
X199.245Y-109.447
X202.585Y-128.227
X202.601Y-70.203
X205.911Y-88.973
X209.251Y-107.683
X210.955Y-66.227
X212.591Y-126.463
X214.255Y-85.007
X217.555Y-103.737
X220.961Y-64.463
X224.261Y-83.243
X227.561Y-101.973
X230.135Y-65.287
X233.445Y-84.077
X236.765Y-102.827
X240.141Y-63.523
X243.451Y-82.313
X246.771Y-101.063
X249.735Y-66.647
X253.035Y-85.427
X256.345Y-104.227
X259.741Y-64.883
X263.041Y-83.663
X266.351Y-102.463
X268.925Y-65.707
X272.256Y-84.481
X275.536Y-103.301
X278.931Y-63.943
X282.262Y-82.717
X285.542Y-101.537
T2
X27.601Y-102.263
X30.921Y-83.493
X34.241Y-64.753
X38.434Y-104.173
X41.754Y-85.403
X45.074Y-66.663
X46.771Y-103.243
X50.111Y-84.473
X53.441Y-65.693
X57.604Y-105.153
X60.944Y-86.383
X64.274Y-67.603
X66.331Y-101.863
X69.651Y-83.073
X72.991Y-64.253
X77.164Y-103.773
X80.484Y-84.983
X83.824Y-66.163
X85.521Y-102.843
X88.801Y-84.033
X92.137Y-65.284
X96.354Y-104.753
X99.634Y-85.943
X100.521Y-127.243
X102.97Y-67.195
X103.857Y-108.484
X107.157Y-89.724
X110.457Y-70.934
X111.354Y-129.153
X114.69Y-110.395
X117.99Y-91.635
X118.891Y-132.853
X121.29Y-72.845
X122.177Y-114.094
X125.487Y-95.334
X128.801Y-76.543
X129.724Y-134.763
X133.01Y-116.005
X136.32Y-97.245
X139.634Y-78.453
X140.941Y-117.423
X151.034Y-138.509
X151.774Y-119.333
X161.841Y-119.279
X162.034Y-138.509
X172.674Y-117.369
X173.782Y-77.59
X177.132Y-96.32
X180.446Y-115.084
X183.758Y-133.87
X184.615Y-75.68
X187.965Y-94.41
X191.278Y-113.174
X192.182Y-72.04
X194.591Y-131.96
X195.492Y-90.81
X198.832Y-109.52
X202.172Y-128.3
X203.015Y-70.13
X206.325Y-88.9
X209.665Y-107.61
X210.542Y-66.3
X213.005Y-126.39
X213.842Y-85.08
X217.142Y-103.81
X221.375Y-64.39
X224.675Y-83.17
X227.975Y-101.9
X229.722Y-65.36
X233.032Y-84.15
X236.352Y-102.9
X240.555Y-63.45
X243.865Y-82.24
X247.185Y-100.99
X249.322Y-66.72
X252.622Y-85.5
X255.932Y-104.3
X260.155Y-64.81
X263.455Y-83.59
X266.765Y-102.39
X268.512Y-65.78
X271.843Y-84.554
X275.123Y-103.374
X279.345Y-63.87
X282.675Y-82.644
X285.955Y-101.464
T3
X33.017Y-103.218
X36.337Y-84.448
X39.657Y-65.708
X52.187Y-104.198
X55.527Y-85.428
X58.857Y-66.648
X71.747Y-102.818
X75.067Y-84.028
X78.407Y-65.208
X90.937Y-103.798
X94.217Y-84.988
X97.554Y-66.239
X105.937Y-128.198
X109.274Y-109.439
X112.574Y-90.679
X115.874Y-71.889
X124.307Y-133.808
X127.594Y-115.049
X130.904Y-96.289
X134.217Y-77.498
X146.357Y-118.378
X156.534Y-138.509
X167.258Y-118.324
X179.198Y-76.635
X182.548Y-95.365
X185.862Y-114.129
X189.174Y-132.915
X197.598Y-71.085
X200.908Y-89.855
X204.248Y-108.565
X207.588Y-127.345
X215.958Y-65.345
X219.258Y-84.125
X222.558Y-102.855
X235.138Y-64.405
X238.448Y-83.195
X241.768Y-101.945
X254.738Y-65.765
X258.038Y-84.545
X261.348Y-103.345
X273.928Y-64.825
X277.259Y-83.599
X280.539Y-102.419
T0
M30
