M48
; DRILL file {KiCad (6.0.2)} date Sun May  1 14:02:57 2022
; FORMAT={-:-/ absolute / metric / decimal}
; #@! TF.CreationDate,2022-05-01T14:02:57-06:00
; #@! TF.GenerationSoftware,Kicad,Pcbnew,(6.0.2)
; #@! TF.FileFunction,NonPlated,1,2,NPTH
FMAT,2
METRIC
; #@! TA.AperFunction,NonPlated,NPTH,ComponentDrill
T1C1.700
; #@! TA.AperFunction,NonPlated,NPTH,ComponentDrill
T2C4.000
%
G90
G05
T1
X20.527Y-107.478
X23.847Y-88.708
X27.167Y-69.968
X30.533Y-109.242
X33.853Y-90.472
X37.173Y-71.732
X39.697Y-108.458
X43.037Y-89.688
X46.367Y-70.908
X49.703Y-110.222
X53.043Y-91.452
X56.373Y-72.672
X59.257Y-107.078
X62.577Y-88.288
X65.917Y-69.468
X69.263Y-108.842
X72.583Y-90.052
X75.923Y-71.232
X78.447Y-108.058
X81.727Y-89.248
X85.064Y-70.5
X88.453Y-109.822
X91.733Y-91.012
X93.447Y-132.458
X95.069Y-72.264
X96.784Y-113.7
X100.084Y-94.94
X103.384Y-76.15
X103.453Y-134.222
X106.789Y-115.464
X110.089Y-96.704
X111.817Y-138.068
X113.389Y-77.914
X115.104Y-119.31
X118.414Y-100.55
X121.727Y-81.758
X121.823Y-139.832
X125.109Y-121.074
X128.419Y-102.314
X131.733Y-83.522
X133.867Y-122.638
X143.873Y-124.402
X144.81Y-144.17
X154.97Y-144.17
X155.897Y-124.382
X165.903Y-122.618
X167.987Y-83.602
X171.337Y-102.332
X174.667Y-121.102
X177.993Y-81.838
X178.007Y-139.842
X181.343Y-100.568
X184.673Y-119.338
X186.387Y-78.052
X188.013Y-138.078
X189.697Y-96.822
X193.037Y-115.532
X196.377Y-134.312
X196.393Y-76.288
X199.703Y-95.058
X203.043Y-113.768
X204.747Y-72.312
X206.383Y-132.548
X208.047Y-91.092
X211.347Y-109.822
X214.753Y-70.548
X218.053Y-89.328
X221.353Y-108.058
X223.927Y-71.372
X227.237Y-90.162
X230.557Y-108.912
X233.933Y-69.608
X237.243Y-88.398
X240.563Y-107.148
X243.527Y-72.732
X246.827Y-91.512
X250.137Y-110.312
X253.533Y-70.968
X256.833Y-89.748
X260.143Y-108.548
X262.717Y-71.792
X266.048Y-90.566
X269.328Y-109.386
X272.723Y-70.028
X276.054Y-88.802
X279.334Y-107.622
T2
X25.53Y-108.36
X28.85Y-89.59
X32.17Y-70.85
X44.7Y-109.34
X48.04Y-90.57
X51.37Y-71.79
X64.26Y-107.96
X67.58Y-89.17
X70.92Y-70.35
X83.45Y-108.94
X86.73Y-90.13
X90.066Y-71.382
X98.45Y-133.34
X101.786Y-114.582
X105.086Y-95.822
X108.386Y-77.032
X116.82Y-138.95
X120.106Y-120.192
X123.416Y-101.432
X126.73Y-82.64
X138.87Y-123.52
X149.89Y-144.17
X160.9Y-123.5
X172.99Y-82.72
X176.34Y-101.45
X179.67Y-120.22
X183.01Y-138.96
X191.39Y-77.17
X194.7Y-95.94
X198.04Y-114.65
X201.38Y-133.43
X209.75Y-71.43
X213.05Y-90.21
X216.35Y-108.94
X228.93Y-70.49
X232.24Y-89.28
X235.56Y-108.03
X248.53Y-71.85
X251.83Y-90.63
X255.14Y-109.43
X267.72Y-70.91
X271.051Y-89.684
X274.331Y-108.504
T0
M30
