%TF.GenerationSoftware,KiCad,Pcbnew,(6.0.2)*%
%TF.CreationDate,2022-05-01T14:02:26-06:00*%
%TF.ProjectId,AirShip-rounded,41697253-6869-4702-9d72-6f756e646564,rev?*%
%TF.SameCoordinates,Original*%
%TF.FileFunction,Legend,Bot*%
%TF.FilePolarity,Positive*%
%FSLAX46Y46*%
G04 Gerber Fmt 4.6, Leading zero omitted, Abs format (unit mm)*
G04 Created by KiCad (PCBNEW (6.0.2)) date 2022-05-01 14:02:26*
%MOMM*%
%LPD*%
G01*
G04 APERTURE LIST*
G04 Aperture macros list*
%AMHorizOval*
0 Thick line with rounded ends*
0 $1 width*
0 $2 $3 position (X,Y) of the first rounded end (center of the circle)*
0 $4 $5 position (X,Y) of the second rounded end (center of the circle)*
0 Add line between two ends*
20,1,$1,$2,$3,$4,$5,0*
0 Add two circle primitives to create the rounded ends*
1,1,$1,$2,$3*
1,1,$1,$4,$5*%
%AMRotRect*
0 Rectangle, with rotation*
0 The origin of the aperture is its center*
0 $1 length*
0 $2 width*
0 $3 Rotation angle, in degrees counterclockwise*
0 Add horizontal line*
21,1,$1,$2,0,0,$3*%
G04 Aperture macros list end*
%ADD10C,0.150000*%
%ADD11C,0.300000*%
%ADD12C,0.381000*%
%ADD13C,0.120000*%
%ADD14R,1.752600X1.752600*%
%ADD15C,1.752600*%
%ADD16C,1.700000*%
%ADD17C,4.000000*%
%ADD18C,2.200000*%
%ADD19RotRect,1.600000X1.600000X260.000000*%
%ADD20HorizOval,1.600000X0.000000X0.000000X0.000000X0.000000X0*%
%ADD21HorizOval,1.600000X0.000000X0.000000X0.000000X0.000000X0*%
%ADD22RotRect,1.600000X1.600000X280.000000*%
%ADD23R,1.600000X1.600000*%
%ADD24O,1.600000X1.600000*%
%ADD25R,1.700000X1.700000*%
%ADD26O,1.700000X1.700000*%
G04 APERTURE END LIST*
D10*
X151219523Y-158462380D02*
X150886190Y-159462380D01*
X150552857Y-158462380D01*
X149695714Y-159462380D02*
X150267142Y-159462380D01*
X149981428Y-159462380D02*
X149981428Y-158462380D01*
X150076666Y-158605238D01*
X150171904Y-158700476D01*
X150267142Y-158748095D01*
D11*
X176947916Y-152514761D02*
X176697916Y-150514761D01*
X175983630Y-150514761D01*
X175566964Y-150610000D01*
X175305059Y-150800476D01*
X175186011Y-150990952D01*
X175090773Y-151371904D01*
X175126488Y-151657619D01*
X175316964Y-152038571D01*
X175483630Y-152229047D01*
X175793154Y-152419523D01*
X176233630Y-152514761D01*
X176947916Y-152514761D01*
X172793154Y-152419523D02*
X173090773Y-152514761D01*
X173662202Y-152514761D01*
X173936011Y-152419523D01*
X174055059Y-152229047D01*
X173959821Y-151467142D01*
X173793154Y-151276666D01*
X173495535Y-151181428D01*
X172924107Y-151181428D01*
X172650297Y-151276666D01*
X172531250Y-151467142D01*
X172555059Y-151657619D01*
X174007440Y-151848095D01*
X171507440Y-152419523D02*
X171233630Y-152514761D01*
X170662202Y-152514761D01*
X170364583Y-152419523D01*
X170197916Y-152229047D01*
X170186011Y-152133809D01*
X170305059Y-151943333D01*
X170578869Y-151848095D01*
X171007440Y-151848095D01*
X171281250Y-151752857D01*
X171400297Y-151562380D01*
X171388392Y-151467142D01*
X171221726Y-151276666D01*
X170924107Y-151181428D01*
X170495535Y-151181428D01*
X170221726Y-151276666D01*
X168947916Y-152514761D02*
X168781250Y-151181428D01*
X168697916Y-150514761D02*
X168852678Y-150610000D01*
X168721726Y-150705238D01*
X168566964Y-150610000D01*
X168697916Y-150514761D01*
X168721726Y-150705238D01*
X166066964Y-151181428D02*
X166269345Y-152800476D01*
X166436011Y-152990952D01*
X166590773Y-153086190D01*
X166888392Y-153181428D01*
X167316964Y-153181428D01*
X167590773Y-153086190D01*
X166221726Y-152419523D02*
X166519345Y-152514761D01*
X167090773Y-152514761D01*
X167364583Y-152419523D01*
X167495535Y-152324285D01*
X167614583Y-152133809D01*
X167543154Y-151562380D01*
X167376488Y-151371904D01*
X167221726Y-151276666D01*
X166924107Y-151181428D01*
X166352678Y-151181428D01*
X166078869Y-151276666D01*
X164638392Y-151181428D02*
X164805059Y-152514761D01*
X164662202Y-151371904D02*
X164507440Y-151276666D01*
X164209821Y-151181428D01*
X163781250Y-151181428D01*
X163507440Y-151276666D01*
X163388392Y-151467142D01*
X163519345Y-152514761D01*
X160936011Y-152419523D02*
X161233630Y-152514761D01*
X161805059Y-152514761D01*
X162078869Y-152419523D01*
X162197916Y-152229047D01*
X162102678Y-151467142D01*
X161936011Y-151276666D01*
X161638392Y-151181428D01*
X161066964Y-151181428D01*
X160793154Y-151276666D01*
X160674107Y-151467142D01*
X160697916Y-151657619D01*
X162150297Y-151848095D01*
X158233630Y-152514761D02*
X157983630Y-150514761D01*
X158221726Y-152419523D02*
X158519345Y-152514761D01*
X159090773Y-152514761D01*
X159364583Y-152419523D01*
X159495535Y-152324285D01*
X159614583Y-152133809D01*
X159543154Y-151562380D01*
X159376488Y-151371904D01*
X159221726Y-151276666D01*
X158924107Y-151181428D01*
X158352678Y-151181428D01*
X158078869Y-151276666D01*
X153388392Y-151467142D02*
X152971726Y-151562380D01*
X152840773Y-151657619D01*
X152721726Y-151848095D01*
X152757440Y-152133809D01*
X152924107Y-152324285D01*
X153078869Y-152419523D01*
X153376488Y-152514761D01*
X154519345Y-152514761D01*
X154269345Y-150514761D01*
X153269345Y-150514761D01*
X152995535Y-150610000D01*
X152864583Y-150705238D01*
X152745535Y-150895714D01*
X152769345Y-151086190D01*
X152936011Y-151276666D01*
X153090773Y-151371904D01*
X153388392Y-151467142D01*
X154388392Y-151467142D01*
X151638392Y-151181428D02*
X151090773Y-152514761D01*
X150209821Y-151181428D02*
X151090773Y-152514761D01*
X151436011Y-152990952D01*
X151590773Y-153086190D01*
X151888392Y-153181428D01*
X145233630Y-152514761D02*
X146114583Y-151562380D01*
X146947916Y-152514761D02*
X146697916Y-150514761D01*
X145555059Y-150514761D01*
X145281250Y-150610000D01*
X145150297Y-150705238D01*
X145031250Y-150895714D01*
X145066964Y-151181428D01*
X145233630Y-151371904D01*
X145388392Y-151467142D01*
X145686011Y-151562380D01*
X146828869Y-151562380D01*
X142793154Y-152419523D02*
X143090773Y-152514761D01*
X143662202Y-152514761D01*
X143936011Y-152419523D01*
X144055059Y-152229047D01*
X143959821Y-151467142D01*
X143793154Y-151276666D01*
X143495535Y-151181428D01*
X142924107Y-151181428D01*
X142650297Y-151276666D01*
X142531250Y-151467142D01*
X142555059Y-151657619D01*
X144007440Y-151848095D01*
X140221726Y-152419523D02*
X140519345Y-152514761D01*
X141090773Y-152514761D01*
X141364583Y-152419523D01*
X141483630Y-152229047D01*
X141388392Y-151467142D01*
X141221726Y-151276666D01*
X140924107Y-151181428D01*
X140352678Y-151181428D01*
X140078869Y-151276666D01*
X139959821Y-151467142D01*
X139983630Y-151657619D01*
X141436011Y-151848095D01*
X137519345Y-152514761D02*
X137269345Y-150514761D01*
X137507440Y-152419523D02*
X137805059Y-152514761D01*
X138376488Y-152514761D01*
X138650297Y-152419523D01*
X138781250Y-152324285D01*
X138900297Y-152133809D01*
X138828869Y-151562380D01*
X138662202Y-151371904D01*
X138507440Y-151276666D01*
X138209821Y-151181428D01*
X137638392Y-151181428D01*
X137364583Y-151276666D01*
X135697916Y-150514761D02*
X136031250Y-150895714D01*
X134793154Y-152419523D02*
X134519345Y-152514761D01*
X133947916Y-152514761D01*
X133650297Y-152419523D01*
X133483630Y-152229047D01*
X133471726Y-152133809D01*
X133590773Y-151943333D01*
X133864583Y-151848095D01*
X134293154Y-151848095D01*
X134566964Y-151752857D01*
X134686011Y-151562380D01*
X134674107Y-151467142D01*
X134507440Y-151276666D01*
X134209821Y-151181428D01*
X133781250Y-151181428D01*
X133507440Y-151276666D01*
X129947916Y-152514761D02*
X129697916Y-150514761D01*
X128233630Y-152514761D02*
X129376488Y-151371904D01*
X127983630Y-150514761D02*
X129840773Y-151657619D01*
X125793154Y-152419523D02*
X126090773Y-152514761D01*
X126662202Y-152514761D01*
X126936011Y-152419523D01*
X127055059Y-152229047D01*
X126959821Y-151467142D01*
X126793154Y-151276666D01*
X126495535Y-151181428D01*
X125924107Y-151181428D01*
X125650297Y-151276666D01*
X125531250Y-151467142D01*
X125555059Y-151657619D01*
X127007440Y-151848095D01*
X123221726Y-152419523D02*
X123519345Y-152514761D01*
X124090773Y-152514761D01*
X124364583Y-152419523D01*
X124483630Y-152229047D01*
X124388392Y-151467142D01*
X124221726Y-151276666D01*
X123924107Y-151181428D01*
X123352678Y-151181428D01*
X123078869Y-151276666D01*
X122959821Y-151467142D01*
X122983630Y-151657619D01*
X124436011Y-151848095D01*
X121805059Y-152514761D02*
X121555059Y-150514761D01*
X121650297Y-151276666D02*
X121352678Y-151181428D01*
X120781250Y-151181428D01*
X120507440Y-151276666D01*
X120376488Y-151371904D01*
X120257440Y-151562380D01*
X120328869Y-152133809D01*
X120495535Y-152324285D01*
X120650297Y-152419523D01*
X120947916Y-152514761D01*
X121519345Y-152514761D01*
X121793154Y-152419523D01*
X119221726Y-152419523D02*
X118947916Y-152514761D01*
X118376488Y-152514761D01*
X118078869Y-152419523D01*
X117912202Y-152229047D01*
X117900297Y-152133809D01*
X118019345Y-151943333D01*
X118293154Y-151848095D01*
X118721726Y-151848095D01*
X118995535Y-151752857D01*
X119114583Y-151562380D01*
X119102678Y-151467142D01*
X118936011Y-151276666D01*
X118638392Y-151181428D01*
X118209821Y-151181428D01*
X117936011Y-151276666D01*
D10*
%TO.C,U1*%
X144959476Y-64501904D02*
X144959476Y-63701904D01*
X144769000Y-63701904D01*
X144654714Y-63740000D01*
X144578523Y-63816190D01*
X144540428Y-63892380D01*
X144502333Y-64044761D01*
X144502333Y-64159047D01*
X144540428Y-64311428D01*
X144578523Y-64387619D01*
X144654714Y-64463809D01*
X144769000Y-64501904D01*
X144959476Y-64501904D01*
X144197571Y-63778095D02*
X144159476Y-63740000D01*
X144083285Y-63701904D01*
X143892809Y-63701904D01*
X143816619Y-63740000D01*
X143778523Y-63778095D01*
X143740428Y-63854285D01*
X143740428Y-63930476D01*
X143778523Y-64044761D01*
X144235666Y-64501904D01*
X143740428Y-64501904D01*
X155557666Y-79322857D02*
X155824333Y-79322857D01*
X155824333Y-79741904D02*
X155824333Y-78941904D01*
X155443380Y-78941904D01*
X155214809Y-78941904D02*
X154681476Y-78941904D01*
X155024333Y-79741904D01*
X144692809Y-89482857D02*
X144578523Y-89520952D01*
X144540428Y-89559047D01*
X144502333Y-89635238D01*
X144502333Y-89749523D01*
X144540428Y-89825714D01*
X144578523Y-89863809D01*
X144654714Y-89901904D01*
X144959476Y-89901904D01*
X144959476Y-89101904D01*
X144692809Y-89101904D01*
X144616619Y-89140000D01*
X144578523Y-89178095D01*
X144540428Y-89254285D01*
X144540428Y-89330476D01*
X144578523Y-89406666D01*
X144616619Y-89444761D01*
X144692809Y-89482857D01*
X144959476Y-89482857D01*
X143778523Y-89101904D02*
X144159476Y-89101904D01*
X144197571Y-89482857D01*
X144159476Y-89444761D01*
X144083285Y-89406666D01*
X143892809Y-89406666D01*
X143816619Y-89444761D01*
X143778523Y-89482857D01*
X143740428Y-89559047D01*
X143740428Y-89749523D01*
X143778523Y-89825714D01*
X143816619Y-89863809D01*
X143892809Y-89901904D01*
X144083285Y-89901904D01*
X144159476Y-89863809D01*
X144197571Y-89825714D01*
X144959476Y-74661904D02*
X144959476Y-73861904D01*
X144769000Y-73861904D01*
X144654714Y-73900000D01*
X144578523Y-73976190D01*
X144540428Y-74052380D01*
X144502333Y-74204761D01*
X144502333Y-74319047D01*
X144540428Y-74471428D01*
X144578523Y-74547619D01*
X144654714Y-74623809D01*
X144769000Y-74661904D01*
X144959476Y-74661904D01*
X144007095Y-73861904D02*
X143930904Y-73861904D01*
X143854714Y-73900000D01*
X143816619Y-73938095D01*
X143778523Y-74014285D01*
X143740428Y-74166666D01*
X143740428Y-74357142D01*
X143778523Y-74509523D01*
X143816619Y-74585714D01*
X143854714Y-74623809D01*
X143930904Y-74661904D01*
X144007095Y-74661904D01*
X144083285Y-74623809D01*
X144121380Y-74585714D01*
X144159476Y-74509523D01*
X144197571Y-74357142D01*
X144197571Y-74166666D01*
X144159476Y-74014285D01*
X144121380Y-73938095D01*
X144083285Y-73900000D01*
X144007095Y-73861904D01*
X148448604Y-61161904D02*
X147991461Y-61161904D01*
X148220032Y-61961904D02*
X148220032Y-61161904D01*
X147800985Y-61161904D02*
X147267651Y-61961904D01*
X147267651Y-61161904D02*
X147800985Y-61961904D01*
X146810508Y-61161904D02*
X146734318Y-61161904D01*
X146658128Y-61200000D01*
X146620032Y-61238095D01*
X146581937Y-61314285D01*
X146543842Y-61466666D01*
X146543842Y-61657142D01*
X146581937Y-61809523D01*
X146620032Y-61885714D01*
X146658128Y-61923809D01*
X146734318Y-61961904D01*
X146810508Y-61961904D01*
X146886699Y-61923809D01*
X146924794Y-61885714D01*
X146962889Y-61809523D01*
X147000985Y-61657142D01*
X147000985Y-61466666D01*
X146962889Y-61314285D01*
X146924794Y-61238095D01*
X146886699Y-61200000D01*
X146810508Y-61161904D01*
X145629556Y-61123809D02*
X146315270Y-62152380D01*
X145362889Y-61961904D02*
X145362889Y-61161904D01*
X145172413Y-61161904D01*
X145058128Y-61200000D01*
X144981937Y-61276190D01*
X144943842Y-61352380D01*
X144905747Y-61504761D01*
X144905747Y-61619047D01*
X144943842Y-61771428D01*
X144981937Y-61847619D01*
X145058128Y-61923809D01*
X145172413Y-61961904D01*
X145362889Y-61961904D01*
X144639080Y-61161904D02*
X144143842Y-61161904D01*
X144410508Y-61466666D01*
X144296223Y-61466666D01*
X144220032Y-61504761D01*
X144181937Y-61542857D01*
X144143842Y-61619047D01*
X144143842Y-61809523D01*
X144181937Y-61885714D01*
X144220032Y-61923809D01*
X144296223Y-61961904D01*
X144524794Y-61961904D01*
X144600985Y-61923809D01*
X144639080Y-61885714D01*
X155614809Y-61542857D02*
X155500523Y-61580952D01*
X155462428Y-61619047D01*
X155424333Y-61695238D01*
X155424333Y-61809523D01*
X155462428Y-61885714D01*
X155500523Y-61923809D01*
X155576714Y-61961904D01*
X155881476Y-61961904D01*
X155881476Y-61161904D01*
X155614809Y-61161904D01*
X155538619Y-61200000D01*
X155500523Y-61238095D01*
X155462428Y-61314285D01*
X155462428Y-61390476D01*
X155500523Y-61466666D01*
X155538619Y-61504761D01*
X155614809Y-61542857D01*
X155881476Y-61542857D01*
X154929095Y-61161904D02*
X154852904Y-61161904D01*
X154776714Y-61200000D01*
X154738619Y-61238095D01*
X154700523Y-61314285D01*
X154662428Y-61466666D01*
X154662428Y-61657142D01*
X154700523Y-61809523D01*
X154738619Y-61885714D01*
X154776714Y-61923809D01*
X154852904Y-61961904D01*
X154929095Y-61961904D01*
X155005285Y-61923809D01*
X155043380Y-61885714D01*
X155081476Y-61809523D01*
X155119571Y-61657142D01*
X155119571Y-61466666D01*
X155081476Y-61314285D01*
X155043380Y-61238095D01*
X155005285Y-61200000D01*
X154929095Y-61161904D01*
X155403333Y-66983809D02*
X155289047Y-67021904D01*
X155098571Y-67021904D01*
X155022380Y-66983809D01*
X154984285Y-66945714D01*
X154946190Y-66869523D01*
X154946190Y-66793333D01*
X154984285Y-66717142D01*
X155022380Y-66679047D01*
X155098571Y-66640952D01*
X155250952Y-66602857D01*
X155327142Y-66564761D01*
X155365238Y-66526666D01*
X155403333Y-66450476D01*
X155403333Y-66374285D01*
X155365238Y-66298095D01*
X155327142Y-66260000D01*
X155250952Y-66221904D01*
X155060476Y-66221904D01*
X154946190Y-66260000D01*
X154717619Y-66221904D02*
X154260476Y-66221904D01*
X154489047Y-67021904D02*
X154489047Y-66221904D01*
X155614809Y-84402857D02*
X155500523Y-84440952D01*
X155462428Y-84479047D01*
X155424333Y-84555238D01*
X155424333Y-84669523D01*
X155462428Y-84745714D01*
X155500523Y-84783809D01*
X155576714Y-84821904D01*
X155881476Y-84821904D01*
X155881476Y-84021904D01*
X155614809Y-84021904D01*
X155538619Y-84060000D01*
X155500523Y-84098095D01*
X155462428Y-84174285D01*
X155462428Y-84250476D01*
X155500523Y-84326666D01*
X155538619Y-84364761D01*
X155614809Y-84402857D01*
X155881476Y-84402857D01*
X155157666Y-84021904D02*
X154662428Y-84021904D01*
X154929095Y-84326666D01*
X154814809Y-84326666D01*
X154738619Y-84364761D01*
X154700523Y-84402857D01*
X154662428Y-84479047D01*
X154662428Y-84669523D01*
X154700523Y-84745714D01*
X154738619Y-84783809D01*
X154814809Y-84821904D01*
X155043380Y-84821904D01*
X155119571Y-84783809D01*
X155157666Y-84745714D01*
X155614807Y-89482857D02*
X155500521Y-89520952D01*
X155462426Y-89559047D01*
X155424331Y-89635238D01*
X155424331Y-89749523D01*
X155462426Y-89825714D01*
X155500521Y-89863809D01*
X155576712Y-89901904D01*
X155881474Y-89901904D01*
X155881474Y-89101904D01*
X155614807Y-89101904D01*
X155538617Y-89140000D01*
X155500521Y-89178095D01*
X155462426Y-89254285D01*
X155462426Y-89330476D01*
X155500521Y-89406666D01*
X155538617Y-89444761D01*
X155614807Y-89482857D01*
X155881474Y-89482857D01*
X154738617Y-89101904D02*
X154890998Y-89101904D01*
X154967188Y-89140000D01*
X155005283Y-89178095D01*
X155081474Y-89292380D01*
X155119569Y-89444761D01*
X155119569Y-89749523D01*
X155081474Y-89825714D01*
X155043378Y-89863809D01*
X154967188Y-89901904D01*
X154814807Y-89901904D01*
X154738617Y-89863809D01*
X154700521Y-89825714D01*
X154662426Y-89749523D01*
X154662426Y-89559047D01*
X154700521Y-89482857D01*
X154738617Y-89444761D01*
X154814807Y-89406666D01*
X154967188Y-89406666D01*
X155043378Y-89444761D01*
X155081474Y-89482857D01*
X155119569Y-89559047D01*
X144959476Y-82281904D02*
X144959476Y-81481904D01*
X144769000Y-81481904D01*
X144654714Y-81520000D01*
X144578523Y-81596190D01*
X144540428Y-81672380D01*
X144502333Y-81824761D01*
X144502333Y-81939047D01*
X144540428Y-82091428D01*
X144578523Y-82167619D01*
X144654714Y-82243809D01*
X144769000Y-82281904D01*
X144959476Y-82281904D01*
X144235666Y-81481904D02*
X143702333Y-81481904D01*
X144045190Y-82281904D01*
X144692809Y-86942857D02*
X144578523Y-86980952D01*
X144540428Y-87019047D01*
X144502333Y-87095238D01*
X144502333Y-87209523D01*
X144540428Y-87285714D01*
X144578523Y-87323809D01*
X144654714Y-87361904D01*
X144959476Y-87361904D01*
X144959476Y-86561904D01*
X144692809Y-86561904D01*
X144616619Y-86600000D01*
X144578523Y-86638095D01*
X144540428Y-86714285D01*
X144540428Y-86790476D01*
X144578523Y-86866666D01*
X144616619Y-86904761D01*
X144692809Y-86942857D01*
X144959476Y-86942857D01*
X143816619Y-86828571D02*
X143816619Y-87361904D01*
X144007095Y-86523809D02*
X144197571Y-87095238D01*
X143702333Y-87095238D01*
X144959476Y-77201904D02*
X144959476Y-76401904D01*
X144769000Y-76401904D01*
X144654714Y-76440000D01*
X144578523Y-76516190D01*
X144540428Y-76592380D01*
X144502333Y-76744761D01*
X144502333Y-76859047D01*
X144540428Y-77011428D01*
X144578523Y-77087619D01*
X144654714Y-77163809D01*
X144769000Y-77201904D01*
X144959476Y-77201904D01*
X143816619Y-76668571D02*
X143816619Y-77201904D01*
X144007095Y-76363809D02*
X144197571Y-76935238D01*
X143702333Y-76935238D01*
X144978523Y-68820000D02*
X145054714Y-68781904D01*
X145169000Y-68781904D01*
X145283285Y-68820000D01*
X145359476Y-68896190D01*
X145397571Y-68972380D01*
X145435666Y-69124761D01*
X145435666Y-69239047D01*
X145397571Y-69391428D01*
X145359476Y-69467619D01*
X145283285Y-69543809D01*
X145169000Y-69581904D01*
X145092809Y-69581904D01*
X144978523Y-69543809D01*
X144940428Y-69505714D01*
X144940428Y-69239047D01*
X145092809Y-69239047D01*
X144597571Y-69581904D02*
X144597571Y-68781904D01*
X144140428Y-69581904D01*
X144140428Y-68781904D01*
X143759476Y-69581904D02*
X143759476Y-68781904D01*
X143569000Y-68781904D01*
X143454714Y-68820000D01*
X143378523Y-68896190D01*
X143340428Y-68972380D01*
X143302333Y-69124761D01*
X143302333Y-69239047D01*
X143340428Y-69391428D01*
X143378523Y-69467619D01*
X143454714Y-69543809D01*
X143569000Y-69581904D01*
X143759476Y-69581904D01*
X144502333Y-79665714D02*
X144540428Y-79703809D01*
X144654714Y-79741904D01*
X144730904Y-79741904D01*
X144845190Y-79703809D01*
X144921380Y-79627619D01*
X144959476Y-79551428D01*
X144997571Y-79399047D01*
X144997571Y-79284761D01*
X144959476Y-79132380D01*
X144921380Y-79056190D01*
X144845190Y-78980000D01*
X144730904Y-78941904D01*
X144654714Y-78941904D01*
X144540428Y-78980000D01*
X144502333Y-79018095D01*
X143816619Y-78941904D02*
X143969000Y-78941904D01*
X144045190Y-78980000D01*
X144083285Y-79018095D01*
X144159476Y-79132380D01*
X144197571Y-79284761D01*
X144197571Y-79589523D01*
X144159476Y-79665714D01*
X144121380Y-79703809D01*
X144045190Y-79741904D01*
X143892809Y-79741904D01*
X143816619Y-79703809D01*
X143778523Y-79665714D01*
X143740428Y-79589523D01*
X143740428Y-79399047D01*
X143778523Y-79322857D01*
X143816619Y-79284761D01*
X143892809Y-79246666D01*
X144045190Y-79246666D01*
X144121380Y-79284761D01*
X144159476Y-79322857D01*
X144197571Y-79399047D01*
X155900523Y-63740000D02*
X155976714Y-63701904D01*
X156091000Y-63701904D01*
X156205285Y-63740000D01*
X156281476Y-63816190D01*
X156319571Y-63892380D01*
X156357666Y-64044761D01*
X156357666Y-64159047D01*
X156319571Y-64311428D01*
X156281476Y-64387619D01*
X156205285Y-64463809D01*
X156091000Y-64501904D01*
X156014809Y-64501904D01*
X155900523Y-64463809D01*
X155862428Y-64425714D01*
X155862428Y-64159047D01*
X156014809Y-64159047D01*
X155519571Y-64501904D02*
X155519571Y-63701904D01*
X155062428Y-64501904D01*
X155062428Y-63701904D01*
X154681476Y-64501904D02*
X154681476Y-63701904D01*
X154491000Y-63701904D01*
X154376714Y-63740000D01*
X154300523Y-63816190D01*
X154262428Y-63892380D01*
X154224333Y-64044761D01*
X154224333Y-64159047D01*
X154262428Y-64311428D01*
X154300523Y-64387619D01*
X154376714Y-64463809D01*
X154491000Y-64501904D01*
X154681476Y-64501904D01*
X144978523Y-66280000D02*
X145054714Y-66241904D01*
X145169000Y-66241904D01*
X145283285Y-66280000D01*
X145359476Y-66356190D01*
X145397571Y-66432380D01*
X145435666Y-66584761D01*
X145435666Y-66699047D01*
X145397571Y-66851428D01*
X145359476Y-66927619D01*
X145283285Y-67003809D01*
X145169000Y-67041904D01*
X145092809Y-67041904D01*
X144978523Y-67003809D01*
X144940428Y-66965714D01*
X144940428Y-66699047D01*
X145092809Y-66699047D01*
X144597571Y-67041904D02*
X144597571Y-66241904D01*
X144140428Y-67041904D01*
X144140428Y-66241904D01*
X143759476Y-67041904D02*
X143759476Y-66241904D01*
X143569000Y-66241904D01*
X143454714Y-66280000D01*
X143378523Y-66356190D01*
X143340428Y-66432380D01*
X143302333Y-66584761D01*
X143302333Y-66699047D01*
X143340428Y-66851428D01*
X143378523Y-66927619D01*
X143454714Y-67003809D01*
X143569000Y-67041904D01*
X143759476Y-67041904D01*
X155557666Y-76782857D02*
X155824333Y-76782857D01*
X155824333Y-77201904D02*
X155824333Y-76401904D01*
X155443380Y-76401904D01*
X154795761Y-76401904D02*
X154948142Y-76401904D01*
X155024333Y-76440000D01*
X155062428Y-76478095D01*
X155138619Y-76592380D01*
X155176714Y-76744761D01*
X155176714Y-77049523D01*
X155138619Y-77125714D01*
X155100523Y-77163809D01*
X155024333Y-77201904D01*
X154871952Y-77201904D01*
X154795761Y-77163809D01*
X154757666Y-77125714D01*
X154719571Y-77049523D01*
X154719571Y-76859047D01*
X154757666Y-76782857D01*
X154795761Y-76744761D01*
X154871952Y-76706666D01*
X155024333Y-76706666D01*
X155100523Y-76744761D01*
X155138619Y-76782857D01*
X155176714Y-76859047D01*
X156357666Y-68781904D02*
X156091000Y-69581904D01*
X155824333Y-68781904D01*
X155100523Y-69505714D02*
X155138619Y-69543809D01*
X155252904Y-69581904D01*
X155329095Y-69581904D01*
X155443380Y-69543809D01*
X155519571Y-69467619D01*
X155557666Y-69391428D01*
X155595761Y-69239047D01*
X155595761Y-69124761D01*
X155557666Y-68972380D01*
X155519571Y-68896190D01*
X155443380Y-68820000D01*
X155329095Y-68781904D01*
X155252904Y-68781904D01*
X155138619Y-68820000D01*
X155100523Y-68858095D01*
X154300523Y-69505714D02*
X154338619Y-69543809D01*
X154452904Y-69581904D01*
X154529095Y-69581904D01*
X154643380Y-69543809D01*
X154719571Y-69467619D01*
X154757666Y-69391428D01*
X154795761Y-69239047D01*
X154795761Y-69124761D01*
X154757666Y-68972380D01*
X154719571Y-68896190D01*
X154643380Y-68820000D01*
X154529095Y-68781904D01*
X154452904Y-68781904D01*
X154338619Y-68820000D01*
X154300523Y-68858095D01*
X155614809Y-81862857D02*
X155500523Y-81900952D01*
X155462428Y-81939047D01*
X155424333Y-82015238D01*
X155424333Y-82129523D01*
X155462428Y-82205714D01*
X155500523Y-82243809D01*
X155576714Y-82281904D01*
X155881476Y-82281904D01*
X155881476Y-81481904D01*
X155614809Y-81481904D01*
X155538619Y-81520000D01*
X155500523Y-81558095D01*
X155462428Y-81634285D01*
X155462428Y-81710476D01*
X155500523Y-81786666D01*
X155538619Y-81824761D01*
X155614809Y-81862857D01*
X155881476Y-81862857D01*
X154662428Y-82281904D02*
X155119571Y-82281904D01*
X154891000Y-82281904D02*
X154891000Y-81481904D01*
X154967190Y-81596190D01*
X155043380Y-81672380D01*
X155119571Y-81710476D01*
X155557666Y-71702857D02*
X155824333Y-71702857D01*
X155824333Y-72121904D02*
X155824333Y-71321904D01*
X155443380Y-71321904D01*
X154795761Y-71588571D02*
X154795761Y-72121904D01*
X154986238Y-71283809D02*
X155176714Y-71855238D01*
X154681476Y-71855238D01*
X155614809Y-86942857D02*
X155500523Y-86980952D01*
X155462428Y-87019047D01*
X155424333Y-87095238D01*
X155424333Y-87209523D01*
X155462428Y-87285714D01*
X155500523Y-87323809D01*
X155576714Y-87361904D01*
X155881476Y-87361904D01*
X155881476Y-86561904D01*
X155614809Y-86561904D01*
X155538619Y-86600000D01*
X155500523Y-86638095D01*
X155462428Y-86714285D01*
X155462428Y-86790476D01*
X155500523Y-86866666D01*
X155538619Y-86904761D01*
X155614809Y-86942857D01*
X155881476Y-86942857D01*
X155119571Y-86638095D02*
X155081476Y-86600000D01*
X155005285Y-86561904D01*
X154814809Y-86561904D01*
X154738619Y-86600000D01*
X154700523Y-86638095D01*
X154662428Y-86714285D01*
X154662428Y-86790476D01*
X154700523Y-86904761D01*
X155157666Y-87361904D01*
X154662428Y-87361904D01*
X155557666Y-74242857D02*
X155824333Y-74242857D01*
X155824333Y-74661904D02*
X155824333Y-73861904D01*
X155443380Y-73861904D01*
X154757666Y-73861904D02*
X155138619Y-73861904D01*
X155176714Y-74242857D01*
X155138619Y-74204761D01*
X155062428Y-74166666D01*
X154871952Y-74166666D01*
X154795761Y-74204761D01*
X154757666Y-74242857D01*
X154719571Y-74319047D01*
X154719571Y-74509523D01*
X154757666Y-74585714D01*
X154795761Y-74623809D01*
X154871952Y-74661904D01*
X155062428Y-74661904D01*
X155138619Y-74623809D01*
X155176714Y-74585714D01*
X144959476Y-72121904D02*
X144959476Y-71321904D01*
X144769000Y-71321904D01*
X144654714Y-71360000D01*
X144578523Y-71436190D01*
X144540428Y-71512380D01*
X144502333Y-71664761D01*
X144502333Y-71779047D01*
X144540428Y-71931428D01*
X144578523Y-72007619D01*
X144654714Y-72083809D01*
X144769000Y-72121904D01*
X144959476Y-72121904D01*
X143740428Y-72121904D02*
X144197571Y-72121904D01*
X143969000Y-72121904D02*
X143969000Y-71321904D01*
X144045190Y-71436190D01*
X144121380Y-71512380D01*
X144197571Y-71550476D01*
X144921380Y-84402857D02*
X144654714Y-84402857D01*
X144540428Y-84821904D02*
X144921380Y-84821904D01*
X144921380Y-84021904D01*
X144540428Y-84021904D01*
X143854714Y-84021904D02*
X144007095Y-84021904D01*
X144083285Y-84060000D01*
X144121380Y-84098095D01*
X144197571Y-84212380D01*
X144235666Y-84364761D01*
X144235666Y-84669523D01*
X144197571Y-84745714D01*
X144159476Y-84783809D01*
X144083285Y-84821904D01*
X143930904Y-84821904D01*
X143854714Y-84783809D01*
X143816619Y-84745714D01*
X143778523Y-84669523D01*
X143778523Y-84479047D01*
X143816619Y-84402857D01*
X143854714Y-84364761D01*
X143930904Y-84326666D01*
X144083285Y-84326666D01*
X144159476Y-84364761D01*
X144197571Y-84402857D01*
X144235666Y-84479047D01*
%TO.C,J1*%
X153952380Y-73966666D02*
X154666666Y-73966666D01*
X154809523Y-73919047D01*
X154904761Y-73823809D01*
X154952380Y-73680952D01*
X154952380Y-73585714D01*
X154952380Y-74966666D02*
X154952380Y-74395238D01*
X154952380Y-74680952D02*
X153952380Y-74680952D01*
X154095238Y-74585714D01*
X154190476Y-74490476D01*
X154238095Y-74395238D01*
D12*
%TO.C,U1*%
X140940000Y-90810000D02*
X158720000Y-90810000D01*
X140940000Y-57790000D02*
X140940000Y-90810000D01*
X143480000Y-60330000D02*
X140940000Y-60330000D01*
X158720000Y-90810000D02*
X158720000Y-57790000D01*
X158720000Y-57790000D02*
X140940000Y-57790000D01*
X143480000Y-62870000D02*
X140940000Y-62870000D01*
X143480000Y-60330000D02*
X143480000Y-62870000D01*
D10*
X156074635Y-66219030D02*
X156074635Y-67019030D01*
X156074635Y-67019030D02*
X156174635Y-67019030D01*
X156174635Y-67019030D02*
X156174635Y-66219030D01*
X156174635Y-66219030D02*
X156074635Y-66219030D01*
G36*
X156174635Y-67019030D02*
G01*
X156074635Y-67019030D01*
X156074635Y-66219030D01*
X156174635Y-66219030D01*
X156174635Y-67019030D01*
G37*
X156174635Y-67019030D02*
X156074635Y-67019030D01*
X156074635Y-66219030D01*
X156174635Y-66219030D01*
X156174635Y-67019030D01*
X155674635Y-66219030D02*
X155674635Y-66519030D01*
X155674635Y-66519030D02*
X155774635Y-66519030D01*
X155774635Y-66519030D02*
X155774635Y-66219030D01*
X155774635Y-66219030D02*
X155674635Y-66219030D01*
G36*
X155774635Y-66519030D02*
G01*
X155674635Y-66519030D01*
X155674635Y-66219030D01*
X155774635Y-66219030D01*
X155774635Y-66519030D01*
G37*
X155774635Y-66519030D02*
X155674635Y-66519030D01*
X155674635Y-66219030D01*
X155774635Y-66219030D01*
X155774635Y-66519030D01*
X155674635Y-66819030D02*
X155674635Y-67019030D01*
X155674635Y-67019030D02*
X155774635Y-67019030D01*
X155774635Y-67019030D02*
X155774635Y-66819030D01*
X155774635Y-66819030D02*
X155674635Y-66819030D01*
G36*
X155774635Y-67019030D02*
G01*
X155674635Y-67019030D01*
X155674635Y-66819030D01*
X155774635Y-66819030D01*
X155774635Y-67019030D01*
G37*
X155774635Y-67019030D02*
X155674635Y-67019030D01*
X155674635Y-66819030D01*
X155774635Y-66819030D01*
X155774635Y-67019030D01*
X155874635Y-66619030D02*
X155874635Y-66719030D01*
X155874635Y-66719030D02*
X155974635Y-66719030D01*
X155974635Y-66719030D02*
X155974635Y-66619030D01*
X155974635Y-66619030D02*
X155874635Y-66619030D01*
G36*
X155974635Y-66719030D02*
G01*
X155874635Y-66719030D01*
X155874635Y-66619030D01*
X155974635Y-66619030D01*
X155974635Y-66719030D01*
G37*
X155974635Y-66719030D02*
X155874635Y-66719030D01*
X155874635Y-66619030D01*
X155974635Y-66619030D01*
X155974635Y-66719030D01*
X155674635Y-66219030D02*
X155674635Y-66319030D01*
X155674635Y-66319030D02*
X156174635Y-66319030D01*
X156174635Y-66319030D02*
X156174635Y-66219030D01*
X156174635Y-66219030D02*
X155674635Y-66219030D01*
G36*
X156174635Y-66319030D02*
G01*
X155674635Y-66319030D01*
X155674635Y-66219030D01*
X156174635Y-66219030D01*
X156174635Y-66319030D01*
G37*
X156174635Y-66319030D02*
X155674635Y-66319030D01*
X155674635Y-66219030D01*
X156174635Y-66219030D01*
X156174635Y-66319030D01*
D13*
%TO.C,J1*%
X145760000Y-75630000D02*
X145760000Y-72970000D01*
X150900000Y-75630000D02*
X145760000Y-75630000D01*
X150900000Y-75630000D02*
X150900000Y-72970000D01*
X152170000Y-75630000D02*
X153500000Y-75630000D01*
X153500000Y-75630000D02*
X153500000Y-74300000D01*
X150900000Y-72970000D02*
X145760000Y-72970000D01*
%TD*%
D14*
%TO.C,U1*%
X142210000Y-61600000D03*
D15*
X142210000Y-64140000D03*
X142210000Y-66680000D03*
X142210000Y-69220000D03*
X142210000Y-71760000D03*
X142210000Y-74300000D03*
X142210000Y-76840000D03*
X142210000Y-79380000D03*
X142210000Y-81920000D03*
X142210000Y-84460000D03*
X142210000Y-87000000D03*
X142210000Y-89540000D03*
X157450000Y-89540000D03*
X157450000Y-87000000D03*
X157450000Y-84460000D03*
X157450000Y-81920000D03*
X157450000Y-79380000D03*
X157450000Y-76840000D03*
X157450000Y-74300000D03*
X157450000Y-71760000D03*
X157450000Y-69220000D03*
X157450000Y-66680000D03*
X157450000Y-64140000D03*
X157450000Y-61600000D03*
%TD*%
%LPC*%
D16*
%TO.C,MX41*%
X144810000Y-144170000D03*
D17*
X149890000Y-144170000D03*
D16*
X154970000Y-144170000D03*
D18*
X152430000Y-139090000D03*
X146080000Y-141630000D03*
%TD*%
D19*
%TO.C,D25*%
X42620000Y-51500000D03*
D20*
X41296801Y-59004235D03*
%TD*%
%TO.C,D3*%
X66676801Y-58474235D03*
D19*
X68000000Y-50970000D03*
%TD*%
D20*
%TO.C,D40*%
X135618401Y-73502116D03*
D19*
X136941600Y-65997881D03*
%TD*%
D20*
%TO.C,D14*%
X53996801Y-59074235D03*
D19*
X55320000Y-51570000D03*
%TD*%
D21*
%TO.C,D8*%
X196623199Y-64524235D03*
D22*
X195300000Y-57020000D03*
%TD*%
D20*
%TO.C,D30*%
X130898401Y-72592118D03*
D19*
X132221600Y-65087883D03*
%TD*%
D16*
%TO.C,MX33*%
X184672823Y-119337868D03*
X174667177Y-121102133D03*
D17*
X179670000Y-120220001D03*
D18*
X181289279Y-114776111D03*
X175476816Y-118380189D03*
%TD*%
D16*
%TO.C,MX43*%
X206382823Y-132547867D03*
X196377177Y-134312132D03*
D17*
X201380000Y-133430000D03*
D18*
X202999279Y-127986110D03*
X197186816Y-131590188D03*
%TD*%
D16*
%TO.C,MX2*%
X46367176Y-70907867D03*
X56372823Y-72672133D03*
D17*
X51370000Y-71790000D03*
D18*
X54753544Y-67228243D03*
X48058948Y-68626989D03*
%TD*%
D21*
%TO.C,D43*%
X182683199Y-68594235D03*
D22*
X181360000Y-61090000D03*
%TD*%
D16*
%TO.C,MX21*%
X218052823Y-89327867D03*
X208047177Y-91092132D03*
D17*
X213050000Y-90210000D03*
D18*
X214669279Y-84766110D03*
X208856816Y-88370188D03*
%TD*%
D17*
%TO.C,MX31*%
X138870001Y-123520000D03*
D16*
X143872824Y-124402133D03*
X133867177Y-122637867D03*
D18*
X142253545Y-118958243D03*
X135558949Y-120356989D03*
%TD*%
D17*
%TO.C,MX30*%
X120106456Y-120191757D03*
D16*
X125109279Y-121073890D03*
X115103632Y-119309624D03*
D18*
X123490000Y-115630000D03*
X116795404Y-117028746D03*
%TD*%
D22*
%TO.C,D32*%
X169448400Y-116667880D03*
D21*
X170771599Y-124172115D03*
%TD*%
D17*
%TO.C,MX11*%
X248530000Y-71850000D03*
D16*
X243527177Y-72732132D03*
X253532823Y-70967867D03*
D18*
X250149279Y-66406110D03*
X244336816Y-70010188D03*
%TD*%
D16*
%TO.C,MX42*%
X178007177Y-139842132D03*
D17*
X183010000Y-138960000D03*
D16*
X188012823Y-138077867D03*
D18*
X184629279Y-133516110D03*
X178816816Y-137120188D03*
%TD*%
D14*
%TO.C,U1*%
X142210000Y-61600000D03*
D15*
X142210000Y-64140000D03*
X142210000Y-66680000D03*
X142210000Y-69220000D03*
X142210000Y-71760000D03*
X142210000Y-74300000D03*
X142210000Y-76840000D03*
X142210000Y-79380000D03*
X142210000Y-81920000D03*
X142210000Y-84460000D03*
X142210000Y-87000000D03*
X142210000Y-89540000D03*
X157450000Y-89540000D03*
X157450000Y-87000000D03*
X157450000Y-84460000D03*
X157450000Y-81920000D03*
X157450000Y-79380000D03*
X157450000Y-76840000D03*
X157450000Y-74300000D03*
X157450000Y-71760000D03*
X157450000Y-69220000D03*
X157450000Y-66680000D03*
X157450000Y-64140000D03*
X157450000Y-61600000D03*
%TD*%
D17*
%TO.C,MX40*%
X116820000Y-138950000D03*
D16*
X111817176Y-138067867D03*
X121822823Y-139832133D03*
D18*
X120203544Y-134388243D03*
X113508948Y-135786989D03*
%TD*%
D21*
%TO.C,D37*%
X240063199Y-58964235D03*
D22*
X238740000Y-51460000D03*
%TD*%
D17*
%TO.C,MX25*%
X25530000Y-108360000D03*
D16*
X20527176Y-107477867D03*
X30532823Y-109242133D03*
D18*
X28913544Y-103798243D03*
X22218948Y-105196989D03*
%TD*%
D20*
%TO.C,D17*%
X107676801Y-65464235D03*
D19*
X109000000Y-57960000D03*
%TD*%
%TO.C,D31*%
X130101600Y-117757883D03*
D20*
X128778401Y-125262118D03*
%TD*%
D16*
%TO.C,MX9*%
X204747177Y-72312132D03*
D17*
X209750000Y-71430000D03*
D16*
X214752823Y-70547867D03*
D18*
X211369279Y-65986110D03*
X205556816Y-69590188D03*
%TD*%
D16*
%TO.C,MX4*%
X95069279Y-72263890D03*
D17*
X90066456Y-71381757D03*
D16*
X85063632Y-70499624D03*
D18*
X93450000Y-66820000D03*
X86755404Y-68218746D03*
%TD*%
D21*
%TO.C,D35*%
X201803199Y-62834235D03*
D22*
X200480000Y-55330000D03*
%TD*%
D16*
%TO.C,MX20*%
X189697177Y-96822132D03*
X199702823Y-95057867D03*
D17*
X194700000Y-95940000D03*
D18*
X196319279Y-90496110D03*
X190506816Y-94100188D03*
%TD*%
D21*
%TO.C,D20*%
X192333199Y-65694235D03*
D22*
X191010000Y-58190000D03*
%TD*%
D16*
%TO.C,MX24*%
X266047898Y-90566022D03*
D17*
X271050721Y-89683890D03*
D16*
X276053544Y-88801757D03*
D18*
X272670000Y-84240000D03*
X266857537Y-87844078D03*
%TD*%
D16*
%TO.C,MX10*%
X233932823Y-69607867D03*
X223927177Y-71372132D03*
D17*
X228930000Y-70490000D03*
D18*
X230549279Y-65046110D03*
X224736816Y-68650188D03*
%TD*%
D16*
%TO.C,MX17*%
X110089279Y-96703890D03*
D17*
X105086456Y-95821757D03*
D16*
X100083632Y-94939624D03*
D18*
X108470000Y-91260000D03*
X101775404Y-92658746D03*
%TD*%
D17*
%TO.C,MX37*%
X255140000Y-109430000D03*
D16*
X260142823Y-108547867D03*
X250137177Y-110312132D03*
D18*
X256759279Y-103986110D03*
X250946816Y-107590188D03*
%TD*%
D16*
%TO.C,MX38*%
X269327898Y-109386022D03*
D17*
X274330721Y-108503890D03*
D16*
X279333544Y-107621757D03*
D18*
X275950000Y-103060000D03*
X270137537Y-106664078D03*
%TD*%
D16*
%TO.C,MX36*%
X240562823Y-107147868D03*
D17*
X235560000Y-108030001D03*
D16*
X230557177Y-108912133D03*
D18*
X237179279Y-102586111D03*
X231366816Y-106190189D03*
%TD*%
D20*
%TO.C,D27*%
X79776801Y-59184235D03*
D19*
X81100000Y-51680000D03*
%TD*%
D21*
%TO.C,D11*%
X253493199Y-58964235D03*
D22*
X252170000Y-51460000D03*
%TD*%
D21*
%TO.C,D12*%
X272771600Y-59272118D03*
D22*
X271448401Y-51767883D03*
%TD*%
D21*
%TO.C,D36*%
X220593199Y-59404235D03*
D22*
X219270000Y-51900000D03*
%TD*%
D17*
%TO.C,MX26*%
X44700000Y-109340000D03*
D16*
X39697176Y-108457867D03*
X49702823Y-110222133D03*
D18*
X48083544Y-104778243D03*
X41388948Y-106176989D03*
%TD*%
D17*
%TO.C,MX8*%
X191390000Y-77170000D03*
D16*
X186387177Y-78052132D03*
X196392823Y-76287867D03*
D18*
X193009279Y-71726110D03*
X187196816Y-75330188D03*
%TD*%
D21*
%TO.C,D9*%
X214583199Y-59864235D03*
D22*
X213260000Y-52360000D03*
%TD*%
D21*
%TO.C,D7*%
X178323199Y-69974235D03*
D22*
X177000000Y-62470000D03*
%TD*%
D21*
%TO.C,D21*%
X207853199Y-61074235D03*
D22*
X206530000Y-53570000D03*
%TD*%
D20*
%TO.C,D4*%
X85656801Y-59984235D03*
D19*
X86980000Y-52480000D03*
%TD*%
D17*
%TO.C,MX7*%
X172990000Y-82720000D03*
D16*
X167987177Y-83602132D03*
X177992823Y-81837867D03*
D18*
X174609279Y-77276110D03*
X168796816Y-80880188D03*
%TD*%
D16*
%TO.C,MX5*%
X103383632Y-76149624D03*
D17*
X108386456Y-77031757D03*
D16*
X113389279Y-77913890D03*
D18*
X111770000Y-72470000D03*
X105075404Y-73868746D03*
%TD*%
D19*
%TO.C,D1*%
X28591600Y-51737883D03*
D20*
X27268401Y-59242118D03*
%TD*%
D17*
%TO.C,MX35*%
X216350000Y-108940001D03*
D16*
X211347177Y-109822133D03*
X221352823Y-108057868D03*
D18*
X217969279Y-103496111D03*
X212156816Y-107100189D03*
%TD*%
D21*
%TO.C,D38*%
X259673199Y-59254235D03*
D22*
X258350000Y-51750000D03*
%TD*%
D20*
%TO.C,D39*%
X116776801Y-68274235D03*
D19*
X118100000Y-60770000D03*
%TD*%
D16*
%TO.C,MX1*%
X37172823Y-71732133D03*
X27167176Y-69967867D03*
D17*
X32170000Y-70850000D03*
D18*
X35553544Y-66288243D03*
X28858948Y-67686989D03*
%TD*%
D17*
%TO.C,MX14*%
X48040000Y-90570000D03*
D16*
X43037176Y-89687867D03*
X53042823Y-91452133D03*
D18*
X51423544Y-86008243D03*
X44728948Y-87406989D03*
%TD*%
D20*
%TO.C,D6*%
X121616801Y-69964235D03*
D19*
X122940000Y-62460000D03*
%TD*%
D20*
%TO.C,D2*%
X47246801Y-58934235D03*
D19*
X48570000Y-51430000D03*
%TD*%
D20*
%TO.C,D26*%
X60316801Y-58494235D03*
D19*
X61640000Y-50990000D03*
%TD*%
D20*
%TO.C,D28*%
X97946801Y-62514235D03*
D19*
X99270000Y-55010000D03*
%TD*%
D20*
%TO.C,D18*%
X126166801Y-71374235D03*
D19*
X127490000Y-63870000D03*
%TD*%
D16*
%TO.C,MX29*%
X96783632Y-113699624D03*
X106789279Y-115463890D03*
D17*
X101786456Y-114581757D03*
D18*
X105170000Y-110020000D03*
X98475404Y-111418746D03*
%TD*%
D17*
%TO.C,MX32*%
X160900000Y-123500001D03*
D16*
X155897177Y-124382133D03*
X165902823Y-122617868D03*
D18*
X162519279Y-118056111D03*
X156706816Y-121660189D03*
%TD*%
D19*
%TO.C,D13*%
X36230000Y-51650000D03*
D20*
X34906801Y-59154235D03*
%TD*%
D16*
%TO.C,MX3*%
X65917177Y-69467867D03*
X75922824Y-71232133D03*
D17*
X70920001Y-70350000D03*
D18*
X74303545Y-65788243D03*
X67608949Y-67186989D03*
%TD*%
D23*
%TO.C,D41*%
X158250000Y-140320000D03*
D24*
X158250000Y-147940000D03*
%TD*%
D16*
%TO.C,MX28*%
X88452823Y-109822133D03*
X78447176Y-108057867D03*
D17*
X83450000Y-108940000D03*
D18*
X86833544Y-104378243D03*
X80138948Y-105776989D03*
%TD*%
D16*
%TO.C,MX13*%
X23847176Y-88707867D03*
X33852823Y-90472133D03*
D17*
X28850000Y-89590000D03*
D18*
X32233544Y-85028243D03*
X25538948Y-86426989D03*
%TD*%
D21*
%TO.C,D19*%
X173533199Y-71424235D03*
D22*
X172210000Y-63920000D03*
%TD*%
D16*
%TO.C,MX16*%
X81727176Y-89247867D03*
D17*
X86730000Y-90130000D03*
D16*
X91732823Y-91012133D03*
D18*
X90113544Y-85568243D03*
X83418948Y-86966989D03*
%TD*%
D16*
%TO.C,MX18*%
X118413632Y-100549624D03*
D17*
X123416456Y-101431757D03*
D16*
X128419279Y-102313890D03*
D18*
X126800000Y-96870000D03*
X120105404Y-98268746D03*
%TD*%
D20*
%TO.C,D5*%
X103466801Y-64114235D03*
D19*
X104790000Y-56610000D03*
%TD*%
D16*
%TO.C,MX39*%
X103452824Y-134222133D03*
X93447177Y-132457867D03*
D17*
X98450001Y-133340000D03*
D18*
X101833545Y-128778243D03*
X95138949Y-130176989D03*
%TD*%
D21*
%TO.C,D22*%
X226583199Y-59184235D03*
D22*
X225260000Y-51680000D03*
%TD*%
D21*
%TO.C,D24*%
X266093199Y-59104235D03*
D22*
X264770000Y-51600000D03*
%TD*%
D17*
%TO.C,MX15*%
X67580000Y-89170000D03*
D16*
X72582823Y-90052133D03*
X62577176Y-88287867D03*
D18*
X70963544Y-84608243D03*
X64268948Y-86006989D03*
%TD*%
D16*
%TO.C,MX27*%
X69262824Y-108842133D03*
D17*
X64260001Y-107960000D03*
D16*
X59257177Y-107077867D03*
D18*
X67643545Y-103398243D03*
X60948949Y-104796989D03*
%TD*%
D20*
%TO.C,D16*%
X91868401Y-60922118D03*
D19*
X93191600Y-53417883D03*
%TD*%
D16*
%TO.C,MX19*%
X181342823Y-100567867D03*
X171337177Y-102332132D03*
D17*
X176340000Y-101450000D03*
D18*
X177959279Y-96006110D03*
X172146816Y-99610188D03*
%TD*%
D16*
%TO.C,MX6*%
X131732823Y-83522133D03*
D17*
X126730000Y-82640000D03*
D16*
X121727176Y-81757867D03*
D18*
X130113544Y-78078243D03*
X123418948Y-79476989D03*
%TD*%
D20*
%TO.C,D29*%
X112416801Y-66724235D03*
D19*
X113740000Y-59220000D03*
%TD*%
D21*
%TO.C,D34*%
X187613199Y-67072118D03*
D22*
X186290000Y-59567883D03*
%TD*%
D16*
%TO.C,MX23*%
X246827177Y-91512132D03*
D17*
X251830000Y-90630000D03*
D16*
X256832823Y-89747867D03*
D18*
X253449279Y-85186110D03*
X247636816Y-88790188D03*
%TD*%
D16*
%TO.C,MX12*%
X272722823Y-70027868D03*
D17*
X267720000Y-70910001D03*
D16*
X262717177Y-71792133D03*
D18*
X269339279Y-65466111D03*
X263526816Y-69070189D03*
%TD*%
D20*
%TO.C,D15*%
X73236801Y-58784235D03*
D19*
X74560000Y-51280000D03*
%TD*%
D21*
%TO.C,D10*%
X233541600Y-58922118D03*
D22*
X232218401Y-51417883D03*
%TD*%
D21*
%TO.C,D42*%
X163931600Y-73612117D03*
D22*
X162608401Y-66107882D03*
%TD*%
D21*
%TO.C,D33*%
X168523199Y-72374235D03*
D22*
X167200000Y-64870000D03*
%TD*%
D16*
%TO.C,MX34*%
X193037177Y-115532133D03*
D17*
X198040000Y-114650001D03*
D16*
X203042823Y-113767868D03*
D18*
X199659279Y-109206111D03*
X193846816Y-112810189D03*
%TD*%
D16*
%TO.C,MX22*%
X227237177Y-90162132D03*
D17*
X232240000Y-89280000D03*
D16*
X237242823Y-88397867D03*
D18*
X233859279Y-83836110D03*
X228046816Y-87440188D03*
%TD*%
D21*
%TO.C,D23*%
X247103199Y-58824235D03*
D22*
X245780000Y-51320000D03*
%TD*%
D25*
%TO.C,J1*%
X152170000Y-74300000D03*
D26*
X149630000Y-74300000D03*
X147090000Y-74300000D03*
%TD*%
M02*
