%TF.GenerationSoftware,KiCad,Pcbnew,(6.0.2)*%
%TF.CreationDate,2022-05-01T14:02:26-06:00*%
%TF.ProjectId,AirShip-rounded,41697253-6869-4702-9d72-6f756e646564,rev?*%
%TF.SameCoordinates,Original*%
%TF.FileFunction,Legend,Top*%
%TF.FilePolarity,Positive*%
%FSLAX46Y46*%
G04 Gerber Fmt 4.6, Leading zero omitted, Abs format (unit mm)*
G04 Created by KiCad (PCBNEW (6.0.2)) date 2022-05-01 14:02:26*
%MOMM*%
%LPD*%
G01*
G04 APERTURE LIST*
G04 Aperture macros list*
%AMHorizOval*
0 Thick line with rounded ends*
0 $1 width*
0 $2 $3 position (X,Y) of the first rounded end (center of the circle)*
0 $4 $5 position (X,Y) of the second rounded end (center of the circle)*
0 Add line between two ends*
20,1,$1,$2,$3,$4,$5,0*
0 Add two circle primitives to create the rounded ends*
1,1,$1,$2,$3*
1,1,$1,$4,$5*%
%AMRotRect*
0 Rectangle, with rotation*
0 The origin of the aperture is its center*
0 $1 length*
0 $2 width*
0 $3 Rotation angle, in degrees counterclockwise*
0 Add horizontal line*
21,1,$1,$2,0,0,$3*%
G04 Aperture macros list end*
%ADD10C,0.150000*%
%ADD11C,0.120000*%
%ADD12C,0.381000*%
%ADD13R,1.752600X1.752600*%
%ADD14C,1.752600*%
%ADD15C,1.700000*%
%ADD16C,4.000000*%
%ADD17C,2.200000*%
%ADD18RotRect,1.600000X1.600000X260.000000*%
%ADD19HorizOval,1.600000X0.000000X0.000000X0.000000X0.000000X0*%
%ADD20HorizOval,1.600000X0.000000X0.000000X0.000000X0.000000X0*%
%ADD21RotRect,1.600000X1.600000X280.000000*%
%ADD22R,3.250000X2.000000*%
%ADD23R,1.600000X1.600000*%
%ADD24O,1.600000X1.600000*%
%ADD25R,1.700000X1.700000*%
%ADD26O,1.700000X1.700000*%
G04 APERTURE END LIST*
D10*
%TO.C,MX41*%
X148128095Y-136748380D02*
X148128095Y-135748380D01*
X148461428Y-136462666D01*
X148794761Y-135748380D01*
X148794761Y-136748380D01*
X149175714Y-135748380D02*
X149842380Y-136748380D01*
X149842380Y-135748380D02*
X149175714Y-136748380D01*
X150651904Y-136081714D02*
X150651904Y-136748380D01*
X150413809Y-135700761D02*
X150175714Y-136415047D01*
X150794761Y-136415047D01*
X151699523Y-136748380D02*
X151128095Y-136748380D01*
X151413809Y-136748380D02*
X151413809Y-135748380D01*
X151318571Y-135891238D01*
X151223333Y-135986476D01*
X151128095Y-136034095D01*
%TO.C,D25*%
X44280842Y-56894645D02*
X43296035Y-56720996D01*
X43337379Y-56486518D01*
X43409082Y-56354101D01*
X43519411Y-56276847D01*
X43621471Y-56246490D01*
X43817323Y-56232670D01*
X43958009Y-56257477D01*
X44137323Y-56337448D01*
X44222845Y-56400882D01*
X44300098Y-56511211D01*
X44322187Y-56660167D01*
X44280842Y-56894645D01*
X43555205Y-55799622D02*
X43516578Y-55744458D01*
X43486221Y-55642397D01*
X43527565Y-55407919D01*
X43590999Y-55322397D01*
X43646164Y-55283771D01*
X43748224Y-55253413D01*
X43842015Y-55269951D01*
X43974433Y-55341653D01*
X44437953Y-56003628D01*
X44545449Y-55393985D01*
X43717752Y-54329320D02*
X43635062Y-54798277D01*
X44095749Y-54927862D01*
X44057122Y-54872697D01*
X44026765Y-54770637D01*
X44068109Y-54536159D01*
X44131543Y-54450637D01*
X44186708Y-54412010D01*
X44288768Y-54381652D01*
X44523246Y-54422997D01*
X44608768Y-54486431D01*
X44647395Y-54541595D01*
X44677752Y-54643655D01*
X44636408Y-54878134D01*
X44572974Y-54963656D01*
X44517809Y-55002282D01*
%TO.C,D3*%
X69743532Y-55895689D02*
X68758724Y-55722040D01*
X68800069Y-55487562D01*
X68871771Y-55355144D01*
X68982101Y-55277891D01*
X69084161Y-55247533D01*
X69280012Y-55233714D01*
X69420699Y-55258521D01*
X69600012Y-55338492D01*
X69685535Y-55401926D01*
X69762788Y-55512255D01*
X69784877Y-55661211D01*
X69743532Y-55895689D01*
X68915834Y-54831024D02*
X69023331Y-54221381D01*
X69340613Y-54615802D01*
X69365420Y-54475115D01*
X69428853Y-54389593D01*
X69484018Y-54350966D01*
X69586078Y-54320608D01*
X69820556Y-54361953D01*
X69906078Y-54425387D01*
X69944705Y-54480551D01*
X69975063Y-54582612D01*
X69925449Y-54863985D01*
X69862015Y-54949507D01*
X69806851Y-54988134D01*
%TO.C,D40*%
X138602442Y-71392526D02*
X137617635Y-71218877D01*
X137658979Y-70984399D01*
X137730682Y-70851982D01*
X137841011Y-70774728D01*
X137943071Y-70744371D01*
X138138923Y-70730551D01*
X138279609Y-70755358D01*
X138458923Y-70835329D01*
X138544445Y-70898763D01*
X138621698Y-71009092D01*
X138643787Y-71158048D01*
X138602442Y-71392526D01*
X138193973Y-69869892D02*
X138850511Y-69985657D01*
X137777463Y-70038218D02*
X138439552Y-70396731D01*
X138547049Y-69787088D01*
X137989738Y-69108575D02*
X138006276Y-69014784D01*
X138069709Y-68929262D01*
X138124874Y-68890635D01*
X138226934Y-68860277D01*
X138422785Y-68846458D01*
X138657263Y-68887802D01*
X138836577Y-68967774D01*
X138922099Y-69031207D01*
X138960726Y-69086372D01*
X138991083Y-69188432D01*
X138974546Y-69282223D01*
X138911112Y-69367746D01*
X138855947Y-69406372D01*
X138753887Y-69436730D01*
X138558036Y-69450550D01*
X138323558Y-69409205D01*
X138144244Y-69329233D01*
X138058722Y-69265800D01*
X138020095Y-69210635D01*
X137989738Y-69108575D01*
%TO.C,D14*%
X56980842Y-56964645D02*
X55996035Y-56790996D01*
X56037379Y-56556518D01*
X56109082Y-56424101D01*
X56219411Y-56346847D01*
X56321471Y-56316490D01*
X56517323Y-56302670D01*
X56658009Y-56327477D01*
X56837323Y-56407448D01*
X56922845Y-56470882D01*
X57000098Y-56581211D01*
X57022187Y-56730167D01*
X56980842Y-56964645D01*
X57245449Y-55463985D02*
X57146221Y-56026732D01*
X57195835Y-55745359D02*
X56211027Y-55571711D01*
X56335176Y-55690309D01*
X56412430Y-55800638D01*
X56442787Y-55902698D01*
X56737752Y-54504099D02*
X57394290Y-54619864D01*
X56321242Y-54672425D02*
X56983331Y-55030938D01*
X57090828Y-54421295D01*
%TO.C,D8*%
X194655276Y-61950443D02*
X193670468Y-62124091D01*
X193629123Y-61889613D01*
X193651212Y-61740658D01*
X193728465Y-61630329D01*
X193813987Y-61566895D01*
X193993301Y-61486924D01*
X194133988Y-61462117D01*
X194329839Y-61475936D01*
X194431899Y-61506294D01*
X194542228Y-61583547D01*
X194613931Y-61715965D01*
X194655276Y-61950443D01*
X193894073Y-60924176D02*
X193863716Y-61026236D01*
X193825089Y-61081401D01*
X193739567Y-61144835D01*
X193692671Y-61153103D01*
X193590611Y-61122746D01*
X193535446Y-61084119D01*
X193472013Y-60998597D01*
X193438937Y-60811014D01*
X193469295Y-60708954D01*
X193507921Y-60653790D01*
X193593444Y-60590356D01*
X193640339Y-60582087D01*
X193742399Y-60612445D01*
X193797564Y-60651072D01*
X193860997Y-60736594D01*
X193894073Y-60924176D01*
X193957507Y-61009698D01*
X194012671Y-61048325D01*
X194114732Y-61078683D01*
X194302314Y-61045607D01*
X194387836Y-60982173D01*
X194426463Y-60927009D01*
X194456821Y-60824949D01*
X194423745Y-60637366D01*
X194360311Y-60551844D01*
X194305147Y-60513217D01*
X194203086Y-60482860D01*
X194015504Y-60515936D01*
X193929982Y-60579369D01*
X193891355Y-60634534D01*
X193860997Y-60736594D01*
%TO.C,D30*%
X133882442Y-70482528D02*
X132897635Y-70308879D01*
X132938979Y-70074401D01*
X133010682Y-69941984D01*
X133121011Y-69864730D01*
X133223071Y-69834373D01*
X133418923Y-69820553D01*
X133559609Y-69845360D01*
X133738923Y-69925331D01*
X133824445Y-69988765D01*
X133901698Y-70099094D01*
X133923787Y-70248050D01*
X133882442Y-70482528D01*
X133054745Y-69417863D02*
X133162241Y-68808220D01*
X133479523Y-69202641D01*
X133504330Y-69061954D01*
X133567764Y-68976432D01*
X133622928Y-68937805D01*
X133724989Y-68907448D01*
X133959467Y-68948792D01*
X134044989Y-69012226D01*
X134083615Y-69067390D01*
X134113973Y-69169451D01*
X134064359Y-69450824D01*
X134000926Y-69536347D01*
X133945761Y-69574973D01*
X133269738Y-68198577D02*
X133286276Y-68104786D01*
X133349709Y-68019264D01*
X133404874Y-67980637D01*
X133506934Y-67950279D01*
X133702785Y-67936460D01*
X133937263Y-67977804D01*
X134116577Y-68057776D01*
X134202099Y-68121209D01*
X134240726Y-68176374D01*
X134271083Y-68278434D01*
X134254546Y-68372225D01*
X134191112Y-68457748D01*
X134135947Y-68496374D01*
X134033887Y-68526732D01*
X133838036Y-68540552D01*
X133603558Y-68499207D01*
X133424244Y-68419235D01*
X133338722Y-68355802D01*
X133300095Y-68300637D01*
X133269738Y-68198577D01*
%TO.C,MX33*%
X176646111Y-113217084D02*
X176472463Y-112232277D01*
X176924767Y-112877828D01*
X177129001Y-112116511D01*
X177302650Y-113101319D01*
X177504166Y-112050359D02*
X178334353Y-112919402D01*
X178160705Y-111934594D02*
X177677815Y-113035167D01*
X178442078Y-111884980D02*
X179051721Y-111777484D01*
X178789604Y-112210531D01*
X178930291Y-112185724D01*
X179032351Y-112216082D01*
X179087515Y-112254709D01*
X179150949Y-112340231D01*
X179192294Y-112574709D01*
X179161936Y-112676769D01*
X179123309Y-112731934D01*
X179037787Y-112795367D01*
X178756413Y-112844981D01*
X178654353Y-112814623D01*
X178599189Y-112775997D01*
X179379991Y-111719601D02*
X179989634Y-111612105D01*
X179727516Y-112045152D01*
X179868203Y-112020345D01*
X179970263Y-112050703D01*
X180025428Y-112089330D01*
X180088861Y-112174852D01*
X180130206Y-112409330D01*
X180099848Y-112511390D01*
X180061222Y-112566555D01*
X179975699Y-112629988D01*
X179694326Y-112679602D01*
X179592265Y-112649244D01*
X179537101Y-112610618D01*
%TO.C,MX43*%
X198356111Y-126427083D02*
X198182463Y-125442276D01*
X198634767Y-126087827D01*
X198839001Y-125326510D01*
X199012650Y-126311318D01*
X199214166Y-125260358D02*
X200044353Y-126129401D01*
X199870705Y-125144593D02*
X199387815Y-126245166D01*
X200725813Y-125332290D02*
X200841578Y-125988828D01*
X200425183Y-124998470D02*
X200314740Y-125743249D01*
X200924382Y-125635752D01*
X201089991Y-124929600D02*
X201699634Y-124822104D01*
X201437516Y-125255151D01*
X201578203Y-125230344D01*
X201680263Y-125260702D01*
X201735428Y-125299329D01*
X201798861Y-125384851D01*
X201840206Y-125619329D01*
X201809848Y-125721389D01*
X201771222Y-125776554D01*
X201685699Y-125839987D01*
X201404326Y-125889601D01*
X201302265Y-125859243D01*
X201247101Y-125820617D01*
%TO.C,MX2*%
X51392568Y-64257870D02*
X51566216Y-63273062D01*
X51770451Y-64034379D01*
X52222755Y-63388828D01*
X52049106Y-64373635D01*
X52597920Y-63454979D02*
X53080810Y-64555552D01*
X53254458Y-63570745D02*
X52424271Y-64439787D01*
X53566189Y-63722419D02*
X53621354Y-63683792D01*
X53723414Y-63653434D01*
X53957892Y-63694779D01*
X54043414Y-63758213D01*
X54082041Y-63813377D01*
X54112399Y-63915437D01*
X54095861Y-64009229D01*
X54024158Y-64141646D01*
X53362183Y-64605166D01*
X53971826Y-64712663D01*
%TO.C,D43*%
X180827965Y-66799400D02*
X179843158Y-66973049D01*
X179801813Y-66738570D01*
X179823901Y-66589615D01*
X179901155Y-66479286D01*
X179986677Y-66415852D01*
X180165990Y-66335881D01*
X180306677Y-66311074D01*
X180502529Y-66324893D01*
X180604589Y-66355251D01*
X180714918Y-66432504D01*
X180786620Y-66564922D01*
X180827965Y-66799400D01*
X179923358Y-65508298D02*
X180579896Y-65392532D01*
X179589538Y-65808927D02*
X180334317Y-65919371D01*
X180226820Y-65309728D01*
X179520668Y-65144120D02*
X179413172Y-64534477D01*
X179846219Y-64796595D01*
X179821412Y-64655908D01*
X179851770Y-64553848D01*
X179890397Y-64498683D01*
X179975919Y-64435249D01*
X180210397Y-64393905D01*
X180312457Y-64424262D01*
X180367622Y-64462889D01*
X180431055Y-64548411D01*
X180480669Y-64829785D01*
X180450311Y-64931845D01*
X180411685Y-64987010D01*
%TO.C,MX21*%
X210026111Y-83207083D02*
X209852463Y-82222276D01*
X210304767Y-82867827D01*
X210509001Y-82106510D01*
X210682650Y-83091318D01*
X210884166Y-82040358D02*
X211714353Y-82909401D01*
X211540705Y-81924593D02*
X211057815Y-83025166D01*
X211885512Y-81960501D02*
X211924139Y-81905337D01*
X212009661Y-81841903D01*
X212244139Y-81800559D01*
X212346199Y-81830916D01*
X212401364Y-81869543D01*
X212464797Y-81955065D01*
X212481335Y-82048856D01*
X212459246Y-82197812D01*
X211995727Y-82859787D01*
X212605370Y-82752290D01*
X213543282Y-82586911D02*
X212980534Y-82686139D01*
X213261908Y-82636525D02*
X213088260Y-81651717D01*
X213019276Y-81808942D01*
X212942022Y-81919271D01*
X212856500Y-81982705D01*
%TO.C,MX31*%
X138423613Y-115905180D02*
X138597261Y-114920372D01*
X138801496Y-115681689D01*
X139253800Y-115036138D01*
X139080151Y-116020946D01*
X139628964Y-115102290D02*
X140111855Y-116202863D01*
X140285503Y-115218055D02*
X139455316Y-116087097D01*
X140566877Y-115267669D02*
X141176519Y-115375165D01*
X140782099Y-115692447D01*
X140922785Y-115717254D01*
X141008308Y-115780688D01*
X141046934Y-115835852D01*
X141077292Y-115937913D01*
X141035947Y-116172391D01*
X140972514Y-116257913D01*
X140917349Y-116296540D01*
X140815289Y-116326897D01*
X140533915Y-116277283D01*
X140448393Y-116213850D01*
X140409766Y-116158685D01*
X141940783Y-116525352D02*
X141378036Y-116426125D01*
X141659410Y-116475739D02*
X141833058Y-115490931D01*
X141714460Y-115615080D01*
X141604131Y-115692333D01*
X141502071Y-115722691D01*
%TO.C,MX30*%
X119660068Y-112576937D02*
X119833716Y-111592129D01*
X120037951Y-112353446D01*
X120490255Y-111707895D01*
X120316606Y-112692703D01*
X120865419Y-111774047D02*
X121348310Y-112874620D01*
X121521958Y-111889812D02*
X120691771Y-112758854D01*
X121803332Y-111939426D02*
X122412974Y-112046922D01*
X122018554Y-112364204D01*
X122159240Y-112389011D01*
X122244763Y-112452445D01*
X122283389Y-112507609D01*
X122313747Y-112609670D01*
X122272402Y-112844148D01*
X122208969Y-112929670D01*
X122153804Y-112968297D01*
X122051744Y-112998654D01*
X121770370Y-112949040D01*
X121684848Y-112885607D01*
X121646221Y-112830442D01*
X123022617Y-112154419D02*
X123116409Y-112170957D01*
X123201931Y-112234390D01*
X123240557Y-112289555D01*
X123270915Y-112391615D01*
X123284735Y-112587466D01*
X123243390Y-112821944D01*
X123163419Y-113001258D01*
X123099985Y-113086780D01*
X123044821Y-113125407D01*
X122942760Y-113155764D01*
X122848969Y-113139227D01*
X122763447Y-113075793D01*
X122724820Y-113020628D01*
X122694463Y-112918568D01*
X122680643Y-112722717D01*
X122721988Y-112488239D01*
X122801959Y-112308925D01*
X122865393Y-112223403D01*
X122920557Y-112184776D01*
X123022617Y-112154419D01*
%TO.C,D32*%
X172854158Y-121169145D02*
X171869351Y-121342794D01*
X171828006Y-121108315D01*
X171850094Y-120959360D01*
X171927348Y-120849031D01*
X172012870Y-120785597D01*
X172192183Y-120705626D01*
X172332870Y-120680819D01*
X172528722Y-120694638D01*
X172630782Y-120724996D01*
X172741111Y-120802249D01*
X172812813Y-120934667D01*
X172854158Y-121169145D01*
X171712240Y-120451777D02*
X171604744Y-119842134D01*
X172037791Y-120104252D01*
X172012984Y-119963565D01*
X172043342Y-119861505D01*
X172081969Y-119806340D01*
X172167491Y-119742907D01*
X172401969Y-119701562D01*
X172504029Y-119731919D01*
X172559194Y-119770546D01*
X172622627Y-119856068D01*
X172672241Y-120137442D01*
X172641883Y-120239502D01*
X172603257Y-120294667D01*
X171632383Y-119450431D02*
X171577219Y-119411805D01*
X171513785Y-119326282D01*
X171472440Y-119091804D01*
X171502798Y-118989744D01*
X171541425Y-118934580D01*
X171626947Y-118871146D01*
X171720738Y-118854608D01*
X171869694Y-118876697D01*
X172531669Y-119340217D01*
X172424172Y-118730574D01*
%TO.C,MX11*%
X245506111Y-64847083D02*
X245332463Y-63862276D01*
X245784767Y-64507827D01*
X245989001Y-63746510D01*
X246162650Y-64731318D01*
X246364166Y-63680358D02*
X247194353Y-64549401D01*
X247020705Y-63564593D02*
X246537815Y-64665166D01*
X248085370Y-64392290D02*
X247522622Y-64491518D01*
X247803996Y-64441904D02*
X247630348Y-63457096D01*
X247561363Y-63614321D01*
X247484110Y-63724650D01*
X247398588Y-63788084D01*
X249023282Y-64226911D02*
X248460534Y-64326139D01*
X248741908Y-64276525D02*
X248568260Y-63291717D01*
X248499276Y-63448942D01*
X248422022Y-63559271D01*
X248336500Y-63622705D01*
%TO.C,MX42*%
X179986111Y-131957083D02*
X179812463Y-130972276D01*
X180264767Y-131617827D01*
X180469001Y-130856510D01*
X180642650Y-131841318D01*
X180844166Y-130790358D02*
X181674353Y-131659401D01*
X181500705Y-130674593D02*
X181017815Y-131775166D01*
X182355813Y-130862290D02*
X182471578Y-131518828D01*
X182055183Y-130528470D02*
X181944740Y-131273249D01*
X182554382Y-131165752D01*
X182783424Y-130545122D02*
X182822051Y-130489958D01*
X182907573Y-130426524D01*
X183142051Y-130385179D01*
X183244111Y-130415537D01*
X183299276Y-130454164D01*
X183362709Y-130539686D01*
X183379247Y-130633477D01*
X183357159Y-130782433D01*
X182893639Y-131444408D01*
X183503282Y-131336911D01*
%TO.C,U1*%
X143778523Y-64501904D02*
X143778523Y-63701904D01*
X143969000Y-63701904D01*
X144083285Y-63740000D01*
X144159476Y-63816190D01*
X144197571Y-63892380D01*
X144235666Y-64044761D01*
X144235666Y-64159047D01*
X144197571Y-64311428D01*
X144159476Y-64387619D01*
X144083285Y-64463809D01*
X143969000Y-64501904D01*
X143778523Y-64501904D01*
X144540428Y-63778095D02*
X144578523Y-63740000D01*
X144654714Y-63701904D01*
X144845190Y-63701904D01*
X144921380Y-63740000D01*
X144959476Y-63778095D01*
X144997571Y-63854285D01*
X144997571Y-63930476D01*
X144959476Y-64044761D01*
X144502333Y-64501904D01*
X144997571Y-64501904D01*
X155024333Y-79322857D02*
X154757666Y-79322857D01*
X154757666Y-79741904D02*
X154757666Y-78941904D01*
X155138619Y-78941904D01*
X155367190Y-78941904D02*
X155900523Y-78941904D01*
X155557666Y-79741904D01*
X143759476Y-68820000D02*
X143683285Y-68781904D01*
X143569000Y-68781904D01*
X143454714Y-68820000D01*
X143378523Y-68896190D01*
X143340428Y-68972380D01*
X143302333Y-69124761D01*
X143302333Y-69239047D01*
X143340428Y-69391428D01*
X143378523Y-69467619D01*
X143454714Y-69543809D01*
X143569000Y-69581904D01*
X143645190Y-69581904D01*
X143759476Y-69543809D01*
X143797571Y-69505714D01*
X143797571Y-69239047D01*
X143645190Y-69239047D01*
X144140428Y-69581904D02*
X144140428Y-68781904D01*
X144597571Y-69581904D01*
X144597571Y-68781904D01*
X144978523Y-69581904D02*
X144978523Y-68781904D01*
X145169000Y-68781904D01*
X145283285Y-68820000D01*
X145359476Y-68896190D01*
X145397571Y-68972380D01*
X145435666Y-69124761D01*
X145435666Y-69239047D01*
X145397571Y-69391428D01*
X145359476Y-69467619D01*
X145283285Y-69543809D01*
X145169000Y-69581904D01*
X144978523Y-69581904D01*
X154224333Y-68781904D02*
X154491000Y-69581904D01*
X154757666Y-68781904D01*
X155481476Y-69505714D02*
X155443380Y-69543809D01*
X155329095Y-69581904D01*
X155252904Y-69581904D01*
X155138619Y-69543809D01*
X155062428Y-69467619D01*
X155024333Y-69391428D01*
X154986238Y-69239047D01*
X154986238Y-69124761D01*
X155024333Y-68972380D01*
X155062428Y-68896190D01*
X155138619Y-68820000D01*
X155252904Y-68781904D01*
X155329095Y-68781904D01*
X155443380Y-68820000D01*
X155481476Y-68858095D01*
X156281476Y-69505714D02*
X156243380Y-69543809D01*
X156129095Y-69581904D01*
X156052904Y-69581904D01*
X155938619Y-69543809D01*
X155862428Y-69467619D01*
X155824333Y-69391428D01*
X155786238Y-69239047D01*
X155786238Y-69124761D01*
X155824333Y-68972380D01*
X155862428Y-68896190D01*
X155938619Y-68820000D01*
X156052904Y-68781904D01*
X156129095Y-68781904D01*
X156243380Y-68820000D01*
X156281476Y-68858095D01*
X154967190Y-89482857D02*
X155081476Y-89520952D01*
X155119571Y-89559047D01*
X155157666Y-89635238D01*
X155157666Y-89749523D01*
X155119571Y-89825714D01*
X155081476Y-89863809D01*
X155005285Y-89901904D01*
X154700523Y-89901904D01*
X154700523Y-89101904D01*
X154967190Y-89101904D01*
X155043380Y-89140000D01*
X155081476Y-89178095D01*
X155119571Y-89254285D01*
X155119571Y-89330476D01*
X155081476Y-89406666D01*
X155043380Y-89444761D01*
X154967190Y-89482857D01*
X154700523Y-89482857D01*
X155843380Y-89101904D02*
X155691000Y-89101904D01*
X155614809Y-89140000D01*
X155576714Y-89178095D01*
X155500523Y-89292380D01*
X155462428Y-89444761D01*
X155462428Y-89749523D01*
X155500523Y-89825714D01*
X155538619Y-89863809D01*
X155614809Y-89901904D01*
X155767190Y-89901904D01*
X155843380Y-89863809D01*
X155881476Y-89825714D01*
X155919571Y-89749523D01*
X155919571Y-89559047D01*
X155881476Y-89482857D01*
X155843380Y-89444761D01*
X155767190Y-89406666D01*
X155614809Y-89406666D01*
X155538619Y-89444761D01*
X155500523Y-89482857D01*
X155462428Y-89559047D01*
X144235666Y-79665714D02*
X144197571Y-79703809D01*
X144083285Y-79741904D01*
X144007095Y-79741904D01*
X143892809Y-79703809D01*
X143816619Y-79627619D01*
X143778523Y-79551428D01*
X143740428Y-79399047D01*
X143740428Y-79284761D01*
X143778523Y-79132380D01*
X143816619Y-79056190D01*
X143892809Y-78980000D01*
X144007095Y-78941904D01*
X144083285Y-78941904D01*
X144197571Y-78980000D01*
X144235666Y-79018095D01*
X144921380Y-78941904D02*
X144769000Y-78941904D01*
X144692809Y-78980000D01*
X144654714Y-79018095D01*
X144578523Y-79132380D01*
X144540428Y-79284761D01*
X144540428Y-79589523D01*
X144578523Y-79665714D01*
X144616619Y-79703809D01*
X144692809Y-79741904D01*
X144845190Y-79741904D01*
X144921380Y-79703809D01*
X144959476Y-79665714D01*
X144997571Y-79589523D01*
X144997571Y-79399047D01*
X144959476Y-79322857D01*
X144921380Y-79284761D01*
X144845190Y-79246666D01*
X144692809Y-79246666D01*
X144616619Y-79284761D01*
X144578523Y-79322857D01*
X144540428Y-79399047D01*
X154967190Y-61542857D02*
X155081476Y-61580952D01*
X155119571Y-61619047D01*
X155157666Y-61695238D01*
X155157666Y-61809523D01*
X155119571Y-61885714D01*
X155081476Y-61923809D01*
X155005285Y-61961904D01*
X154700523Y-61961904D01*
X154700523Y-61161904D01*
X154967190Y-61161904D01*
X155043380Y-61200000D01*
X155081476Y-61238095D01*
X155119571Y-61314285D01*
X155119571Y-61390476D01*
X155081476Y-61466666D01*
X155043380Y-61504761D01*
X154967190Y-61542857D01*
X154700523Y-61542857D01*
X155652904Y-61161904D02*
X155729095Y-61161904D01*
X155805285Y-61200000D01*
X155843380Y-61238095D01*
X155881476Y-61314285D01*
X155919571Y-61466666D01*
X155919571Y-61657142D01*
X155881476Y-61809523D01*
X155843380Y-61885714D01*
X155805285Y-61923809D01*
X155729095Y-61961904D01*
X155652904Y-61961904D01*
X155576714Y-61923809D01*
X155538619Y-61885714D01*
X155500523Y-61809523D01*
X155462428Y-61657142D01*
X155462428Y-61466666D01*
X155500523Y-61314285D01*
X155538619Y-61238095D01*
X155576714Y-61200000D01*
X155652904Y-61161904D01*
X143778523Y-74661904D02*
X143778523Y-73861904D01*
X143969000Y-73861904D01*
X144083285Y-73900000D01*
X144159476Y-73976190D01*
X144197571Y-74052380D01*
X144235666Y-74204761D01*
X144235666Y-74319047D01*
X144197571Y-74471428D01*
X144159476Y-74547619D01*
X144083285Y-74623809D01*
X143969000Y-74661904D01*
X143778523Y-74661904D01*
X144730904Y-73861904D02*
X144807095Y-73861904D01*
X144883285Y-73900000D01*
X144921380Y-73938095D01*
X144959476Y-74014285D01*
X144997571Y-74166666D01*
X144997571Y-74357142D01*
X144959476Y-74509523D01*
X144921380Y-74585714D01*
X144883285Y-74623809D01*
X144807095Y-74661904D01*
X144730904Y-74661904D01*
X144654714Y-74623809D01*
X144616619Y-74585714D01*
X144578523Y-74509523D01*
X144540428Y-74357142D01*
X144540428Y-74166666D01*
X144578523Y-74014285D01*
X144616619Y-73938095D01*
X144654714Y-73900000D01*
X144730904Y-73861904D01*
X155024333Y-74242857D02*
X154757666Y-74242857D01*
X154757666Y-74661904D02*
X154757666Y-73861904D01*
X155138619Y-73861904D01*
X155824333Y-73861904D02*
X155443380Y-73861904D01*
X155405285Y-74242857D01*
X155443380Y-74204761D01*
X155519571Y-74166666D01*
X155710047Y-74166666D01*
X155786238Y-74204761D01*
X155824333Y-74242857D01*
X155862428Y-74319047D01*
X155862428Y-74509523D01*
X155824333Y-74585714D01*
X155786238Y-74623809D01*
X155710047Y-74661904D01*
X155519571Y-74661904D01*
X155443380Y-74623809D01*
X155405285Y-74585714D01*
X144045190Y-89482857D02*
X144159476Y-89520952D01*
X144197571Y-89559047D01*
X144235666Y-89635238D01*
X144235666Y-89749523D01*
X144197571Y-89825714D01*
X144159476Y-89863809D01*
X144083285Y-89901904D01*
X143778523Y-89901904D01*
X143778523Y-89101904D01*
X144045190Y-89101904D01*
X144121380Y-89140000D01*
X144159476Y-89178095D01*
X144197571Y-89254285D01*
X144197571Y-89330476D01*
X144159476Y-89406666D01*
X144121380Y-89444761D01*
X144045190Y-89482857D01*
X143778523Y-89482857D01*
X144959476Y-89101904D02*
X144578523Y-89101904D01*
X144540428Y-89482857D01*
X144578523Y-89444761D01*
X144654714Y-89406666D01*
X144845190Y-89406666D01*
X144921380Y-89444761D01*
X144959476Y-89482857D01*
X144997571Y-89559047D01*
X144997571Y-89749523D01*
X144959476Y-89825714D01*
X144921380Y-89863809D01*
X144845190Y-89901904D01*
X144654714Y-89901904D01*
X144578523Y-89863809D01*
X144540428Y-89825714D01*
X154967190Y-81862857D02*
X155081476Y-81900952D01*
X155119571Y-81939047D01*
X155157666Y-82015238D01*
X155157666Y-82129523D01*
X155119571Y-82205714D01*
X155081476Y-82243809D01*
X155005285Y-82281904D01*
X154700523Y-82281904D01*
X154700523Y-81481904D01*
X154967190Y-81481904D01*
X155043380Y-81520000D01*
X155081476Y-81558095D01*
X155119571Y-81634285D01*
X155119571Y-81710476D01*
X155081476Y-81786666D01*
X155043380Y-81824761D01*
X154967190Y-81862857D01*
X154700523Y-81862857D01*
X155919571Y-82281904D02*
X155462428Y-82281904D01*
X155691000Y-82281904D02*
X155691000Y-81481904D01*
X155614809Y-81596190D01*
X155538619Y-81672380D01*
X155462428Y-81710476D01*
X143778523Y-82281904D02*
X143778523Y-81481904D01*
X143969000Y-81481904D01*
X144083285Y-81520000D01*
X144159476Y-81596190D01*
X144197571Y-81672380D01*
X144235666Y-81824761D01*
X144235666Y-81939047D01*
X144197571Y-82091428D01*
X144159476Y-82167619D01*
X144083285Y-82243809D01*
X143969000Y-82281904D01*
X143778523Y-82281904D01*
X144502333Y-81481904D02*
X145035666Y-81481904D01*
X144692809Y-82281904D01*
X154967190Y-84402857D02*
X155081476Y-84440952D01*
X155119571Y-84479047D01*
X155157666Y-84555238D01*
X155157666Y-84669523D01*
X155119571Y-84745714D01*
X155081476Y-84783809D01*
X155005285Y-84821904D01*
X154700523Y-84821904D01*
X154700523Y-84021904D01*
X154967190Y-84021904D01*
X155043380Y-84060000D01*
X155081476Y-84098095D01*
X155119571Y-84174285D01*
X155119571Y-84250476D01*
X155081476Y-84326666D01*
X155043380Y-84364761D01*
X154967190Y-84402857D01*
X154700523Y-84402857D01*
X155424333Y-84021904D02*
X155919571Y-84021904D01*
X155652904Y-84326666D01*
X155767190Y-84326666D01*
X155843380Y-84364761D01*
X155881476Y-84402857D01*
X155919571Y-84479047D01*
X155919571Y-84669523D01*
X155881476Y-84745714D01*
X155843380Y-84783809D01*
X155767190Y-84821904D01*
X155538619Y-84821904D01*
X155462428Y-84783809D01*
X155424333Y-84745714D01*
X144067651Y-61161904D02*
X144524794Y-61161904D01*
X144296223Y-61961904D02*
X144296223Y-61161904D01*
X144715270Y-61161904D02*
X145248604Y-61961904D01*
X145248604Y-61161904D02*
X144715270Y-61961904D01*
X145705747Y-61161904D02*
X145781937Y-61161904D01*
X145858128Y-61200000D01*
X145896223Y-61238095D01*
X145934318Y-61314285D01*
X145972413Y-61466666D01*
X145972413Y-61657142D01*
X145934318Y-61809523D01*
X145896223Y-61885714D01*
X145858128Y-61923809D01*
X145781937Y-61961904D01*
X145705747Y-61961904D01*
X145629556Y-61923809D01*
X145591461Y-61885714D01*
X145553366Y-61809523D01*
X145515270Y-61657142D01*
X145515270Y-61466666D01*
X145553366Y-61314285D01*
X145591461Y-61238095D01*
X145629556Y-61200000D01*
X145705747Y-61161904D01*
X146886699Y-61123809D02*
X146200985Y-62152380D01*
X147153366Y-61961904D02*
X147153366Y-61161904D01*
X147343842Y-61161904D01*
X147458128Y-61200000D01*
X147534318Y-61276190D01*
X147572413Y-61352380D01*
X147610508Y-61504761D01*
X147610508Y-61619047D01*
X147572413Y-61771428D01*
X147534318Y-61847619D01*
X147458128Y-61923809D01*
X147343842Y-61961904D01*
X147153366Y-61961904D01*
X147877175Y-61161904D02*
X148372413Y-61161904D01*
X148105747Y-61466666D01*
X148220032Y-61466666D01*
X148296223Y-61504761D01*
X148334318Y-61542857D01*
X148372413Y-61619047D01*
X148372413Y-61809523D01*
X148334318Y-61885714D01*
X148296223Y-61923809D01*
X148220032Y-61961904D01*
X147991461Y-61961904D01*
X147915270Y-61923809D01*
X147877175Y-61885714D01*
X155024333Y-71702857D02*
X154757666Y-71702857D01*
X154757666Y-72121904D02*
X154757666Y-71321904D01*
X155138619Y-71321904D01*
X155786238Y-71588571D02*
X155786238Y-72121904D01*
X155595761Y-71283809D02*
X155405285Y-71855238D01*
X155900523Y-71855238D01*
X155029786Y-66973809D02*
X155144072Y-67011904D01*
X155334548Y-67011904D01*
X155410739Y-66973809D01*
X155448834Y-66935714D01*
X155486929Y-66859523D01*
X155486929Y-66783333D01*
X155448834Y-66707142D01*
X155410739Y-66669047D01*
X155334548Y-66630952D01*
X155182167Y-66592857D01*
X155105977Y-66554761D01*
X155067881Y-66516666D01*
X155029786Y-66440476D01*
X155029786Y-66364285D01*
X155067881Y-66288095D01*
X155105977Y-66250000D01*
X155182167Y-66211904D01*
X155372643Y-66211904D01*
X155486929Y-66250000D01*
X155715500Y-66211904D02*
X156172643Y-66211904D01*
X155944072Y-67011904D02*
X155944072Y-66211904D01*
X143778523Y-77201904D02*
X143778523Y-76401904D01*
X143969000Y-76401904D01*
X144083285Y-76440000D01*
X144159476Y-76516190D01*
X144197571Y-76592380D01*
X144235666Y-76744761D01*
X144235666Y-76859047D01*
X144197571Y-77011428D01*
X144159476Y-77087619D01*
X144083285Y-77163809D01*
X143969000Y-77201904D01*
X143778523Y-77201904D01*
X144921380Y-76668571D02*
X144921380Y-77201904D01*
X144730904Y-76363809D02*
X144540428Y-76935238D01*
X145035666Y-76935238D01*
X154967190Y-86942857D02*
X155081476Y-86980952D01*
X155119571Y-87019047D01*
X155157666Y-87095238D01*
X155157666Y-87209523D01*
X155119571Y-87285714D01*
X155081476Y-87323809D01*
X155005285Y-87361904D01*
X154700523Y-87361904D01*
X154700523Y-86561904D01*
X154967190Y-86561904D01*
X155043380Y-86600000D01*
X155081476Y-86638095D01*
X155119571Y-86714285D01*
X155119571Y-86790476D01*
X155081476Y-86866666D01*
X155043380Y-86904761D01*
X154967190Y-86942857D01*
X154700523Y-86942857D01*
X155462428Y-86638095D02*
X155500523Y-86600000D01*
X155576714Y-86561904D01*
X155767190Y-86561904D01*
X155843380Y-86600000D01*
X155881476Y-86638095D01*
X155919571Y-86714285D01*
X155919571Y-86790476D01*
X155881476Y-86904761D01*
X155424333Y-87361904D01*
X155919571Y-87361904D01*
X143778523Y-72121904D02*
X143778523Y-71321904D01*
X143969000Y-71321904D01*
X144083285Y-71360000D01*
X144159476Y-71436190D01*
X144197571Y-71512380D01*
X144235666Y-71664761D01*
X144235666Y-71779047D01*
X144197571Y-71931428D01*
X144159476Y-72007619D01*
X144083285Y-72083809D01*
X143969000Y-72121904D01*
X143778523Y-72121904D01*
X144997571Y-72121904D02*
X144540428Y-72121904D01*
X144769000Y-72121904D02*
X144769000Y-71321904D01*
X144692809Y-71436190D01*
X144616619Y-71512380D01*
X144540428Y-71550476D01*
X143759476Y-66280000D02*
X143683285Y-66241904D01*
X143569000Y-66241904D01*
X143454714Y-66280000D01*
X143378523Y-66356190D01*
X143340428Y-66432380D01*
X143302333Y-66584761D01*
X143302333Y-66699047D01*
X143340428Y-66851428D01*
X143378523Y-66927619D01*
X143454714Y-67003809D01*
X143569000Y-67041904D01*
X143645190Y-67041904D01*
X143759476Y-67003809D01*
X143797571Y-66965714D01*
X143797571Y-66699047D01*
X143645190Y-66699047D01*
X144140428Y-67041904D02*
X144140428Y-66241904D01*
X144597571Y-67041904D01*
X144597571Y-66241904D01*
X144978523Y-67041904D02*
X144978523Y-66241904D01*
X145169000Y-66241904D01*
X145283285Y-66280000D01*
X145359476Y-66356190D01*
X145397571Y-66432380D01*
X145435666Y-66584761D01*
X145435666Y-66699047D01*
X145397571Y-66851428D01*
X145359476Y-66927619D01*
X145283285Y-67003809D01*
X145169000Y-67041904D01*
X144978523Y-67041904D01*
X154681476Y-63740000D02*
X154605285Y-63701904D01*
X154491000Y-63701904D01*
X154376714Y-63740000D01*
X154300523Y-63816190D01*
X154262428Y-63892380D01*
X154224333Y-64044761D01*
X154224333Y-64159047D01*
X154262428Y-64311428D01*
X154300523Y-64387619D01*
X154376714Y-64463809D01*
X154491000Y-64501904D01*
X154567190Y-64501904D01*
X154681476Y-64463809D01*
X154719571Y-64425714D01*
X154719571Y-64159047D01*
X154567190Y-64159047D01*
X155062428Y-64501904D02*
X155062428Y-63701904D01*
X155519571Y-64501904D01*
X155519571Y-63701904D01*
X155900523Y-64501904D02*
X155900523Y-63701904D01*
X156091000Y-63701904D01*
X156205285Y-63740000D01*
X156281476Y-63816190D01*
X156319571Y-63892380D01*
X156357666Y-64044761D01*
X156357666Y-64159047D01*
X156319571Y-64311428D01*
X156281476Y-64387619D01*
X156205285Y-64463809D01*
X156091000Y-64501904D01*
X155900523Y-64501904D01*
X144045190Y-86942857D02*
X144159476Y-86980952D01*
X144197571Y-87019047D01*
X144235666Y-87095238D01*
X144235666Y-87209523D01*
X144197571Y-87285714D01*
X144159476Y-87323809D01*
X144083285Y-87361904D01*
X143778523Y-87361904D01*
X143778523Y-86561904D01*
X144045190Y-86561904D01*
X144121380Y-86600000D01*
X144159476Y-86638095D01*
X144197571Y-86714285D01*
X144197571Y-86790476D01*
X144159476Y-86866666D01*
X144121380Y-86904761D01*
X144045190Y-86942857D01*
X143778523Y-86942857D01*
X144921380Y-86828571D02*
X144921380Y-87361904D01*
X144730904Y-86523809D02*
X144540428Y-87095238D01*
X145035666Y-87095238D01*
X155024333Y-76782857D02*
X154757666Y-76782857D01*
X154757666Y-77201904D02*
X154757666Y-76401904D01*
X155138619Y-76401904D01*
X155786238Y-76401904D02*
X155633857Y-76401904D01*
X155557666Y-76440000D01*
X155519571Y-76478095D01*
X155443380Y-76592380D01*
X155405285Y-76744761D01*
X155405285Y-77049523D01*
X155443380Y-77125714D01*
X155481476Y-77163809D01*
X155557666Y-77201904D01*
X155710047Y-77201904D01*
X155786238Y-77163809D01*
X155824333Y-77125714D01*
X155862428Y-77049523D01*
X155862428Y-76859047D01*
X155824333Y-76782857D01*
X155786238Y-76744761D01*
X155710047Y-76706666D01*
X155557666Y-76706666D01*
X155481476Y-76744761D01*
X155443380Y-76782857D01*
X155405285Y-76859047D01*
X143816619Y-84402857D02*
X144083285Y-84402857D01*
X144197571Y-84821904D02*
X143816619Y-84821904D01*
X143816619Y-84021904D01*
X144197571Y-84021904D01*
X144883285Y-84021904D02*
X144730904Y-84021904D01*
X144654714Y-84060000D01*
X144616619Y-84098095D01*
X144540428Y-84212380D01*
X144502333Y-84364761D01*
X144502333Y-84669523D01*
X144540428Y-84745714D01*
X144578523Y-84783809D01*
X144654714Y-84821904D01*
X144807095Y-84821904D01*
X144883285Y-84783809D01*
X144921380Y-84745714D01*
X144959476Y-84669523D01*
X144959476Y-84479047D01*
X144921380Y-84402857D01*
X144883285Y-84364761D01*
X144807095Y-84326666D01*
X144654714Y-84326666D01*
X144578523Y-84364761D01*
X144540428Y-84402857D01*
X144502333Y-84479047D01*
%TO.C,MX40*%
X116373612Y-131335180D02*
X116547260Y-130350372D01*
X116751495Y-131111689D01*
X117203799Y-130466138D01*
X117030150Y-131450946D01*
X117578963Y-130532290D02*
X118061854Y-131632863D01*
X118235502Y-130648055D02*
X117405315Y-131517097D01*
X118974845Y-131116897D02*
X118859079Y-131773435D01*
X118806518Y-130700387D02*
X118448006Y-131362476D01*
X119057649Y-131469973D01*
X119736161Y-130912662D02*
X119829953Y-130929200D01*
X119915475Y-130992633D01*
X119954101Y-131047798D01*
X119984459Y-131149858D01*
X119998279Y-131345709D01*
X119956934Y-131580187D01*
X119876963Y-131759501D01*
X119813529Y-131845023D01*
X119758365Y-131883650D01*
X119656304Y-131914007D01*
X119562513Y-131897470D01*
X119476991Y-131834036D01*
X119438364Y-131778871D01*
X119408007Y-131676811D01*
X119394187Y-131480960D01*
X119435532Y-131246482D01*
X119515503Y-131067168D01*
X119578937Y-130981646D01*
X119634101Y-130943019D01*
X119736161Y-130912662D01*
%TO.C,D37*%
X238207965Y-57339400D02*
X237223158Y-57513049D01*
X237181813Y-57278570D01*
X237203901Y-57129615D01*
X237281155Y-57019286D01*
X237366677Y-56955852D01*
X237545990Y-56875881D01*
X237686677Y-56851074D01*
X237882529Y-56864893D01*
X237984589Y-56895251D01*
X238094918Y-56972504D01*
X238166620Y-57104922D01*
X238207965Y-57339400D01*
X237066047Y-56622032D02*
X236958551Y-56012389D01*
X237391598Y-56274507D01*
X237366791Y-56133820D01*
X237397149Y-56031760D01*
X237435776Y-55976595D01*
X237521298Y-55913162D01*
X237755776Y-55871817D01*
X237857836Y-55902174D01*
X237913001Y-55940801D01*
X237976434Y-56026323D01*
X238026048Y-56307697D01*
X237995690Y-56409757D01*
X237957064Y-56464922D01*
X236900668Y-55684120D02*
X236784903Y-55027581D01*
X237844131Y-55275994D01*
%TO.C,MX25*%
X25083612Y-100745180D02*
X25257260Y-99760372D01*
X25461495Y-100521689D01*
X25913799Y-99876138D01*
X25740150Y-100860946D01*
X26288963Y-99942290D02*
X26771854Y-101042863D01*
X26945502Y-100058055D02*
X26115315Y-100927097D01*
X27257233Y-100209729D02*
X27312398Y-100171102D01*
X27414458Y-100140745D01*
X27648936Y-100182089D01*
X27734458Y-100245523D01*
X27773085Y-100300688D01*
X27803443Y-100402748D01*
X27786905Y-100496539D01*
X27715202Y-100628957D01*
X27053227Y-101092477D01*
X27662870Y-101199973D01*
X28727535Y-100372276D02*
X28258579Y-100289586D01*
X28128994Y-100750273D01*
X28184158Y-100711646D01*
X28286218Y-100681289D01*
X28520697Y-100722634D01*
X28606219Y-100786067D01*
X28644845Y-100841232D01*
X28675203Y-100943292D01*
X28633858Y-101177770D01*
X28570425Y-101263292D01*
X28515260Y-101301919D01*
X28413200Y-101332276D01*
X28178722Y-101290932D01*
X28093200Y-101227498D01*
X28054573Y-101172334D01*
%TO.C,D17*%
X110660842Y-63354645D02*
X109676035Y-63180996D01*
X109717379Y-62946518D01*
X109789082Y-62814101D01*
X109899411Y-62736847D01*
X110001471Y-62706490D01*
X110197323Y-62692670D01*
X110338009Y-62717477D01*
X110517323Y-62797448D01*
X110602845Y-62860882D01*
X110680098Y-62971211D01*
X110702187Y-63120167D01*
X110660842Y-63354645D01*
X110925449Y-61853985D02*
X110826221Y-62416732D01*
X110875835Y-62135359D02*
X109891027Y-61961711D01*
X110015176Y-62080309D01*
X110092430Y-62190638D01*
X110122787Y-62292698D01*
X109998524Y-61352068D02*
X110114289Y-60695529D01*
X111024677Y-61291238D01*
%TO.C,D31*%
X131762442Y-123152528D02*
X130777635Y-122978879D01*
X130818979Y-122744401D01*
X130890682Y-122611984D01*
X131001011Y-122534730D01*
X131103071Y-122504373D01*
X131298923Y-122490553D01*
X131439609Y-122515360D01*
X131618923Y-122595331D01*
X131704445Y-122658765D01*
X131781698Y-122769094D01*
X131803787Y-122918050D01*
X131762442Y-123152528D01*
X130934745Y-122087863D02*
X131042241Y-121478220D01*
X131359523Y-121872641D01*
X131384330Y-121731954D01*
X131447764Y-121646432D01*
X131502928Y-121607805D01*
X131604989Y-121577448D01*
X131839467Y-121618792D01*
X131924989Y-121682226D01*
X131963615Y-121737390D01*
X131993973Y-121839451D01*
X131944359Y-122120824D01*
X131880926Y-122206347D01*
X131825761Y-122244973D01*
X132192428Y-120713956D02*
X132093201Y-121276703D01*
X132142814Y-120995330D02*
X131158007Y-120821682D01*
X131282156Y-120940280D01*
X131359409Y-121050609D01*
X131389767Y-121152669D01*
%TO.C,MX9*%
X207195067Y-64344394D02*
X207021419Y-63359586D01*
X207473723Y-64005137D01*
X207677958Y-63243821D01*
X207851606Y-64228628D01*
X208053122Y-63177669D02*
X208883309Y-64046711D01*
X208709661Y-63061903D02*
X208226771Y-64162477D01*
X209305370Y-63972290D02*
X209492952Y-63939215D01*
X209578474Y-63875781D01*
X209617101Y-63820617D01*
X209686085Y-63663392D01*
X209699905Y-63467540D01*
X209633753Y-63092376D01*
X209570320Y-63006853D01*
X209515155Y-62968227D01*
X209413095Y-62937869D01*
X209225513Y-62970945D01*
X209139990Y-63034378D01*
X209101364Y-63089543D01*
X209071006Y-63191603D01*
X209112351Y-63426081D01*
X209175784Y-63511603D01*
X209230949Y-63550230D01*
X209333009Y-63580588D01*
X209520592Y-63547512D01*
X209606114Y-63484078D01*
X209644740Y-63428914D01*
X209675098Y-63326854D01*
%TO.C,MX4*%
X90089024Y-63849627D02*
X90262672Y-62864819D01*
X90466907Y-63626136D01*
X90919211Y-62980585D01*
X90745562Y-63965392D01*
X91294376Y-63046736D02*
X91777266Y-64147309D01*
X91950914Y-63162502D02*
X91120727Y-64031544D01*
X92690257Y-63631343D02*
X92574491Y-64287882D01*
X92521930Y-63214834D02*
X92163418Y-63876923D01*
X92773061Y-63984419D01*
%TO.C,D35*%
X200007965Y-61079400D02*
X199023158Y-61253049D01*
X198981813Y-61018570D01*
X199003901Y-60869615D01*
X199081155Y-60759286D01*
X199166677Y-60695852D01*
X199345990Y-60615881D01*
X199486677Y-60591074D01*
X199682529Y-60604893D01*
X199784589Y-60635251D01*
X199894918Y-60712504D01*
X199966620Y-60844922D01*
X200007965Y-61079400D01*
X198866047Y-60362032D02*
X198758551Y-59752389D01*
X199191598Y-60014507D01*
X199166791Y-59873820D01*
X199197149Y-59771760D01*
X199235776Y-59716595D01*
X199321298Y-59653162D01*
X199555776Y-59611817D01*
X199657836Y-59642174D01*
X199713001Y-59680801D01*
X199776434Y-59766323D01*
X199826048Y-60047697D01*
X199795690Y-60149757D01*
X199757064Y-60204922D01*
X198601441Y-58861373D02*
X198684130Y-59330329D01*
X199161355Y-59294535D01*
X199106191Y-59255908D01*
X199042757Y-59170386D01*
X199001412Y-58935908D01*
X199031770Y-58833848D01*
X199070397Y-58778683D01*
X199155919Y-58715249D01*
X199390397Y-58673905D01*
X199492457Y-58704262D01*
X199547622Y-58742889D01*
X199611055Y-58828411D01*
X199652400Y-59062889D01*
X199622042Y-59164949D01*
X199583416Y-59220114D01*
%TO.C,MX20*%
X191676111Y-88937083D02*
X191502463Y-87952276D01*
X191954767Y-88597827D01*
X192159001Y-87836510D01*
X192332650Y-88821318D01*
X192534166Y-87770358D02*
X193364353Y-88639401D01*
X193190705Y-87654593D02*
X192707815Y-88755166D01*
X193535512Y-87690501D02*
X193574139Y-87635337D01*
X193659661Y-87571903D01*
X193894139Y-87530559D01*
X193996199Y-87560916D01*
X194051364Y-87599543D01*
X194114797Y-87685065D01*
X194131335Y-87778856D01*
X194109246Y-87927812D01*
X193645727Y-88589787D01*
X194255370Y-88482290D01*
X194691364Y-87389986D02*
X194785155Y-87373448D01*
X194887216Y-87403806D01*
X194942380Y-87442433D01*
X195005814Y-87527955D01*
X195085785Y-87707268D01*
X195127130Y-87941746D01*
X195113310Y-88137598D01*
X195082953Y-88239658D01*
X195044326Y-88294823D01*
X194958804Y-88358256D01*
X194865012Y-88374794D01*
X194762952Y-88344436D01*
X194707788Y-88305810D01*
X194644354Y-88220287D01*
X194564383Y-88040974D01*
X194523038Y-87806496D01*
X194536858Y-87610645D01*
X194567215Y-87508584D01*
X194605842Y-87453420D01*
X194691364Y-87389986D01*
%TO.C,D20*%
X190507965Y-63809400D02*
X189523158Y-63983049D01*
X189481813Y-63748570D01*
X189503901Y-63599615D01*
X189581155Y-63489286D01*
X189666677Y-63425852D01*
X189845990Y-63345881D01*
X189986677Y-63321074D01*
X190182529Y-63334893D01*
X190284589Y-63365251D01*
X190394918Y-63442504D01*
X190466620Y-63574922D01*
X190507965Y-63809400D01*
X189451570Y-63028598D02*
X189396405Y-62989972D01*
X189332971Y-62904450D01*
X189291627Y-62669972D01*
X189321984Y-62567911D01*
X189360611Y-62512747D01*
X189446133Y-62449313D01*
X189539924Y-62432775D01*
X189688880Y-62454864D01*
X190350855Y-62918384D01*
X190243359Y-62308741D01*
X189151054Y-61872746D02*
X189134516Y-61778955D01*
X189164874Y-61676895D01*
X189203501Y-61621730D01*
X189289023Y-61558297D01*
X189468336Y-61478325D01*
X189702814Y-61436980D01*
X189898666Y-61450800D01*
X190000726Y-61481158D01*
X190055891Y-61519785D01*
X190119324Y-61605307D01*
X190135862Y-61699098D01*
X190105504Y-61801158D01*
X190066878Y-61856323D01*
X189981355Y-61919756D01*
X189802042Y-61999728D01*
X189567564Y-62041073D01*
X189371713Y-62027253D01*
X189269652Y-61996895D01*
X189214488Y-61958268D01*
X189151054Y-61872746D01*
%TO.C,MX24*%
X268026832Y-82680973D02*
X267853184Y-81696166D01*
X268305488Y-82341717D01*
X268509722Y-81580400D01*
X268683371Y-82565208D01*
X268884887Y-81514248D02*
X269715074Y-82383291D01*
X269541426Y-81398483D02*
X269058536Y-82499056D01*
X269886233Y-81434391D02*
X269924860Y-81379227D01*
X270010382Y-81315793D01*
X270244860Y-81274449D01*
X270346920Y-81304806D01*
X270402085Y-81343433D01*
X270465518Y-81428955D01*
X270482056Y-81522746D01*
X270459967Y-81671702D01*
X269996448Y-82333677D01*
X270606091Y-82226180D01*
X271334446Y-81420801D02*
X271450211Y-82077339D01*
X271033816Y-81086981D02*
X270923373Y-81831760D01*
X271533016Y-81724263D01*
%TO.C,MX10*%
X225906111Y-63487083D02*
X225732463Y-62502276D01*
X226184767Y-63147827D01*
X226389001Y-62386510D01*
X226562650Y-63371318D01*
X226764166Y-62320358D02*
X227594353Y-63189401D01*
X227420705Y-62204593D02*
X226937815Y-63305166D01*
X228485370Y-63032290D02*
X227922622Y-63131518D01*
X228203996Y-63081904D02*
X228030348Y-62097096D01*
X227961363Y-62254321D01*
X227884110Y-62364650D01*
X227798588Y-62428084D01*
X228921364Y-61939986D02*
X229015155Y-61923448D01*
X229117216Y-61953806D01*
X229172380Y-61992433D01*
X229235814Y-62077955D01*
X229315785Y-62257268D01*
X229357130Y-62491746D01*
X229343310Y-62687598D01*
X229312953Y-62789658D01*
X229274326Y-62844823D01*
X229188804Y-62908256D01*
X229095012Y-62924794D01*
X228992952Y-62894436D01*
X228937788Y-62855810D01*
X228874354Y-62770287D01*
X228794383Y-62590974D01*
X228753038Y-62356496D01*
X228766858Y-62160645D01*
X228797215Y-62058584D01*
X228835842Y-62003420D01*
X228921364Y-61939986D01*
%TO.C,MX17*%
X104640068Y-88206937D02*
X104813716Y-87222129D01*
X105017951Y-87983446D01*
X105470255Y-87337895D01*
X105296606Y-88322703D01*
X105845419Y-87404047D02*
X106328310Y-88504620D01*
X106501958Y-87519812D02*
X105671771Y-88388854D01*
X107219326Y-88661730D02*
X106656579Y-88562503D01*
X106937953Y-88612116D02*
X107111601Y-87627309D01*
X106993003Y-87751457D01*
X106882674Y-87828711D01*
X106780613Y-87859068D01*
X107721244Y-87734805D02*
X108377782Y-87850570D01*
X107782074Y-88760958D01*
%TO.C,MX37*%
X252116111Y-102427083D02*
X251942463Y-101442276D01*
X252394767Y-102087827D01*
X252599001Y-101326510D01*
X252772650Y-102311318D01*
X252974166Y-101260358D02*
X253804353Y-102129401D01*
X253630705Y-101144593D02*
X253147815Y-102245166D01*
X253912078Y-101094979D02*
X254521721Y-100987483D01*
X254259604Y-101420530D01*
X254400291Y-101395723D01*
X254502351Y-101426081D01*
X254557515Y-101464708D01*
X254620949Y-101550230D01*
X254662294Y-101784708D01*
X254631936Y-101886768D01*
X254593309Y-101941933D01*
X254507787Y-102005366D01*
X254226413Y-102054980D01*
X254124353Y-102024622D01*
X254069189Y-101985996D01*
X254849991Y-100929600D02*
X255506529Y-100813835D01*
X255258117Y-101873063D01*
%TO.C,MX38*%
X271306832Y-101500973D02*
X271133184Y-100516166D01*
X271585488Y-101161717D01*
X271789722Y-100400400D01*
X271963371Y-101385208D01*
X272164887Y-100334248D02*
X272995074Y-101203291D01*
X272821426Y-100218483D02*
X272338536Y-101319056D01*
X273102799Y-100168869D02*
X273712442Y-100061373D01*
X273450325Y-100494420D01*
X273591012Y-100469613D01*
X273693072Y-100499971D01*
X273748236Y-100538598D01*
X273811670Y-100624120D01*
X273853015Y-100858598D01*
X273822657Y-100960658D01*
X273784030Y-101015823D01*
X273698508Y-101079256D01*
X273417134Y-101128870D01*
X273315074Y-101098512D01*
X273259910Y-101059886D01*
X274349610Y-100384206D02*
X274247550Y-100353848D01*
X274192386Y-100315221D01*
X274128952Y-100229699D01*
X274120683Y-100182803D01*
X274151041Y-100080743D01*
X274189667Y-100025579D01*
X274275190Y-99962145D01*
X274462772Y-99929069D01*
X274564832Y-99959427D01*
X274619997Y-99998054D01*
X274683430Y-100083576D01*
X274691699Y-100130472D01*
X274661342Y-100232532D01*
X274622715Y-100287696D01*
X274537193Y-100351130D01*
X274349610Y-100384206D01*
X274264088Y-100447639D01*
X274225461Y-100502804D01*
X274195104Y-100604864D01*
X274228180Y-100792446D01*
X274291613Y-100877969D01*
X274346778Y-100916595D01*
X274448838Y-100946953D01*
X274636420Y-100913877D01*
X274721943Y-100850444D01*
X274760569Y-100795279D01*
X274790927Y-100693219D01*
X274757851Y-100505636D01*
X274694417Y-100420114D01*
X274639253Y-100381487D01*
X274537193Y-100351130D01*
%TO.C,MX36*%
X232536111Y-101027084D02*
X232362463Y-100042277D01*
X232814767Y-100687828D01*
X233019001Y-99926511D01*
X233192650Y-100911319D01*
X233394166Y-99860359D02*
X234224353Y-100729402D01*
X234050705Y-99744594D02*
X233567815Y-100845167D01*
X234332078Y-99694980D02*
X234941721Y-99587484D01*
X234679604Y-100020531D01*
X234820291Y-99995724D01*
X234922351Y-100026082D01*
X234977515Y-100064709D01*
X235040949Y-100150231D01*
X235082294Y-100384709D01*
X235051936Y-100486769D01*
X235013309Y-100541934D01*
X234927787Y-100605367D01*
X234646413Y-100654981D01*
X234544353Y-100624623D01*
X234489189Y-100585997D01*
X235785842Y-99438642D02*
X235598260Y-99471718D01*
X235512738Y-99535152D01*
X235474111Y-99590316D01*
X235405127Y-99747541D01*
X235391307Y-99943392D01*
X235457459Y-100318557D01*
X235520892Y-100404080D01*
X235576057Y-100442706D01*
X235678117Y-100473064D01*
X235865699Y-100439988D01*
X235951222Y-100376555D01*
X235989848Y-100321390D01*
X236020206Y-100219330D01*
X235978861Y-99984852D01*
X235915428Y-99899330D01*
X235860263Y-99860703D01*
X235758203Y-99830345D01*
X235570620Y-99863421D01*
X235485098Y-99926855D01*
X235446471Y-99982019D01*
X235416114Y-100084079D01*
%TO.C,D27*%
X82760842Y-57074645D02*
X81776035Y-56900996D01*
X81817379Y-56666518D01*
X81889082Y-56534101D01*
X81999411Y-56456847D01*
X82101471Y-56426490D01*
X82297323Y-56412670D01*
X82438009Y-56437477D01*
X82617323Y-56517448D01*
X82702845Y-56580882D01*
X82780098Y-56691211D01*
X82802187Y-56840167D01*
X82760842Y-57074645D01*
X82035205Y-55979622D02*
X81996578Y-55924458D01*
X81966221Y-55822397D01*
X82007565Y-55587919D01*
X82070999Y-55502397D01*
X82126164Y-55463771D01*
X82228224Y-55433413D01*
X82322015Y-55449951D01*
X82454433Y-55521653D01*
X82917953Y-56183628D01*
X83025449Y-55573985D01*
X82098524Y-55072068D02*
X82214289Y-54415529D01*
X83124677Y-55011238D01*
%TO.C,D11*%
X251627966Y-57089399D02*
X250643159Y-57263048D01*
X250601814Y-57028569D01*
X250623902Y-56879614D01*
X250701156Y-56769285D01*
X250786678Y-56705851D01*
X250965991Y-56625880D01*
X251106678Y-56601073D01*
X251302530Y-56614892D01*
X251404590Y-56645250D01*
X251514919Y-56722503D01*
X251586621Y-56854921D01*
X251627966Y-57089399D01*
X251363360Y-55588740D02*
X251462587Y-56151487D01*
X251412973Y-55870114D02*
X250428166Y-56043762D01*
X250585390Y-56112746D01*
X250695719Y-56189999D01*
X250759153Y-56275522D01*
X251197980Y-54650828D02*
X251297208Y-55213575D01*
X251247594Y-54932201D02*
X250262786Y-55105850D01*
X250420011Y-55174834D01*
X250530340Y-55252087D01*
X250593774Y-55337609D01*
%TO.C,D12*%
X270966366Y-57497282D02*
X269981559Y-57670931D01*
X269940214Y-57436452D01*
X269962302Y-57287497D01*
X270039556Y-57177168D01*
X270125078Y-57113734D01*
X270304391Y-57033763D01*
X270445078Y-57008956D01*
X270640930Y-57022775D01*
X270742990Y-57053133D01*
X270853319Y-57130386D01*
X270925021Y-57262804D01*
X270966366Y-57497282D01*
X270701760Y-55996623D02*
X270800987Y-56559370D01*
X270751373Y-56277997D02*
X269766566Y-56451645D01*
X269923790Y-56520629D01*
X270034119Y-56597882D01*
X270097553Y-56683405D01*
X269744591Y-55778568D02*
X269689427Y-55739942D01*
X269625993Y-55654419D01*
X269584648Y-55419941D01*
X269615006Y-55317881D01*
X269653633Y-55262717D01*
X269739155Y-55199283D01*
X269832946Y-55182745D01*
X269981902Y-55204834D01*
X270643877Y-55668354D01*
X270536380Y-55058711D01*
%TO.C,D36*%
X218707967Y-57459401D02*
X217723160Y-57633050D01*
X217681815Y-57398571D01*
X217703903Y-57249616D01*
X217781157Y-57139287D01*
X217866679Y-57075853D01*
X218045992Y-56995882D01*
X218186679Y-56971075D01*
X218382531Y-56984894D01*
X218484591Y-57015252D01*
X218594920Y-57092505D01*
X218666622Y-57224923D01*
X218707967Y-57459401D01*
X217566049Y-56742033D02*
X217458553Y-56132390D01*
X217891600Y-56394508D01*
X217866793Y-56253821D01*
X217897151Y-56151761D01*
X217935778Y-56096596D01*
X218021300Y-56033163D01*
X218255778Y-55991818D01*
X218357838Y-56022175D01*
X218413003Y-56060802D01*
X218476436Y-56146324D01*
X218526050Y-56427698D01*
X218495692Y-56529758D01*
X218457066Y-56584923D01*
X217309711Y-55288269D02*
X217342787Y-55475852D01*
X217406221Y-55561374D01*
X217461385Y-55600001D01*
X217618610Y-55668985D01*
X217814462Y-55682805D01*
X218189626Y-55616653D01*
X218275149Y-55553219D01*
X218313775Y-55498055D01*
X218344133Y-55395995D01*
X218311057Y-55208412D01*
X218247624Y-55122890D01*
X218192459Y-55084263D01*
X218090399Y-55053906D01*
X217855921Y-55095250D01*
X217770399Y-55158684D01*
X217731772Y-55213849D01*
X217701414Y-55315909D01*
X217734490Y-55503491D01*
X217797924Y-55589013D01*
X217853088Y-55627640D01*
X217955148Y-55657998D01*
%TO.C,MX26*%
X44253612Y-101725180D02*
X44427260Y-100740372D01*
X44631495Y-101501689D01*
X45083799Y-100856138D01*
X44910150Y-101840946D01*
X45458963Y-100922290D02*
X45941854Y-102022863D01*
X46115502Y-101038055D02*
X45285315Y-101907097D01*
X46427233Y-101189729D02*
X46482398Y-101151102D01*
X46584458Y-101120745D01*
X46818936Y-101162089D01*
X46904458Y-101225523D01*
X46943085Y-101280688D01*
X46973443Y-101382748D01*
X46956905Y-101476539D01*
X46885202Y-101608957D01*
X46223227Y-102072477D01*
X46832870Y-102179973D01*
X47850639Y-101344007D02*
X47663057Y-101310931D01*
X47560997Y-101341288D01*
X47505832Y-101379915D01*
X47387234Y-101504064D01*
X47307263Y-101683377D01*
X47241111Y-102058542D01*
X47271469Y-102160602D01*
X47310095Y-102215767D01*
X47395618Y-102279201D01*
X47583200Y-102312276D01*
X47685260Y-102281919D01*
X47740425Y-102243292D01*
X47803858Y-102157770D01*
X47845203Y-101923292D01*
X47814845Y-101821232D01*
X47776219Y-101766067D01*
X47690697Y-101702634D01*
X47503114Y-101669558D01*
X47401054Y-101699915D01*
X47345889Y-101738542D01*
X47282456Y-101824064D01*
%TO.C,MX8*%
X188835067Y-70084394D02*
X188661419Y-69099586D01*
X189113723Y-69745137D01*
X189317958Y-68983821D01*
X189491606Y-69968628D01*
X189693122Y-68917669D02*
X190523309Y-69786711D01*
X190349661Y-68801903D02*
X189866771Y-69902477D01*
X190939933Y-69133005D02*
X190837873Y-69102648D01*
X190782709Y-69064021D01*
X190719275Y-68978499D01*
X190711006Y-68931603D01*
X190741364Y-68829543D01*
X190779990Y-68774378D01*
X190865513Y-68710945D01*
X191053095Y-68677869D01*
X191155155Y-68708227D01*
X191210320Y-68746853D01*
X191273753Y-68832376D01*
X191282022Y-68879271D01*
X191251665Y-68981331D01*
X191213038Y-69036496D01*
X191127516Y-69099929D01*
X190939933Y-69133005D01*
X190854411Y-69196439D01*
X190815784Y-69251603D01*
X190785427Y-69353664D01*
X190818503Y-69541246D01*
X190881936Y-69626768D01*
X190937101Y-69665395D01*
X191039161Y-69695753D01*
X191226743Y-69662677D01*
X191312265Y-69599243D01*
X191350892Y-69544079D01*
X191381250Y-69442018D01*
X191348174Y-69254436D01*
X191284740Y-69168914D01*
X191229576Y-69130287D01*
X191127516Y-69099929D01*
%TO.C,D9*%
X212485276Y-57260443D02*
X211500468Y-57434091D01*
X211459123Y-57199613D01*
X211481212Y-57050658D01*
X211558465Y-56940329D01*
X211643987Y-56876895D01*
X211823301Y-56796924D01*
X211963988Y-56772117D01*
X212159839Y-56785936D01*
X212261899Y-56816294D01*
X212372228Y-56893547D01*
X212443931Y-57025965D01*
X212485276Y-57260443D01*
X212303359Y-56228740D02*
X212270283Y-56041157D01*
X212206849Y-55955635D01*
X212151685Y-55917009D01*
X211994460Y-55848024D01*
X211798608Y-55834204D01*
X211423444Y-55900356D01*
X211337921Y-55963790D01*
X211299295Y-56018954D01*
X211268937Y-56121014D01*
X211302013Y-56308597D01*
X211365446Y-56394119D01*
X211420611Y-56432746D01*
X211522671Y-56463103D01*
X211757149Y-56421759D01*
X211842671Y-56358325D01*
X211881298Y-56303161D01*
X211911656Y-56201100D01*
X211878580Y-56013518D01*
X211815146Y-55927996D01*
X211759982Y-55889369D01*
X211657922Y-55859011D01*
%TO.C,D7*%
X176255276Y-67100443D02*
X175270468Y-67274091D01*
X175229123Y-67039613D01*
X175251212Y-66890658D01*
X175328465Y-66780329D01*
X175413987Y-66716895D01*
X175593301Y-66636924D01*
X175733988Y-66612117D01*
X175929839Y-66625936D01*
X176031899Y-66656294D01*
X176142228Y-66733547D01*
X176213931Y-66865965D01*
X176255276Y-67100443D01*
X175113358Y-66383075D02*
X174997592Y-65726536D01*
X176056821Y-65974949D01*
%TO.C,D21*%
X205987965Y-59129400D02*
X205003158Y-59303049D01*
X204961813Y-59068570D01*
X204983901Y-58919615D01*
X205061155Y-58809286D01*
X205146677Y-58745852D01*
X205325990Y-58665881D01*
X205466677Y-58641074D01*
X205662529Y-58654893D01*
X205764589Y-58685251D01*
X205874918Y-58762504D01*
X205946620Y-58894922D01*
X205987965Y-59129400D01*
X204931570Y-58348598D02*
X204876405Y-58309972D01*
X204812971Y-58224450D01*
X204771627Y-57989972D01*
X204801984Y-57887911D01*
X204840611Y-57832747D01*
X204926133Y-57769313D01*
X205019924Y-57752775D01*
X205168880Y-57774864D01*
X205830855Y-58238384D01*
X205723359Y-57628741D01*
X205557979Y-56690829D02*
X205657207Y-57253576D01*
X205607593Y-56972202D02*
X204622785Y-57145851D01*
X204780010Y-57214835D01*
X204890339Y-57292088D01*
X204953773Y-57377610D01*
%TO.C,D4*%
X88723532Y-57405689D02*
X87738724Y-57232040D01*
X87780069Y-56997562D01*
X87851771Y-56865144D01*
X87962101Y-56787891D01*
X88064161Y-56757533D01*
X88260012Y-56743714D01*
X88400699Y-56768521D01*
X88580012Y-56848492D01*
X88665535Y-56911926D01*
X88742788Y-57022255D01*
X88764877Y-57171211D01*
X88723532Y-57405689D01*
X88315062Y-55883055D02*
X88971601Y-55998820D01*
X87898553Y-56051381D02*
X88560642Y-56409894D01*
X88668138Y-55800251D01*
%TO.C,MX7*%
X170435067Y-75634394D02*
X170261419Y-74649586D01*
X170713723Y-75295137D01*
X170917958Y-74533821D01*
X171091606Y-75518628D01*
X171293122Y-74467669D02*
X172123309Y-75336711D01*
X171949661Y-74351903D02*
X171466771Y-75452477D01*
X172231035Y-74302290D02*
X172887573Y-74186524D01*
X172639161Y-75245753D01*
%TO.C,MX5*%
X108409024Y-69499627D02*
X108582672Y-68514819D01*
X108786907Y-69276136D01*
X109239211Y-68630585D01*
X109065562Y-69615392D01*
X109614376Y-68696736D02*
X110097266Y-69797309D01*
X110270914Y-68812502D02*
X109440727Y-69681544D01*
X111115035Y-68961343D02*
X110646079Y-68878653D01*
X110516494Y-69339340D01*
X110571658Y-69300714D01*
X110673718Y-69270356D01*
X110908196Y-69311701D01*
X110993719Y-69375134D01*
X111032345Y-69430299D01*
X111062703Y-69532359D01*
X111021358Y-69766837D01*
X110957925Y-69852359D01*
X110902760Y-69890986D01*
X110800700Y-69921344D01*
X110566222Y-69879999D01*
X110480700Y-69816565D01*
X110442073Y-69761401D01*
%TO.C,D1*%
X30335132Y-56663572D02*
X29350324Y-56489923D01*
X29391669Y-56255445D01*
X29463371Y-56123027D01*
X29573701Y-56045774D01*
X29675761Y-56015416D01*
X29871612Y-56001597D01*
X30012299Y-56026404D01*
X30191612Y-56106375D01*
X30277135Y-56169809D01*
X30354388Y-56280138D01*
X30376477Y-56429094D01*
X30335132Y-56663572D01*
X30599739Y-55162912D02*
X30500511Y-55725659D01*
X30550125Y-55444286D02*
X29565317Y-55270638D01*
X29689466Y-55389236D01*
X29766719Y-55499565D01*
X29797077Y-55601625D01*
%TO.C,MX35*%
X213326111Y-101937084D02*
X213152463Y-100952277D01*
X213604767Y-101597828D01*
X213809001Y-100836511D01*
X213982650Y-101821319D01*
X214184166Y-100770359D02*
X215014353Y-101639402D01*
X214840705Y-100654594D02*
X214357815Y-101755167D01*
X215122078Y-100604980D02*
X215731721Y-100497484D01*
X215469604Y-100930531D01*
X215610291Y-100905724D01*
X215712351Y-100936082D01*
X215767515Y-100974709D01*
X215830949Y-101060231D01*
X215872294Y-101294709D01*
X215841936Y-101396769D01*
X215803309Y-101451934D01*
X215717787Y-101515367D01*
X215436413Y-101564981D01*
X215334353Y-101534623D01*
X215279189Y-101495997D01*
X216622738Y-100340373D02*
X216153782Y-100423063D01*
X216189576Y-100900288D01*
X216228202Y-100845124D01*
X216313725Y-100781690D01*
X216548203Y-100740345D01*
X216650263Y-100770703D01*
X216705428Y-100809330D01*
X216768861Y-100894852D01*
X216810206Y-101129330D01*
X216779848Y-101231390D01*
X216741222Y-101286555D01*
X216655699Y-101349988D01*
X216421221Y-101391333D01*
X216319161Y-101360975D01*
X216263996Y-101322349D01*
%TO.C,D38*%
X257877966Y-57609400D02*
X256893159Y-57783049D01*
X256851814Y-57548570D01*
X256873902Y-57399615D01*
X256951156Y-57289286D01*
X257036678Y-57225852D01*
X257215991Y-57145881D01*
X257356678Y-57121074D01*
X257552530Y-57134893D01*
X257654590Y-57165251D01*
X257764919Y-57242504D01*
X257836621Y-57374922D01*
X257877966Y-57609400D01*
X256736048Y-56892032D02*
X256628552Y-56282389D01*
X257061599Y-56544507D01*
X257036792Y-56403820D01*
X257067150Y-56301760D01*
X257105777Y-56246595D01*
X257191299Y-56183162D01*
X257425777Y-56141817D01*
X257527837Y-56172174D01*
X257583002Y-56210801D01*
X257646435Y-56296323D01*
X257696049Y-56577697D01*
X257665691Y-56679757D01*
X257627065Y-56734922D01*
X256951385Y-55645221D02*
X256921027Y-55747281D01*
X256882400Y-55802446D01*
X256796878Y-55865879D01*
X256749983Y-55874148D01*
X256647922Y-55843791D01*
X256592758Y-55805164D01*
X256529324Y-55719642D01*
X256496248Y-55532059D01*
X256526606Y-55429999D01*
X256565233Y-55374835D01*
X256650755Y-55311401D01*
X256697651Y-55303132D01*
X256799711Y-55333490D01*
X256854875Y-55372116D01*
X256918309Y-55457639D01*
X256951385Y-55645221D01*
X257014818Y-55730743D01*
X257069983Y-55769370D01*
X257172043Y-55799728D01*
X257359625Y-55766652D01*
X257445148Y-55703218D01*
X257483774Y-55648054D01*
X257514132Y-55545994D01*
X257481056Y-55358411D01*
X257417623Y-55272889D01*
X257362458Y-55234262D01*
X257260398Y-55203905D01*
X257072815Y-55236980D01*
X256987293Y-55300414D01*
X256948667Y-55355579D01*
X256918309Y-55457639D01*
%TO.C,D39*%
X119760842Y-66164645D02*
X118776035Y-65990996D01*
X118817379Y-65756518D01*
X118889082Y-65624101D01*
X118999411Y-65546847D01*
X119101471Y-65516490D01*
X119297323Y-65502670D01*
X119438009Y-65527477D01*
X119617323Y-65607448D01*
X119702845Y-65670882D01*
X119780098Y-65781211D01*
X119802187Y-65930167D01*
X119760842Y-66164645D01*
X118933145Y-65099980D02*
X119040641Y-64490337D01*
X119357923Y-64884758D01*
X119382730Y-64744071D01*
X119446164Y-64658549D01*
X119501328Y-64619922D01*
X119603389Y-64589565D01*
X119837867Y-64630909D01*
X119923389Y-64694343D01*
X119962015Y-64749507D01*
X119992373Y-64851568D01*
X119942759Y-65132941D01*
X119879326Y-65218464D01*
X119824161Y-65257090D01*
X120108139Y-64195029D02*
X120141214Y-64007447D01*
X120110857Y-63905387D01*
X120072230Y-63850222D01*
X119948081Y-63731624D01*
X119768768Y-63651652D01*
X119393603Y-63585501D01*
X119291543Y-63615858D01*
X119236378Y-63654485D01*
X119172945Y-63740007D01*
X119139869Y-63927590D01*
X119170226Y-64029650D01*
X119208853Y-64084814D01*
X119294375Y-64148248D01*
X119528853Y-64189593D01*
X119630914Y-64159235D01*
X119686078Y-64120608D01*
X119749512Y-64035086D01*
X119782588Y-63847504D01*
X119752230Y-63745444D01*
X119713603Y-63690279D01*
X119628081Y-63626846D01*
%TO.C,MX1*%
X32192568Y-63317870D02*
X32366216Y-62333062D01*
X32570451Y-63094379D01*
X33022755Y-62448828D01*
X32849106Y-63433635D01*
X33397920Y-62514979D02*
X33880810Y-63615552D01*
X34054458Y-62630745D02*
X33224271Y-63499787D01*
X34771826Y-63772663D02*
X34209079Y-63673435D01*
X34490453Y-63723049D02*
X34664101Y-62738241D01*
X34545503Y-62862390D01*
X34435174Y-62939643D01*
X34333114Y-62970001D01*
%TO.C,MX14*%
X47593612Y-82955180D02*
X47767260Y-81970372D01*
X47971495Y-82731689D01*
X48423799Y-82086138D01*
X48250150Y-83070946D01*
X48798963Y-82152290D02*
X49281854Y-83252863D01*
X49455502Y-82268055D02*
X48625315Y-83137097D01*
X50172870Y-83409973D02*
X49610123Y-83310746D01*
X49891497Y-83360359D02*
X50065145Y-82375552D01*
X49946547Y-82499700D01*
X49836218Y-82576954D01*
X49734157Y-82607311D01*
X51132757Y-82902276D02*
X51016991Y-83558814D01*
X50964430Y-82485766D02*
X50605918Y-83147856D01*
X51215561Y-83255352D01*
%TO.C,D6*%
X124683532Y-67385689D02*
X123698724Y-67212040D01*
X123740069Y-66977562D01*
X123811771Y-66845144D01*
X123922101Y-66767891D01*
X124024161Y-66737533D01*
X124220012Y-66723714D01*
X124360699Y-66748521D01*
X124540012Y-66828492D01*
X124625535Y-66891926D01*
X124702788Y-67002255D01*
X124724877Y-67151211D01*
X124683532Y-67385689D01*
X123946793Y-65805172D02*
X123913717Y-65992755D01*
X123944075Y-66094815D01*
X123982701Y-66149979D01*
X124106850Y-66268577D01*
X124286164Y-66348549D01*
X124661329Y-66414701D01*
X124763389Y-66384343D01*
X124818553Y-66345716D01*
X124881987Y-66260194D01*
X124915063Y-66072612D01*
X124884705Y-65970551D01*
X124846078Y-65915387D01*
X124760556Y-65851953D01*
X124526078Y-65810608D01*
X124424018Y-65840966D01*
X124368853Y-65879593D01*
X124305420Y-65965115D01*
X124272344Y-66152697D01*
X124302702Y-66254758D01*
X124341328Y-66309922D01*
X124426851Y-66373356D01*
%TO.C,D2*%
X50313532Y-56355689D02*
X49328724Y-56182040D01*
X49370069Y-55947562D01*
X49441771Y-55815144D01*
X49552101Y-55737891D01*
X49654161Y-55707533D01*
X49850012Y-55693714D01*
X49990699Y-55718521D01*
X50170012Y-55798492D01*
X50255535Y-55861926D01*
X50332788Y-55972255D01*
X50354877Y-56121211D01*
X50313532Y-56355689D01*
X49587895Y-55260666D02*
X49549268Y-55205502D01*
X49518910Y-55103441D01*
X49560255Y-54868963D01*
X49623689Y-54783441D01*
X49678853Y-54744814D01*
X49780913Y-54714457D01*
X49874705Y-54730995D01*
X50007122Y-54802697D01*
X50470642Y-55464672D01*
X50578139Y-54855029D01*
%TO.C,D26*%
X63300842Y-56384645D02*
X62316035Y-56210996D01*
X62357379Y-55976518D01*
X62429082Y-55844101D01*
X62539411Y-55766847D01*
X62641471Y-55736490D01*
X62837323Y-55722670D01*
X62978009Y-55747477D01*
X63157323Y-55827448D01*
X63242845Y-55890882D01*
X63320098Y-56001211D01*
X63342187Y-56150167D01*
X63300842Y-56384645D01*
X62575205Y-55289622D02*
X62536578Y-55234458D01*
X62506221Y-55132397D01*
X62547565Y-54897919D01*
X62610999Y-54812397D01*
X62666164Y-54773771D01*
X62768224Y-54743413D01*
X62862015Y-54759951D01*
X62994433Y-54831653D01*
X63457953Y-55493628D01*
X63565449Y-54883985D01*
X62729483Y-53866216D02*
X62696407Y-54053799D01*
X62726764Y-54155859D01*
X62765391Y-54211023D01*
X62889540Y-54329621D01*
X63068853Y-54409593D01*
X63444018Y-54475744D01*
X63546078Y-54445387D01*
X63601243Y-54406760D01*
X63664677Y-54321238D01*
X63697752Y-54133655D01*
X63667395Y-54031595D01*
X63628768Y-53976431D01*
X63543246Y-53912997D01*
X63308768Y-53871652D01*
X63206708Y-53902010D01*
X63151543Y-53940637D01*
X63088109Y-54026159D01*
X63055034Y-54213741D01*
X63085391Y-54315802D01*
X63124018Y-54370966D01*
X63209540Y-54434400D01*
%TO.C,D28*%
X100930842Y-60404645D02*
X99946035Y-60230996D01*
X99987379Y-59996518D01*
X100059082Y-59864101D01*
X100169411Y-59786847D01*
X100271471Y-59756490D01*
X100467323Y-59742670D01*
X100608009Y-59767477D01*
X100787323Y-59847448D01*
X100872845Y-59910882D01*
X100950098Y-60021211D01*
X100972187Y-60170167D01*
X100930842Y-60404645D01*
X100205205Y-59309622D02*
X100166578Y-59254458D01*
X100136221Y-59152397D01*
X100177565Y-58917919D01*
X100240999Y-58832397D01*
X100296164Y-58793771D01*
X100398224Y-58763413D01*
X100492015Y-58779951D01*
X100624433Y-58851653D01*
X101087953Y-59513628D01*
X101195449Y-58903985D01*
X100731929Y-58242010D02*
X100668496Y-58327533D01*
X100613331Y-58366159D01*
X100511271Y-58396517D01*
X100464375Y-58388248D01*
X100378853Y-58324814D01*
X100340226Y-58269650D01*
X100309869Y-58167590D01*
X100342945Y-57980007D01*
X100406378Y-57894485D01*
X100461543Y-57855858D01*
X100563603Y-57825501D01*
X100610499Y-57833770D01*
X100696021Y-57897203D01*
X100734647Y-57952368D01*
X100765005Y-58054428D01*
X100731929Y-58242010D01*
X100762287Y-58344071D01*
X100800914Y-58399235D01*
X100886436Y-58462669D01*
X101074018Y-58495744D01*
X101176078Y-58465387D01*
X101231243Y-58426760D01*
X101294677Y-58341238D01*
X101327752Y-58153655D01*
X101297395Y-58051595D01*
X101258768Y-57996431D01*
X101173246Y-57932997D01*
X100985663Y-57899921D01*
X100883603Y-57930279D01*
X100828439Y-57968906D01*
X100765005Y-58054428D01*
%TO.C,D18*%
X129150842Y-69264645D02*
X128166035Y-69090996D01*
X128207379Y-68856518D01*
X128279082Y-68724101D01*
X128389411Y-68646847D01*
X128491471Y-68616490D01*
X128687323Y-68602670D01*
X128828009Y-68627477D01*
X129007323Y-68707448D01*
X129092845Y-68770882D01*
X129170098Y-68881211D01*
X129192187Y-69030167D01*
X129150842Y-69264645D01*
X129415449Y-67763985D02*
X129316221Y-68326732D01*
X129365835Y-68045359D02*
X128381027Y-67871711D01*
X128505176Y-67990309D01*
X128582430Y-68100638D01*
X128612787Y-68202698D01*
X128951929Y-67102010D02*
X128888496Y-67187533D01*
X128833331Y-67226159D01*
X128731271Y-67256517D01*
X128684375Y-67248248D01*
X128598853Y-67184814D01*
X128560226Y-67129650D01*
X128529869Y-67027590D01*
X128562945Y-66840007D01*
X128626378Y-66754485D01*
X128681543Y-66715858D01*
X128783603Y-66685501D01*
X128830499Y-66693770D01*
X128916021Y-66757203D01*
X128954647Y-66812368D01*
X128985005Y-66914428D01*
X128951929Y-67102010D01*
X128982287Y-67204071D01*
X129020914Y-67259235D01*
X129106436Y-67322669D01*
X129294018Y-67355744D01*
X129396078Y-67325387D01*
X129451243Y-67286760D01*
X129514677Y-67201238D01*
X129547752Y-67013655D01*
X129517395Y-66911595D01*
X129478768Y-66856431D01*
X129393246Y-66792997D01*
X129205663Y-66759921D01*
X129103603Y-66790279D01*
X129048439Y-66828906D01*
X128985005Y-66914428D01*
%TO.C,MX29*%
X101340068Y-106966937D02*
X101513716Y-105982129D01*
X101717951Y-106743446D01*
X102170255Y-106097895D01*
X101996606Y-107082703D01*
X102545419Y-106164047D02*
X103028310Y-107264620D01*
X103201958Y-106279812D02*
X102371771Y-107148854D01*
X103513689Y-106431486D02*
X103568854Y-106392859D01*
X103670914Y-106362502D01*
X103905392Y-106403846D01*
X103990914Y-106467280D01*
X104029541Y-106522445D01*
X104059899Y-106624505D01*
X104043361Y-106718296D01*
X103971658Y-106850714D01*
X103309683Y-107314234D01*
X103919326Y-107421730D01*
X104388282Y-107504420D02*
X104575865Y-107537496D01*
X104677925Y-107507138D01*
X104733090Y-107468511D01*
X104851688Y-107344362D01*
X104931659Y-107165049D01*
X104997811Y-106789884D01*
X104967453Y-106687824D01*
X104928826Y-106632659D01*
X104843304Y-106569226D01*
X104655722Y-106536150D01*
X104553662Y-106566508D01*
X104498497Y-106605134D01*
X104435063Y-106690656D01*
X104393719Y-106925134D01*
X104424076Y-107027195D01*
X104462703Y-107082359D01*
X104548225Y-107145793D01*
X104735808Y-107178869D01*
X104837868Y-107148511D01*
X104893032Y-107109884D01*
X104956466Y-107024362D01*
%TO.C,MX32*%
X157876111Y-116497084D02*
X157702463Y-115512277D01*
X158154767Y-116157828D01*
X158359001Y-115396511D01*
X158532650Y-116381319D01*
X158734166Y-115330359D02*
X159564353Y-116199402D01*
X159390705Y-115214594D02*
X158907815Y-116315167D01*
X159672078Y-115164980D02*
X160281721Y-115057484D01*
X160019604Y-115490531D01*
X160160291Y-115465724D01*
X160262351Y-115496082D01*
X160317515Y-115534709D01*
X160380949Y-115620231D01*
X160422294Y-115854709D01*
X160391936Y-115956769D01*
X160353309Y-116011934D01*
X160267787Y-116075367D01*
X159986413Y-116124981D01*
X159884353Y-116094623D01*
X159829189Y-116055997D01*
X160673424Y-115085123D02*
X160712051Y-115029959D01*
X160797573Y-114966525D01*
X161032051Y-114925180D01*
X161134111Y-114955538D01*
X161189276Y-114994165D01*
X161252709Y-115079687D01*
X161269247Y-115173478D01*
X161247159Y-115322434D01*
X160783639Y-115984409D01*
X161393282Y-115876912D01*
%TO.C,D13*%
X37890842Y-57044645D02*
X36906035Y-56870996D01*
X36947379Y-56636518D01*
X37019082Y-56504101D01*
X37129411Y-56426847D01*
X37231471Y-56396490D01*
X37427323Y-56382670D01*
X37568009Y-56407477D01*
X37747323Y-56487448D01*
X37832845Y-56550882D01*
X37910098Y-56661211D01*
X37932187Y-56810167D01*
X37890842Y-57044645D01*
X38155449Y-55543985D02*
X38056221Y-56106732D01*
X38105835Y-55825359D02*
X37121027Y-55651711D01*
X37245176Y-55770309D01*
X37322430Y-55880638D01*
X37352787Y-55982698D01*
X37228524Y-55042068D02*
X37336020Y-54432425D01*
X37653303Y-54826846D01*
X37678109Y-54686159D01*
X37741543Y-54600637D01*
X37796708Y-54562010D01*
X37898768Y-54531652D01*
X38133246Y-54572997D01*
X38218768Y-54636431D01*
X38257395Y-54691595D01*
X38287752Y-54793655D01*
X38238139Y-55075029D01*
X38174705Y-55160551D01*
X38119541Y-55199178D01*
%TO.C,MX3*%
X70942569Y-62817870D02*
X71116217Y-61833062D01*
X71320452Y-62594379D01*
X71772756Y-61948828D01*
X71599107Y-62933635D01*
X72147921Y-62014979D02*
X72630811Y-63115552D01*
X72804459Y-62130745D02*
X71974272Y-62999787D01*
X73085833Y-62180358D02*
X73695476Y-62287855D01*
X73301055Y-62605137D01*
X73441741Y-62629944D01*
X73527264Y-62693377D01*
X73565890Y-62748542D01*
X73596248Y-62850602D01*
X73554903Y-63085080D01*
X73491470Y-63170602D01*
X73436305Y-63209229D01*
X73334245Y-63239587D01*
X73052871Y-63189973D01*
X72967349Y-63126540D01*
X72928722Y-63071375D01*
%TO.C,D41*%
X160822380Y-145344285D02*
X159822380Y-145344285D01*
X159822380Y-145106190D01*
X159870000Y-144963333D01*
X159965238Y-144868095D01*
X160060476Y-144820476D01*
X160250952Y-144772857D01*
X160393809Y-144772857D01*
X160584285Y-144820476D01*
X160679523Y-144868095D01*
X160774761Y-144963333D01*
X160822380Y-145106190D01*
X160822380Y-145344285D01*
X160155714Y-143915714D02*
X160822380Y-143915714D01*
X159774761Y-144153809D02*
X160489047Y-144391904D01*
X160489047Y-143772857D01*
X160822380Y-142868095D02*
X160822380Y-143439523D01*
X160822380Y-143153809D02*
X159822380Y-143153809D01*
X159965238Y-143249047D01*
X160060476Y-143344285D01*
X160108095Y-143439523D01*
%TO.C,MX28*%
X83003612Y-101325180D02*
X83177260Y-100340372D01*
X83381495Y-101101689D01*
X83833799Y-100456138D01*
X83660150Y-101440946D01*
X84208963Y-100522290D02*
X84691854Y-101622863D01*
X84865502Y-100638055D02*
X84035315Y-101507097D01*
X85177233Y-100789729D02*
X85232398Y-100751102D01*
X85334458Y-100720745D01*
X85568936Y-100762089D01*
X85654458Y-100825523D01*
X85693085Y-100880688D01*
X85723443Y-100982748D01*
X85706905Y-101076539D01*
X85635202Y-101208957D01*
X84973227Y-101672477D01*
X85582870Y-101779973D01*
X86244845Y-101316453D02*
X86159323Y-101253020D01*
X86120696Y-101197855D01*
X86090339Y-101095795D01*
X86098607Y-101048899D01*
X86162041Y-100963377D01*
X86217206Y-100924751D01*
X86319266Y-100894393D01*
X86506848Y-100927469D01*
X86592370Y-100990902D01*
X86630997Y-101046067D01*
X86661355Y-101148127D01*
X86653086Y-101195023D01*
X86589652Y-101280545D01*
X86534488Y-101319171D01*
X86432428Y-101349529D01*
X86244845Y-101316453D01*
X86142785Y-101346811D01*
X86087620Y-101385438D01*
X86024187Y-101470960D01*
X85991111Y-101658542D01*
X86021469Y-101760602D01*
X86060095Y-101815767D01*
X86145618Y-101879201D01*
X86333200Y-101912276D01*
X86435260Y-101881919D01*
X86490425Y-101843292D01*
X86553858Y-101757770D01*
X86586934Y-101570187D01*
X86556576Y-101468127D01*
X86517950Y-101412963D01*
X86432428Y-101349529D01*
%TO.C,MX13*%
X28403612Y-81975180D02*
X28577260Y-80990372D01*
X28781495Y-81751689D01*
X29233799Y-81106138D01*
X29060150Y-82090946D01*
X29608963Y-81172290D02*
X30091854Y-82272863D01*
X30265502Y-81288055D02*
X29435315Y-82157097D01*
X30982870Y-82429973D02*
X30420123Y-82330746D01*
X30701497Y-82380359D02*
X30875145Y-81395552D01*
X30756547Y-81519700D01*
X30646218Y-81596954D01*
X30544157Y-81627311D01*
X31484788Y-81503048D02*
X32094431Y-81610545D01*
X31700010Y-81927827D01*
X31840697Y-81952634D01*
X31926219Y-82016067D01*
X31964845Y-82071232D01*
X31995203Y-82173292D01*
X31953858Y-82407770D01*
X31890425Y-82493292D01*
X31835260Y-82531919D01*
X31733200Y-82562276D01*
X31451826Y-82512663D01*
X31366304Y-82449229D01*
X31327677Y-82394065D01*
%TO.C,D19*%
X171647965Y-69269399D02*
X170663158Y-69443048D01*
X170621813Y-69208569D01*
X170643901Y-69059614D01*
X170721155Y-68949285D01*
X170806677Y-68885851D01*
X170985990Y-68805880D01*
X171126677Y-68781073D01*
X171322529Y-68794892D01*
X171424589Y-68825250D01*
X171534918Y-68902503D01*
X171606620Y-69034921D01*
X171647965Y-69269399D01*
X171383359Y-67768740D02*
X171482586Y-68331487D01*
X171432972Y-68050114D02*
X170448165Y-68223762D01*
X170605389Y-68292746D01*
X170715718Y-68369999D01*
X170779152Y-68455522D01*
X171300669Y-67299784D02*
X171267593Y-67112201D01*
X171204160Y-67026679D01*
X171148995Y-66988053D01*
X170991770Y-66919068D01*
X170795919Y-66905248D01*
X170420754Y-66971400D01*
X170335232Y-67034834D01*
X170296605Y-67089998D01*
X170266247Y-67192058D01*
X170299323Y-67379641D01*
X170362757Y-67465163D01*
X170417921Y-67503790D01*
X170519982Y-67534147D01*
X170754460Y-67492803D01*
X170839982Y-67429369D01*
X170878608Y-67374204D01*
X170908966Y-67272144D01*
X170875890Y-67084562D01*
X170812457Y-66999040D01*
X170757292Y-66960413D01*
X170655232Y-66930055D01*
%TO.C,MX16*%
X86283612Y-82515180D02*
X86457260Y-81530372D01*
X86661495Y-82291689D01*
X87113799Y-81646138D01*
X86940150Y-82630946D01*
X87488963Y-81712290D02*
X87971854Y-82812863D01*
X88145502Y-81828055D02*
X87315315Y-82697097D01*
X88862870Y-82969973D02*
X88300123Y-82870746D01*
X88581497Y-82920359D02*
X88755145Y-81935552D01*
X88636547Y-82059700D01*
X88526218Y-82136954D01*
X88424157Y-82167311D01*
X89880639Y-82134007D02*
X89693057Y-82100931D01*
X89590997Y-82131288D01*
X89535832Y-82169915D01*
X89417234Y-82294064D01*
X89337263Y-82473377D01*
X89271111Y-82848542D01*
X89301469Y-82950602D01*
X89340095Y-83005767D01*
X89425618Y-83069201D01*
X89613200Y-83102276D01*
X89715260Y-83071919D01*
X89770425Y-83033292D01*
X89833858Y-82947770D01*
X89875203Y-82713292D01*
X89844845Y-82611232D01*
X89806219Y-82556067D01*
X89720697Y-82492634D01*
X89533114Y-82459558D01*
X89431054Y-82489915D01*
X89375889Y-82528542D01*
X89312456Y-82614064D01*
%TO.C,MX18*%
X122970068Y-93816937D02*
X123143716Y-92832129D01*
X123347951Y-93593446D01*
X123800255Y-92947895D01*
X123626606Y-93932703D01*
X124175419Y-93014047D02*
X124658310Y-94114620D01*
X124831958Y-93129812D02*
X124001771Y-93998854D01*
X125549326Y-94271730D02*
X124986579Y-94172503D01*
X125267953Y-94222116D02*
X125441601Y-93237309D01*
X125323003Y-93361457D01*
X125212674Y-93438711D01*
X125110613Y-93469068D01*
X126211301Y-93808210D02*
X126125779Y-93744777D01*
X126087152Y-93689612D01*
X126056795Y-93587552D01*
X126065063Y-93540656D01*
X126128497Y-93455134D01*
X126183662Y-93416508D01*
X126285722Y-93386150D01*
X126473304Y-93419226D01*
X126558826Y-93482659D01*
X126597453Y-93537824D01*
X126627811Y-93639884D01*
X126619542Y-93686780D01*
X126556108Y-93772302D01*
X126500944Y-93810928D01*
X126398884Y-93841286D01*
X126211301Y-93808210D01*
X126109241Y-93838568D01*
X126054076Y-93877195D01*
X125990643Y-93962717D01*
X125957567Y-94150299D01*
X125987925Y-94252359D01*
X126026551Y-94307524D01*
X126112074Y-94370958D01*
X126299656Y-94404033D01*
X126401716Y-94373676D01*
X126456881Y-94335049D01*
X126520314Y-94249527D01*
X126553390Y-94061944D01*
X126523032Y-93959884D01*
X126484406Y-93904720D01*
X126398884Y-93841286D01*
%TO.C,D5*%
X106533532Y-61535689D02*
X105548724Y-61362040D01*
X105590069Y-61127562D01*
X105661771Y-60995144D01*
X105772101Y-60917891D01*
X105874161Y-60887533D01*
X106070012Y-60873714D01*
X106210699Y-60898521D01*
X106390012Y-60978492D01*
X106475535Y-61041926D01*
X106552788Y-61152255D01*
X106574877Y-61301211D01*
X106533532Y-61535689D01*
X105805062Y-59908277D02*
X105722372Y-60377233D01*
X106183059Y-60506818D01*
X106144433Y-60451653D01*
X106114075Y-60349593D01*
X106155420Y-60115115D01*
X106218853Y-60029593D01*
X106274018Y-59990966D01*
X106376078Y-59960608D01*
X106610556Y-60001953D01*
X106696078Y-60065387D01*
X106734705Y-60120551D01*
X106765063Y-60222612D01*
X106723718Y-60457090D01*
X106660284Y-60542612D01*
X106605120Y-60581238D01*
%TO.C,MX39*%
X98003613Y-125725180D02*
X98177261Y-124740372D01*
X98381496Y-125501689D01*
X98833800Y-124856138D01*
X98660151Y-125840946D01*
X99208964Y-124922290D02*
X99691855Y-126022863D01*
X99865503Y-125038055D02*
X99035316Y-125907097D01*
X100146877Y-125087669D02*
X100756519Y-125195165D01*
X100362099Y-125512447D01*
X100502785Y-125537254D01*
X100588308Y-125600688D01*
X100626934Y-125655852D01*
X100657292Y-125757913D01*
X100615947Y-125992391D01*
X100552514Y-126077913D01*
X100497349Y-126116540D01*
X100395289Y-126146897D01*
X100113915Y-126097283D01*
X100028393Y-126033850D01*
X99989766Y-125978685D01*
X101051827Y-126262663D02*
X101239410Y-126295739D01*
X101341470Y-126265381D01*
X101396635Y-126226754D01*
X101515233Y-126102605D01*
X101595204Y-125923292D01*
X101661356Y-125548127D01*
X101630998Y-125446067D01*
X101592371Y-125390902D01*
X101506849Y-125327469D01*
X101319267Y-125294393D01*
X101217207Y-125324751D01*
X101162042Y-125363377D01*
X101098608Y-125448899D01*
X101057264Y-125683377D01*
X101087621Y-125785438D01*
X101126248Y-125840602D01*
X101211770Y-125904036D01*
X101399353Y-125937112D01*
X101501413Y-125906754D01*
X101556577Y-125868127D01*
X101620011Y-125782605D01*
%TO.C,D22*%
X224587965Y-57409400D02*
X223603158Y-57583049D01*
X223561813Y-57348570D01*
X223583901Y-57199615D01*
X223661155Y-57089286D01*
X223746677Y-57025852D01*
X223925990Y-56945881D01*
X224066677Y-56921074D01*
X224262529Y-56934893D01*
X224364589Y-56965251D01*
X224474918Y-57042504D01*
X224546620Y-57174922D01*
X224587965Y-57409400D01*
X223531570Y-56628598D02*
X223476405Y-56589972D01*
X223412971Y-56504450D01*
X223371627Y-56269972D01*
X223401984Y-56167911D01*
X223440611Y-56112747D01*
X223526133Y-56049313D01*
X223619924Y-56032775D01*
X223768880Y-56054864D01*
X224430855Y-56518384D01*
X224323359Y-55908741D01*
X223366190Y-55690686D02*
X223311026Y-55652060D01*
X223247592Y-55566537D01*
X223206247Y-55332059D01*
X223236605Y-55229999D01*
X223275232Y-55174835D01*
X223360754Y-55111401D01*
X223454545Y-55094863D01*
X223603501Y-55116952D01*
X224265476Y-55580472D01*
X224157979Y-54970829D01*
%TO.C,D24*%
X264247966Y-57289401D02*
X263263159Y-57463050D01*
X263221814Y-57228571D01*
X263243902Y-57079616D01*
X263321156Y-56969287D01*
X263406678Y-56905853D01*
X263585991Y-56825882D01*
X263726678Y-56801075D01*
X263922530Y-56814894D01*
X264024590Y-56845252D01*
X264134919Y-56922505D01*
X264206621Y-57054923D01*
X264247966Y-57289401D01*
X263191571Y-56508599D02*
X263136406Y-56469973D01*
X263072972Y-56384451D01*
X263031628Y-56149973D01*
X263061985Y-56047912D01*
X263100612Y-55992748D01*
X263186134Y-55929314D01*
X263279925Y-55912776D01*
X263428881Y-55934865D01*
X264090856Y-56398385D01*
X263983360Y-55788742D01*
X263177980Y-55060386D02*
X263834518Y-54944621D01*
X262844160Y-55361016D02*
X263588939Y-55471460D01*
X263481442Y-54861817D01*
%TO.C,MX15*%
X67133612Y-81555180D02*
X67307260Y-80570372D01*
X67511495Y-81331689D01*
X67963799Y-80686138D01*
X67790150Y-81670946D01*
X68338963Y-80752290D02*
X68821854Y-81852863D01*
X68995502Y-80868055D02*
X68165315Y-81737097D01*
X69712870Y-82009973D02*
X69150123Y-81910746D01*
X69431497Y-81960359D02*
X69605145Y-80975552D01*
X69486547Y-81099700D01*
X69376218Y-81176954D01*
X69274157Y-81207311D01*
X70777535Y-81182276D02*
X70308579Y-81099586D01*
X70178994Y-81560273D01*
X70234158Y-81521646D01*
X70336218Y-81491289D01*
X70570697Y-81532634D01*
X70656219Y-81596067D01*
X70694845Y-81651232D01*
X70725203Y-81753292D01*
X70683858Y-81987770D01*
X70620425Y-82073292D01*
X70565260Y-82111919D01*
X70463200Y-82142276D01*
X70228722Y-82100932D01*
X70143200Y-82037498D01*
X70104573Y-81982334D01*
%TO.C,MX27*%
X63813613Y-100345180D02*
X63987261Y-99360372D01*
X64191496Y-100121689D01*
X64643800Y-99476138D01*
X64470151Y-100460946D01*
X65018964Y-99542290D02*
X65501855Y-100642863D01*
X65675503Y-99658055D02*
X64845316Y-100527097D01*
X65987234Y-99809729D02*
X66042399Y-99771102D01*
X66144459Y-99740745D01*
X66378937Y-99782089D01*
X66464459Y-99845523D01*
X66503086Y-99900688D01*
X66533444Y-100002748D01*
X66516906Y-100096539D01*
X66445203Y-100228957D01*
X65783228Y-100692477D01*
X66392871Y-100799973D01*
X66894789Y-99873048D02*
X67551327Y-99988813D01*
X66955619Y-100899201D01*
%TO.C,D16*%
X94852442Y-58812528D02*
X93867635Y-58638879D01*
X93908979Y-58404401D01*
X93980682Y-58271984D01*
X94091011Y-58194730D01*
X94193071Y-58164373D01*
X94388923Y-58150553D01*
X94529609Y-58175360D01*
X94708923Y-58255331D01*
X94794445Y-58318765D01*
X94871698Y-58429094D01*
X94893787Y-58578050D01*
X94852442Y-58812528D01*
X95117049Y-57311868D02*
X95017821Y-57874615D01*
X95067435Y-57593242D02*
X94082627Y-57419594D01*
X94206776Y-57538192D01*
X94284030Y-57648521D01*
X94314387Y-57750581D01*
X94281083Y-56294099D02*
X94248007Y-56481682D01*
X94278364Y-56583742D01*
X94316991Y-56638906D01*
X94441140Y-56757504D01*
X94620453Y-56837476D01*
X94995618Y-56903627D01*
X95097678Y-56873270D01*
X95152843Y-56834643D01*
X95216277Y-56749121D01*
X95249352Y-56561538D01*
X95218995Y-56459478D01*
X95180368Y-56404314D01*
X95094846Y-56340880D01*
X94860368Y-56299535D01*
X94758308Y-56329893D01*
X94703143Y-56368520D01*
X94639709Y-56454042D01*
X94606634Y-56641624D01*
X94636991Y-56743685D01*
X94675618Y-56798849D01*
X94761140Y-56862283D01*
%TO.C,MX19*%
X173316111Y-94447083D02*
X173142463Y-93462276D01*
X173594767Y-94107827D01*
X173799001Y-93346510D01*
X173972650Y-94331318D01*
X174174166Y-93280358D02*
X175004353Y-94149401D01*
X174830705Y-93164593D02*
X174347815Y-94265166D01*
X175895370Y-93992290D02*
X175332622Y-94091518D01*
X175613996Y-94041904D02*
X175440348Y-93057096D01*
X175371363Y-93214321D01*
X175294110Y-93324650D01*
X175208588Y-93388084D01*
X176364326Y-93909601D02*
X176551908Y-93876525D01*
X176637430Y-93813091D01*
X176676057Y-93757927D01*
X176745041Y-93600702D01*
X176758861Y-93404851D01*
X176692709Y-93029686D01*
X176629276Y-92944164D01*
X176574111Y-92905537D01*
X176472051Y-92875179D01*
X176284469Y-92908255D01*
X176198946Y-92971689D01*
X176160320Y-93026853D01*
X176129962Y-93128913D01*
X176171307Y-93363391D01*
X176234740Y-93448914D01*
X176289905Y-93487540D01*
X176391965Y-93517898D01*
X176579548Y-93484822D01*
X176665070Y-93421389D01*
X176703696Y-93366224D01*
X176734054Y-93264164D01*
%TO.C,MX6*%
X126752568Y-75107870D02*
X126926216Y-74123062D01*
X127130451Y-74884379D01*
X127582755Y-74238828D01*
X127409106Y-75223635D01*
X127957920Y-74304979D02*
X128440810Y-75405552D01*
X128614458Y-74420745D02*
X127784271Y-75289787D01*
X129411683Y-74561317D02*
X129224101Y-74528241D01*
X129122041Y-74558599D01*
X129066876Y-74597225D01*
X128948278Y-74721374D01*
X128868307Y-74900688D01*
X128802155Y-75275853D01*
X128832513Y-75377913D01*
X128871139Y-75433077D01*
X128956662Y-75496511D01*
X129144244Y-75529587D01*
X129246304Y-75499229D01*
X129301469Y-75460602D01*
X129364902Y-75375080D01*
X129406247Y-75140602D01*
X129375889Y-75038542D01*
X129337263Y-74983377D01*
X129251740Y-74919944D01*
X129064158Y-74886868D01*
X128962098Y-74917226D01*
X128906933Y-74955852D01*
X128843500Y-75041375D01*
%TO.C,D29*%
X115400842Y-64614645D02*
X114416035Y-64440996D01*
X114457379Y-64206518D01*
X114529082Y-64074101D01*
X114639411Y-63996847D01*
X114741471Y-63966490D01*
X114937323Y-63952670D01*
X115078009Y-63977477D01*
X115257323Y-64057448D01*
X115342845Y-64120882D01*
X115420098Y-64231211D01*
X115442187Y-64380167D01*
X115400842Y-64614645D01*
X114675205Y-63519622D02*
X114636578Y-63464458D01*
X114606221Y-63362397D01*
X114647565Y-63127919D01*
X114710999Y-63042397D01*
X114766164Y-63003771D01*
X114868224Y-62973413D01*
X114962015Y-62989951D01*
X115094433Y-63061653D01*
X115557953Y-63723628D01*
X115665449Y-63113985D01*
X115748139Y-62645029D02*
X115781214Y-62457447D01*
X115750857Y-62355387D01*
X115712230Y-62300222D01*
X115588081Y-62181624D01*
X115408768Y-62101652D01*
X115033603Y-62035501D01*
X114931543Y-62065858D01*
X114876378Y-62104485D01*
X114812945Y-62190007D01*
X114779869Y-62377590D01*
X114810226Y-62479650D01*
X114848853Y-62534814D01*
X114934375Y-62598248D01*
X115168853Y-62639593D01*
X115270914Y-62609235D01*
X115326078Y-62570608D01*
X115389512Y-62485086D01*
X115422588Y-62297504D01*
X115392230Y-62195444D01*
X115353603Y-62140279D01*
X115268081Y-62076846D01*
%TO.C,D34*%
X185757965Y-65177282D02*
X184773158Y-65350931D01*
X184731813Y-65116452D01*
X184753901Y-64967497D01*
X184831155Y-64857168D01*
X184916677Y-64793734D01*
X185095990Y-64713763D01*
X185236677Y-64688956D01*
X185432529Y-64702775D01*
X185534589Y-64733133D01*
X185644918Y-64810386D01*
X185716620Y-64942804D01*
X185757965Y-65177282D01*
X184616047Y-64459914D02*
X184508551Y-63850271D01*
X184941598Y-64112389D01*
X184916791Y-63971702D01*
X184947149Y-63869642D01*
X184985776Y-63814477D01*
X185071298Y-63751044D01*
X185305776Y-63709699D01*
X185407836Y-63740056D01*
X185463001Y-63778683D01*
X185526434Y-63864205D01*
X185576048Y-64145579D01*
X185545690Y-64247639D01*
X185507064Y-64302804D01*
X184687979Y-62948267D02*
X185344517Y-62832502D01*
X184354159Y-63248897D02*
X185098938Y-63359341D01*
X184991441Y-62749698D01*
%TO.C,MX23*%
X248806111Y-83627083D02*
X248632463Y-82642276D01*
X249084767Y-83287827D01*
X249289001Y-82526510D01*
X249462650Y-83511318D01*
X249664166Y-82460358D02*
X250494353Y-83329401D01*
X250320705Y-82344593D02*
X249837815Y-83445166D01*
X250665512Y-82380501D02*
X250704139Y-82325337D01*
X250789661Y-82261903D01*
X251024139Y-82220559D01*
X251126199Y-82250916D01*
X251181364Y-82289543D01*
X251244797Y-82375065D01*
X251261335Y-82468856D01*
X251239246Y-82617812D01*
X250775727Y-83279787D01*
X251385370Y-83172290D01*
X251539991Y-82129600D02*
X252149634Y-82022104D01*
X251887516Y-82455151D01*
X252028203Y-82430344D01*
X252130263Y-82460702D01*
X252185428Y-82499329D01*
X252248861Y-82584851D01*
X252290206Y-82819329D01*
X252259848Y-82921389D01*
X252221222Y-82976554D01*
X252135699Y-83039987D01*
X251854326Y-83089601D01*
X251752265Y-83059243D01*
X251697101Y-83020617D01*
%TO.C,MX12*%
X264696111Y-63907084D02*
X264522463Y-62922277D01*
X264974767Y-63567828D01*
X265179001Y-62806511D01*
X265352650Y-63791319D01*
X265554166Y-62740359D02*
X266384353Y-63609402D01*
X266210705Y-62624594D02*
X265727815Y-63725167D01*
X267275370Y-63452291D02*
X266712622Y-63551519D01*
X266993996Y-63501905D02*
X266820348Y-62517097D01*
X266751363Y-62674322D01*
X266674110Y-62784651D01*
X266588588Y-62848085D01*
X267493424Y-62495123D02*
X267532051Y-62439959D01*
X267617573Y-62376525D01*
X267852051Y-62335180D01*
X267954111Y-62365538D01*
X268009276Y-62404165D01*
X268072709Y-62489687D01*
X268089247Y-62583478D01*
X268067159Y-62732434D01*
X267603639Y-63394409D01*
X268213282Y-63286912D01*
%TO.C,D15*%
X76220842Y-56674645D02*
X75236035Y-56500996D01*
X75277379Y-56266518D01*
X75349082Y-56134101D01*
X75459411Y-56056847D01*
X75561471Y-56026490D01*
X75757323Y-56012670D01*
X75898009Y-56037477D01*
X76077323Y-56117448D01*
X76162845Y-56180882D01*
X76240098Y-56291211D01*
X76262187Y-56440167D01*
X76220842Y-56674645D01*
X76485449Y-55173985D02*
X76386221Y-55736732D01*
X76435835Y-55455359D02*
X75451027Y-55281711D01*
X75575176Y-55400309D01*
X75652430Y-55510638D01*
X75682787Y-55612698D01*
X75657752Y-54109320D02*
X75575062Y-54578277D01*
X76035749Y-54707862D01*
X75997122Y-54652697D01*
X75966765Y-54550637D01*
X76008109Y-54316159D01*
X76071543Y-54230637D01*
X76126708Y-54192010D01*
X76228768Y-54161652D01*
X76463246Y-54202997D01*
X76548768Y-54266431D01*
X76587395Y-54321595D01*
X76617752Y-54423655D01*
X76576408Y-54658134D01*
X76512974Y-54743656D01*
X76457809Y-54782282D01*
%TO.C,D10*%
X231526366Y-56797282D02*
X230541559Y-56970931D01*
X230500214Y-56736452D01*
X230522302Y-56587497D01*
X230599556Y-56477168D01*
X230685078Y-56413734D01*
X230864391Y-56333763D01*
X231005078Y-56308956D01*
X231200930Y-56322775D01*
X231302990Y-56353133D01*
X231413319Y-56430386D01*
X231485021Y-56562804D01*
X231526366Y-56797282D01*
X231261760Y-55296623D02*
X231360987Y-55859370D01*
X231311373Y-55577997D02*
X230326566Y-55751645D01*
X230483790Y-55820629D01*
X230594119Y-55897882D01*
X230657553Y-55983405D01*
X230169455Y-54860628D02*
X230152917Y-54766837D01*
X230183275Y-54664777D01*
X230221902Y-54609612D01*
X230307424Y-54546179D01*
X230486737Y-54466207D01*
X230721215Y-54424862D01*
X230917067Y-54438682D01*
X231019127Y-54469040D01*
X231074292Y-54507667D01*
X231137725Y-54593189D01*
X231154263Y-54686980D01*
X231123905Y-54789040D01*
X231085279Y-54844205D01*
X230999756Y-54907638D01*
X230820443Y-54987610D01*
X230585965Y-55028955D01*
X230390114Y-55015135D01*
X230288053Y-54984777D01*
X230232889Y-54946150D01*
X230169455Y-54860628D01*
%TO.C,D42*%
X161896366Y-71327282D02*
X160911559Y-71500931D01*
X160870214Y-71266452D01*
X160892302Y-71117497D01*
X160969556Y-71007168D01*
X161055078Y-70943734D01*
X161234391Y-70863763D01*
X161375078Y-70838956D01*
X161570930Y-70852775D01*
X161672990Y-70883133D01*
X161783319Y-70960386D01*
X161855021Y-71092804D01*
X161896366Y-71327282D01*
X160991759Y-70036180D02*
X161648297Y-69920414D01*
X160657939Y-70336809D02*
X161402718Y-70447253D01*
X161295221Y-69837610D01*
X160674591Y-69608568D02*
X160619427Y-69569942D01*
X160555993Y-69484419D01*
X160514648Y-69249941D01*
X160545006Y-69147881D01*
X160583633Y-69092717D01*
X160669155Y-69029283D01*
X160762946Y-69012745D01*
X160911902Y-69034834D01*
X161573877Y-69498354D01*
X161466380Y-68888711D01*
%TO.C,D33*%
X166607965Y-70229399D02*
X165623158Y-70403048D01*
X165581813Y-70168569D01*
X165603901Y-70019614D01*
X165681155Y-69909285D01*
X165766677Y-69845851D01*
X165945990Y-69765880D01*
X166086677Y-69741073D01*
X166282529Y-69754892D01*
X166384589Y-69785250D01*
X166494918Y-69862503D01*
X166566620Y-69994921D01*
X166607965Y-70229399D01*
X165466047Y-69512031D02*
X165358551Y-68902388D01*
X165791598Y-69164506D01*
X165766791Y-69023819D01*
X165797149Y-68921759D01*
X165835776Y-68866594D01*
X165921298Y-68803161D01*
X166155776Y-68761816D01*
X166257836Y-68792173D01*
X166313001Y-68830800D01*
X166376434Y-68916322D01*
X166426048Y-69197696D01*
X166395690Y-69299756D01*
X166357064Y-69354921D01*
X165300668Y-68574119D02*
X165193172Y-67964476D01*
X165626219Y-68226594D01*
X165601412Y-68085907D01*
X165631770Y-67983847D01*
X165670397Y-67928682D01*
X165755919Y-67865248D01*
X165990397Y-67823904D01*
X166092457Y-67854261D01*
X166147622Y-67892888D01*
X166211055Y-67978410D01*
X166260669Y-68259784D01*
X166230311Y-68361844D01*
X166191685Y-68417009D01*
%TO.C,MX34*%
X195016111Y-107647084D02*
X194842463Y-106662277D01*
X195294767Y-107307828D01*
X195499001Y-106546511D01*
X195672650Y-107531319D01*
X195874166Y-106480359D02*
X196704353Y-107349402D01*
X196530705Y-106364594D02*
X196047815Y-107465167D01*
X196812078Y-106314980D02*
X197421721Y-106207484D01*
X197159604Y-106640531D01*
X197300291Y-106615724D01*
X197402351Y-106646082D01*
X197457515Y-106684709D01*
X197520949Y-106770231D01*
X197562294Y-107004709D01*
X197531936Y-107106769D01*
X197493309Y-107161934D01*
X197407787Y-107225367D01*
X197126413Y-107274981D01*
X197024353Y-107244623D01*
X196969189Y-107205997D01*
X198323725Y-106386912D02*
X198439490Y-107043450D01*
X198023095Y-106053092D02*
X197912652Y-106797871D01*
X198522295Y-106690374D01*
%TO.C,MX22*%
X229216111Y-82277083D02*
X229042463Y-81292276D01*
X229494767Y-81937827D01*
X229699001Y-81176510D01*
X229872650Y-82161318D01*
X230074166Y-81110358D02*
X230904353Y-81979401D01*
X230730705Y-80994593D02*
X230247815Y-82095166D01*
X231075512Y-81030501D02*
X231114139Y-80975337D01*
X231199661Y-80911903D01*
X231434139Y-80870559D01*
X231536199Y-80900916D01*
X231591364Y-80939543D01*
X231654797Y-81025065D01*
X231671335Y-81118856D01*
X231649246Y-81267812D01*
X231185727Y-81929787D01*
X231795370Y-81822290D01*
X232013424Y-80865122D02*
X232052051Y-80809958D01*
X232137573Y-80746524D01*
X232372051Y-80705179D01*
X232474111Y-80735537D01*
X232529276Y-80774164D01*
X232592709Y-80859686D01*
X232609247Y-80953477D01*
X232587159Y-81102433D01*
X232123639Y-81764408D01*
X232733282Y-81656911D01*
%TO.C,D23*%
X245207965Y-57019399D02*
X244223158Y-57193048D01*
X244181813Y-56958569D01*
X244203901Y-56809614D01*
X244281155Y-56699285D01*
X244366677Y-56635851D01*
X244545990Y-56555880D01*
X244686677Y-56531073D01*
X244882529Y-56544892D01*
X244984589Y-56575250D01*
X245094918Y-56652503D01*
X245166620Y-56784921D01*
X245207965Y-57019399D01*
X244151570Y-56238597D02*
X244096405Y-56199971D01*
X244032971Y-56114449D01*
X243991627Y-55879971D01*
X244021984Y-55777910D01*
X244060611Y-55722746D01*
X244146133Y-55659312D01*
X244239924Y-55642774D01*
X244388880Y-55664863D01*
X245050855Y-56128383D01*
X244943359Y-55518740D01*
X243900668Y-55364119D02*
X243793172Y-54754476D01*
X244226219Y-55016594D01*
X244201412Y-54875907D01*
X244231770Y-54773847D01*
X244270397Y-54718682D01*
X244355919Y-54655248D01*
X244590397Y-54613904D01*
X244692457Y-54644261D01*
X244747622Y-54682888D01*
X244811055Y-54768410D01*
X244860669Y-55049784D01*
X244830311Y-55151844D01*
X244791685Y-55207009D01*
D11*
%TO.C,MX41*%
X142875000Y-138362500D02*
X142880000Y-137202500D01*
X155680000Y-151170000D02*
X156850000Y-151172500D01*
X144055000Y-137202500D02*
X142885000Y-137200000D01*
X142887500Y-150000000D02*
X142885000Y-151170000D01*
X156860000Y-150010000D02*
X156855000Y-151170000D01*
X144047500Y-151180000D02*
X142887500Y-151175000D01*
X155692500Y-137200000D02*
X156852500Y-137205000D01*
X156852500Y-138380000D02*
X156855000Y-137210000D01*
%TO.C,D25*%
X40487282Y-57145424D02*
X42693251Y-57534396D01*
X43429519Y-53358811D02*
X41223550Y-52969839D01*
X41223550Y-52969839D02*
X40487282Y-57145424D01*
X43325330Y-53949696D02*
X41119361Y-53560724D01*
X42693251Y-57534396D02*
X43429519Y-53358811D01*
X43283655Y-54186050D02*
X41077685Y-53797078D01*
X42439406Y-52524200D02*
X42326535Y-53164325D01*
X43304493Y-54067873D02*
X41098523Y-53678901D01*
X41477395Y-57980035D02*
X41590266Y-57339910D01*
%TO.C,D3*%
X68809519Y-52828811D02*
X66603550Y-52439839D01*
X68684493Y-53537873D02*
X66478523Y-53148901D01*
X68073251Y-57004396D02*
X68809519Y-52828811D01*
X68705330Y-53419696D02*
X66499361Y-53030724D01*
X66603550Y-52439839D02*
X65867282Y-56615424D01*
X66857395Y-57450035D02*
X66970266Y-56809910D01*
X68663655Y-53656050D02*
X66457685Y-53267078D01*
X67819406Y-51994200D02*
X67706535Y-52634325D01*
X65867282Y-56615424D02*
X68073251Y-57004396D01*
%TO.C,D40*%
X137014851Y-72032277D02*
X137751119Y-67856692D01*
X135798995Y-72477916D02*
X135911866Y-71837791D01*
X135545150Y-67467720D02*
X134808882Y-71643305D01*
X137646930Y-68447577D02*
X135440961Y-68058605D01*
X136761006Y-67022081D02*
X136648135Y-67662206D01*
X137626093Y-68565754D02*
X135420123Y-68176782D01*
X134808882Y-71643305D02*
X137014851Y-72032277D01*
X137751119Y-67856692D02*
X135545150Y-67467720D01*
X137605255Y-68683931D02*
X135399285Y-68294959D01*
%TO.C,D14*%
X53923550Y-53039839D02*
X53187282Y-57215424D01*
X55139406Y-52594200D02*
X55026535Y-53234325D01*
X56025330Y-54019696D02*
X53819361Y-53630724D01*
X56004493Y-54137873D02*
X53798523Y-53748901D01*
X56129519Y-53428811D02*
X53923550Y-53039839D01*
X55393251Y-57604396D02*
X56129519Y-53428811D01*
X55983655Y-54256050D02*
X53777685Y-53867078D01*
X54177395Y-58050035D02*
X54290266Y-57409910D01*
X53187282Y-57215424D02*
X55393251Y-57604396D01*
%TO.C,D8*%
X196842315Y-59317078D02*
X194636345Y-59706050D01*
X196821477Y-59198901D02*
X194615507Y-59587873D01*
X194490481Y-58878811D02*
X195226749Y-63054396D01*
X197432718Y-62665424D02*
X196696450Y-58489839D01*
X196800639Y-59080724D02*
X194594670Y-59469696D01*
X196696450Y-58489839D02*
X194490481Y-58878811D01*
X195226749Y-63054396D02*
X197432718Y-62665424D01*
X195480594Y-58044200D02*
X195593465Y-58684325D01*
X196442605Y-63500035D02*
X196329734Y-62859910D01*
%TO.C,D30*%
X133031119Y-66946694D02*
X130825150Y-66557722D01*
X132906093Y-67655756D02*
X130700123Y-67266784D01*
X132294851Y-71122279D02*
X133031119Y-66946694D01*
X130088882Y-70733307D02*
X132294851Y-71122279D01*
X132926930Y-67537579D02*
X130720961Y-67148607D01*
X131078995Y-71567918D02*
X131191866Y-70927793D01*
X130825150Y-66557722D02*
X130088882Y-70733307D01*
X132885255Y-67773933D02*
X130679285Y-67384961D01*
X132041006Y-66112083D02*
X131928135Y-66752208D01*
%TO.C,MX33*%
X171753112Y-115718872D02*
X171556604Y-114575626D01*
X173786253Y-127177401D02*
X173986959Y-128330061D01*
X187548215Y-124760950D02*
X187744723Y-125904195D01*
X175133534Y-128138043D02*
X173990289Y-128334550D01*
X186587574Y-126108232D02*
X187740233Y-125907526D01*
X184174019Y-112348297D02*
X185317264Y-112151789D01*
X185521301Y-113308938D02*
X185320595Y-112156279D01*
X172713753Y-114371590D02*
X171561094Y-114572296D01*
%TO.C,MX43*%
X207231301Y-126518937D02*
X207030595Y-125366278D01*
X194423753Y-127581589D02*
X193271094Y-127782295D01*
X205884019Y-125558296D02*
X207027264Y-125361788D01*
X196843534Y-141348042D02*
X195700289Y-141544549D01*
X209258215Y-137970949D02*
X209454723Y-139114194D01*
X193463112Y-128928871D02*
X193266604Y-127785625D01*
X195496253Y-140387400D02*
X195696959Y-141540060D01*
X208297574Y-139318231D02*
X209450233Y-139117525D01*
%TO.C,MX2*%
X46833540Y-63915115D02*
X45681749Y-63709484D01*
X59232146Y-67296989D02*
X59437777Y-66145198D01*
X58294674Y-65933484D02*
X59436183Y-66139839D01*
X55856499Y-79689077D02*
X57008290Y-79894708D01*
X45470035Y-64852587D02*
X45676391Y-63711078D01*
X57220004Y-78751605D02*
X57013648Y-79893114D01*
X43461514Y-76315458D02*
X43255884Y-77467249D01*
X44398987Y-77678963D02*
X43257478Y-77472607D01*
%TO.C,D43*%
X182756450Y-62559839D02*
X180550481Y-62948811D01*
X183492718Y-66735424D02*
X182756450Y-62559839D01*
X182860639Y-63150724D02*
X180654670Y-63539696D01*
X182502605Y-67570035D02*
X182389734Y-66929910D01*
X182881477Y-63268901D02*
X180675507Y-63657873D01*
X182902315Y-63387078D02*
X180696345Y-63776050D01*
X181286749Y-67124396D02*
X183492718Y-66735424D01*
X180550481Y-62948811D02*
X181286749Y-67124396D01*
X181540594Y-62114200D02*
X181653465Y-62754325D01*
%TO.C,MX21*%
X219967574Y-96098231D02*
X221120233Y-95897525D01*
X205133112Y-85708871D02*
X204936604Y-84565625D01*
X217554019Y-82338296D02*
X218697264Y-82141788D01*
X220928215Y-94750949D02*
X221124723Y-95894194D01*
X207166253Y-97167400D02*
X207366959Y-98320060D01*
X206093753Y-84361589D02*
X204941094Y-84562295D01*
X218901301Y-83298937D02*
X218700595Y-82146278D01*
X208513534Y-98128042D02*
X207370289Y-98324549D01*
%TO.C,MX31*%
X145794675Y-117663484D02*
X146936184Y-117869839D01*
X130961515Y-128045458D02*
X130755885Y-129197249D01*
X134333541Y-115645115D02*
X133181750Y-115439484D01*
X132970036Y-116582587D02*
X133176392Y-115441078D01*
X146732147Y-119026989D02*
X146937778Y-117875198D01*
X143356500Y-131419077D02*
X144508291Y-131624708D01*
X144720005Y-130481605D02*
X144513649Y-131623114D01*
X131898988Y-129408963D02*
X130757479Y-129202607D01*
%TO.C,MX30*%
X114206491Y-113254344D02*
X114412847Y-112112835D01*
X127968602Y-115698746D02*
X128174233Y-114546955D01*
X115569996Y-112316872D02*
X114418205Y-112111241D01*
X125956460Y-127153362D02*
X125750104Y-128294871D01*
X112197970Y-124717215D02*
X111992340Y-125869006D01*
X113135443Y-126080720D02*
X111993934Y-125874364D01*
X124592955Y-128090834D02*
X125744746Y-128296465D01*
X127031130Y-114335241D02*
X128172639Y-114541596D01*
%TO.C,D32*%
X171581118Y-122313304D02*
X170844850Y-118137719D01*
X169628994Y-117692080D02*
X169741865Y-118332205D01*
X170591005Y-123147915D02*
X170478134Y-122507790D01*
X170969877Y-118846781D02*
X168763907Y-119235753D01*
X170949039Y-118728604D02*
X168743070Y-119117576D01*
X169375149Y-122702276D02*
X171581118Y-122313304D01*
X170844850Y-118137719D02*
X168638881Y-118526691D01*
X170990715Y-118964958D02*
X168784745Y-119353930D01*
X168638881Y-118526691D02*
X169375149Y-122702276D01*
%TO.C,MX11*%
X255447574Y-77738231D02*
X256600233Y-77537525D01*
X254381301Y-64938937D02*
X254180595Y-63786278D01*
X256408215Y-76390949D02*
X256604723Y-77534194D01*
X242646253Y-78807400D02*
X242846959Y-79960060D01*
X243993534Y-79768042D02*
X242850289Y-79964549D01*
X241573753Y-66001589D02*
X240421094Y-66202295D01*
X240613112Y-67348871D02*
X240416604Y-66205625D01*
X253034019Y-63978296D02*
X254177264Y-63781788D01*
%TO.C,MX42*%
X188861301Y-132048937D02*
X188660595Y-130896278D01*
X177126253Y-145917400D02*
X177326959Y-147070060D01*
X190888215Y-143500949D02*
X191084723Y-144644194D01*
X189927574Y-144848231D02*
X191080233Y-144647525D01*
X187514019Y-131088296D02*
X188657264Y-130891788D01*
X175093112Y-134458871D02*
X174896604Y-133315625D01*
X176053753Y-133111589D02*
X174901094Y-133312295D01*
X178473534Y-146878042D02*
X177330289Y-147074549D01*
D12*
%TO.C,U1*%
X140940000Y-90810000D02*
X158720000Y-90810000D01*
X140940000Y-60330000D02*
X140940000Y-90810000D01*
X140940000Y-57790000D02*
X140940000Y-60330000D01*
X158720000Y-90810000D02*
X158720000Y-60330000D01*
X143480000Y-60330000D02*
X140940000Y-60330000D01*
X143480000Y-62870000D02*
X140940000Y-62870000D01*
X158720000Y-57790000D02*
X140940000Y-57790000D01*
X158720000Y-60330000D02*
X158720000Y-57790000D01*
X143480000Y-60330000D02*
X143480000Y-62870000D01*
D10*
X154561568Y-66609360D02*
X154561568Y-66709360D01*
X154561568Y-66709360D02*
X154461568Y-66709360D01*
X154461568Y-66709360D02*
X154461568Y-66609360D01*
X154461568Y-66609360D02*
X154561568Y-66609360D01*
G36*
X154561568Y-66709360D02*
G01*
X154461568Y-66709360D01*
X154461568Y-66609360D01*
X154561568Y-66609360D01*
X154561568Y-66709360D01*
G37*
X154561568Y-66709360D02*
X154461568Y-66709360D01*
X154461568Y-66609360D01*
X154561568Y-66609360D01*
X154561568Y-66709360D01*
X154361568Y-66209360D02*
X154361568Y-67009360D01*
X154361568Y-67009360D02*
X154261568Y-67009360D01*
X154261568Y-67009360D02*
X154261568Y-66209360D01*
X154261568Y-66209360D02*
X154361568Y-66209360D01*
G36*
X154361568Y-67009360D02*
G01*
X154261568Y-67009360D01*
X154261568Y-66209360D01*
X154361568Y-66209360D01*
X154361568Y-67009360D01*
G37*
X154361568Y-67009360D02*
X154261568Y-67009360D01*
X154261568Y-66209360D01*
X154361568Y-66209360D01*
X154361568Y-67009360D01*
X154761568Y-66209360D02*
X154761568Y-66509360D01*
X154761568Y-66509360D02*
X154661568Y-66509360D01*
X154661568Y-66509360D02*
X154661568Y-66209360D01*
X154661568Y-66209360D02*
X154761568Y-66209360D01*
G36*
X154761568Y-66509360D02*
G01*
X154661568Y-66509360D01*
X154661568Y-66209360D01*
X154761568Y-66209360D01*
X154761568Y-66509360D01*
G37*
X154761568Y-66509360D02*
X154661568Y-66509360D01*
X154661568Y-66209360D01*
X154761568Y-66209360D01*
X154761568Y-66509360D01*
X154761568Y-66209360D02*
X154761568Y-66309360D01*
X154761568Y-66309360D02*
X154261568Y-66309360D01*
X154261568Y-66309360D02*
X154261568Y-66209360D01*
X154261568Y-66209360D02*
X154761568Y-66209360D01*
G36*
X154761568Y-66309360D02*
G01*
X154261568Y-66309360D01*
X154261568Y-66209360D01*
X154761568Y-66209360D01*
X154761568Y-66309360D01*
G37*
X154761568Y-66309360D02*
X154261568Y-66309360D01*
X154261568Y-66209360D01*
X154761568Y-66209360D01*
X154761568Y-66309360D01*
X154761568Y-66809360D02*
X154761568Y-67009360D01*
X154761568Y-67009360D02*
X154661568Y-67009360D01*
X154661568Y-67009360D02*
X154661568Y-66809360D01*
X154661568Y-66809360D02*
X154761568Y-66809360D01*
G36*
X154761568Y-67009360D02*
G01*
X154661568Y-67009360D01*
X154661568Y-66809360D01*
X154761568Y-66809360D01*
X154761568Y-67009360D01*
G37*
X154761568Y-67009360D02*
X154661568Y-67009360D01*
X154661568Y-66809360D01*
X154761568Y-66809360D01*
X154761568Y-67009360D01*
D11*
%TO.C,MX40*%
X110920035Y-132012587D02*
X111126391Y-130871078D01*
X123744674Y-133093484D02*
X124886183Y-133299839D01*
X112283540Y-131075115D02*
X111131749Y-130869484D01*
X121306499Y-146849077D02*
X122458290Y-147054708D01*
X122670004Y-145911605D02*
X122463648Y-147053114D01*
X109848987Y-144838963D02*
X108707478Y-144632607D01*
X124682146Y-134456989D02*
X124887777Y-133305198D01*
X108911514Y-143475458D02*
X108705884Y-144627249D01*
%TO.C,D37*%
X240240639Y-53520724D02*
X238034670Y-53909696D01*
X240282315Y-53757078D02*
X238076345Y-54146050D01*
X238920594Y-52484200D02*
X239033465Y-53124325D01*
X237930481Y-53318811D02*
X238666749Y-57494396D01*
X240136450Y-52929839D02*
X237930481Y-53318811D01*
X239882605Y-57940035D02*
X239769734Y-57299910D01*
X240261477Y-53638901D02*
X238055507Y-54027873D01*
X240872718Y-57105424D02*
X240136450Y-52929839D01*
X238666749Y-57494396D02*
X240872718Y-57105424D01*
%TO.C,MX25*%
X20993540Y-100485115D02*
X19841749Y-100279484D01*
X19630035Y-101422587D02*
X19836391Y-100281078D01*
X31380004Y-115321605D02*
X31173648Y-116463114D01*
X17621514Y-112885458D02*
X17415884Y-114037249D01*
X32454674Y-102503484D02*
X33596183Y-102709839D01*
X30016499Y-116259077D02*
X31168290Y-116464708D01*
X18558987Y-114248963D02*
X17417478Y-114042607D01*
X33392146Y-103866989D02*
X33597777Y-102715198D01*
%TO.C,D17*%
X108819406Y-58984200D02*
X108706535Y-59624325D01*
X106867282Y-63605424D02*
X109073251Y-63994396D01*
X109073251Y-63994396D02*
X109809519Y-59818811D01*
X107603550Y-59429839D02*
X106867282Y-63605424D01*
X109705330Y-60409696D02*
X107499361Y-60020724D01*
X109809519Y-59818811D02*
X107603550Y-59429839D01*
X109684493Y-60527873D02*
X107478523Y-60138901D01*
X109663655Y-60646050D02*
X107457685Y-60257078D01*
X107857395Y-64440035D02*
X107970266Y-63799910D01*
%TO.C,D31*%
X130806930Y-120207579D02*
X128600961Y-119818607D01*
X130174851Y-123792279D02*
X130911119Y-119616694D01*
X128705150Y-119227722D02*
X127968882Y-123403307D01*
X130911119Y-119616694D02*
X128705150Y-119227722D01*
X128958995Y-124237918D02*
X129071866Y-123597793D01*
X130765255Y-120443933D02*
X128559285Y-120054961D01*
X129921006Y-118782083D02*
X129808135Y-119422208D01*
X127968882Y-123403307D02*
X130174851Y-123792279D01*
X130786093Y-120325756D02*
X128580123Y-119936784D01*
%TO.C,MX9*%
X205213534Y-79348042D02*
X204070289Y-79544549D01*
X215601301Y-64518937D02*
X215400595Y-63366278D01*
X216667574Y-77318231D02*
X217820233Y-77117525D01*
X202793753Y-65581589D02*
X201641094Y-65782295D01*
X201833112Y-66928871D02*
X201636604Y-65785625D01*
X214254019Y-63558296D02*
X215397264Y-63361788D01*
X203866253Y-78387400D02*
X204066959Y-79540060D01*
X217628215Y-75970949D02*
X217824723Y-77114194D01*
%TO.C,MX4*%
X94552955Y-79280834D02*
X95704746Y-79486465D01*
X82157970Y-75907215D02*
X81952340Y-77059006D01*
X85529996Y-63506872D02*
X84378205Y-63301241D01*
X84166491Y-64444344D02*
X84372847Y-63302835D01*
X95916460Y-78343362D02*
X95710104Y-79484871D01*
X83095443Y-77270720D02*
X81953934Y-77064364D01*
X97928602Y-66888746D02*
X98134233Y-65736955D01*
X96991130Y-65525241D02*
X98132639Y-65731596D01*
%TO.C,D35*%
X201876450Y-56799839D02*
X199670481Y-57188811D01*
X200660594Y-56354200D02*
X200773465Y-56994325D01*
X202612718Y-60975424D02*
X201876450Y-56799839D01*
X202022315Y-57627078D02*
X199816345Y-58016050D01*
X201980639Y-57390724D02*
X199774670Y-57779696D01*
X201622605Y-61810035D02*
X201509734Y-61169910D01*
X200406749Y-61364396D02*
X202612718Y-60975424D01*
X202001477Y-57508901D02*
X199795507Y-57897873D01*
X199670481Y-57188811D02*
X200406749Y-61364396D01*
%TO.C,MX20*%
X199204019Y-88068296D02*
X200347264Y-87871788D01*
X200551301Y-89028937D02*
X200350595Y-87876278D01*
X187743753Y-90091589D02*
X186591094Y-90292295D01*
X201617574Y-101828231D02*
X202770233Y-101627525D01*
X188816253Y-102897400D02*
X189016959Y-104050060D01*
X190163534Y-103858042D02*
X189020289Y-104054549D01*
X202578215Y-100480949D02*
X202774723Y-101624194D01*
X186783112Y-91438871D02*
X186586604Y-90295625D01*
%TO.C,D20*%
X190936749Y-64224396D02*
X193142718Y-63835424D01*
X192152605Y-64670035D02*
X192039734Y-64029910D01*
X191190594Y-59214200D02*
X191303465Y-59854325D01*
X192510639Y-60250724D02*
X190304670Y-60639696D01*
X192552315Y-60487078D02*
X190346345Y-60876050D01*
X192531477Y-60368901D02*
X190325507Y-60757873D01*
X190200481Y-60048811D02*
X190936749Y-64224396D01*
X192406450Y-59659839D02*
X190200481Y-60048811D01*
X193142718Y-63835424D02*
X192406450Y-59659839D01*
%TO.C,MX24*%
X276902022Y-82772827D02*
X276701316Y-81620168D01*
X263133833Y-85182761D02*
X262937325Y-84039515D01*
X275554740Y-81812186D02*
X276697985Y-81615678D01*
X266514255Y-97601932D02*
X265371010Y-97798439D01*
X265166974Y-96641290D02*
X265367680Y-97793950D01*
X264094474Y-83835479D02*
X262941815Y-84036185D01*
X278928936Y-94224839D02*
X279125444Y-95368084D01*
X277968295Y-95572121D02*
X279120954Y-95371415D01*
%TO.C,MX10*%
X235847574Y-76378231D02*
X237000233Y-76177525D01*
X236808215Y-75030949D02*
X237004723Y-76174194D01*
X224393534Y-78408042D02*
X223250289Y-78604549D01*
X223046253Y-77447400D02*
X223246959Y-78600060D01*
X233434019Y-62618296D02*
X234577264Y-62421788D01*
X221973753Y-64641589D02*
X220821094Y-64842295D01*
X221013112Y-65988871D02*
X220816604Y-64845625D01*
X234781301Y-63578937D02*
X234580595Y-62426278D01*
%TO.C,MX17*%
X98115443Y-101710720D02*
X96973934Y-101504364D01*
X100549996Y-87946872D02*
X99398205Y-87741241D01*
X110936460Y-102783362D02*
X110730104Y-103924871D01*
X112011130Y-89965241D02*
X113152639Y-90171596D01*
X109572955Y-103720834D02*
X110724746Y-103926465D01*
X112948602Y-91328746D02*
X113154233Y-90176955D01*
X99186491Y-88884344D02*
X99392847Y-87742835D01*
X97177970Y-100347215D02*
X96972340Y-101499006D01*
%TO.C,MX37*%
X248183753Y-103581589D02*
X247031094Y-103782295D01*
X250603534Y-117348042D02*
X249460289Y-117544549D01*
X247223112Y-104928871D02*
X247026604Y-103785625D01*
X262057574Y-115318231D02*
X263210233Y-115117525D01*
X249256253Y-116387400D02*
X249456959Y-117540060D01*
X263018215Y-113970949D02*
X263214723Y-115114194D01*
X259644019Y-101558296D02*
X260787264Y-101361788D01*
X260991301Y-102518937D02*
X260790595Y-101366278D01*
%TO.C,MX38*%
X281248295Y-114392121D02*
X282400954Y-114191415D01*
X269794255Y-116421932D02*
X268651010Y-116618439D01*
X280182022Y-101592827D02*
X279981316Y-100440168D01*
X267374474Y-102655479D02*
X266221815Y-102856185D01*
X282208936Y-113044839D02*
X282405444Y-114188084D01*
X278834740Y-100632186D02*
X279977985Y-100435678D01*
X266413833Y-104002761D02*
X266217325Y-102859515D01*
X268446974Y-115461290D02*
X268647680Y-116613950D01*
%TO.C,MX36*%
X243438215Y-112570950D02*
X243634723Y-113714195D01*
X240064019Y-100158297D02*
X241207264Y-99961789D01*
X241411301Y-101118938D02*
X241210595Y-99966279D01*
X229676253Y-114987401D02*
X229876959Y-116140061D01*
X227643112Y-103528872D02*
X227446604Y-102385626D01*
X242477574Y-113918232D02*
X243630233Y-113717526D01*
X228603753Y-102181590D02*
X227451094Y-102382296D01*
X231023534Y-115948043D02*
X229880289Y-116144550D01*
%TO.C,D27*%
X80919406Y-52704200D02*
X80806535Y-53344325D01*
X79703550Y-53149839D02*
X78967282Y-57325424D01*
X81173251Y-57714396D02*
X81909519Y-53538811D01*
X81784493Y-54247873D02*
X79578523Y-53858901D01*
X78967282Y-57325424D02*
X81173251Y-57714396D01*
X81763655Y-54366050D02*
X79557685Y-53977078D01*
X81909519Y-53538811D02*
X79703550Y-53149839D01*
X81805330Y-54129696D02*
X79599361Y-53740724D01*
X79957395Y-58160035D02*
X80070266Y-57519910D01*
%TO.C,D11*%
X253712315Y-53757078D02*
X251506345Y-54146050D01*
X253312605Y-57940035D02*
X253199734Y-57299910D01*
X252096749Y-57494396D02*
X254302718Y-57105424D01*
X253670639Y-53520724D02*
X251464670Y-53909696D01*
X254302718Y-57105424D02*
X253566450Y-52929839D01*
X253691477Y-53638901D02*
X251485507Y-54027873D01*
X251360481Y-53318811D02*
X252096749Y-57494396D01*
X253566450Y-52929839D02*
X251360481Y-53318811D01*
X252350594Y-52484200D02*
X252463465Y-53124325D01*
%TO.C,D12*%
X272949040Y-53828607D02*
X270743071Y-54217579D01*
X270638882Y-53626694D02*
X271375150Y-57802279D01*
X273581119Y-57413307D02*
X272844851Y-53237722D01*
X271375150Y-57802279D02*
X273581119Y-57413307D01*
X271628995Y-52792083D02*
X271741866Y-53432208D01*
X272990716Y-54064961D02*
X270784746Y-54453933D01*
X272969878Y-53946784D02*
X270763908Y-54335756D01*
X272591006Y-58247918D02*
X272478135Y-57607793D01*
X272844851Y-53237722D02*
X270638882Y-53626694D01*
%TO.C,D36*%
X220412605Y-58380035D02*
X220299734Y-57739910D01*
X219196749Y-57934396D02*
X221402718Y-57545424D01*
X220812315Y-54197078D02*
X218606345Y-54586050D01*
X220770639Y-53960724D02*
X218564670Y-54349696D01*
X220791477Y-54078901D02*
X218585507Y-54467873D01*
X220666450Y-53369839D02*
X218460481Y-53758811D01*
X219450594Y-52924200D02*
X219563465Y-53564325D01*
X221402718Y-57545424D02*
X220666450Y-53369839D01*
X218460481Y-53758811D02*
X219196749Y-57934396D01*
%TO.C,MX26*%
X40163540Y-101465115D02*
X39011749Y-101259484D01*
X49186499Y-117239077D02*
X50338290Y-117444708D01*
X52562146Y-104846989D02*
X52767777Y-103695198D01*
X37728987Y-115228963D02*
X36587478Y-115022607D01*
X36791514Y-113865458D02*
X36585884Y-115017249D01*
X51624674Y-103483484D02*
X52766183Y-103689839D01*
X50550004Y-116301605D02*
X50343648Y-117443114D01*
X38800035Y-102402587D02*
X39006391Y-101261078D01*
%TO.C,MX8*%
X197241301Y-70258937D02*
X197040595Y-69106278D01*
X183473112Y-72668871D02*
X183276604Y-71525625D01*
X184433753Y-71321589D02*
X183281094Y-71522295D01*
X195894019Y-69298296D02*
X197037264Y-69101788D01*
X199268215Y-81710949D02*
X199464723Y-82854194D01*
X198307574Y-83058231D02*
X199460233Y-82857525D01*
X186853534Y-85088042D02*
X185710289Y-85284549D01*
X185506253Y-84127400D02*
X185706959Y-85280060D01*
%TO.C,D9*%
X214760639Y-54420724D02*
X212554670Y-54809696D01*
X213186749Y-58394396D02*
X215392718Y-58005424D01*
X214656450Y-53829839D02*
X212450481Y-54218811D01*
X214781477Y-54538901D02*
X212575507Y-54927873D01*
X215392718Y-58005424D02*
X214656450Y-53829839D01*
X212450481Y-54218811D02*
X213186749Y-58394396D01*
X213440594Y-53384200D02*
X213553465Y-54024325D01*
X214402605Y-58840035D02*
X214289734Y-58199910D01*
X214802315Y-54657078D02*
X212596345Y-55046050D01*
%TO.C,D7*%
X178396450Y-63939839D02*
X176190481Y-64328811D01*
X178500639Y-64530724D02*
X176294670Y-64919696D01*
X179132718Y-68115424D02*
X178396450Y-63939839D01*
X176190481Y-64328811D02*
X176926749Y-68504396D01*
X178521477Y-64648901D02*
X176315507Y-65037873D01*
X178142605Y-68950035D02*
X178029734Y-68309910D01*
X176926749Y-68504396D02*
X179132718Y-68115424D01*
X177180594Y-63494200D02*
X177293465Y-64134325D01*
X178542315Y-64767078D02*
X176336345Y-65156050D01*
%TO.C,D21*%
X207672605Y-60050035D02*
X207559734Y-59409910D01*
X206456749Y-59604396D02*
X208662718Y-59215424D01*
X208051477Y-55748901D02*
X205845507Y-56137873D01*
X205720481Y-55428811D02*
X206456749Y-59604396D01*
X208662718Y-59215424D02*
X207926450Y-55039839D01*
X208030639Y-55630724D02*
X205824670Y-56019696D01*
X207926450Y-55039839D02*
X205720481Y-55428811D01*
X206710594Y-54594200D02*
X206823465Y-55234325D01*
X208072315Y-55867078D02*
X205866345Y-56256050D01*
%TO.C,D4*%
X85583550Y-53949839D02*
X84847282Y-58125424D01*
X87053251Y-58514396D02*
X87789519Y-54338811D01*
X84847282Y-58125424D02*
X87053251Y-58514396D01*
X86799406Y-53504200D02*
X86686535Y-54144325D01*
X87643655Y-55166050D02*
X85437685Y-54777078D01*
X87664493Y-55047873D02*
X85458523Y-54658901D01*
X87789519Y-54338811D02*
X85583550Y-53949839D01*
X85837395Y-58960035D02*
X85950266Y-58319910D01*
X87685330Y-54929696D02*
X85479361Y-54540724D01*
%TO.C,MX7*%
X180868215Y-87260949D02*
X181064723Y-88404194D01*
X168453534Y-90638042D02*
X167310289Y-90834549D01*
X165073112Y-78218871D02*
X164876604Y-77075625D01*
X179907574Y-88608231D02*
X181060233Y-88407525D01*
X178841301Y-75808937D02*
X178640595Y-74656278D01*
X167106253Y-89677400D02*
X167306959Y-90830060D01*
X177494019Y-74848296D02*
X178637264Y-74651788D01*
X166033753Y-76871589D02*
X164881094Y-77072295D01*
%TO.C,MX5*%
X116248602Y-72538746D02*
X116454233Y-71386955D01*
X103849996Y-69156872D02*
X102698205Y-68951241D01*
X115311130Y-71175241D02*
X116452639Y-71381596D01*
X112872955Y-84930834D02*
X114024746Y-85136465D01*
X100477970Y-81557215D02*
X100272340Y-82709006D01*
X102486491Y-70094344D02*
X102692847Y-68952835D01*
X114236460Y-83993362D02*
X114030104Y-85134871D01*
X101415443Y-82920720D02*
X100273934Y-82714364D01*
%TO.C,D1*%
X29296930Y-54187579D02*
X27090961Y-53798607D01*
X28664851Y-57772279D02*
X29401119Y-53596694D01*
X29276093Y-54305756D02*
X27070123Y-53916784D01*
X29255255Y-54423933D02*
X27049285Y-54034961D01*
X27448995Y-58217918D02*
X27561866Y-57577793D01*
X28411006Y-52762083D02*
X28298135Y-53402208D01*
X26458882Y-57383307D02*
X28664851Y-57772279D01*
X29401119Y-53596694D02*
X27195150Y-53207722D01*
X27195150Y-53207722D02*
X26458882Y-57383307D01*
%TO.C,MX35*%
X223267574Y-114828232D02*
X224420233Y-114627526D01*
X209393753Y-103091590D02*
X208241094Y-103292296D01*
X224228215Y-113480950D02*
X224424723Y-114624195D01*
X222201301Y-102028938D02*
X222000595Y-100876279D01*
X211813534Y-116858043D02*
X210670289Y-117054550D01*
X210466253Y-115897401D02*
X210666959Y-117050061D01*
X220854019Y-101068297D02*
X221997264Y-100871789D01*
X208433112Y-104438872D02*
X208236604Y-103295626D01*
%TO.C,G\u002A\u002A\u002A*%
G36*
X155870000Y-99618240D02*
G01*
X155769545Y-99965278D01*
X155508403Y-100528217D01*
X155146907Y-101203218D01*
X154745391Y-101886445D01*
X154364188Y-102474059D01*
X154063632Y-102862222D01*
X153928316Y-102960000D01*
X153715181Y-102782974D01*
X153488041Y-102354001D01*
X153476875Y-102325000D01*
X153249505Y-101845340D01*
X153017685Y-101737501D01*
X152702881Y-102000690D01*
X152457472Y-102314710D01*
X151965969Y-102871092D01*
X151571426Y-103048417D01*
X151225615Y-102865286D01*
X151175892Y-102808994D01*
X150998625Y-102331205D01*
X150943438Y-101505229D01*
X150951444Y-101209505D01*
X151009078Y-100359299D01*
X151104988Y-99855082D01*
X151262350Y-99619776D01*
X151443387Y-99573334D01*
X151539598Y-99770912D01*
X151554028Y-100322119D01*
X151507498Y-100949167D01*
X151445370Y-101700200D01*
X151460625Y-102120673D01*
X151565104Y-102298252D01*
X151693323Y-102325000D01*
X151954083Y-102162622D01*
X152337861Y-101755797D01*
X152753080Y-101224989D01*
X153108165Y-100690663D01*
X153311538Y-100273282D01*
X153330000Y-100172044D01*
X153492103Y-100001554D01*
X153541667Y-99996667D01*
X153661563Y-100187213D01*
X153738281Y-100675180D01*
X153753333Y-101072639D01*
X153798182Y-101751325D01*
X153939325Y-102036081D01*
X154186659Y-101924739D01*
X154550082Y-101415126D01*
X154875632Y-100826442D01*
X155337999Y-99982191D01*
X155650662Y-99517017D01*
X155824130Y-99418150D01*
X155870000Y-99618240D01*
G37*
G36*
X159653883Y-99439019D02*
G01*
X159614539Y-99650285D01*
X159546212Y-99916783D01*
X159675138Y-99967198D01*
X160070507Y-99802816D01*
X160344616Y-99663852D01*
X160997888Y-99437570D01*
X161409899Y-99558756D01*
X161580047Y-100027165D01*
X161585000Y-100163984D01*
X161517233Y-100711680D01*
X161345341Y-101433807D01*
X161116439Y-102174207D01*
X160877643Y-102776725D01*
X160713727Y-103051722D01*
X160487453Y-103200671D01*
X160427008Y-102983392D01*
X160531437Y-102422748D01*
X160773611Y-101619445D01*
X160987458Y-100905232D01*
X161106435Y-100355078D01*
X161106197Y-100082990D01*
X161102600Y-100078712D01*
X160801486Y-100042535D01*
X160314637Y-100215988D01*
X159776419Y-100531663D01*
X159321194Y-100922154D01*
X159246903Y-101009655D01*
X158928501Y-101587221D01*
X158710373Y-102286017D01*
X158697858Y-102356837D01*
X158558566Y-102893449D01*
X158391467Y-103151692D01*
X158254972Y-103091277D01*
X158206964Y-102695417D01*
X158286610Y-102181212D01*
X158480923Y-101492023D01*
X158743981Y-100748340D01*
X159029865Y-100070650D01*
X159292652Y-99579443D01*
X159463472Y-99398565D01*
X159653883Y-99439019D01*
G37*
G36*
X157952599Y-98200264D02*
G01*
X157953965Y-98420166D01*
X157750959Y-98791385D01*
X157596035Y-98892254D01*
X157385734Y-98829736D01*
X157384368Y-98609834D01*
X157587374Y-98238616D01*
X157742298Y-98137746D01*
X157952599Y-98200264D01*
G37*
G36*
X149937128Y-99563257D02*
G01*
X149802748Y-99894401D01*
X149457809Y-100361060D01*
X149290343Y-100544395D01*
X148894707Y-100976924D01*
X148758756Y-101275798D01*
X148844622Y-101608481D01*
X148985687Y-101891715D01*
X149202865Y-102479439D01*
X149259663Y-102996957D01*
X149255416Y-103027243D01*
X149181602Y-103243296D01*
X149055980Y-103142836D01*
X148837802Y-102687026D01*
X148796256Y-102589584D01*
X148542158Y-102055696D01*
X148334223Y-101733292D01*
X148271938Y-101690000D01*
X148038138Y-101816114D01*
X147614093Y-102134718D01*
X147395338Y-102316398D01*
X146823150Y-102741898D01*
X146387998Y-102945364D01*
X146161394Y-102899054D01*
X146145387Y-102801250D01*
X146307630Y-102599436D01*
X146717968Y-102232715D01*
X147206403Y-101843425D01*
X148255364Y-101044351D01*
X147919574Y-100395005D01*
X147728628Y-99897818D01*
X147735044Y-99612750D01*
X147907858Y-99609425D01*
X148153839Y-99868266D01*
X148418455Y-100279882D01*
X148522138Y-100495581D01*
X148690540Y-100490430D01*
X149034874Y-100223571D01*
X149264400Y-99989315D01*
X149668823Y-99600514D01*
X149902075Y-99495153D01*
X149937128Y-99563257D01*
G37*
G36*
X162837002Y-100943715D02*
G01*
X162912680Y-100827161D01*
X163490620Y-100156274D01*
X164116482Y-99730702D01*
X164692964Y-99609320D01*
X164861271Y-99648127D01*
X165079472Y-99796991D01*
X165163834Y-100095656D01*
X165137155Y-100659217D01*
X165110074Y-100904234D01*
X164880938Y-102171998D01*
X164528489Y-103263071D01*
X164087815Y-104085585D01*
X163758923Y-104442061D01*
X163266248Y-104732364D01*
X162799944Y-104860220D01*
X162489414Y-104802991D01*
X162431667Y-104674241D01*
X162597571Y-104456623D01*
X163011758Y-104145920D01*
X163175755Y-104044459D01*
X163822988Y-103492615D01*
X164238204Y-102799364D01*
X164336667Y-102299254D01*
X164181662Y-102251553D01*
X163800995Y-102407442D01*
X163725260Y-102450566D01*
X163095774Y-102689756D01*
X162662424Y-102599167D01*
X162454990Y-102238297D01*
X162483974Y-101895014D01*
X162858619Y-101895014D01*
X163024739Y-102091271D01*
X163465001Y-102012954D01*
X163713391Y-101895392D01*
X164049636Y-101590792D01*
X164413626Y-101098535D01*
X164686542Y-100596942D01*
X164760000Y-100324678D01*
X164615582Y-100174462D01*
X164262701Y-100243103D01*
X163821911Y-100483082D01*
X163413768Y-100846879D01*
X163402982Y-100859574D01*
X162980185Y-101469381D01*
X162858619Y-101895014D01*
X162483974Y-101895014D01*
X162503256Y-101666647D01*
X162837002Y-100943715D01*
G37*
G36*
X157338611Y-100189007D02*
G01*
X157232330Y-100844794D01*
X157002694Y-101781947D01*
X156748677Y-102621171D01*
X156535684Y-103142053D01*
X156380670Y-103317036D01*
X156300591Y-103118559D01*
X156293333Y-102934918D01*
X156354831Y-102412825D01*
X156511614Y-101705316D01*
X156722117Y-100958010D01*
X156944775Y-100316526D01*
X157138021Y-99926481D01*
X157159217Y-99901417D01*
X157315234Y-99862609D01*
X157338611Y-100189007D01*
G37*
G36*
X143584206Y-100596005D02*
G01*
X144225673Y-99974491D01*
X144960940Y-99618767D01*
X145315212Y-99573334D01*
X145644348Y-99592009D01*
X145833177Y-99697925D01*
X145890872Y-99965917D01*
X145826605Y-100470820D01*
X145649549Y-101287469D01*
X145568178Y-101637084D01*
X145349231Y-102447960D01*
X145147278Y-102976496D01*
X144984872Y-103187520D01*
X144884567Y-103045857D01*
X144863333Y-102736367D01*
X144838714Y-102456190D01*
X144689526Y-102426048D01*
X144302775Y-102632240D01*
X144251927Y-102662233D01*
X143623585Y-102901798D01*
X143178923Y-102801178D01*
X142968459Y-102377827D01*
X142958333Y-102215299D01*
X142997713Y-102023740D01*
X143381667Y-102023740D01*
X143483119Y-102438335D01*
X143780041Y-102485065D01*
X144261279Y-102165550D01*
X144586795Y-101848750D01*
X145026837Y-101313451D01*
X145333820Y-100810569D01*
X145383414Y-100684584D01*
X145425948Y-100330241D01*
X145181403Y-100214417D01*
X145002246Y-100208334D01*
X144479233Y-100388542D01*
X143954563Y-100839272D01*
X143548608Y-101425682D01*
X143381738Y-102012929D01*
X143381667Y-102023740D01*
X142997713Y-102023740D01*
X143130454Y-101378033D01*
X143584206Y-100596005D01*
G37*
G36*
X142504967Y-97506222D02*
G01*
X142502256Y-98090805D01*
X142476150Y-98389044D01*
X142274359Y-99388582D01*
X141896205Y-100499287D01*
X141405409Y-101574180D01*
X140865691Y-102466281D01*
X140538022Y-102859553D01*
X139998170Y-103214165D01*
X139531792Y-103164329D01*
X139180463Y-102727726D01*
X139028213Y-102217455D01*
X138889876Y-101480054D01*
X137897068Y-102537527D01*
X137290948Y-103155509D01*
X136876508Y-103483952D01*
X136576322Y-103560114D01*
X136312967Y-103421251D01*
X136227333Y-103341000D01*
X136043868Y-102957456D01*
X135973333Y-102441940D01*
X136035274Y-101972100D01*
X136199471Y-101278773D01*
X136433492Y-100460662D01*
X136704899Y-99616469D01*
X136981258Y-98844898D01*
X137230134Y-98244651D01*
X137419092Y-97914430D01*
X137472455Y-97880000D01*
X137619964Y-97954393D01*
X137641807Y-98215235D01*
X137527127Y-98719022D01*
X137265070Y-99522249D01*
X137031667Y-100173914D01*
X136678794Y-101175554D01*
X136479748Y-101856312D01*
X136425993Y-102286268D01*
X136508993Y-102535499D01*
X136720210Y-102674084D01*
X136726803Y-102676638D01*
X137133267Y-102617801D01*
X137650166Y-102219109D01*
X138227463Y-101532444D01*
X138815120Y-100609690D01*
X138939897Y-100381897D01*
X139290704Y-99767250D01*
X139571487Y-99354762D01*
X139723037Y-99231088D01*
X139725032Y-99232810D01*
X139743590Y-99486044D01*
X139664118Y-100003391D01*
X139588434Y-100335268D01*
X139426332Y-101325714D01*
X139477767Y-102032331D01*
X139700689Y-102428355D01*
X140053050Y-102487020D01*
X140492802Y-102181562D01*
X140977897Y-101485216D01*
X141082011Y-101285976D01*
X141446988Y-100408866D01*
X141767388Y-99393464D01*
X141906837Y-98796266D01*
X142096701Y-97965989D01*
X142276683Y-97462059D01*
X142421274Y-97302721D01*
X142504967Y-97506222D01*
G37*
%TO.C,D38*%
X259892315Y-54047078D02*
X257686345Y-54436050D01*
X259871477Y-53928901D02*
X257665507Y-54317873D01*
X257540481Y-53608811D02*
X258276749Y-57784396D01*
X259850639Y-53810724D02*
X257644670Y-54199696D01*
X259492605Y-58230035D02*
X259379734Y-57589910D01*
X258276749Y-57784396D02*
X260482718Y-57395424D01*
X259746450Y-53219839D02*
X257540481Y-53608811D01*
X258530594Y-52774200D02*
X258643465Y-53414325D01*
X260482718Y-57395424D02*
X259746450Y-53219839D01*
%TO.C,D39*%
X118173251Y-66804396D02*
X118909519Y-62628811D01*
X116703550Y-62239839D02*
X115967282Y-66415424D01*
X118784493Y-63337873D02*
X116578523Y-62948901D01*
X115967282Y-66415424D02*
X118173251Y-66804396D01*
X118763655Y-63456050D02*
X116557685Y-63067078D01*
X116957395Y-67250035D02*
X117070266Y-66609910D01*
X118909519Y-62628811D02*
X116703550Y-62239839D01*
X117919406Y-61794200D02*
X117806535Y-62434325D01*
X118805330Y-63219696D02*
X116599361Y-62830724D01*
%TO.C,MX1*%
X39094674Y-64993484D02*
X40236183Y-65199839D01*
X25198987Y-76738963D02*
X24057478Y-76532607D01*
X27633540Y-62975115D02*
X26481749Y-62769484D01*
X24261514Y-75375458D02*
X24055884Y-76527249D01*
X36656499Y-78749077D02*
X37808290Y-78954708D01*
X40032146Y-66356989D02*
X40237777Y-65205198D01*
X38020004Y-77811605D02*
X37813648Y-78953114D01*
X26270035Y-63912587D02*
X26476391Y-62771078D01*
%TO.C,MX14*%
X53890004Y-97531605D02*
X53683648Y-98673114D01*
X40131514Y-95095458D02*
X39925884Y-96247249D01*
X42140035Y-83632587D02*
X42346391Y-82491078D01*
X41068987Y-96458963D02*
X39927478Y-96252607D01*
X43503540Y-82695115D02*
X42351749Y-82489484D01*
X52526499Y-98469077D02*
X53678290Y-98674708D01*
X54964674Y-84713484D02*
X56106183Y-84919839D01*
X55902146Y-86076989D02*
X56107777Y-84925198D01*
%TO.C,D6*%
X121797395Y-68940035D02*
X121910266Y-68299910D01*
X123624493Y-65027873D02*
X121418523Y-64638901D01*
X120807282Y-68105424D02*
X123013251Y-68494396D01*
X123603655Y-65146050D02*
X121397685Y-64757078D01*
X122759406Y-63484200D02*
X122646535Y-64124325D01*
X121543550Y-63929839D02*
X120807282Y-68105424D01*
X123749519Y-64318811D02*
X121543550Y-63929839D01*
X123013251Y-68494396D02*
X123749519Y-64318811D01*
X123645330Y-64909696D02*
X121439361Y-64520724D01*
%TO.C,D2*%
X49254493Y-53997873D02*
X47048523Y-53608901D01*
X48643251Y-57464396D02*
X49379519Y-53288811D01*
X49275330Y-53879696D02*
X47069361Y-53490724D01*
X47427395Y-57910035D02*
X47540266Y-57269910D01*
X48389406Y-52454200D02*
X48276535Y-53094325D01*
X49233655Y-54116050D02*
X47027685Y-53727078D01*
X47173550Y-52899839D02*
X46437282Y-57075424D01*
X49379519Y-53288811D02*
X47173550Y-52899839D01*
X46437282Y-57075424D02*
X48643251Y-57464396D01*
%TO.C,D26*%
X62324493Y-53557873D02*
X60118523Y-53168901D01*
X62449519Y-52848811D02*
X60243550Y-52459839D01*
X61713251Y-57024396D02*
X62449519Y-52848811D01*
X61459406Y-52014200D02*
X61346535Y-52654325D01*
X60243550Y-52459839D02*
X59507282Y-56635424D01*
X62345330Y-53439696D02*
X60139361Y-53050724D01*
X62303655Y-53676050D02*
X60097685Y-53287078D01*
X60497395Y-57470035D02*
X60610266Y-56829910D01*
X59507282Y-56635424D02*
X61713251Y-57024396D01*
%TO.C,D28*%
X97137282Y-60655424D02*
X99343251Y-61044396D01*
X100079519Y-56868811D02*
X97873550Y-56479839D01*
X97873550Y-56479839D02*
X97137282Y-60655424D01*
X98127395Y-61490035D02*
X98240266Y-60849910D01*
X99975330Y-57459696D02*
X97769361Y-57070724D01*
X99933655Y-57696050D02*
X97727685Y-57307078D01*
X99954493Y-57577873D02*
X97748523Y-57188901D01*
X99343251Y-61044396D02*
X100079519Y-56868811D01*
X99089406Y-56034200D02*
X98976535Y-56674325D01*
%TO.C,D18*%
X128299519Y-65728811D02*
X126093550Y-65339839D01*
X127563251Y-69904396D02*
X128299519Y-65728811D01*
X127309406Y-64894200D02*
X127196535Y-65534325D01*
X128195330Y-66319696D02*
X125989361Y-65930724D01*
X128153655Y-66556050D02*
X125947685Y-66167078D01*
X126093550Y-65339839D02*
X125357282Y-69515424D01*
X125357282Y-69515424D02*
X127563251Y-69904396D01*
X128174493Y-66437873D02*
X125968523Y-66048901D01*
X126347395Y-70350035D02*
X126460266Y-69709910D01*
%TO.C,MX29*%
X109648602Y-110088746D02*
X109854233Y-108936955D01*
X95886491Y-107644344D02*
X96092847Y-106502835D01*
X107636460Y-121543362D02*
X107430104Y-122684871D01*
X108711130Y-108725241D02*
X109852639Y-108931596D01*
X97249996Y-106706872D02*
X96098205Y-106501241D01*
X94815443Y-120470720D02*
X93673934Y-120264364D01*
X93877970Y-119107215D02*
X93672340Y-120259006D01*
X106272955Y-122480834D02*
X107424746Y-122686465D01*
%TO.C,MX32*%
X166751301Y-116588938D02*
X166550595Y-115436279D01*
X153943753Y-117651590D02*
X152791094Y-117852296D01*
X152983112Y-118998872D02*
X152786604Y-117855626D01*
X168778215Y-128040950D02*
X168974723Y-129184195D01*
X156363534Y-131418043D02*
X155220289Y-131614550D01*
X165404019Y-115628297D02*
X166547264Y-115431789D01*
X167817574Y-129388232D02*
X168970233Y-129187526D01*
X155016253Y-130457401D02*
X155216959Y-131610061D01*
%TO.C,D13*%
X34097282Y-57295424D02*
X36303251Y-57684396D01*
X34833550Y-53119839D02*
X34097282Y-57295424D01*
X36914493Y-54217873D02*
X34708523Y-53828901D01*
X36935330Y-54099696D02*
X34729361Y-53710724D01*
X36303251Y-57684396D02*
X37039519Y-53508811D01*
X36893655Y-54336050D02*
X34687685Y-53947078D01*
X35087395Y-58130035D02*
X35200266Y-57489910D01*
X37039519Y-53508811D02*
X34833550Y-53119839D01*
X36049406Y-52674200D02*
X35936535Y-53314325D01*
%TO.C,MX3*%
X65020036Y-63412587D02*
X65226392Y-62271078D01*
X76770005Y-77311605D02*
X76563649Y-78453114D01*
X63948988Y-76238963D02*
X62807479Y-76032607D01*
X75406500Y-78249077D02*
X76558291Y-78454708D01*
X63011515Y-74875458D02*
X62805885Y-76027249D01*
X78782147Y-65856989D02*
X78987778Y-64705198D01*
X66383541Y-62475115D02*
X65231750Y-62269484D01*
X77844675Y-64493484D02*
X78986184Y-64699839D01*
%TO.C,D41*%
X158250000Y-141360000D02*
X158250000Y-142010000D01*
X159370000Y-142010000D02*
X157130000Y-142010000D01*
X158250000Y-146900000D02*
X158250000Y-146250000D01*
X157130000Y-142010000D02*
X157130000Y-146250000D01*
X159370000Y-142730000D02*
X157130000Y-142730000D01*
X159370000Y-142850000D02*
X157130000Y-142850000D01*
X159370000Y-142610000D02*
X157130000Y-142610000D01*
X159370000Y-146250000D02*
X159370000Y-142010000D01*
X157130000Y-146250000D02*
X159370000Y-146250000D01*
%TO.C,MX28*%
X87936499Y-116839077D02*
X89088290Y-117044708D01*
X89300004Y-115901605D02*
X89093648Y-117043114D01*
X77550035Y-102002587D02*
X77756391Y-100861078D01*
X90374674Y-103083484D02*
X91516183Y-103289839D01*
X76478987Y-114828963D02*
X75337478Y-114622607D01*
X91312146Y-104446989D02*
X91517777Y-103295198D01*
X75541514Y-113465458D02*
X75335884Y-114617249D01*
X78913540Y-101065115D02*
X77761749Y-100859484D01*
%TO.C,MX13*%
X24313540Y-81715115D02*
X23161749Y-81509484D01*
X33336499Y-97489077D02*
X34488290Y-97694708D01*
X22950035Y-82652587D02*
X23156391Y-81511078D01*
X20941514Y-94115458D02*
X20735884Y-95267249D01*
X35774674Y-83733484D02*
X36916183Y-83939839D01*
X21878987Y-95478963D02*
X20737478Y-95272607D01*
X36712146Y-85096989D02*
X36917777Y-83945198D01*
X34700004Y-96551605D02*
X34493648Y-97693114D01*
%TO.C,D19*%
X172136749Y-69954396D02*
X174342718Y-69565424D01*
X174342718Y-69565424D02*
X173606450Y-65389839D01*
X173352605Y-70400035D02*
X173239734Y-69759910D01*
X173606450Y-65389839D02*
X171400481Y-65778811D01*
X173731477Y-66098901D02*
X171525507Y-66487873D01*
X173752315Y-66217078D02*
X171546345Y-66606050D01*
X171400481Y-65778811D02*
X172136749Y-69954396D01*
X173710639Y-65980724D02*
X171504670Y-66369696D01*
X172390594Y-64944200D02*
X172503465Y-65584325D01*
%TO.C,MX16*%
X80830035Y-83192587D02*
X81036391Y-82051078D01*
X91216499Y-98029077D02*
X92368290Y-98234708D01*
X93654674Y-84273484D02*
X94796183Y-84479839D01*
X92580004Y-97091605D02*
X92373648Y-98233114D01*
X82193540Y-82255115D02*
X81041749Y-82049484D01*
X78821514Y-94655458D02*
X78615884Y-95807249D01*
X79758987Y-96018963D02*
X78617478Y-95812607D01*
X94592146Y-85636989D02*
X94797777Y-84485198D01*
%TO.C,MX18*%
X117516491Y-94494344D02*
X117722847Y-93352835D01*
X115507970Y-105957215D02*
X115302340Y-107109006D01*
X131278602Y-96938746D02*
X131484233Y-95786955D01*
X129266460Y-108393362D02*
X129060104Y-109534871D01*
X130341130Y-95575241D02*
X131482639Y-95781596D01*
X127902955Y-109330834D02*
X129054746Y-109536465D01*
X118879996Y-93556872D02*
X117728205Y-93351241D01*
X116445443Y-107320720D02*
X115303934Y-107114364D01*
%TO.C,D5*%
X104863251Y-62644396D02*
X105599519Y-58468811D01*
X105453655Y-59296050D02*
X103247685Y-58907078D01*
X105599519Y-58468811D02*
X103393550Y-58079839D01*
X103393550Y-58079839D02*
X102657282Y-62255424D01*
X103647395Y-63090035D02*
X103760266Y-62449910D01*
X105495330Y-59059696D02*
X103289361Y-58670724D01*
X104609406Y-57634200D02*
X104496535Y-58274325D01*
X105474493Y-59177873D02*
X103268523Y-58788901D01*
X102657282Y-62255424D02*
X104863251Y-62644396D01*
%TO.C,MX39*%
X91478988Y-139228963D02*
X90337479Y-139022607D01*
X92550036Y-126402587D02*
X92756392Y-125261078D01*
X102936500Y-141239077D02*
X104088291Y-141444708D01*
X90541515Y-137865458D02*
X90335885Y-139017249D01*
X106312147Y-128846989D02*
X106517778Y-127695198D01*
X105374675Y-127483484D02*
X106516184Y-127689839D01*
X104300005Y-140301605D02*
X104093649Y-141443114D01*
X93913541Y-125465115D02*
X92761750Y-125259484D01*
%TO.C,D22*%
X226781477Y-53858901D02*
X224575507Y-54247873D01*
X225440594Y-52704200D02*
X225553465Y-53344325D01*
X226402605Y-58160035D02*
X226289734Y-57519910D01*
X227392718Y-57325424D02*
X226656450Y-53149839D01*
X224450481Y-53538811D02*
X225186749Y-57714396D01*
X226656450Y-53149839D02*
X224450481Y-53538811D01*
X225186749Y-57714396D02*
X227392718Y-57325424D01*
X226802315Y-53977078D02*
X224596345Y-54366050D01*
X226760639Y-53740724D02*
X224554670Y-54129696D01*
%TO.C,D24*%
X266166450Y-53069839D02*
X263960481Y-53458811D01*
X266270639Y-53660724D02*
X264064670Y-54049696D01*
X266291477Y-53778901D02*
X264085507Y-54167873D01*
X265912605Y-58080035D02*
X265799734Y-57439910D01*
X264696749Y-57634396D02*
X266902718Y-57245424D01*
X264950594Y-52624200D02*
X265063465Y-53264325D01*
X266312315Y-53897078D02*
X264106345Y-54286050D01*
X266902718Y-57245424D02*
X266166450Y-53069839D01*
X263960481Y-53458811D02*
X264696749Y-57634396D01*
%TO.C,MX15*%
X74504674Y-83313484D02*
X75646183Y-83519839D01*
X63043540Y-81295115D02*
X61891749Y-81089484D01*
X72066499Y-97069077D02*
X73218290Y-97274708D01*
X61680035Y-82232587D02*
X61886391Y-81091078D01*
X59671514Y-93695458D02*
X59465884Y-94847249D01*
X75442146Y-84676989D02*
X75647777Y-83525198D01*
X60608987Y-95058963D02*
X59467478Y-94852607D01*
X73430004Y-96131605D02*
X73223648Y-97273114D01*
%TO.C,MX27*%
X71184675Y-102103484D02*
X72326184Y-102309839D01*
X57288988Y-113848963D02*
X56147479Y-113642607D01*
X59723541Y-100085115D02*
X58571750Y-99879484D01*
X72122147Y-103466989D02*
X72327778Y-102315198D01*
X70110005Y-114921605D02*
X69903649Y-116063114D01*
X56351515Y-112485458D02*
X56145885Y-113637249D01*
X68746500Y-115859077D02*
X69898291Y-116064708D01*
X58360036Y-101022587D02*
X58566392Y-99881078D01*
%TO.C,D16*%
X93264851Y-59452279D02*
X94001119Y-55276694D01*
X92048995Y-59897918D02*
X92161866Y-59257793D01*
X91058882Y-59063307D02*
X93264851Y-59452279D01*
X94001119Y-55276694D02*
X91795150Y-54887722D01*
X93855255Y-56103933D02*
X91649285Y-55714961D01*
X93011006Y-54442083D02*
X92898135Y-55082208D01*
X93896930Y-55867579D02*
X91690961Y-55478607D01*
X93876093Y-55985756D02*
X91670123Y-55596784D01*
X91795150Y-54887722D02*
X91058882Y-59063307D01*
%TO.C,MX19*%
X182191301Y-94538937D02*
X181990595Y-93386278D01*
X168423112Y-96948871D02*
X168226604Y-95805625D01*
X180844019Y-93578296D02*
X181987264Y-93381788D01*
X183257574Y-107338231D02*
X184410233Y-107137525D01*
X184218215Y-105990949D02*
X184414723Y-107134194D01*
X171803534Y-109368042D02*
X170660289Y-109564549D01*
X170456253Y-108407400D02*
X170656959Y-109560060D01*
X169383753Y-95601589D02*
X168231094Y-95802295D01*
%TO.C,MX6*%
X131216499Y-90539077D02*
X132368290Y-90744708D01*
X118821514Y-87165458D02*
X118615884Y-88317249D01*
X134592146Y-78146989D02*
X134797777Y-76995198D01*
X132580004Y-89601605D02*
X132373648Y-90743114D01*
X133654674Y-76783484D02*
X134796183Y-76989839D01*
X122193540Y-74765115D02*
X121041749Y-74559484D01*
X120830035Y-75702587D02*
X121036391Y-74561078D01*
X119758987Y-88528963D02*
X118617478Y-88322607D01*
%TO.C,D29*%
X111607282Y-64865424D02*
X113813251Y-65254396D01*
X112597395Y-65700035D02*
X112710266Y-65059910D01*
X114549519Y-61078811D02*
X112343550Y-60689839D01*
X113559406Y-60244200D02*
X113446535Y-60884325D01*
X114403655Y-61906050D02*
X112197685Y-61517078D01*
X113813251Y-65254396D02*
X114549519Y-61078811D01*
X114445330Y-61669696D02*
X112239361Y-61280724D01*
X112343550Y-60689839D02*
X111607282Y-64865424D01*
X114424493Y-61787873D02*
X112218523Y-61398901D01*
%TO.C,D34*%
X187811477Y-61746784D02*
X185605507Y-62135756D01*
X187432605Y-66047918D02*
X187319734Y-65407793D01*
X187686450Y-61037722D02*
X185480481Y-61426694D01*
X186216749Y-65602279D02*
X188422718Y-65213307D01*
X186470594Y-60592083D02*
X186583465Y-61232208D01*
X188422718Y-65213307D02*
X187686450Y-61037722D01*
X187790639Y-61628607D02*
X185584670Y-62017579D01*
X187832315Y-61864961D02*
X185626345Y-62253933D01*
X185480481Y-61426694D02*
X186216749Y-65602279D01*
%TO.C,MX23*%
X256334019Y-82758296D02*
X257477264Y-82561788D01*
X244873753Y-84781589D02*
X243721094Y-84982295D01*
X259708215Y-95170949D02*
X259904723Y-96314194D01*
X243913112Y-86128871D02*
X243716604Y-84985625D01*
X245946253Y-97587400D02*
X246146959Y-98740060D01*
X258747574Y-96518231D02*
X259900233Y-96317525D01*
X247293534Y-98548042D02*
X246150289Y-98744549D01*
X257681301Y-83718937D02*
X257480595Y-82566278D01*
%TO.C,MX12*%
X272224019Y-63038297D02*
X273367264Y-62841789D01*
X274637574Y-76798232D02*
X275790233Y-76597526D01*
X273571301Y-63998938D02*
X273370595Y-62846279D01*
X261836253Y-77867401D02*
X262036959Y-79020061D01*
X260763753Y-65061590D02*
X259611094Y-65262296D01*
X259803112Y-66408872D02*
X259606604Y-65265626D01*
X275598215Y-75450950D02*
X275794723Y-76594195D01*
X263183534Y-78828043D02*
X262040289Y-79024550D01*
%TO.C,D15*%
X75369519Y-53138811D02*
X73163550Y-52749839D01*
X73163550Y-52749839D02*
X72427282Y-56925424D01*
X73417395Y-57760035D02*
X73530266Y-57119910D01*
X75244493Y-53847873D02*
X73038523Y-53458901D01*
X75223655Y-53966050D02*
X73017685Y-53577078D01*
X74379406Y-52304200D02*
X74266535Y-52944325D01*
X74633251Y-57314396D02*
X75369519Y-53138811D01*
X72427282Y-56925424D02*
X74633251Y-57314396D01*
X75265330Y-53729696D02*
X73059361Y-53340724D01*
%TO.C,D10*%
X233614851Y-52887722D02*
X231408882Y-53276694D01*
X233760716Y-53714961D02*
X231554746Y-54103933D01*
X233719040Y-53478607D02*
X231513071Y-53867579D01*
X231408882Y-53276694D02*
X232145150Y-57452279D01*
X232398995Y-52442083D02*
X232511866Y-53082208D01*
X232145150Y-57452279D02*
X234351119Y-57063307D01*
X233361006Y-57897918D02*
X233248135Y-57257793D01*
X234351119Y-57063307D02*
X233614851Y-52887722D01*
X233739878Y-53596784D02*
X231533908Y-53985756D01*
%TO.C,D42*%
X164109040Y-68168606D02*
X161903071Y-68557578D01*
X164004851Y-67577721D02*
X161798882Y-67966693D01*
X161798882Y-67966693D02*
X162535150Y-72142278D01*
X162788995Y-67132082D02*
X162901866Y-67772207D01*
X164150716Y-68404960D02*
X161944746Y-68793932D01*
X162535150Y-72142278D02*
X164741119Y-71753306D01*
X163751006Y-72587917D02*
X163638135Y-71947792D01*
X164129878Y-68286783D02*
X161923908Y-68675755D01*
X164741119Y-71753306D02*
X164004851Y-67577721D01*
%TO.C,D33*%
X168342605Y-71350035D02*
X168229734Y-70709910D01*
X169332718Y-70515424D02*
X168596450Y-66339839D01*
X167126749Y-70904396D02*
X169332718Y-70515424D01*
X168742315Y-67167078D02*
X166536345Y-67556050D01*
X168700639Y-66930724D02*
X166494670Y-67319696D01*
X166390481Y-66728811D02*
X167126749Y-70904396D01*
X168596450Y-66339839D02*
X166390481Y-66728811D01*
X167380594Y-65894200D02*
X167493465Y-66534325D01*
X168721477Y-67048901D02*
X166515507Y-67437873D01*
%TO.C,MX34*%
X191083753Y-108801590D02*
X189931094Y-109002296D01*
X205918215Y-119190950D02*
X206114723Y-120334195D01*
X203891301Y-107738938D02*
X203690595Y-106586279D01*
X202544019Y-106778297D02*
X203687264Y-106581789D01*
X190123112Y-110148872D02*
X189926604Y-109005626D01*
X193503534Y-122568043D02*
X192360289Y-122764550D01*
X204957574Y-120538232D02*
X206110233Y-120337526D01*
X192156253Y-121607401D02*
X192356959Y-122760061D01*
%TO.C,MX22*%
X240118215Y-93820949D02*
X240314723Y-94964194D01*
X238091301Y-82368937D02*
X237890595Y-81216278D01*
X224323112Y-84778871D02*
X224126604Y-83635625D01*
X225283753Y-83431589D02*
X224131094Y-83632295D01*
X236744019Y-81408296D02*
X237887264Y-81211788D01*
X239157574Y-95168231D02*
X240310233Y-94967525D01*
X226356253Y-96237400D02*
X226556959Y-97390060D01*
X227703534Y-97198042D02*
X226560289Y-97394549D01*
%TO.C,D23*%
X247322315Y-53617078D02*
X245116345Y-54006050D01*
X245706749Y-57354396D02*
X247912718Y-56965424D01*
X247280639Y-53380724D02*
X245074670Y-53769696D01*
X244970481Y-53178811D02*
X245706749Y-57354396D01*
X247176450Y-52789839D02*
X244970481Y-53178811D01*
X246922605Y-57800035D02*
X246809734Y-57159910D01*
X245960594Y-52344200D02*
X246073465Y-52984325D01*
X247912718Y-56965424D02*
X247176450Y-52789839D01*
X247301477Y-53498901D02*
X245095507Y-53887873D01*
%TD*%
D13*
%TO.C,U1*%
X142210000Y-61600000D03*
D14*
X142210000Y-64140000D03*
X142210000Y-66680000D03*
X142210000Y-69220000D03*
X142210000Y-71760000D03*
X142210000Y-74300000D03*
X142210000Y-76840000D03*
X142210000Y-79380000D03*
X142210000Y-81920000D03*
X142210000Y-84460000D03*
X142210000Y-87000000D03*
X142210000Y-89540000D03*
X157450000Y-89540000D03*
X157450000Y-87000000D03*
X157450000Y-84460000D03*
X157450000Y-81920000D03*
X157450000Y-79380000D03*
X157450000Y-76840000D03*
X157450000Y-74300000D03*
X157450000Y-71760000D03*
X157450000Y-69220000D03*
X157450000Y-66680000D03*
X157450000Y-64140000D03*
X157450000Y-61600000D03*
%TD*%
%LPC*%
D15*
%TO.C,MX41*%
X144810000Y-144170000D03*
D16*
X149890000Y-144170000D03*
D15*
X154970000Y-144170000D03*
D17*
X152430000Y-139090000D03*
X146080000Y-141630000D03*
%TD*%
D18*
%TO.C,D25*%
X42620000Y-51500000D03*
D19*
X41296801Y-59004235D03*
%TD*%
%TO.C,D3*%
X66676801Y-58474235D03*
D18*
X68000000Y-50970000D03*
%TD*%
D19*
%TO.C,D40*%
X135618401Y-73502116D03*
D18*
X136941600Y-65997881D03*
%TD*%
D19*
%TO.C,D14*%
X53996801Y-59074235D03*
D18*
X55320000Y-51570000D03*
%TD*%
D20*
%TO.C,D8*%
X196623199Y-64524235D03*
D21*
X195300000Y-57020000D03*
%TD*%
D19*
%TO.C,D30*%
X130898401Y-72592118D03*
D18*
X132221600Y-65087883D03*
%TD*%
D15*
%TO.C,MX33*%
X184672823Y-119337868D03*
X174667177Y-121102133D03*
D16*
X179670000Y-120220001D03*
D17*
X181289279Y-114776111D03*
X175476816Y-118380189D03*
%TD*%
D15*
%TO.C,MX43*%
X206382823Y-132547867D03*
X196377177Y-134312132D03*
D16*
X201380000Y-133430000D03*
D17*
X202999279Y-127986110D03*
X197186816Y-131590188D03*
%TD*%
D15*
%TO.C,MX2*%
X46367176Y-70907867D03*
X56372823Y-72672133D03*
D16*
X51370000Y-71790000D03*
D17*
X54753544Y-67228243D03*
X48058948Y-68626989D03*
%TD*%
D20*
%TO.C,D43*%
X182683199Y-68594235D03*
D21*
X181360000Y-61090000D03*
%TD*%
D15*
%TO.C,MX21*%
X218052823Y-89327867D03*
X208047177Y-91092132D03*
D16*
X213050000Y-90210000D03*
D17*
X214669279Y-84766110D03*
X208856816Y-88370188D03*
%TD*%
D16*
%TO.C,MX31*%
X138870001Y-123520000D03*
D15*
X143872824Y-124402133D03*
X133867177Y-122637867D03*
D17*
X142253545Y-118958243D03*
X135558949Y-120356989D03*
%TD*%
D16*
%TO.C,MX30*%
X120106456Y-120191757D03*
D15*
X125109279Y-121073890D03*
X115103632Y-119309624D03*
D17*
X123490000Y-115630000D03*
X116795404Y-117028746D03*
%TD*%
D21*
%TO.C,D32*%
X169448400Y-116667880D03*
D20*
X170771599Y-124172115D03*
%TD*%
D16*
%TO.C,MX11*%
X248530000Y-71850000D03*
D15*
X243527177Y-72732132D03*
X253532823Y-70967867D03*
D17*
X250149279Y-66406110D03*
X244336816Y-70010188D03*
%TD*%
D15*
%TO.C,MX42*%
X178007177Y-139842132D03*
D16*
X183010000Y-138960000D03*
D15*
X188012823Y-138077867D03*
D17*
X184629279Y-133516110D03*
X178816816Y-137120188D03*
%TD*%
D13*
%TO.C,U1*%
X142210000Y-61600000D03*
D22*
X140432000Y-61600000D03*
X140432000Y-64140000D03*
D14*
X142210000Y-64140000D03*
D22*
X140432000Y-66680000D03*
D14*
X142210000Y-66680000D03*
D22*
X140432000Y-69220000D03*
D14*
X142210000Y-69220000D03*
X142210000Y-71760000D03*
D22*
X140432000Y-71760000D03*
X140432000Y-74300000D03*
D14*
X142210000Y-74300000D03*
D22*
X140432000Y-76840000D03*
D14*
X142210000Y-76840000D03*
X142210000Y-79380000D03*
D22*
X140432000Y-79380000D03*
D14*
X142210000Y-81920000D03*
D22*
X140432000Y-81920000D03*
D14*
X142210000Y-84460000D03*
D22*
X140432000Y-84460000D03*
D14*
X142210000Y-87000000D03*
D22*
X140432000Y-87000000D03*
X140432000Y-89540000D03*
D14*
X142210000Y-89540000D03*
X157450000Y-89540000D03*
D22*
X159228000Y-89540000D03*
X159228000Y-87000000D03*
D14*
X157450000Y-87000000D03*
D22*
X159228000Y-84460000D03*
D14*
X157450000Y-84460000D03*
X157450000Y-81920000D03*
D22*
X159228000Y-81920000D03*
D14*
X157450000Y-79380000D03*
D22*
X159228000Y-79380000D03*
D14*
X157450000Y-76840000D03*
D22*
X159228000Y-76840000D03*
D14*
X157450000Y-74300000D03*
D22*
X159228000Y-74300000D03*
X159228000Y-71760000D03*
D14*
X157450000Y-71760000D03*
D22*
X159228000Y-69220000D03*
D14*
X157450000Y-69220000D03*
X157450000Y-66680000D03*
D22*
X159228000Y-66680000D03*
X159228000Y-64140000D03*
D14*
X157450000Y-64140000D03*
D22*
X159228000Y-61600000D03*
D14*
X157450000Y-61600000D03*
%TD*%
D16*
%TO.C,MX40*%
X116820000Y-138950000D03*
D15*
X111817176Y-138067867D03*
X121822823Y-139832133D03*
D17*
X120203544Y-134388243D03*
X113508948Y-135786989D03*
%TD*%
D20*
%TO.C,D37*%
X240063199Y-58964235D03*
D21*
X238740000Y-51460000D03*
%TD*%
D16*
%TO.C,MX25*%
X25530000Y-108360000D03*
D15*
X20527176Y-107477867D03*
X30532823Y-109242133D03*
D17*
X28913544Y-103798243D03*
X22218948Y-105196989D03*
%TD*%
D19*
%TO.C,D17*%
X107676801Y-65464235D03*
D18*
X109000000Y-57960000D03*
%TD*%
%TO.C,D31*%
X130101600Y-117757883D03*
D19*
X128778401Y-125262118D03*
%TD*%
D15*
%TO.C,MX9*%
X204747177Y-72312132D03*
D16*
X209750000Y-71430000D03*
D15*
X214752823Y-70547867D03*
D17*
X211369279Y-65986110D03*
X205556816Y-69590188D03*
%TD*%
D15*
%TO.C,MX4*%
X95069279Y-72263890D03*
D16*
X90066456Y-71381757D03*
D15*
X85063632Y-70499624D03*
D17*
X93450000Y-66820000D03*
X86755404Y-68218746D03*
%TD*%
D20*
%TO.C,D35*%
X201803199Y-62834235D03*
D21*
X200480000Y-55330000D03*
%TD*%
D15*
%TO.C,MX20*%
X189697177Y-96822132D03*
X199702823Y-95057867D03*
D16*
X194700000Y-95940000D03*
D17*
X196319279Y-90496110D03*
X190506816Y-94100188D03*
%TD*%
D20*
%TO.C,D20*%
X192333199Y-65694235D03*
D21*
X191010000Y-58190000D03*
%TD*%
D15*
%TO.C,MX24*%
X266047898Y-90566022D03*
D16*
X271050721Y-89683890D03*
D15*
X276053544Y-88801757D03*
D17*
X272670000Y-84240000D03*
X266857537Y-87844078D03*
%TD*%
D15*
%TO.C,MX10*%
X233932823Y-69607867D03*
X223927177Y-71372132D03*
D16*
X228930000Y-70490000D03*
D17*
X230549279Y-65046110D03*
X224736816Y-68650188D03*
%TD*%
D15*
%TO.C,MX17*%
X110089279Y-96703890D03*
D16*
X105086456Y-95821757D03*
D15*
X100083632Y-94939624D03*
D17*
X108470000Y-91260000D03*
X101775404Y-92658746D03*
%TD*%
D16*
%TO.C,MX37*%
X255140000Y-109430000D03*
D15*
X260142823Y-108547867D03*
X250137177Y-110312132D03*
D17*
X256759279Y-103986110D03*
X250946816Y-107590188D03*
%TD*%
D15*
%TO.C,MX38*%
X269327898Y-109386022D03*
D16*
X274330721Y-108503890D03*
D15*
X279333544Y-107621757D03*
D17*
X275950000Y-103060000D03*
X270137537Y-106664078D03*
%TD*%
D15*
%TO.C,MX36*%
X240562823Y-107147868D03*
D16*
X235560000Y-108030001D03*
D15*
X230557177Y-108912133D03*
D17*
X237179279Y-102586111D03*
X231366816Y-106190189D03*
%TD*%
D19*
%TO.C,D27*%
X79776801Y-59184235D03*
D18*
X81100000Y-51680000D03*
%TD*%
D20*
%TO.C,D11*%
X253493199Y-58964235D03*
D21*
X252170000Y-51460000D03*
%TD*%
D20*
%TO.C,D12*%
X272771600Y-59272118D03*
D21*
X271448401Y-51767883D03*
%TD*%
D20*
%TO.C,D36*%
X220593199Y-59404235D03*
D21*
X219270000Y-51900000D03*
%TD*%
D16*
%TO.C,MX26*%
X44700000Y-109340000D03*
D15*
X39697176Y-108457867D03*
X49702823Y-110222133D03*
D17*
X48083544Y-104778243D03*
X41388948Y-106176989D03*
%TD*%
D16*
%TO.C,MX8*%
X191390000Y-77170000D03*
D15*
X186387177Y-78052132D03*
X196392823Y-76287867D03*
D17*
X193009279Y-71726110D03*
X187196816Y-75330188D03*
%TD*%
D20*
%TO.C,D9*%
X214583199Y-59864235D03*
D21*
X213260000Y-52360000D03*
%TD*%
D20*
%TO.C,D7*%
X178323199Y-69974235D03*
D21*
X177000000Y-62470000D03*
%TD*%
D20*
%TO.C,D21*%
X207853199Y-61074235D03*
D21*
X206530000Y-53570000D03*
%TD*%
D19*
%TO.C,D4*%
X85656801Y-59984235D03*
D18*
X86980000Y-52480000D03*
%TD*%
D16*
%TO.C,MX7*%
X172990000Y-82720000D03*
D15*
X167987177Y-83602132D03*
X177992823Y-81837867D03*
D17*
X174609279Y-77276110D03*
X168796816Y-80880188D03*
%TD*%
D15*
%TO.C,MX5*%
X103383632Y-76149624D03*
D16*
X108386456Y-77031757D03*
D15*
X113389279Y-77913890D03*
D17*
X111770000Y-72470000D03*
X105075404Y-73868746D03*
%TD*%
D18*
%TO.C,D1*%
X28591600Y-51737883D03*
D19*
X27268401Y-59242118D03*
%TD*%
D16*
%TO.C,MX35*%
X216350000Y-108940001D03*
D15*
X211347177Y-109822133D03*
X221352823Y-108057868D03*
D17*
X217969279Y-103496111D03*
X212156816Y-107100189D03*
%TD*%
D20*
%TO.C,D38*%
X259673199Y-59254235D03*
D21*
X258350000Y-51750000D03*
%TD*%
D19*
%TO.C,D39*%
X116776801Y-68274235D03*
D18*
X118100000Y-60770000D03*
%TD*%
D15*
%TO.C,MX1*%
X37172823Y-71732133D03*
X27167176Y-69967867D03*
D16*
X32170000Y-70850000D03*
D17*
X35553544Y-66288243D03*
X28858948Y-67686989D03*
%TD*%
D16*
%TO.C,MX14*%
X48040000Y-90570000D03*
D15*
X43037176Y-89687867D03*
X53042823Y-91452133D03*
D17*
X51423544Y-86008243D03*
X44728948Y-87406989D03*
%TD*%
D19*
%TO.C,D6*%
X121616801Y-69964235D03*
D18*
X122940000Y-62460000D03*
%TD*%
D19*
%TO.C,D2*%
X47246801Y-58934235D03*
D18*
X48570000Y-51430000D03*
%TD*%
D19*
%TO.C,D26*%
X60316801Y-58494235D03*
D18*
X61640000Y-50990000D03*
%TD*%
D19*
%TO.C,D28*%
X97946801Y-62514235D03*
D18*
X99270000Y-55010000D03*
%TD*%
D19*
%TO.C,D18*%
X126166801Y-71374235D03*
D18*
X127490000Y-63870000D03*
%TD*%
D15*
%TO.C,MX29*%
X96783632Y-113699624D03*
X106789279Y-115463890D03*
D16*
X101786456Y-114581757D03*
D17*
X105170000Y-110020000D03*
X98475404Y-111418746D03*
%TD*%
D16*
%TO.C,MX32*%
X160900000Y-123500001D03*
D15*
X155897177Y-124382133D03*
X165902823Y-122617868D03*
D17*
X162519279Y-118056111D03*
X156706816Y-121660189D03*
%TD*%
D18*
%TO.C,D13*%
X36230000Y-51650000D03*
D19*
X34906801Y-59154235D03*
%TD*%
D15*
%TO.C,MX3*%
X65917177Y-69467867D03*
X75922824Y-71232133D03*
D16*
X70920001Y-70350000D03*
D17*
X74303545Y-65788243D03*
X67608949Y-67186989D03*
%TD*%
D23*
%TO.C,D41*%
X158250000Y-140320000D03*
D24*
X158250000Y-147940000D03*
%TD*%
D15*
%TO.C,MX28*%
X88452823Y-109822133D03*
X78447176Y-108057867D03*
D16*
X83450000Y-108940000D03*
D17*
X86833544Y-104378243D03*
X80138948Y-105776989D03*
%TD*%
D15*
%TO.C,MX13*%
X23847176Y-88707867D03*
X33852823Y-90472133D03*
D16*
X28850000Y-89590000D03*
D17*
X32233544Y-85028243D03*
X25538948Y-86426989D03*
%TD*%
D20*
%TO.C,D19*%
X173533199Y-71424235D03*
D21*
X172210000Y-63920000D03*
%TD*%
D15*
%TO.C,MX16*%
X81727176Y-89247867D03*
D16*
X86730000Y-90130000D03*
D15*
X91732823Y-91012133D03*
D17*
X90113544Y-85568243D03*
X83418948Y-86966989D03*
%TD*%
D15*
%TO.C,MX18*%
X118413632Y-100549624D03*
D16*
X123416456Y-101431757D03*
D15*
X128419279Y-102313890D03*
D17*
X126800000Y-96870000D03*
X120105404Y-98268746D03*
%TD*%
D19*
%TO.C,D5*%
X103466801Y-64114235D03*
D18*
X104790000Y-56610000D03*
%TD*%
D15*
%TO.C,MX39*%
X103452824Y-134222133D03*
X93447177Y-132457867D03*
D16*
X98450001Y-133340000D03*
D17*
X101833545Y-128778243D03*
X95138949Y-130176989D03*
%TD*%
D20*
%TO.C,D22*%
X226583199Y-59184235D03*
D21*
X225260000Y-51680000D03*
%TD*%
D20*
%TO.C,D24*%
X266093199Y-59104235D03*
D21*
X264770000Y-51600000D03*
%TD*%
D16*
%TO.C,MX15*%
X67580000Y-89170000D03*
D15*
X72582823Y-90052133D03*
X62577176Y-88287867D03*
D17*
X70963544Y-84608243D03*
X64268948Y-86006989D03*
%TD*%
D15*
%TO.C,MX27*%
X69262824Y-108842133D03*
D16*
X64260001Y-107960000D03*
D15*
X59257177Y-107077867D03*
D17*
X67643545Y-103398243D03*
X60948949Y-104796989D03*
%TD*%
D19*
%TO.C,D16*%
X91868401Y-60922118D03*
D18*
X93191600Y-53417883D03*
%TD*%
D15*
%TO.C,MX19*%
X181342823Y-100567867D03*
X171337177Y-102332132D03*
D16*
X176340000Y-101450000D03*
D17*
X177959279Y-96006110D03*
X172146816Y-99610188D03*
%TD*%
D15*
%TO.C,MX6*%
X131732823Y-83522133D03*
D16*
X126730000Y-82640000D03*
D15*
X121727176Y-81757867D03*
D17*
X130113544Y-78078243D03*
X123418948Y-79476989D03*
%TD*%
D19*
%TO.C,D29*%
X112416801Y-66724235D03*
D18*
X113740000Y-59220000D03*
%TD*%
D20*
%TO.C,D34*%
X187613199Y-67072118D03*
D21*
X186290000Y-59567883D03*
%TD*%
D15*
%TO.C,MX23*%
X246827177Y-91512132D03*
D16*
X251830000Y-90630000D03*
D15*
X256832823Y-89747867D03*
D17*
X253449279Y-85186110D03*
X247636816Y-88790188D03*
%TD*%
D15*
%TO.C,MX12*%
X272722823Y-70027868D03*
D16*
X267720000Y-70910001D03*
D15*
X262717177Y-71792133D03*
D17*
X269339279Y-65466111D03*
X263526816Y-69070189D03*
%TD*%
D19*
%TO.C,D15*%
X73236801Y-58784235D03*
D18*
X74560000Y-51280000D03*
%TD*%
D20*
%TO.C,D10*%
X233541600Y-58922118D03*
D21*
X232218401Y-51417883D03*
%TD*%
D20*
%TO.C,D42*%
X163931600Y-73612117D03*
D21*
X162608401Y-66107882D03*
%TD*%
D20*
%TO.C,D33*%
X168523199Y-72374235D03*
D21*
X167200000Y-64870000D03*
%TD*%
D15*
%TO.C,MX34*%
X193037177Y-115532133D03*
D16*
X198040000Y-114650001D03*
D15*
X203042823Y-113767868D03*
D17*
X199659279Y-109206111D03*
X193846816Y-112810189D03*
%TD*%
D15*
%TO.C,MX22*%
X227237177Y-90162132D03*
D16*
X232240000Y-89280000D03*
D15*
X237242823Y-88397867D03*
D17*
X233859279Y-83836110D03*
X228046816Y-87440188D03*
%TD*%
D20*
%TO.C,D23*%
X247103199Y-58824235D03*
D21*
X245780000Y-51320000D03*
%TD*%
D25*
%TO.C,J1*%
X152170000Y-74300000D03*
D26*
X149630000Y-74300000D03*
X147090000Y-74300000D03*
%TD*%
M02*
