M48
; DRILL file {KiCad (6.0.2)} date Sun May  1 14:02:57 2022
; FORMAT={-:-/ absolute / metric / decimal}
; #@! TF.CreationDate,2022-05-01T14:02:57-06:00
; #@! TF.GenerationSoftware,Kicad,Pcbnew,(6.0.2)
; #@! TF.FileFunction,Plated,1,2,PTH
FMAT,2
METRIC
; #@! TA.AperFunction,Plated,PTH,ViaDrill
T1C0.400
; #@! TA.AperFunction,Plated,PTH,ComponentDrill
T2C0.800
; #@! TA.AperFunction,Plated,PTH,ComponentDrill
T3C1.000
; #@! TA.AperFunction,Plated,PTH,ComponentDrill
T4C1.092
; #@! TA.AperFunction,Plated,PTH,ComponentDrill
T5C1.500
%
G90
G05
T1
X144.19Y-60.23
X147.7Y-59.46
X148.64Y-58.735
X149.74Y-57.965
X156.18Y-60.23
X167.725Y-130.83
T2
X27.268Y-59.242
X28.592Y-51.738
X34.907Y-59.154
X36.23Y-51.65
X41.297Y-59.004
X42.62Y-51.5
X47.247Y-58.934
X48.57Y-51.43
X53.997Y-59.074
X55.32Y-51.57
X60.317Y-58.494
X61.64Y-50.99
X66.677Y-58.474
X68.0Y-50.97
X73.237Y-58.784
X74.56Y-51.28
X79.777Y-59.184
X81.1Y-51.68
X85.657Y-59.984
X86.98Y-52.48
X91.868Y-60.922
X93.192Y-53.418
X97.947Y-62.514
X99.27Y-55.01
X103.467Y-64.114
X104.79Y-56.61
X107.677Y-65.464
X109.0Y-57.96
X112.417Y-66.724
X113.74Y-59.22
X116.777Y-68.274
X118.1Y-60.77
X121.617Y-69.964
X122.94Y-62.46
X126.167Y-71.374
X127.49Y-63.87
X128.778Y-125.262
X130.102Y-117.758
X130.898Y-72.592
X132.222Y-65.088
X135.618Y-73.502
X136.942Y-65.998
X158.25Y-140.32
X158.25Y-147.94
X162.608Y-66.108
X163.932Y-73.612
X167.2Y-64.87
X168.523Y-72.374
X169.448Y-116.668
X170.772Y-124.172
X172.21Y-63.92
X173.533Y-71.424
X177.0Y-62.47
X178.323Y-69.974
X181.36Y-61.09
X182.683Y-68.594
X186.29Y-59.568
X187.613Y-67.072
X191.01Y-58.19
X192.333Y-65.694
X195.3Y-57.02
X196.623Y-64.524
X200.48Y-55.33
X201.803Y-62.834
X206.53Y-53.57
X207.853Y-61.074
X213.26Y-52.36
X214.583Y-59.864
X219.27Y-51.9
X220.593Y-59.404
X225.26Y-51.68
X226.583Y-59.184
X232.218Y-51.418
X233.542Y-58.922
X238.74Y-51.46
X240.063Y-58.964
X245.78Y-51.32
X247.103Y-58.824
X252.17Y-51.46
X253.493Y-58.964
X258.35Y-51.75
X259.673Y-59.254
X264.77Y-51.6
X266.093Y-59.104
X271.448Y-51.768
X272.772Y-59.272
T3
X147.09Y-74.3
X149.63Y-74.3
X152.17Y-74.3
T4
X142.21Y-61.6
X142.21Y-64.14
X142.21Y-66.68
X142.21Y-69.22
X142.21Y-71.76
X142.21Y-74.3
X142.21Y-76.84
X142.21Y-79.38
X142.21Y-81.92
X142.21Y-84.46
X142.21Y-87.0
X142.21Y-89.54
X157.45Y-61.6
X157.45Y-64.14
X157.45Y-66.68
X157.45Y-69.22
X157.45Y-71.76
X157.45Y-74.3
X157.45Y-76.84
X157.45Y-79.38
X157.45Y-81.92
X157.45Y-84.46
X157.45Y-87.0
X157.45Y-89.54
T5
X22.219Y-105.197
X25.539Y-86.427
X28.859Y-67.687
X28.914Y-103.798
X32.234Y-85.028
X35.554Y-66.288
X41.389Y-106.177
X44.729Y-87.407
X48.059Y-68.627
X48.084Y-104.778
X51.424Y-86.008
X54.754Y-67.228
X60.949Y-104.797
X64.269Y-86.007
X67.609Y-67.187
X67.644Y-103.398
X70.964Y-84.608
X74.304Y-65.788
X80.139Y-105.777
X83.419Y-86.967
X86.755Y-68.219
X86.834Y-104.378
X90.114Y-85.568
X93.45Y-66.82
X95.139Y-130.177
X98.475Y-111.419
X101.775Y-92.659
X101.834Y-128.778
X105.075Y-73.869
X105.17Y-110.02
X108.47Y-91.26
X111.77Y-72.47
X113.509Y-135.787
X116.795Y-117.029
X120.105Y-98.269
X120.204Y-134.388
X123.419Y-79.477
X123.49Y-115.63
X126.8Y-96.87
X130.114Y-78.078
X135.559Y-120.357
X142.254Y-118.958
X146.08Y-141.63
X152.43Y-139.09
X156.707Y-121.66
X162.519Y-118.056
X168.797Y-80.88
X172.147Y-99.61
X174.609Y-77.276
X175.477Y-118.38
X177.959Y-96.006
X178.817Y-137.12
X181.289Y-114.776
X184.629Y-133.516
X187.197Y-75.33
X190.507Y-94.1
X193.009Y-71.726
X193.847Y-112.81
X196.319Y-90.496
X197.187Y-131.59
X199.659Y-109.206
X202.999Y-127.986
X205.557Y-69.59
X208.857Y-88.37
X211.369Y-65.986
X212.157Y-107.1
X214.669Y-84.766
X217.969Y-103.496
X224.737Y-68.65
X228.047Y-87.44
X230.549Y-65.046
X231.367Y-106.19
X233.859Y-83.836
X237.179Y-102.586
X244.337Y-70.01
X247.637Y-88.79
X250.149Y-66.406
X250.947Y-107.59
X253.449Y-85.186
X256.759Y-103.986
X263.527Y-69.07
X266.858Y-87.844
X269.339Y-65.466
X270.138Y-106.664
X272.67Y-84.24
X275.95Y-103.06
T0
M30
