%TF.GenerationSoftware,KiCad,Pcbnew,(6.0.2)*%
%TF.CreationDate,2022-05-01T14:02:26-06:00*%
%TF.ProjectId,AirShip-rounded,41697253-6869-4702-9d72-6f756e646564,rev?*%
%TF.SameCoordinates,Original*%
%TF.FileFunction,Profile,NP*%
%FSLAX46Y46*%
G04 Gerber Fmt 4.6, Leading zero omitted, Abs format (unit mm)*
G04 Created by KiCad (PCBNEW (6.0.2)) date 2022-05-01 14:02:26*
%MOMM*%
%LPD*%
G01*
G04 APERTURE LIST*
%TA.AperFunction,Profile*%
%ADD10C,0.100000*%
%TD*%
%TA.AperFunction,Profile*%
%ADD11C,0.050000*%
%TD*%
G04 APERTURE END LIST*
D10*
X97040001Y-91900000D02*
G75*
G03*
X97040001Y-91900000I-1006231J0D01*
G01*
X204639405Y-91770000D02*
G75*
G03*
X204639405Y-91770000I-1009405J0D01*
G01*
X290076231Y-111560000D02*
G75*
G03*
X290076231Y-111560000I-1006231J0D01*
G01*
X278290001Y-54760000D02*
G75*
G03*
X278290001Y-54760000I-1006231J0D01*
G01*
X23236231Y-54430000D02*
G75*
G03*
X23236231Y-54430000I-1006231J0D01*
G01*
X11276231Y-111830000D02*
G75*
G03*
X11276231Y-111830000I-1006231J0D01*
G01*
X85856231Y-138940000D02*
G75*
G03*
X85856231Y-138940000I-1006231J0D01*
G01*
X151496231Y-155050000D02*
G75*
G03*
X151496231Y-155050000I-1006231J0D01*
G01*
X215266231Y-138160000D02*
G75*
G03*
X215266231Y-138160000I-1006231J0D01*
G01*
X124536231Y-57890000D02*
G75*
G03*
X124536231Y-57890000I-1006231J0D01*
G01*
X177216231Y-58120000D02*
G75*
G03*
X177216231Y-58120000I-1006231J0D01*
G01*
D11*
X270051883Y-120067045D02*
X251288071Y-119346424D01*
X48653438Y-119323231D02*
X48351928Y-119346424D01*
X48351928Y-119346424D02*
X29588117Y-120067045D01*
X83349924Y-128928808D02*
G75*
G03*
X78715700Y-121056802I-6687480J1363182D01*
G01*
X257477836Y-44035291D02*
G75*
G03*
X199532396Y-49502057I-13932581J-162152560D01*
G01*
X229205155Y-119394406D02*
G75*
G03*
X220924300Y-121056802I3564851J-39213324D01*
G01*
X284824144Y-120067045D02*
G75*
G03*
X295154666Y-107688132I1J10499999D01*
G01*
X29588117Y-120067045D02*
X14815855Y-120067045D01*
X82093699Y-134434149D02*
G75*
G03*
X88956118Y-146223776I10330522J-1878912D01*
G01*
X70434845Y-119394406D02*
X70125973Y-119366327D01*
X31639360Y-44939438D02*
G75*
G03*
X12776068Y-62104521I1797752J-20922908D01*
G01*
X78715700Y-121056802D02*
G75*
G03*
X70434845Y-119394406I-11845706J-37550928D01*
G01*
X216290077Y-128928808D02*
X217546301Y-134434149D01*
X70125973Y-119366327D02*
G75*
G03*
X62425908Y-119017044I-7700082J-84701047D01*
G01*
X191737006Y-51691773D02*
X199532396Y-49502057D01*
X4485333Y-107688132D02*
X12776068Y-62104521D01*
X100107604Y-49502056D02*
G75*
G03*
X42162163Y-44035290I-44012860J-156685803D01*
G01*
X107902993Y-51691773D02*
G75*
G03*
X191737006Y-51691773I41917006J149224541D01*
G01*
X229514027Y-119366327D02*
X229205155Y-119394406D01*
X257477836Y-44035290D02*
X268000640Y-44939438D01*
X237214092Y-119017044D02*
G75*
G03*
X229514027Y-119366327I17J-85050330D01*
G01*
X286863932Y-62104521D02*
G75*
G03*
X268000640Y-44939438I-20661043J-3757823D01*
G01*
X82093698Y-134434149D02*
X83349923Y-128928808D01*
X210683881Y-146223775D02*
G75*
G03*
X217546301Y-134434149I-3468100J9910713D01*
G01*
X109590014Y-153444291D02*
G75*
G03*
X190049985Y-153444291I40229986J114964286D01*
G01*
X4485333Y-107688132D02*
G75*
G03*
X14815855Y-120067045I10330523J-1878912D01*
G01*
X210683881Y-146223776D02*
X190049985Y-153444291D01*
X284824144Y-120067045D02*
X270051883Y-120067045D01*
X56626045Y-119017044D02*
X48653438Y-119323231D01*
X109590014Y-153444291D02*
X88956118Y-146223776D01*
X31639360Y-44939438D02*
X42162163Y-44035290D01*
X251288071Y-119346424D02*
X250986561Y-119323231D01*
X250986561Y-119323231D02*
X243013955Y-119017044D01*
X243013955Y-119017044D02*
X237214092Y-119017044D01*
X286863931Y-62104521D02*
X295154666Y-107688132D01*
X100107604Y-49502057D02*
X107902993Y-51691773D01*
X220924300Y-121056802D02*
G75*
G03*
X216290077Y-128928808I2053253J-6508822D01*
G01*
X62425908Y-119017044D02*
X56626045Y-119017044D01*
M02*
