  0
SECTION
  2
HEADER
  9
$ANGBASE
  50
0.0
  9
$ANGDIR
  70
1
  9
$MEASUREMENT
  70
0
  0
ENDSEC
  0
SECTION
  2
TABLES
  0
TABLE
  2
LTYPE
  70
4
  0
LTYPE
  5
40F
  2
CONTINUOUS
  70
0
  3
Solid line
  72
65
  73
0
  40
0.0
  0
LTYPE
  5
410
  2
DASHDOT
 70
0
  3
Dash Dot ____ _ ____ _
 72
65
 73
4
 40
2.0
 49
1.25
 49
-0.25
 49
0.25
 49
-0.25
  0
LTYPE
  5
411
  2
DASHED
 70
0
  3
Dashed __ __ __ __ __
 72
65
 73
2
 40
0.75
 49
0.5
 49
-0.25
  0
LTYPE
  5
43B
  2
DOTTED
 70
0
  3
Dotted .  .  .  .
 72
65
 73
2
 40
0.2
 49
0.0
 49
-0.2
  0
ENDTAB
  0
TABLE
  2
STYLE
  70
4
  0
STYLE
  2
KICAD
  70
0
  40
0
  41
1
  42
1
  50
0
  71
0
  3
isocp.shx
  0
STYLE
  2
KICADB
  70
0
  40
0
  41
1
  42
1
  50
0
  71
0
  3
isocp.shx
  0
STYLE
  2
KICADI
  70
0
  40
0
  41
1
  42
1
  50
15
  71
0
  3
isocp.shx
  0
STYLE
  2
KICADBI
  70
0
  40
0
  41
1
  42
1
  50
15
  71
0
  3
isocp.shx
  0
ENDTAB
  0
TABLE
  2
LAYER
  70
1
  0
LAYER
  2
BLACK
  70
0
  62
7
  6
CONTINUOUS
  0
ENDTAB
  0
ENDSEC
  0
SECTION
  2
ENTITIES
0
LINE
8
BLACK
6
CONTINUOUS
10
10.6319
20
-4.72803
11
10.6319
21
-4.72803
0
LINE
8
BLACK
6
CONTINUOUS
10
10.6319
20
-4.72803
11
9.89319
21
-4.69966
0
LINE
8
BLACK
6
CONTINUOUS
10
9.89319
20
-4.69966
11
9.89317
21
-4.69965
0
LINE
8
BLACK
6
CONTINUOUS
10
9.89317
20
-4.69965
11
9.89316
21
-4.69966
0
LINE
8
BLACK
6
CONTINUOUS
10
9.89316
20
-4.69966
11
9.8813
21
-4.69875
0
LINE
8
BLACK
6
CONTINUOUS
10
9.8813
20
-4.69875
11
9.56746
21
-4.68669
0
LINE
8
BLACK
6
CONTINUOUS
10
9.56746
20
-4.68669
11
9.33914
21
-4.68669
0
LINE
8
BLACK
6
CONTINUOUS
10
9.33914
20
-4.68669
11
9.33881
21
-4.68656
0
LINE
8
BLACK
6
CONTINUOUS
10
9.33881
20
-4.68656
11
9.27844
21
-4.68711
0
LINE
8
BLACK
6
CONTINUOUS
10
9.27844
20
-4.68711
11
9.21777
21
-4.68876
0
LINE
8
BLACK
6
CONTINUOUS
10
9.21777
20
-4.68876
11
9.15713
21
-4.69151
0
LINE
8
BLACK
6
CONTINUOUS
10
9.15713
20
-4.69151
11
9.09656
21
-4.69536
0
LINE
8
BLACK
6
CONTINUOUS
10
9.09656
20
-4.69536
11
9.03638
21
-4.70028
0
LINE
8
BLACK
6
CONTINUOUS
10
9.03638
20
-4.70028
11
9.03607
21
-4.70044
0
LINE
8
BLACK
6
CONTINUOUS
10
9.03607
20
-4.70044
11
9.02391
21
-4.70155
0
LINE
8
BLACK
6
CONTINUOUS
10
9.02391
20
-4.70155
11
9.02358
21
-4.70144
0
LINE
8
BLACK
6
CONTINUOUS
10
9.02358
20
-4.70144
11
8.98251
21
-4.70573
0
LINE
8
BLACK
6
CONTINUOUS
10
8.98251
20
-4.70573
11
8.94124
21
-4.71117
0
LINE
8
BLACK
6
CONTINUOUS
10
8.94124
20
-4.71117
11
8.90014
21
-4.71771
0
LINE
8
BLACK
6
CONTINUOUS
10
8.90014
20
-4.71771
11
8.85922
21
-4.72535
0
LINE
8
BLACK
6
CONTINUOUS
10
8.85922
20
-4.72535
11
8.81853
21
-4.73409
0
LINE
8
BLACK
6
CONTINUOUS
10
8.81853
20
-4.73409
11
8.77808
21
-4.74392
0
LINE
8
BLACK
6
CONTINUOUS
10
8.77808
20
-4.74392
11
8.73792
21
-4.75483
0
LINE
8
BLACK
6
CONTINUOUS
10
8.73792
20
-4.75483
11
8.69837
21
-4.76673
0
LINE
8
BLACK
6
CONTINUOUS
10
8.69837
20
-4.76673
11
8.6981
21
-4.76695
0
LINE
8
BLACK
6
CONTINUOUS
10
8.6981
20
-4.76695
11
8.69768
21
-4.76692
0
LINE
8
BLACK
6
CONTINUOUS
10
8.69768
20
-4.76692
11
8.67955
21
-4.77337
0
LINE
8
BLACK
6
CONTINUOUS
10
8.67955
20
-4.77337
11
8.66159
21
-4.7813
0
LINE
8
BLACK
6
CONTINUOUS
10
8.66159
20
-4.7813
11
8.64425
21
-4.79052
0
LINE
8
BLACK
6
CONTINUOUS
10
8.64425
20
-4.79052
11
8.62764
21
-4.80099
0
LINE
8
BLACK
6
CONTINUOUS
10
8.62764
20
-4.80099
11
8.61183
21
-4.81265
0
LINE
8
BLACK
6
CONTINUOUS
10
8.61183
20
-4.81265
11
8.59693
21
-4.82543
0
LINE
8
BLACK
6
CONTINUOUS
10
8.59693
20
-4.82543
11
8.583
21
-4.83927
0
LINE
8
BLACK
6
CONTINUOUS
10
8.583
20
-4.83927
11
8.57012
21
-4.85409
0
LINE
8
BLACK
6
CONTINUOUS
10
8.57012
20
-4.85409
11
8.55836
21
-4.86982
0
LINE
8
BLACK
6
CONTINUOUS
10
8.55836
20
-4.86982
11
8.54778
21
-4.88636
0
LINE
8
BLACK
6
CONTINUOUS
10
8.54778
20
-4.88636
11
8.53845
21
-4.90364
0
LINE
8
BLACK
6
CONTINUOUS
10
8.53845
20
-4.90364
11
8.5304
21
-4.92155
0
LINE
8
BLACK
6
CONTINUOUS
10
8.5304
20
-4.92155
11
8.52369
21
-4.94
0
LINE
8
BLACK
6
CONTINUOUS
10
8.52369
20
-4.94
11
8.51835
21
-4.9589
0
LINE
8
BLACK
6
CONTINUOUS
10
8.51835
20
-4.9589
11
8.51441
21
-4.97814
0
LINE
8
BLACK
6
CONTINUOUS
10
8.51441
20
-4.97814
11
8.51189
21
-4.99761
0
LINE
8
BLACK
6
CONTINUOUS
10
8.51189
20
-4.99761
11
8.5108
21
-5.01722
0
LINE
8
BLACK
6
CONTINUOUS
10
8.5108
20
-5.01722
11
8.51115
21
-5.03685
0
LINE
8
BLACK
6
CONTINUOUS
10
8.51115
20
-5.03685
11
8.51293
21
-5.0564
0
LINE
8
BLACK
6
CONTINUOUS
10
8.51293
20
-5.0564
11
8.51608
21
-5.07539
0
LINE
8
BLACK
6
CONTINUOUS
10
8.51608
20
-5.07539
11
8.5161
21
-5.07542
0
LINE
8
BLACK
6
CONTINUOUS
10
8.5161
20
-5.07542
11
8.51632
21
-5.07572
0
LINE
8
BLACK
6
CONTINUOUS
10
8.51632
20
-5.07572
11
8.56577
21
-5.29246
0
LINE
8
BLACK
6
CONTINUOUS
10
8.56577
20
-5.29246
11
8.56577
21
-5.29249
0
LINE
8
BLACK
6
CONTINUOUS
10
8.56577
20
-5.29249
11
8.56578
21
-5.29251
0
LINE
8
BLACK
6
CONTINUOUS
10
8.56578
20
-5.29251
11
8.56578
21
-5.29251
0
LINE
8
BLACK
6
CONTINUOUS
10
8.56578
20
-5.29251
11
8.56944
21
-5.31664
0
LINE
8
BLACK
6
CONTINUOUS
10
8.56944
20
-5.31664
11
8.57167
21
-5.34095
0
LINE
8
BLACK
6
CONTINUOUS
10
8.57167
20
-5.34095
11
8.57247
21
-5.36535
0
LINE
8
BLACK
6
CONTINUOUS
10
8.57247
20
-5.36535
11
8.57183
21
-5.38975
0
LINE
8
BLACK
6
CONTINUOUS
10
8.57183
20
-5.38975
11
8.56975
21
-5.41408
0
LINE
8
BLACK
6
CONTINUOUS
10
8.56975
20
-5.41408
11
8.56624
21
-5.43823
0
LINE
8
BLACK
6
CONTINUOUS
10
8.56624
20
-5.43823
11
8.56132
21
-5.46214
0
LINE
8
BLACK
6
CONTINUOUS
10
8.56132
20
-5.46214
11
8.555
21
-5.48572
0
LINE
8
BLACK
6
CONTINUOUS
10
8.555
20
-5.48572
11
8.5473
21
-5.50889
0
LINE
8
BLACK
6
CONTINUOUS
10
8.5473
20
-5.50889
11
8.53825
21
-5.53156
0
LINE
8
BLACK
6
CONTINUOUS
10
8.53825
20
-5.53156
11
8.52788
21
-5.55366
0
LINE
8
BLACK
6
CONTINUOUS
10
8.52788
20
-5.55366
11
8.51622
21
-5.57511
0
LINE
8
BLACK
6
CONTINUOUS
10
8.51622
20
-5.57511
11
8.50333
21
-5.59583
0
LINE
8
BLACK
6
CONTINUOUS
10
8.50333
20
-5.59583
11
8.48923
21
-5.61577
0
LINE
8
BLACK
6
CONTINUOUS
10
8.48923
20
-5.61577
11
8.47399
21
-5.63483
0
LINE
8
BLACK
6
CONTINUOUS
10
8.47399
20
-5.63483
11
8.45765
21
-5.65297
0
LINE
8
BLACK
6
CONTINUOUS
10
8.45765
20
-5.65297
11
8.44027
21
-5.67011
0
LINE
8
BLACK
6
CONTINUOUS
10
8.44027
20
-5.67011
11
8.42191
21
-5.6862
0
LINE
8
BLACK
6
CONTINUOUS
10
8.42191
20
-5.6862
11
8.40263
21
-5.70118
0
LINE
8
BLACK
6
CONTINUOUS
10
8.40263
20
-5.70118
11
8.38251
21
-5.715
0
LINE
8
BLACK
6
CONTINUOUS
10
8.38251
20
-5.715
11
8.36161
21
-5.72761
0
LINE
8
BLACK
6
CONTINUOUS
10
8.36161
20
-5.72761
11
8.34
21
-5.73897
0
LINE
8
BLACK
6
CONTINUOUS
10
8.34
20
-5.73897
11
8.31776
21
-5.74903
0
LINE
8
BLACK
6
CONTINUOUS
10
8.31776
20
-5.74903
11
8.29497
21
-5.75777
0
LINE
8
BLACK
6
CONTINUOUS
10
8.29497
20
-5.75777
11
8.29497
21
-5.75777
0
LINE
8
BLACK
6
CONTINUOUS
10
8.29497
20
-5.75777
11
7.48261
21
-6.04204
0
LINE
8
BLACK
6
CONTINUOUS
10
7.48261
20
-6.04204
11
7.48261
21
-6.04204
0
LINE
8
BLACK
6
CONTINUOUS
10
7.48261
20
-6.04204
11
7.40216
21
-6.0694
0
LINE
8
BLACK
6
CONTINUOUS
10
7.40216
20
-6.0694
11
7.32124
21
-6.09532
0
LINE
8
BLACK
6
CONTINUOUS
10
7.32124
20
-6.09532
11
7.23987
21
-6.11981
0
LINE
8
BLACK
6
CONTINUOUS
10
7.23987
20
-6.11981
11
7.15808
21
-6.14285
0
LINE
8
BLACK
6
CONTINUOUS
10
7.15808
20
-6.14285
11
7.0759
21
-6.16444
0
LINE
8
BLACK
6
CONTINUOUS
10
7.0759
20
-6.16444
11
6.99334
21
-6.18457
0
LINE
8
BLACK
6
CONTINUOUS
10
6.99334
20
-6.18457
11
6.91045
21
-6.20324
0
LINE
8
BLACK
6
CONTINUOUS
10
6.91045
20
-6.20324
11
6.82723
21
-6.22043
0
LINE
8
BLACK
6
CONTINUOUS
10
6.82723
20
-6.22043
11
6.74372
21
-6.23614
0
LINE
8
BLACK
6
CONTINUOUS
10
6.74372
20
-6.23614
11
6.65995
21
-6.25038
0
LINE
8
BLACK
6
CONTINUOUS
10
6.65995
20
-6.25038
11
6.57594
21
-6.26313
0
LINE
8
BLACK
6
CONTINUOUS
10
6.57594
20
-6.26313
11
6.49172
21
-6.27438
0
LINE
8
BLACK
6
CONTINUOUS
10
6.49172
20
-6.27438
11
6.40731
21
-6.28415
0
LINE
8
BLACK
6
CONTINUOUS
10
6.40731
20
-6.28415
11
6.32274
21
-6.29241
0
LINE
8
BLACK
6
CONTINUOUS
10
6.32274
20
-6.29241
11
6.23804
21
-6.29918
0
LINE
8
BLACK
6
CONTINUOUS
10
6.23804
20
-6.29918
11
6.15323
21
-6.30445
0
LINE
8
BLACK
6
CONTINUOUS
10
6.15323
20
-6.30445
11
6.06834
21
-6.30821
0
LINE
8
BLACK
6
CONTINUOUS
10
6.06834
20
-6.30821
11
5.98339
21
-6.31047
0
LINE
8
BLACK
6
CONTINUOUS
10
5.98339
20
-6.31047
11
5.89843
21
-6.31122
0
LINE
8
BLACK
6
CONTINUOUS
10
5.89843
20
-6.31122
11
5.81346
21
-6.31047
0
LINE
8
BLACK
6
CONTINUOUS
10
5.81346
20
-6.31047
11
5.72851
21
-6.30821
0
LINE
8
BLACK
6
CONTINUOUS
10
5.72851
20
-6.30821
11
5.64362
21
-6.30445
0
LINE
8
BLACK
6
CONTINUOUS
10
5.64362
20
-6.30445
11
5.55881
21
-6.29918
0
LINE
8
BLACK
6
CONTINUOUS
10
5.55881
20
-6.29918
11
5.47411
21
-6.29241
0
LINE
8
BLACK
6
CONTINUOUS
10
5.47411
20
-6.29241
11
5.38954
21
-6.28415
0
LINE
8
BLACK
6
CONTINUOUS
10
5.38954
20
-6.28415
11
5.30513
21
-6.27438
0
LINE
8
BLACK
6
CONTINUOUS
10
5.30513
20
-6.27438
11
5.22091
21
-6.26313
0
LINE
8
BLACK
6
CONTINUOUS
10
5.22091
20
-6.26313
11
5.1369
21
-6.25038
0
LINE
8
BLACK
6
CONTINUOUS
10
5.1369
20
-6.25038
11
5.05313
21
-6.23614
0
LINE
8
BLACK
6
CONTINUOUS
10
5.05313
20
-6.23614
11
4.96962
21
-6.22043
0
LINE
8
BLACK
6
CONTINUOUS
10
4.96962
20
-6.22043
11
4.8864
21
-6.20324
0
LINE
8
BLACK
6
CONTINUOUS
10
4.8864
20
-6.20324
11
4.80351
21
-6.18457
0
LINE
8
BLACK
6
CONTINUOUS
10
4.80351
20
-6.18457
11
4.72095
21
-6.16444
0
LINE
8
BLACK
6
CONTINUOUS
10
4.72095
20
-6.16444
11
4.63877
21
-6.14285
0
LINE
8
BLACK
6
CONTINUOUS
10
4.63877
20
-6.14285
11
4.55698
21
-6.11981
0
LINE
8
BLACK
6
CONTINUOUS
10
4.55698
20
-6.11981
11
4.47561
21
-6.09532
0
LINE
8
BLACK
6
CONTINUOUS
10
4.47561
20
-6.09532
11
4.39469
21
-6.0694
0
LINE
8
BLACK
6
CONTINUOUS
10
4.39469
20
-6.0694
11
4.31424
21
-6.04204
0
LINE
8
BLACK
6
CONTINUOUS
10
4.31424
20
-6.04204
11
4.31424
21
-6.04204
0
LINE
8
BLACK
6
CONTINUOUS
10
4.31424
20
-6.04204
11
3.50188
21
-5.75777
0
LINE
8
BLACK
6
CONTINUOUS
10
3.50188
20
-5.75777
11
3.50188
21
-5.75777
0
LINE
8
BLACK
6
CONTINUOUS
10
3.50188
20
-5.75777
11
3.47909
21
-5.74903
0
LINE
8
BLACK
6
CONTINUOUS
10
3.47909
20
-5.74903
11
3.45685
21
-5.73897
0
LINE
8
BLACK
6
CONTINUOUS
10
3.45685
20
-5.73897
11
3.43524
21
-5.72761
0
LINE
8
BLACK
6
CONTINUOUS
10
3.43524
20
-5.72761
11
3.41434
21
-5.715
0
LINE
8
BLACK
6
CONTINUOUS
10
3.41434
20
-5.715
11
3.39422
21
-5.70118
0
LINE
8
BLACK
6
CONTINUOUS
10
3.39422
20
-5.70118
11
3.37494
21
-5.6862
0
LINE
8
BLACK
6
CONTINUOUS
10
3.37494
20
-5.6862
11
3.35658
21
-5.67011
0
LINE
8
BLACK
6
CONTINUOUS
10
3.35658
20
-5.67011
11
3.3392
21
-5.65297
0
LINE
8
BLACK
6
CONTINUOUS
10
3.3392
20
-5.65297
11
3.32286
21
-5.63483
0
LINE
8
BLACK
6
CONTINUOUS
10
3.32286
20
-5.63483
11
3.30762
21
-5.61577
0
LINE
8
BLACK
6
CONTINUOUS
10
3.30762
20
-5.61577
11
3.29352
21
-5.59583
0
LINE
8
BLACK
6
CONTINUOUS
10
3.29352
20
-5.59583
11
3.28063
21
-5.57511
0
LINE
8
BLACK
6
CONTINUOUS
10
3.28063
20
-5.57511
11
3.26897
21
-5.55366
0
LINE
8
BLACK
6
CONTINUOUS
10
3.26897
20
-5.55366
11
3.2586
21
-5.53156
0
LINE
8
BLACK
6
CONTINUOUS
10
3.2586
20
-5.53156
11
3.24955
21
-5.50889
0
LINE
8
BLACK
6
CONTINUOUS
10
3.24955
20
-5.50889
11
3.24185
21
-5.48572
0
LINE
8
BLACK
6
CONTINUOUS
10
3.24185
20
-5.48572
11
3.23553
21
-5.46214
0
LINE
8
BLACK
6
CONTINUOUS
10
3.23553
20
-5.46214
11
3.23061
21
-5.43823
0
LINE
8
BLACK
6
CONTINUOUS
10
3.23061
20
-5.43823
11
3.2271
21
-5.41408
0
LINE
8
BLACK
6
CONTINUOUS
10
3.2271
20
-5.41408
11
3.22502
21
-5.38975
0
LINE
8
BLACK
6
CONTINUOUS
10
3.22502
20
-5.38975
11
3.22438
21
-5.36535
0
LINE
8
BLACK
6
CONTINUOUS
10
3.22438
20
-5.36535
11
3.22518
21
-5.34095
0
LINE
8
BLACK
6
CONTINUOUS
10
3.22518
20
-5.34095
11
3.22741
21
-5.31664
0
LINE
8
BLACK
6
CONTINUOUS
10
3.22741
20
-5.31664
11
3.23107
21
-5.29251
0
LINE
8
BLACK
6
CONTINUOUS
10
3.23107
20
-5.29251
11
3.23107
21
-5.29251
0
LINE
8
BLACK
6
CONTINUOUS
10
3.23107
20
-5.29251
11
3.23108
21
-5.29249
0
LINE
8
BLACK
6
CONTINUOUS
10
3.23108
20
-5.29249
11
3.23108
21
-5.29246
0
LINE
8
BLACK
6
CONTINUOUS
10
3.23108
20
-5.29246
11
3.28053
21
-5.07572
0
LINE
8
BLACK
6
CONTINUOUS
10
3.28053
20
-5.07572
11
3.28075
21
-5.07542
0
LINE
8
BLACK
6
CONTINUOUS
10
3.28075
20
-5.07542
11
3.28077
21
-5.07539
0
LINE
8
BLACK
6
CONTINUOUS
10
3.28077
20
-5.07539
11
3.28392
21
-5.0564
0
LINE
8
BLACK
6
CONTINUOUS
10
3.28392
20
-5.0564
11
3.2857
21
-5.03685
0
LINE
8
BLACK
6
CONTINUOUS
10
3.2857
20
-5.03685
11
3.28605
21
-5.01722
0
LINE
8
BLACK
6
CONTINUOUS
10
3.28605
20
-5.01722
11
3.28496
21
-4.99761
0
LINE
8
BLACK
6
CONTINUOUS
10
3.28496
20
-4.99761
11
3.28244
21
-4.97814
0
LINE
8
BLACK
6
CONTINUOUS
10
3.28244
20
-4.97814
11
3.2785
21
-4.9589
0
LINE
8
BLACK
6
CONTINUOUS
10
3.2785
20
-4.9589
11
3.27316
21
-4.94
0
LINE
8
BLACK
6
CONTINUOUS
10
3.27316
20
-4.94
11
3.26645
21
-4.92155
0
LINE
8
BLACK
6
CONTINUOUS
10
3.26645
20
-4.92155
11
3.2584
21
-4.90364
0
LINE
8
BLACK
6
CONTINUOUS
10
3.2584
20
-4.90364
11
3.24907
21
-4.88636
0
LINE
8
BLACK
6
CONTINUOUS
10
3.24907
20
-4.88636
11
3.23849
21
-4.86982
0
LINE
8
BLACK
6
CONTINUOUS
10
3.23849
20
-4.86982
11
3.22673
21
-4.85409
0
LINE
8
BLACK
6
CONTINUOUS
10
3.22673
20
-4.85409
11
3.21385
21
-4.83927
0
LINE
8
BLACK
6
CONTINUOUS
10
3.21385
20
-4.83927
11
3.19992
21
-4.82543
0
LINE
8
BLACK
6
CONTINUOUS
10
3.19992
20
-4.82543
11
3.18502
21
-4.81265
0
LINE
8
BLACK
6
CONTINUOUS
10
3.18502
20
-4.81265
11
3.16921
21
-4.80099
0
LINE
8
BLACK
6
CONTINUOUS
10
3.16921
20
-4.80099
11
3.1526
21
-4.79052
0
LINE
8
BLACK
6
CONTINUOUS
10
3.1526
20
-4.79052
11
3.13526
21
-4.7813
0
LINE
8
BLACK
6
CONTINUOUS
10
3.13526
20
-4.7813
11
3.1173
21
-4.77337
0
LINE
8
BLACK
6
CONTINUOUS
10
3.1173
20
-4.77337
11
3.09917
21
-4.76692
0
LINE
8
BLACK
6
CONTINUOUS
10
3.09917
20
-4.76692
11
3.09875
21
-4.76695
0
LINE
8
BLACK
6
CONTINUOUS
10
3.09875
20
-4.76695
11
3.09848
21
-4.76673
0
LINE
8
BLACK
6
CONTINUOUS
10
3.09848
20
-4.76673
11
3.05893
21
-4.75483
0
LINE
8
BLACK
6
CONTINUOUS
10
3.05893
20
-4.75483
11
3.01877
21
-4.74392
0
LINE
8
BLACK
6
CONTINUOUS
10
3.01877
20
-4.74392
11
2.97832
21
-4.73409
0
LINE
8
BLACK
6
CONTINUOUS
10
2.97832
20
-4.73409
11
2.93763
21
-4.72535
0
LINE
8
BLACK
6
CONTINUOUS
10
2.93763
20
-4.72535
11
2.89671
21
-4.71771
0
LINE
8
BLACK
6
CONTINUOUS
10
2.89671
20
-4.71771
11
2.85561
21
-4.71117
0
LINE
8
BLACK
6
CONTINUOUS
10
2.85561
20
-4.71117
11
2.81435
21
-4.70573
0
LINE
8
BLACK
6
CONTINUOUS
10
2.81435
20
-4.70573
11
2.77327
21
-4.70144
0
LINE
8
BLACK
6
CONTINUOUS
10
2.77327
20
-4.70144
11
2.77294
21
-4.70155
0
LINE
8
BLACK
6
CONTINUOUS
10
2.77294
20
-4.70155
11
2.76078
21
-4.70044
0
LINE
8
BLACK
6
CONTINUOUS
10
2.76078
20
-4.70044
11
2.76047
21
-4.70028
0
LINE
8
BLACK
6
CONTINUOUS
10
2.76047
20
-4.70028
11
2.70029
21
-4.69536
0
LINE
8
BLACK
6
CONTINUOUS
10
2.70029
20
-4.69536
11
2.63972
21
-4.69151
0
LINE
8
BLACK
6
CONTINUOUS
10
2.63972
20
-4.69151
11
2.57908
21
-4.68876
0
LINE
8
BLACK
6
CONTINUOUS
10
2.57908
20
-4.68876
11
2.51841
21
-4.68711
0
LINE
8
BLACK
6
CONTINUOUS
10
2.51841
20
-4.68711
11
2.45804
21
-4.68656
0
LINE
8
BLACK
6
CONTINUOUS
10
2.45804
20
-4.68656
11
2.45771
21
-4.68669
0
LINE
8
BLACK
6
CONTINUOUS
10
2.45771
20
-4.68669
11
2.22939
21
-4.68669
0
LINE
8
BLACK
6
CONTINUOUS
10
2.22939
20
-4.68669
11
1.91555
21
-4.69875
0
LINE
8
BLACK
6
CONTINUOUS
10
1.91555
20
-4.69875
11
1.90369
21
-4.69966
0
LINE
8
BLACK
6
CONTINUOUS
10
1.90369
20
-4.69966
11
1.90368
21
-4.69965
0
LINE
8
BLACK
6
CONTINUOUS
10
1.90368
20
-4.69965
11
1.90366
21
-4.69966
0
LINE
8
BLACK
6
CONTINUOUS
10
1.90366
20
-4.69966
11
1.16492
21
-4.72803
0
LINE
8
BLACK
6
CONTINUOUS
10
1.16492
20
-4.72803
11
1.16491
21
-4.72803
0
LINE
8
BLACK
6
CONTINUOUS
10
1.16491
20
-4.72803
11
1.16489
21
-4.72803
0
LINE
8
BLACK
6
CONTINUOUS
10
1.16489
20
-4.72803
11
0.583301
21
-4.72803
0
LINE
8
BLACK
6
CONTINUOUS
10
0.583301
20
-4.72803
11
0.558301
21
-4.72728
0
LINE
8
BLACK
6
CONTINUOUS
10
0.558301
20
-4.72728
11
0.533392
21
-4.72502
0
LINE
8
BLACK
6
CONTINUOUS
10
0.533392
20
-4.72502
11
0.508665
21
-4.72126
0
LINE
8
BLACK
6
CONTINUOUS
10
0.508665
20
-4.72126
11
0.48421
21
-4.71601
0
LINE
8
BLACK
6
CONTINUOUS
10
0.48421
20
-4.71601
11
0.460116
21
-4.7093
0
LINE
8
BLACK
6
CONTINUOUS
10
0.460116
20
-4.7093
11
0.436471
21
-4.70115
0
LINE
8
BLACK
6
CONTINUOUS
10
0.436471
20
-4.70115
11
0.41336
21
-4.69158
0
LINE
8
BLACK
6
CONTINUOUS
10
0.41336
20
-4.69158
11
0.390869
21
-4.68064
0
LINE
8
BLACK
6
CONTINUOUS
10
0.390869
20
-4.68064
11
0.369079
21
-4.66836
0
LINE
8
BLACK
6
CONTINUOUS
10
0.369079
20
-4.66836
11
0.348069
21
-4.65479
0
LINE
8
BLACK
6
CONTINUOUS
10
0.348069
20
-4.65479
11
0.327916
21
-4.63998
0
LINE
8
BLACK
6
CONTINUOUS
10
0.327916
20
-4.63998
11
0.308694
21
-4.62398
0
LINE
8
BLACK
6
CONTINUOUS
10
0.308694
20
-4.62398
11
0.290473
21
-4.60684
0
LINE
8
BLACK
6
CONTINUOUS
10
0.290473
20
-4.60684
11
0.273318
21
-4.58864
0
LINE
8
BLACK
6
CONTINUOUS
10
0.273318
20
-4.58864
11
0.257292
21
-4.56944
0
LINE
8
BLACK
6
CONTINUOUS
10
0.257292
20
-4.56944
11
0.242455
21
-4.5493
0
LINE
8
BLACK
6
CONTINUOUS
10
0.242455
20
-4.5493
11
0.228859
21
-4.52831
0
LINE
8
BLACK
6
CONTINUOUS
10
0.228859
20
-4.52831
11
0.216554
21
-4.50653
0
LINE
8
BLACK
6
CONTINUOUS
10
0.216554
20
-4.50653
11
0.205586
21
-4.48406
0
LINE
8
BLACK
6
CONTINUOUS
10
0.205586
20
-4.48406
11
0.195994
21
-4.46096
0
LINE
8
BLACK
6
CONTINUOUS
10
0.195994
20
-4.46096
11
0.187813
21
-4.43732
0
LINE
8
BLACK
6
CONTINUOUS
10
0.187813
20
-4.43732
11
0.181073
21
-4.41324
0
LINE
8
BLACK
6
CONTINUOUS
10
0.181073
20
-4.41324
11
0.175798
21
-4.38879
0
LINE
8
BLACK
6
CONTINUOUS
10
0.175798
20
-4.38879
11
0.172008
21
-4.36406
0
LINE
8
BLACK
6
CONTINUOUS
10
0.172008
20
-4.36406
11
0.169716
21
-4.33916
0
LINE
8
BLACK
6
CONTINUOUS
10
0.169716
20
-4.33916
11
0.168932
21
-4.31416
0
LINE
8
BLACK
6
CONTINUOUS
10
0.168932
20
-4.31416
11
0.169657
21
-4.28916
0
LINE
8
BLACK
6
CONTINUOUS
10
0.169657
20
-4.28916
11
0.171889
21
-4.26425
0
LINE
8
BLACK
6
CONTINUOUS
10
0.171889
20
-4.26425
11
0.17562
21
-4.23951
0
LINE
8
BLACK
6
CONTINUOUS
10
0.17562
20
-4.23951
11
0.17562
21
-4.23951
0
LINE
8
BLACK
6
CONTINUOUS
10
0.17562
20
-4.23951
11
0.502026
21
-2.44488
0
LINE
8
BLACK
6
CONTINUOUS
10
0.502026
20
-2.44488
11
0.508983
21
-2.41074
0
LINE
8
BLACK
6
CONTINUOUS
10
0.508983
20
-2.41074
11
0.51737
21
-2.37691
0
LINE
8
BLACK
6
CONTINUOUS
10
0.51737
20
-2.37691
11
0.527173
21
-2.34347
0
LINE
8
BLACK
6
CONTINUOUS
10
0.527173
20
-2.34347
11
0.538375
21
-2.31048
0
LINE
8
BLACK
6
CONTINUOUS
10
0.538375
20
-2.31048
11
0.550956
21
-2.27798
0
LINE
8
BLACK
6
CONTINUOUS
10
0.550956
20
-2.27798
11
0.564894
21
-2.24604
0
LINE
8
BLACK
6
CONTINUOUS
10
0.564894
20
-2.24604
11
0.580164
21
-2.21471
0
LINE
8
BLACK
6
CONTINUOUS
10
0.580164
20
-2.21471
11
0.596739
21
-2.18406
0
LINE
8
BLACK
6
CONTINUOUS
10
0.596739
20
-2.18406
11
0.614589
21
-2.15413
0
LINE
8
BLACK
6
CONTINUOUS
10
0.614589
20
-2.15413
11
0.633683
21
-2.12498
0
LINE
8
BLACK
6
CONTINUOUS
10
0.633683
20
-2.12498
11
0.653987
21
-2.09666
0
LINE
8
BLACK
6
CONTINUOUS
10
0.653987
20
-2.09666
11
0.675465
21
-2.06922
0
LINE
8
BLACK
6
CONTINUOUS
10
0.675465
20
-2.06922
11
0.69808
21
-2.0427
0
LINE
8
BLACK
6
CONTINUOUS
10
0.69808
20
-2.0427
11
0.72179
21
-2.01716
0
LINE
8
BLACK
6
CONTINUOUS
10
0.72179
20
-2.01716
11
0.746554
21
-1.99265
0
LINE
8
BLACK
6
CONTINUOUS
10
0.746554
20
-1.99265
11
0.772328
21
-1.96919
0
LINE
8
BLACK
6
CONTINUOUS
10
0.772328
20
-1.96919
11
0.799066
21
-1.94685
0
LINE
8
BLACK
6
CONTINUOUS
10
0.799066
20
-1.94685
11
0.826721
21
-1.92564
0
LINE
8
BLACK
6
CONTINUOUS
10
0.826721
20
-1.92564
11
0.855245
21
-1.90562
0
LINE
8
BLACK
6
CONTINUOUS
10
0.855245
20
-1.90562
11
0.884585
21
-1.88682
0
LINE
8
BLACK
6
CONTINUOUS
10
0.884585
20
-1.88682
11
0.914691
21
-1.86927
0
LINE
8
BLACK
6
CONTINUOUS
10
0.914691
20
-1.86927
11
0.945509
21
-1.853
0
LINE
8
BLACK
6
CONTINUOUS
10
0.945509
20
-1.853
11
0.976984
21
-1.83805
0
LINE
8
BLACK
6
CONTINUOUS
10
0.976984
20
-1.83805
11
1.00906
21
-1.82443
0
LINE
8
BLACK
6
CONTINUOUS
10
1.00906
20
-1.82443
11
1.04168
21
-1.81217
0
LINE
8
BLACK
6
CONTINUOUS
10
1.04168
20
-1.81217
11
1.07479
21
-1.8013
0
LINE
8
BLACK
6
CONTINUOUS
10
1.07479
20
-1.8013
11
1.10833
21
-1.79183
0
LINE
8
BLACK
6
CONTINUOUS
10
1.10833
20
-1.79183
11
1.14223
21
-1.78378
0
LINE
8
BLACK
6
CONTINUOUS
10
1.14223
20
-1.78378
11
1.17645
21
-1.77717
0
LINE
8
BLACK
6
CONTINUOUS
10
1.17645
20
-1.77717
11
1.21091
21
-1.772
0
LINE
8
BLACK
6
CONTINUOUS
10
1.21091
20
-1.772
11
1.24556
21
-1.76829
0
LINE
8
BLACK
6
CONTINUOUS
10
1.24556
20
-1.76829
11
1.24556
21
-1.76829
0
LINE
8
BLACK
6
CONTINUOUS
10
1.24556
20
-1.76829
11
1.65984
21
-1.73269
0
LINE
8
BLACK
6
CONTINUOUS
10
1.65984
20
-1.73269
11
1.75556
21
-1.72519
0
LINE
8
BLACK
6
CONTINUOUS
10
1.75556
20
-1.72519
11
1.85137
21
-1.71912
0
LINE
8
BLACK
6
CONTINUOUS
10
1.85137
20
-1.71912
11
1.94727
21
-1.71449
0
LINE
8
BLACK
6
CONTINUOUS
10
1.94727
20
-1.71449
11
2.04322
21
-1.7113
0
LINE
8
BLACK
6
CONTINUOUS
10
2.04322
20
-1.7113
11
2.13921
21
-1.70954
0
LINE
8
BLACK
6
CONTINUOUS
10
2.13921
20
-1.70954
11
2.23522
21
-1.70922
0
LINE
8
BLACK
6
CONTINUOUS
10
2.23522
20
-1.70922
11
2.33122
21
-1.71034
0
LINE
8
BLACK
6
CONTINUOUS
10
2.33122
20
-1.71034
11
2.42719
21
-1.7129
0
LINE
8
BLACK
6
CONTINUOUS
10
2.42719
20
-1.7129
11
2.52312
21
-1.7169
0
LINE
8
BLACK
6
CONTINUOUS
10
2.52312
20
-1.7169
11
2.61897
21
-1.72233
0
LINE
8
BLACK
6
CONTINUOUS
10
2.61897
20
-1.72233
11
2.71473
21
-1.7292
0
LINE
8
BLACK
6
CONTINUOUS
10
2.71473
20
-1.7292
11
2.81038
21
-1.7375
0
LINE
8
BLACK
6
CONTINUOUS
10
2.81038
20
-1.7375
11
2.90589
21
-1.74723
0
LINE
8
BLACK
6
CONTINUOUS
10
2.90589
20
-1.74723
11
3.00125
21
-1.75839
0
LINE
8
BLACK
6
CONTINUOUS
10
3.00125
20
-1.75839
11
3.09642
21
-1.77098
0
LINE
8
BLACK
6
CONTINUOUS
10
3.09642
20
-1.77098
11
3.1914
21
-1.785
0
LINE
8
BLACK
6
CONTINUOUS
10
3.1914
20
-1.785
11
3.28616
21
-1.80043
0
LINE
8
BLACK
6
CONTINUOUS
10
3.28616
20
-1.80043
11
3.38068
21
-1.81729
0
LINE
8
BLACK
6
CONTINUOUS
10
3.38068
20
-1.81729
11
3.47493
21
-1.83556
0
LINE
8
BLACK
6
CONTINUOUS
10
3.47493
20
-1.83556
11
3.5689
21
-1.85523
0
LINE
8
BLACK
6
CONTINUOUS
10
3.5689
20
-1.85523
11
3.66256
21
-1.87632
0
LINE
8
BLACK
6
CONTINUOUS
10
3.66256
20
-1.87632
11
3.7559
21
-1.8988
0
LINE
8
BLACK
6
CONTINUOUS
10
3.7559
20
-1.8988
11
3.84889
21
-1.92268
0
LINE
8
BLACK
6
CONTINUOUS
10
3.84889
20
-1.92268
11
3.94151
21
-1.94795
0
LINE
8
BLACK
6
CONTINUOUS
10
3.94151
20
-1.94795
11
4.24842
21
-2.03416
0
LINE
8
BLACK
6
CONTINUOUS
10
4.24842
20
-2.03416
11
4.24879
21
-2.03446
0
LINE
8
BLACK
6
CONTINUOUS
10
4.24879
20
-2.03446
11
4.34048
21
-2.05944
0
LINE
8
BLACK
6
CONTINUOUS
10
4.34048
20
-2.05944
11
4.43298
21
-2.0831
0
LINE
8
BLACK
6
CONTINUOUS
10
4.43298
20
-2.0831
11
4.52584
21
-2.1053
0
LINE
8
BLACK
6
CONTINUOUS
10
4.52584
20
-2.1053
11
4.61904
21
-2.12605
0
LINE
8
BLACK
6
CONTINUOUS
10
4.61904
20
-2.12605
11
4.71255
21
-2.14534
0
LINE
8
BLACK
6
CONTINUOUS
10
4.71255
20
-2.14534
11
4.80634
21
-2.16316
0
LINE
8
BLACK
6
CONTINUOUS
10
4.80634
20
-2.16316
11
4.90041
21
-2.17952
0
LINE
8
BLACK
6
CONTINUOUS
10
4.90041
20
-2.17952
11
4.99472
21
-2.1944
0
LINE
8
BLACK
6
CONTINUOUS
10
4.99472
20
-2.1944
11
5.08925
21
-2.2078
0
LINE
8
BLACK
6
CONTINUOUS
10
5.08925
20
-2.2078
11
5.18398
21
-2.21972
0
LINE
8
BLACK
6
CONTINUOUS
10
5.18398
20
-2.21972
11
5.27889
21
-2.23016
0
LINE
8
BLACK
6
CONTINUOUS
10
5.27889
20
-2.23016
11
5.37394
21
-2.23911
0
LINE
8
BLACK
6
CONTINUOUS
10
5.37394
20
-2.23911
11
5.46913
21
-2.24657
0
LINE
8
BLACK
6
CONTINUOUS
10
5.46913
20
-2.24657
11
5.56442
21
-2.25254
0
LINE
8
BLACK
6
CONTINUOUS
10
5.56442
20
-2.25254
11
5.65979
21
-2.25702
0
LINE
8
BLACK
6
CONTINUOUS
10
5.65979
20
-2.25702
11
5.75522
21
-2.26001
0
LINE
8
BLACK
6
CONTINUOUS
10
5.75522
20
-2.26001
11
5.85069
21
-2.2615
0
LINE
8
BLACK
6
CONTINUOUS
10
5.85069
20
-2.2615
11
5.94616
21
-2.2615
0
LINE
8
BLACK
6
CONTINUOUS
10
5.94616
20
-2.2615
11
6.04163
21
-2.26001
0
LINE
8
BLACK
6
CONTINUOUS
10
6.04163
20
-2.26001
11
6.13706
21
-2.25702
0
LINE
8
BLACK
6
CONTINUOUS
10
6.13706
20
-2.25702
11
6.23243
21
-2.25254
0
LINE
8
BLACK
6
CONTINUOUS
10
6.23243
20
-2.25254
11
6.32772
21
-2.24657
0
LINE
8
BLACK
6
CONTINUOUS
10
6.32772
20
-2.24657
11
6.42291
21
-2.23911
0
LINE
8
BLACK
6
CONTINUOUS
10
6.42291
20
-2.23911
11
6.51796
21
-2.23016
0
LINE
8
BLACK
6
CONTINUOUS
10
6.51796
20
-2.23016
11
6.61287
21
-2.21972
0
LINE
8
BLACK
6
CONTINUOUS
10
6.61287
20
-2.21972
11
6.7076
21
-2.2078
0
LINE
8
BLACK
6
CONTINUOUS
10
6.7076
20
-2.2078
11
6.80213
21
-2.1944
0
LINE
8
BLACK
6
CONTINUOUS
10
6.80213
20
-2.1944
11
6.89644
21
-2.17952
0
LINE
8
BLACK
6
CONTINUOUS
10
6.89644
20
-2.17952
11
6.99051
21
-2.16316
0
LINE
8
BLACK
6
CONTINUOUS
10
6.99051
20
-2.16316
11
7.0843
21
-2.14534
0
LINE
8
BLACK
6
CONTINUOUS
10
7.0843
20
-2.14534
11
7.17781
21
-2.12605
0
LINE
8
BLACK
6
CONTINUOUS
10
7.17781
20
-2.12605
11
7.27101
21
-2.1053
0
LINE
8
BLACK
6
CONTINUOUS
10
7.27101
20
-2.1053
11
7.36387
21
-2.0831
0
LINE
8
BLACK
6
CONTINUOUS
10
7.36387
20
-2.0831
11
7.45637
21
-2.05944
0
LINE
8
BLACK
6
CONTINUOUS
10
7.45637
20
-2.05944
11
7.54806
21
-2.03446
0
LINE
8
BLACK
6
CONTINUOUS
10
7.54806
20
-2.03446
11
7.54843
21
-2.03416
0
LINE
8
BLACK
6
CONTINUOUS
10
7.54843
20
-2.03416
11
7.85534
21
-1.94795
0
LINE
8
BLACK
6
CONTINUOUS
10
7.85534
20
-1.94795
11
7.85534
21
-1.94795
0
LINE
8
BLACK
6
CONTINUOUS
10
7.85534
20
-1.94795
11
7.94796
21
-1.92268
0
LINE
8
BLACK
6
CONTINUOUS
10
7.94796
20
-1.92268
11
8.04095
21
-1.8988
0
LINE
8
BLACK
6
CONTINUOUS
10
8.04095
20
-1.8988
11
8.13429
21
-1.87632
0
LINE
8
BLACK
6
CONTINUOUS
10
8.13429
20
-1.87632
11
8.22795
21
-1.85523
0
LINE
8
BLACK
6
CONTINUOUS
10
8.22795
20
-1.85523
11
8.32192
21
-1.83556
0
LINE
8
BLACK
6
CONTINUOUS
10
8.32192
20
-1.83556
11
8.41617
21
-1.81729
0
LINE
8
BLACK
6
CONTINUOUS
10
8.41617
20
-1.81729
11
8.51069
21
-1.80043
0
LINE
8
BLACK
6
CONTINUOUS
10
8.51069
20
-1.80043
11
8.60545
21
-1.785
0
LINE
8
BLACK
6
CONTINUOUS
10
8.60545
20
-1.785
11
8.70043
21
-1.77098
0
LINE
8
BLACK
6
CONTINUOUS
10
8.70043
20
-1.77098
11
8.7956
21
-1.75839
0
LINE
8
BLACK
6
CONTINUOUS
10
8.7956
20
-1.75839
11
8.89096
21
-1.74723
0
LINE
8
BLACK
6
CONTINUOUS
10
8.89096
20
-1.74723
11
8.98647
21
-1.7375
0
LINE
8
BLACK
6
CONTINUOUS
10
8.98647
20
-1.7375
11
9.08212
21
-1.7292
0
LINE
8
BLACK
6
CONTINUOUS
10
9.08212
20
-1.7292
11
9.17788
21
-1.72233
0
LINE
8
BLACK
6
CONTINUOUS
10
9.17788
20
-1.72233
11
9.27373
21
-1.7169
0
LINE
8
BLACK
6
CONTINUOUS
10
9.27373
20
-1.7169
11
9.36966
21
-1.7129
0
LINE
8
BLACK
6
CONTINUOUS
10
9.36966
20
-1.7129
11
9.46563
21
-1.71034
0
LINE
8
BLACK
6
CONTINUOUS
10
9.46563
20
-1.71034
11
9.56163
21
-1.70922
0
LINE
8
BLACK
6
CONTINUOUS
10
9.56163
20
-1.70922
11
9.65764
21
-1.70954
0
LINE
8
BLACK
6
CONTINUOUS
10
9.65764
20
-1.70954
11
9.75363
21
-1.7113
0
LINE
8
BLACK
6
CONTINUOUS
10
9.75363
20
-1.7113
11
9.84958
21
-1.71449
0
LINE
8
BLACK
6
CONTINUOUS
10
9.84958
20
-1.71449
11
9.94548
21
-1.71912
0
LINE
8
BLACK
6
CONTINUOUS
10
9.94548
20
-1.71912
11
10.0413
21
-1.72519
0
LINE
8
BLACK
6
CONTINUOUS
10
10.0413
20
-1.72519
11
10.137
21
-1.73269
0
LINE
8
BLACK
6
CONTINUOUS
10
10.137
20
-1.73269
11
10.5513
21
-1.76829
0
LINE
8
BLACK
6
CONTINUOUS
10
10.5513
20
-1.76829
11
10.5859
21
-1.772
0
LINE
8
BLACK
6
CONTINUOUS
10
10.5859
20
-1.772
11
10.6204
21
-1.77717
0
LINE
8
BLACK
6
CONTINUOUS
10
10.6204
20
-1.77717
11
10.6546
21
-1.78378
0
LINE
8
BLACK
6
CONTINUOUS
10
10.6546
20
-1.78378
11
10.6885
21
-1.79183
0
LINE
8
BLACK
6
CONTINUOUS
10
10.6885
20
-1.79183
11
10.7221
21
-1.8013
0
LINE
8
BLACK
6
CONTINUOUS
10
10.7221
20
-1.8013
11
10.7552
21
-1.81217
0
LINE
8
BLACK
6
CONTINUOUS
10
10.7552
20
-1.81217
11
10.7878
21
-1.82443
0
LINE
8
BLACK
6
CONTINUOUS
10
10.7878
20
-1.82443
11
10.8199
21
-1.83805
0
LINE
8
BLACK
6
CONTINUOUS
10
10.8199
20
-1.83805
11
10.8513
21
-1.853
0
LINE
8
BLACK
6
CONTINUOUS
10
10.8513
20
-1.853
11
10.8822
21
-1.86927
0
LINE
8
BLACK
6
CONTINUOUS
10
10.8822
20
-1.86927
11
10.9123
21
-1.88682
0
LINE
8
BLACK
6
CONTINUOUS
10
10.9123
20
-1.88682
11
10.9416
21
-1.90562
0
LINE
8
BLACK
6
CONTINUOUS
10
10.9416
20
-1.90562
11
10.9701
21
-1.92564
0
LINE
8
BLACK
6
CONTINUOUS
10
10.9701
20
-1.92564
11
10.9978
21
-1.94685
0
LINE
8
BLACK
6
CONTINUOUS
10
10.9978
20
-1.94685
11
11.0245
21
-1.96919
0
LINE
8
BLACK
6
CONTINUOUS
10
11.0245
20
-1.96919
11
11.0503
21
-1.99265
0
LINE
8
BLACK
6
CONTINUOUS
10
11.0503
20
-1.99265
11
11.0751
21
-2.01716
0
LINE
8
BLACK
6
CONTINUOUS
10
11.0751
20
-2.01716
11
11.0988
21
-2.0427
0
LINE
8
BLACK
6
CONTINUOUS
10
11.0988
20
-2.0427
11
11.1214
21
-2.06922
0
LINE
8
BLACK
6
CONTINUOUS
10
11.1214
20
-2.06922
11
11.1429
21
-2.09666
0
LINE
8
BLACK
6
CONTINUOUS
10
11.1429
20
-2.09666
11
11.1632
21
-2.12498
0
LINE
8
BLACK
6
CONTINUOUS
10
11.1632
20
-2.12498
11
11.1823
21
-2.15413
0
LINE
8
BLACK
6
CONTINUOUS
10
11.1823
20
-2.15413
11
11.2001
21
-2.18406
0
LINE
8
BLACK
6
CONTINUOUS
10
11.2001
20
-2.18406
11
11.2167
21
-2.21471
0
LINE
8
BLACK
6
CONTINUOUS
10
11.2167
20
-2.21471
11
11.232
21
-2.24604
0
LINE
8
BLACK
6
CONTINUOUS
10
11.232
20
-2.24604
11
11.2459
21
-2.27798
0
LINE
8
BLACK
6
CONTINUOUS
10
11.2459
20
-2.27798
11
11.2585
21
-2.31048
0
LINE
8
BLACK
6
CONTINUOUS
10
11.2585
20
-2.31048
11
11.2697
21
-2.34347
0
LINE
8
BLACK
6
CONTINUOUS
10
11.2697
20
-2.34347
11
11.2795
21
-2.37691
0
LINE
8
BLACK
6
CONTINUOUS
10
11.2795
20
-2.37691
11
11.2879
21
-2.41074
0
LINE
8
BLACK
6
CONTINUOUS
10
11.2879
20
-2.41074
11
11.2948
21
-2.44488
0
LINE
8
BLACK
6
CONTINUOUS
10
11.2948
20
-2.44488
11
11.6212
21
-4.23951
0
LINE
8
BLACK
6
CONTINUOUS
10
11.6212
20
-4.23951
11
11.625
21
-4.26425
0
LINE
8
BLACK
6
CONTINUOUS
10
11.625
20
-4.26425
11
11.6272
21
-4.28916
0
LINE
8
BLACK
6
CONTINUOUS
10
11.6272
20
-4.28916
11
11.6279
21
-4.31416
0
LINE
8
BLACK
6
CONTINUOUS
10
11.6279
20
-4.31416
11
11.6271
21
-4.33916
0
LINE
8
BLACK
6
CONTINUOUS
10
11.6271
20
-4.33916
11
11.6248
21
-4.36406
0
LINE
8
BLACK
6
CONTINUOUS
10
11.6248
20
-4.36406
11
11.6211
21
-4.38879
0
LINE
8
BLACK
6
CONTINUOUS
10
11.6211
20
-4.38879
11
11.6158
21
-4.41324
0
LINE
8
BLACK
6
CONTINUOUS
10
11.6158
20
-4.41324
11
11.609
21
-4.43732
0
LINE
8
BLACK
6
CONTINUOUS
10
11.609
20
-4.43732
11
11.6009
21
-4.46096
0
LINE
8
BLACK
6
CONTINUOUS
10
11.6009
20
-4.46096
11
11.5913
21
-4.48406
0
LINE
8
BLACK
6
CONTINUOUS
10
11.5913
20
-4.48406
11
11.5803
21
-4.50653
0
LINE
8
BLACK
6
CONTINUOUS
10
11.5803
20
-4.50653
11
11.568
21
-4.52831
0
LINE
8
BLACK
6
CONTINUOUS
10
11.568
20
-4.52831
11
11.5544
21
-4.5493
0
LINE
8
BLACK
6
CONTINUOUS
10
11.5544
20
-4.5493
11
11.5396
21
-4.56944
0
LINE
8
BLACK
6
CONTINUOUS
10
11.5396
20
-4.56944
11
11.5235
21
-4.58864
0
LINE
8
BLACK
6
CONTINUOUS
10
11.5235
20
-4.58864
11
11.5064
21
-4.60684
0
LINE
8
BLACK
6
CONTINUOUS
10
11.5064
20
-4.60684
11
11.4882
21
-4.62398
0
LINE
8
BLACK
6
CONTINUOUS
10
11.4882
20
-4.62398
11
11.4689
21
-4.63998
0
LINE
8
BLACK
6
CONTINUOUS
10
11.4689
20
-4.63998
11
11.4488
21
-4.65479
0
LINE
8
BLACK
6
CONTINUOUS
10
11.4488
20
-4.65479
11
11.4278
21
-4.66836
0
LINE
8
BLACK
6
CONTINUOUS
10
11.4278
20
-4.66836
11
11.406
21
-4.68064
0
LINE
8
BLACK
6
CONTINUOUS
10
11.406
20
-4.68064
11
11.3835
21
-4.69158
0
LINE
8
BLACK
6
CONTINUOUS
10
11.3835
20
-4.69158
11
11.3604
21
-4.70115
0
LINE
8
BLACK
6
CONTINUOUS
10
11.3604
20
-4.70115
11
11.3367
21
-4.7093
0
LINE
8
BLACK
6
CONTINUOUS
10
11.3367
20
-4.7093
11
11.3126
21
-4.71601
0
LINE
8
BLACK
6
CONTINUOUS
10
11.3126
20
-4.71601
11
11.2882
21
-4.72126
0
LINE
8
BLACK
6
CONTINUOUS
10
11.2882
20
-4.72126
11
11.2635
21
-4.72502
0
LINE
8
BLACK
6
CONTINUOUS
10
11.2635
20
-4.72502
11
11.2385
21
-4.72728
0
LINE
8
BLACK
6
CONTINUOUS
10
11.2385
20
-4.72728
11
11.2135
21
-4.72803
0
LINE
8
BLACK
6
CONTINUOUS
10
11.2135
20
-4.72803
11
10.632
21
-4.72803
0
LINE
8
BLACK
6
CONTINUOUS
10
10.632
20
-4.72803
11
10.6319
21
-4.72803
0
LINE
8
BLACK
6
CONTINUOUS
10
3.94061
20
-1.94956
11
3.84843
21
-1.92441
0
LINE
8
BLACK
6
CONTINUOUS
10
3.84843
20
-1.92441
11
3.75547
21
-1.90054
0
LINE
8
BLACK
6
CONTINUOUS
10
3.75547
20
-1.90054
11
3.66216
21
-1.87806
0
LINE
8
BLACK
6
CONTINUOUS
10
3.66216
20
-1.87806
11
3.56852
21
-1.85698
0
LINE
8
BLACK
6
CONTINUOUS
10
3.56852
20
-1.85698
11
3.47458
21
-1.83731
0
LINE
8
BLACK
6
CONTINUOUS
10
3.47458
20
-1.83731
11
3.38035
21
-1.81905
0
LINE
8
BLACK
6
CONTINUOUS
10
3.38035
20
-1.81905
11
3.28586
21
-1.8022
0
LINE
8
BLACK
6
CONTINUOUS
10
3.28586
20
-1.8022
11
3.19113
21
-1.78677
0
LINE
8
BLACK
6
CONTINUOUS
10
3.19113
20
-1.78677
11
3.09618
21
-1.77276
0
LINE
8
BLACK
6
CONTINUOUS
10
3.09618
20
-1.77276
11
3.00102
21
-1.76017
0
LINE
8
BLACK
6
CONTINUOUS
10
3.00102
20
-1.76017
11
2.9057
21
-1.74901
0
LINE
8
BLACK
6
CONTINUOUS
10
2.9057
20
-1.74901
11
2.81021
21
-1.73928
0
LINE
8
BLACK
6
CONTINUOUS
10
2.81021
20
-1.73928
11
2.71459
21
-1.73098
0
LINE
8
BLACK
6
CONTINUOUS
10
2.71459
20
-1.73098
11
2.61885
21
-1.72411
0
LINE
8
BLACK
6
CONTINUOUS
10
2.61885
20
-1.72411
11
2.52303
21
-1.71868
0
LINE
8
BLACK
6
CONTINUOUS
10
2.52303
20
-1.71868
11
2.42713
21
-1.71469
0
LINE
8
BLACK
6
CONTINUOUS
10
2.42713
20
-1.71469
11
2.33118
21
-1.71213
0
LINE
8
BLACK
6
CONTINUOUS
10
2.33118
20
-1.71213
11
2.23521
21
-1.71101
0
LINE
8
BLACK
6
CONTINUOUS
10
2.23521
20
-1.71101
11
2.13923
21
-1.71133
0
LINE
8
BLACK
6
CONTINUOUS
10
2.13923
20
-1.71133
11
2.04327
21
-1.71308
0
LINE
8
BLACK
6
CONTINUOUS
10
2.04327
20
-1.71308
11
1.94734
21
-1.71628
0
LINE
8
BLACK
6
CONTINUOUS
10
1.94734
20
-1.71628
11
1.85147
21
-1.72091
0
LINE
8
BLACK
6
CONTINUOUS
10
1.85147
20
-1.72091
11
1.75568
21
-1.72697
0
LINE
8
BLACK
6
CONTINUOUS
10
1.75568
20
-1.72697
11
1.66042
21
-1.73444
0
LINE
8
BLACK
6
CONTINUOUS
10
1.66042
20
-1.73444
11
1.66001
21
-1.73465
0
LINE
8
BLACK
6
CONTINUOUS
10
1.66001
20
-1.73465
11
1.24573
21
-1.77025
0
LINE
8
BLACK
6
CONTINUOUS
10
1.24573
20
-1.77025
11
1.24529
21
-1.77011
0
LINE
8
BLACK
6
CONTINUOUS
10
1.24529
20
-1.77011
11
1.21114
21
-1.77377
0
LINE
8
BLACK
6
CONTINUOUS
10
1.21114
20
-1.77377
11
1.17675
21
-1.77893
0
LINE
8
BLACK
6
CONTINUOUS
10
1.17675
20
-1.77893
11
1.14261
21
-1.78553
0
LINE
8
BLACK
6
CONTINUOUS
10
1.14261
20
-1.78553
11
1.10878
21
-1.79356
0
LINE
8
BLACK
6
CONTINUOUS
10
1.10878
20
-1.79356
11
1.07531
21
-1.80301
0
LINE
8
BLACK
6
CONTINUOUS
10
1.07531
20
-1.80301
11
1.04228
21
-1.81386
0
LINE
8
BLACK
6
CONTINUOUS
10
1.04228
20
-1.81386
11
1.00972
21
-1.82609
0
LINE
8
BLACK
6
CONTINUOUS
10
1.00972
20
-1.82609
11
0.977716
21
-1.83968
0
LINE
8
BLACK
6
CONTINUOUS
10
0.977716
20
-1.83968
11
0.946309
21
-1.8546
0
LINE
8
BLACK
6
CONTINUOUS
10
0.946309
20
-1.8546
11
0.915557
21
-1.87083
0
LINE
8
BLACK
6
CONTINUOUS
10
0.915557
20
-1.87083
11
0.885516
21
-1.88834
0
LINE
8
BLACK
6
CONTINUOUS
10
0.885516
20
-1.88834
11
0.856239
21
-1.90711
0
LINE
8
BLACK
6
CONTINUOUS
10
0.856239
20
-1.90711
11
0.827777
21
-1.92708
0
LINE
8
BLACK
6
CONTINUOUS
10
0.827777
20
-1.92708
11
0.800182
21
-1.94824
0
LINE
8
BLACK
6
CONTINUOUS
10
0.800182
20
-1.94824
11
0.773501
21
-1.97054
0
LINE
8
BLACK
6
CONTINUOUS
10
0.773501
20
-1.97054
11
0.747783
21
-1.99394
0
LINE
8
BLACK
6
CONTINUOUS
10
0.747783
20
-1.99394
11
0.723072
21
-2.01841
0
LINE
8
BLACK
6
CONTINUOUS
10
0.723072
20
-2.01841
11
0.699413
21
-2.04389
0
LINE
8
BLACK
6
CONTINUOUS
10
0.699413
20
-2.04389
11
0.676848
21
-2.07035
0
LINE
8
BLACK
6
CONTINUOUS
10
0.676848
20
-2.07035
11
0.655416
21
-2.09773
0
LINE
8
BLACK
6
CONTINUOUS
10
0.655416
20
-2.09773
11
0.635155
21
-2.12599
0
LINE
8
BLACK
6
CONTINUOUS
10
0.635155
20
-2.12599
11
0.616102
21
-2.15508
0
LINE
8
BLACK
6
CONTINUOUS
10
0.616102
20
-2.15508
11
0.598291
21
-2.18494
0
LINE
8
BLACK
6
CONTINUOUS
10
0.598291
20
-2.18494
11
0.581752
21
-2.21553
0
LINE
8
BLACK
6
CONTINUOUS
10
0.581752
20
-2.21553
11
0.566515
21
-2.24679
0
LINE
8
BLACK
6
CONTINUOUS
10
0.566515
20
-2.24679
11
0.552607
21
-2.27866
0
LINE
8
BLACK
6
CONTINUOUS
10
0.552607
20
-2.27866
11
0.540053
21
-2.31108
0
LINE
8
BLACK
6
CONTINUOUS
10
0.540053
20
-2.31108
11
0.528875
21
-2.34401
0
LINE
8
BLACK
6
CONTINUOUS
10
0.528875
20
-2.34401
11
0.519093
21
-2.37738
0
LINE
8
BLACK
6
CONTINUOUS
10
0.519093
20
-2.37738
11
0.510724
21
-2.41113
0
LINE
8
BLACK
6
CONTINUOUS
10
0.510724
20
-2.41113
11
0.503867
21
-2.44479
0
LINE
8
BLACK
6
CONTINUOUS
10
0.503867
20
-2.44479
11
0.503963
21
-2.44524
0
LINE
8
BLACK
6
CONTINUOUS
10
0.503963
20
-2.44524
11
0.177556
21
-4.23987
0
LINE
8
BLACK
6
CONTINUOUS
10
0.177556
20
-4.23987
11
0.177308
21
-4.24025
0
LINE
8
BLACK
6
CONTINUOUS
10
0.177308
20
-4.24025
11
0.177308
21
-4.24025
0
LINE
8
BLACK
6
CONTINUOUS
10
0.177308
20
-4.24025
11
0.173656
21
-4.26446
0
LINE
8
BLACK
6
CONTINUOUS
10
0.173656
20
-4.26446
11
0.171434
21
-4.28926
0
LINE
8
BLACK
6
CONTINUOUS
10
0.171434
20
-4.28926
11
0.170712
21
-4.31416
0
LINE
8
BLACK
6
CONTINUOUS
10
0.170712
20
-4.31416
11
0.171493
21
-4.33905
0
LINE
8
BLACK
6
CONTINUOUS
10
0.171493
20
-4.33905
11
0.173775
21
-4.36385
0
LINE
8
BLACK
6
CONTINUOUS
10
0.173775
20
-4.36385
11
0.177549
21
-4.38846
0
LINE
8
BLACK
6
CONTINUOUS
10
0.177549
20
-4.38846
11
0.182801
21
-4.41281
0
LINE
8
BLACK
6
CONTINUOUS
10
0.182801
20
-4.41281
11
0.189512
21
-4.43679
0
LINE
8
BLACK
6
CONTINUOUS
10
0.189512
20
-4.43679
11
0.197658
21
-4.46032
0
LINE
8
BLACK
6
CONTINUOUS
10
0.197658
20
-4.46032
11
0.207209
21
-4.48332
0
LINE
8
BLACK
6
CONTINUOUS
10
0.207209
20
-4.48332
11
0.21813
21
-4.50571
0
LINE
8
BLACK
6
CONTINUOUS
10
0.21813
20
-4.50571
11
0.230382
21
-4.52739
0
LINE
8
BLACK
6
CONTINUOUS
10
0.230382
20
-4.52739
11
0.243919
21
-4.54829
0
LINE
8
BLACK
6
CONTINUOUS
10
0.243919
20
-4.54829
11
0.258693
21
-4.56834
0
LINE
8
BLACK
6
CONTINUOUS
10
0.258693
20
-4.56834
11
0.27465
21
-4.58746
0
LINE
8
BLACK
6
CONTINUOUS
10
0.27465
20
-4.58746
11
0.291731
21
-4.60558
0
LINE
8
BLACK
6
CONTINUOUS
10
0.291731
20
-4.60558
11
0.309874
21
-4.62264
0
LINE
8
BLACK
6
CONTINUOUS
10
0.309874
20
-4.62264
11
0.329014
21
-4.63858
0
LINE
8
BLACK
6
CONTINUOUS
10
0.329014
20
-4.63858
11
0.34908
21
-4.65333
0
LINE
8
BLACK
6
CONTINUOUS
10
0.34908
20
-4.65333
11
0.369999
21
-4.66684
0
LINE
8
BLACK
6
CONTINUOUS
10
0.369999
20
-4.66684
11
0.391696
21
-4.67906
0
LINE
8
BLACK
6
CONTINUOUS
10
0.391696
20
-4.67906
11
0.41409
21
-4.68996
0
LINE
8
BLACK
6
CONTINUOUS
10
0.41409
20
-4.68996
11
0.437101
21
-4.69948
0
LINE
8
BLACK
6
CONTINUOUS
10
0.437101
20
-4.69948
11
0.460645
21
-4.7076
0
LINE
8
BLACK
6
CONTINUOUS
10
0.460645
20
-4.7076
11
0.484636
21
-4.71428
0
LINE
8
BLACK
6
CONTINUOUS
10
0.484636
20
-4.71428
11
0.508986
21
-4.7195
0
LINE
8
BLACK
6
CONTINUOUS
10
0.508986
20
-4.7195
11
0.533607
21
-4.72325
0
LINE
8
BLACK
6
CONTINUOUS
10
0.533607
20
-4.72325
11
0.558409
21
-4.7255
0
LINE
8
BLACK
6
CONTINUOUS
10
0.558409
20
-4.7255
11
0.582878
21
-4.72624
0
LINE
8
BLACK
6
CONTINUOUS
10
0.582878
20
-4.72624
11
0.583301
21
-4.72606
0
LINE
8
BLACK
6
CONTINUOUS
10
0.583301
20
-4.72606
11
1.16487
21
-4.72606
0
LINE
8
BLACK
6
CONTINUOUS
10
1.16487
20
-4.72606
11
1.90356
21
-4.6977
0
LINE
8
BLACK
6
CONTINUOUS
10
1.90356
20
-4.6977
11
1.91541
21
-4.69678
0
LINE
8
BLACK
6
CONTINUOUS
10
1.91541
20
-4.69678
11
1.91543
21
-4.69679
0
LINE
8
BLACK
6
CONTINUOUS
10
1.91543
20
-4.69679
11
1.91545
21
-4.69678
0
LINE
8
BLACK
6
CONTINUOUS
10
1.91545
20
-4.69678
11
2.22933
21
-4.68473
0
LINE
8
BLACK
6
CONTINUOUS
10
2.22933
20
-4.68473
11
2.22935
21
-4.68473
0
LINE
8
BLACK
6
CONTINUOUS
10
2.22935
20
-4.68473
11
2.22937
21
-4.68473
0
LINE
8
BLACK
6
CONTINUOUS
10
2.22937
20
-4.68473
11
2.45771
21
-4.68473
0
LINE
8
BLACK
6
CONTINUOUS
10
2.45771
20
-4.68473
11
2.51844
21
-4.68528
0
LINE
8
BLACK
6
CONTINUOUS
10
2.51844
20
-4.68528
11
2.57915
21
-4.68693
0
LINE
8
BLACK
6
CONTINUOUS
10
2.57915
20
-4.68693
11
2.63982
21
-4.68968
0
LINE
8
BLACK
6
CONTINUOUS
10
2.63982
20
-4.68968
11
2.70043
21
-4.69353
0
LINE
8
BLACK
6
CONTINUOUS
10
2.70043
20
-4.69353
11
2.76095
21
-4.69848
0
LINE
8
BLACK
6
CONTINUOUS
10
2.76095
20
-4.69848
11
2.77311
21
-4.69959
0
LINE
8
BLACK
6
CONTINUOUS
10
2.77311
20
-4.69959
11
2.81456
21
-4.70392
0
LINE
8
BLACK
6
CONTINUOUS
10
2.81456
20
-4.70392
11
2.85587
21
-4.70936
0
LINE
8
BLACK
6
CONTINUOUS
10
2.85587
20
-4.70936
11
2.89703
21
-4.71591
0
LINE
8
BLACK
6
CONTINUOUS
10
2.89703
20
-4.71591
11
2.93799
21
-4.72356
0
LINE
8
BLACK
6
CONTINUOUS
10
2.93799
20
-4.72356
11
2.97873
21
-4.73231
0
LINE
8
BLACK
6
CONTINUOUS
10
2.97873
20
-4.73231
11
3.01922
21
-4.74215
0
LINE
8
BLACK
6
CONTINUOUS
10
3.01922
20
-4.74215
11
3.05943
21
-4.75308
0
LINE
8
BLACK
6
CONTINUOUS
10
3.05943
20
-4.75308
11
3.09934
21
-4.76508
0
LINE
8
BLACK
6
CONTINUOUS
10
3.09934
20
-4.76508
11
3.09934
21
-4.76508
0
LINE
8
BLACK
6
CONTINUOUS
10
3.09934
20
-4.76508
11
3.09934
21
-4.76508
0
LINE
8
BLACK
6
CONTINUOUS
10
3.09934
20
-4.76508
11
3.11796
21
-4.77171
0
LINE
8
BLACK
6
CONTINUOUS
10
3.11796
20
-4.77171
11
3.13605
21
-4.77969
0
LINE
8
BLACK
6
CONTINUOUS
10
3.13605
20
-4.77969
11
3.1535
21
-4.78897
0
LINE
8
BLACK
6
CONTINUOUS
10
3.1535
20
-4.78897
11
3.17022
21
-4.79951
0
LINE
8
BLACK
6
CONTINUOUS
10
3.17022
20
-4.79951
11
3.18613
21
-4.81124
0
LINE
8
BLACK
6
CONTINUOUS
10
3.18613
20
-4.81124
11
3.20114
21
-4.82411
0
LINE
8
BLACK
6
CONTINUOUS
10
3.20114
20
-4.82411
11
3.21516
21
-4.83804
0
LINE
8
BLACK
6
CONTINUOUS
10
3.21516
20
-4.83804
11
3.22813
21
-4.85297
0
LINE
8
BLACK
6
CONTINUOUS
10
3.22813
20
-4.85297
11
3.23996
21
-4.8688
0
LINE
8
BLACK
6
CONTINUOUS
10
3.23996
20
-4.8688
11
3.25061
21
-4.88545
0
LINE
8
BLACK
6
CONTINUOUS
10
3.25061
20
-4.88545
11
3.26001
21
-4.90284
0
LINE
8
BLACK
6
CONTINUOUS
10
3.26001
20
-4.90284
11
3.26811
21
-4.92088
0
LINE
8
BLACK
6
CONTINUOUS
10
3.26811
20
-4.92088
11
3.27486
21
-4.93945
0
LINE
8
BLACK
6
CONTINUOUS
10
3.27486
20
-4.93945
11
3.28024
21
-4.95848
0
LINE
8
BLACK
6
CONTINUOUS
10
3.28024
20
-4.95848
11
3.28421
21
-4.97784
0
LINE
8
BLACK
6
CONTINUOUS
10
3.28421
20
-4.97784
11
3.28675
21
-4.99745
0
LINE
8
BLACK
6
CONTINUOUS
10
3.28675
20
-4.99745
11
3.28784
21
-5.01718
0
LINE
8
BLACK
6
CONTINUOUS
10
3.28784
20
-5.01718
11
3.28749
21
-5.03695
0
LINE
8
BLACK
6
CONTINUOUS
10
3.28749
20
-5.03695
11
3.28569
21
-5.05663
0
LINE
8
BLACK
6
CONTINUOUS
10
3.28569
20
-5.05663
11
3.28246
21
-5.07613
0
LINE
8
BLACK
6
CONTINUOUS
10
3.28246
20
-5.07613
11
3.28245
21
-5.07614
0
LINE
8
BLACK
6
CONTINUOUS
10
3.28245
20
-5.07614
11
3.28245
21
-5.07616
0
LINE
8
BLACK
6
CONTINUOUS
10
3.28245
20
-5.07616
11
3.23299
21
-5.2929
0
LINE
8
BLACK
6
CONTINUOUS
10
3.23299
20
-5.2929
11
3.23279
21
-5.29319
0
LINE
8
BLACK
6
CONTINUOUS
10
3.23279
20
-5.29319
11
3.23277
21
-5.29322
0
LINE
8
BLACK
6
CONTINUOUS
10
3.23277
20
-5.29322
11
3.22919
21
-5.31686
0
LINE
8
BLACK
6
CONTINUOUS
10
3.22919
20
-5.31686
11
3.22696
21
-5.34106
0
LINE
8
BLACK
6
CONTINUOUS
10
3.22696
20
-5.34106
11
3.22617
21
-5.36536
0
LINE
8
BLACK
6
CONTINUOUS
10
3.22617
20
-5.36536
11
3.22681
21
-5.38965
0
LINE
8
BLACK
6
CONTINUOUS
10
3.22681
20
-5.38965
11
3.22888
21
-5.41387
0
LINE
8
BLACK
6
CONTINUOUS
10
3.22888
20
-5.41387
11
3.23237
21
-5.43792
0
LINE
8
BLACK
6
CONTINUOUS
10
3.23237
20
-5.43792
11
3.23727
21
-5.46173
0
LINE
8
BLACK
6
CONTINUOUS
10
3.23727
20
-5.46173
11
3.24357
21
-5.48521
0
LINE
8
BLACK
6
CONTINUOUS
10
3.24357
20
-5.48521
11
3.25124
21
-5.50827
0
LINE
8
BLACK
6
CONTINUOUS
10
3.25124
20
-5.50827
11
3.26025
21
-5.53085
0
LINE
8
BLACK
6
CONTINUOUS
10
3.26025
20
-5.53085
11
3.27057
21
-5.55285
0
LINE
8
BLACK
6
CONTINUOUS
10
3.27057
20
-5.55285
11
3.28218
21
-5.57421
0
LINE
8
BLACK
6
CONTINUOUS
10
3.28218
20
-5.57421
11
3.29502
21
-5.59484
0
LINE
8
BLACK
6
CONTINUOUS
10
3.29502
20
-5.59484
11
3.30905
21
-5.61469
0
LINE
8
BLACK
6
CONTINUOUS
10
3.30905
20
-5.61469
11
3.32423
21
-5.63367
0
LINE
8
BLACK
6
CONTINUOUS
10
3.32423
20
-5.63367
11
3.3405
21
-5.65173
0
LINE
8
BLACK
6
CONTINUOUS
10
3.3405
20
-5.65173
11
3.3578
21
-5.6688
0
LINE
8
BLACK
6
CONTINUOUS
10
3.3578
20
-5.6688
11
3.37608
21
-5.68482
0
LINE
8
BLACK
6
CONTINUOUS
10
3.37608
20
-5.68482
11
3.39527
21
-5.69973
0
LINE
8
BLACK
6
CONTINUOUS
10
3.39527
20
-5.69973
11
3.41531
21
-5.71349
0
LINE
8
BLACK
6
CONTINUOUS
10
3.41531
20
-5.71349
11
3.43612
21
-5.72605
0
LINE
8
BLACK
6
CONTINUOUS
10
3.43612
20
-5.72605
11
3.45764
21
-5.73736
0
LINE
8
BLACK
6
CONTINUOUS
10
3.45764
20
-5.73736
11
3.47978
21
-5.74738
0
LINE
8
BLACK
6
CONTINUOUS
10
3.47978
20
-5.74738
11
3.5021
21
-5.75594
0
LINE
8
BLACK
6
CONTINUOUS
10
3.5021
20
-5.75594
11
3.50253
21
-5.75591
0
LINE
8
BLACK
6
CONTINUOUS
10
3.50253
20
-5.75591
11
4.31489
21
-6.04018
0
LINE
8
BLACK
6
CONTINUOUS
10
4.31489
20
-6.04018
11
4.31525
21
-6.0405
0
LINE
8
BLACK
6
CONTINUOUS
10
4.31525
20
-6.0405
11
4.39525
21
-6.06771
0
LINE
8
BLACK
6
CONTINUOUS
10
4.39525
20
-6.06771
11
4.47614
21
-6.09362
0
LINE
8
BLACK
6
CONTINUOUS
10
4.47614
20
-6.09362
11
4.55748
21
-6.1181
0
LINE
8
BLACK
6
CONTINUOUS
10
4.55748
20
-6.1181
11
4.63924
21
-6.14113
0
LINE
8
BLACK
6
CONTINUOUS
10
4.63924
20
-6.14113
11
4.72139
21
-6.16271
0
LINE
8
BLACK
6
CONTINUOUS
10
4.72139
20
-6.16271
11
4.80391
21
-6.18284
0
LINE
8
BLACK
6
CONTINUOUS
10
4.80391
20
-6.18284
11
4.88678
21
-6.20149
0
LINE
8
BLACK
6
CONTINUOUS
10
4.88678
20
-6.20149
11
4.96996
21
-6.21868
0
LINE
8
BLACK
6
CONTINUOUS
10
4.96996
20
-6.21868
11
5.05344
21
-6.23439
0
LINE
8
BLACK
6
CONTINUOUS
10
5.05344
20
-6.23439
11
5.13718
21
-6.24862
0
LINE
8
BLACK
6
CONTINUOUS
10
5.13718
20
-6.24862
11
5.22116
21
-6.26136
0
LINE
8
BLACK
6
CONTINUOUS
10
5.22116
20
-6.26136
11
5.30535
21
-6.27262
0
LINE
8
BLACK
6
CONTINUOUS
10
5.30535
20
-6.27262
11
5.38973
21
-6.28238
0
LINE
8
BLACK
6
CONTINUOUS
10
5.38973
20
-6.28238
11
5.47427
21
-6.29064
0
LINE
8
BLACK
6
CONTINUOUS
10
5.47427
20
-6.29064
11
5.55894
21
-6.29741
0
LINE
8
BLACK
6
CONTINUOUS
10
5.55894
20
-6.29741
11
5.64372
21
-6.30267
0
LINE
8
BLACK
6
CONTINUOUS
10
5.64372
20
-6.30267
11
5.72858
21
-6.30643
0
LINE
8
BLACK
6
CONTINUOUS
10
5.72858
20
-6.30643
11
5.81349
21
-6.30869
0
LINE
8
BLACK
6
CONTINUOUS
10
5.81349
20
-6.30869
11
5.89843
21
-6.30944
0
LINE
8
BLACK
6
CONTINUOUS
10
5.89843
20
-6.30944
11
5.98336
21
-6.30869
0
LINE
8
BLACK
6
CONTINUOUS
10
5.98336
20
-6.30869
11
6.06827
21
-6.30643
0
LINE
8
BLACK
6
CONTINUOUS
10
6.06827
20
-6.30643
11
6.15313
21
-6.30267
0
LINE
8
BLACK
6
CONTINUOUS
10
6.15313
20
-6.30267
11
6.23791
21
-6.29741
0
LINE
8
BLACK
6
CONTINUOUS
10
6.23791
20
-6.29741
11
6.32258
21
-6.29064
0
LINE
8
BLACK
6
CONTINUOUS
10
6.32258
20
-6.29064
11
6.40712
21
-6.28238
0
LINE
8
BLACK
6
CONTINUOUS
10
6.40712
20
-6.28238
11
6.4915
21
-6.27262
0
LINE
8
BLACK
6
CONTINUOUS
10
6.4915
20
-6.27262
11
6.57569
21
-6.26136
0
LINE
8
BLACK
6
CONTINUOUS
10
6.57569
20
-6.26136
11
6.65967
21
-6.24862
0
LINE
8
BLACK
6
CONTINUOUS
10
6.65967
20
-6.24862
11
6.74341
21
-6.23439
0
LINE
8
BLACK
6
CONTINUOUS
10
6.74341
20
-6.23439
11
6.82689
21
-6.21868
0
LINE
8
BLACK
6
CONTINUOUS
10
6.82689
20
-6.21868
11
6.91007
21
-6.20149
0
LINE
8
BLACK
6
CONTINUOUS
10
6.91007
20
-6.20149
11
6.99294
21
-6.18284
0
LINE
8
BLACK
6
CONTINUOUS
10
6.99294
20
-6.18284
11
7.07546
21
-6.16271
0
LINE
8
BLACK
6
CONTINUOUS
10
7.07546
20
-6.16271
11
7.15761
21
-6.14113
0
LINE
8
BLACK
6
CONTINUOUS
10
7.15761
20
-6.14113
11
7.23937
21
-6.1181
0
LINE
8
BLACK
6
CONTINUOUS
10
7.23937
20
-6.1181
11
7.32071
21
-6.09362
0
LINE
8
BLACK
6
CONTINUOUS
10
7.32071
20
-6.09362
11
7.4016
21
-6.06771
0
LINE
8
BLACK
6
CONTINUOUS
10
7.4016
20
-6.06771
11
7.4816
21
-6.0405
0
LINE
8
BLACK
6
CONTINUOUS
10
7.4816
20
-6.0405
11
7.48196
21
-6.04018
0
LINE
8
BLACK
6
CONTINUOUS
10
7.48196
20
-6.04018
11
8.29432
21
-5.75591
0
LINE
8
BLACK
6
CONTINUOUS
10
8.29432
20
-5.75591
11
8.29432
21
-5.75591
0
LINE
8
BLACK
6
CONTINUOUS
10
8.29432
20
-5.75591
11
8.29475
21
-5.75594
0
LINE
8
BLACK
6
CONTINUOUS
10
8.29475
20
-5.75594
11
8.31707
21
-5.74738
0
LINE
8
BLACK
6
CONTINUOUS
10
8.31707
20
-5.74738
11
8.33921
21
-5.73736
0
LINE
8
BLACK
6
CONTINUOUS
10
8.33921
20
-5.73736
11
8.36073
21
-5.72605
0
LINE
8
BLACK
6
CONTINUOUS
10
8.36073
20
-5.72605
11
8.38154
21
-5.71349
0
LINE
8
BLACK
6
CONTINUOUS
10
8.38154
20
-5.71349
11
8.40158
21
-5.69973
0
LINE
8
BLACK
6
CONTINUOUS
10
8.40158
20
-5.69973
11
8.42077
21
-5.68482
0
LINE
8
BLACK
6
CONTINUOUS
10
8.42077
20
-5.68482
11
8.43905
21
-5.6688
0
LINE
8
BLACK
6
CONTINUOUS
10
8.43905
20
-5.6688
11
8.45635
21
-5.65173
0
LINE
8
BLACK
6
CONTINUOUS
10
8.45635
20
-5.65173
11
8.47262
21
-5.63367
0
LINE
8
BLACK
6
CONTINUOUS
10
8.47262
20
-5.63367
11
8.4878
21
-5.61469
0
LINE
8
BLACK
6
CONTINUOUS
10
8.4878
20
-5.61469
11
8.50183
21
-5.59484
0
LINE
8
BLACK
6
CONTINUOUS
10
8.50183
20
-5.59484
11
8.51467
21
-5.57421
0
LINE
8
BLACK
6
CONTINUOUS
10
8.51467
20
-5.57421
11
8.52628
21
-5.55285
0
LINE
8
BLACK
6
CONTINUOUS
10
8.52628
20
-5.55285
11
8.5366
21
-5.53085
0
LINE
8
BLACK
6
CONTINUOUS
10
8.5366
20
-5.53085
11
8.54561
21
-5.50827
0
LINE
8
BLACK
6
CONTINUOUS
10
8.54561
20
-5.50827
11
8.55328
21
-5.48521
0
LINE
8
BLACK
6
CONTINUOUS
10
8.55328
20
-5.48521
11
8.55958
21
-5.46173
0
LINE
8
BLACK
6
CONTINUOUS
10
8.55958
20
-5.46173
11
8.56448
21
-5.43792
0
LINE
8
BLACK
6
CONTINUOUS
10
8.56448
20
-5.43792
11
8.56797
21
-5.41387
0
LINE
8
BLACK
6
CONTINUOUS
10
8.56797
20
-5.41387
11
8.57004
21
-5.38965
0
LINE
8
BLACK
6
CONTINUOUS
10
8.57004
20
-5.38965
11
8.57068
21
-5.36536
0
LINE
8
BLACK
6
CONTINUOUS
10
8.57068
20
-5.36536
11
8.56989
21
-5.34106
0
LINE
8
BLACK
6
CONTINUOUS
10
8.56989
20
-5.34106
11
8.56766
21
-5.31686
0
LINE
8
BLACK
6
CONTINUOUS
10
8.56766
20
-5.31686
11
8.56408
21
-5.29322
0
LINE
8
BLACK
6
CONTINUOUS
10
8.56408
20
-5.29322
11
8.56406
21
-5.29319
0
LINE
8
BLACK
6
CONTINUOUS
10
8.56406
20
-5.29319
11
8.56386
21
-5.2929
0
LINE
8
BLACK
6
CONTINUOUS
10
8.56386
20
-5.2929
11
8.5144
21
-5.07616
0
LINE
8
BLACK
6
CONTINUOUS
10
8.5144
20
-5.07616
11
8.5144
21
-5.07614
0
LINE
8
BLACK
6
CONTINUOUS
10
8.5144
20
-5.07614
11
8.51439
21
-5.07613
0
LINE
8
BLACK
6
CONTINUOUS
10
8.51439
20
-5.07613
11
8.51116
21
-5.05663
0
LINE
8
BLACK
6
CONTINUOUS
10
8.51116
20
-5.05663
11
8.50936
21
-5.03695
0
LINE
8
BLACK
6
CONTINUOUS
10
8.50936
20
-5.03695
11
8.50901
21
-5.01718
0
LINE
8
BLACK
6
CONTINUOUS
10
8.50901
20
-5.01718
11
8.5101
21
-4.99745
0
LINE
8
BLACK
6
CONTINUOUS
10
8.5101
20
-4.99745
11
8.51264
21
-4.97784
0
LINE
8
BLACK
6
CONTINUOUS
10
8.51264
20
-4.97784
11
8.51661
21
-4.95848
0
LINE
8
BLACK
6
CONTINUOUS
10
8.51661
20
-4.95848
11
8.52199
21
-4.93945
0
LINE
8
BLACK
6
CONTINUOUS
10
8.52199
20
-4.93945
11
8.52874
21
-4.92088
0
LINE
8
BLACK
6
CONTINUOUS
10
8.52874
20
-4.92088
11
8.53684
21
-4.90284
0
LINE
8
BLACK
6
CONTINUOUS
10
8.53684
20
-4.90284
11
8.54624
21
-4.88545
0
LINE
8
BLACK
6
CONTINUOUS
10
8.54624
20
-4.88545
11
8.55689
21
-4.8688
0
LINE
8
BLACK
6
CONTINUOUS
10
8.55689
20
-4.8688
11
8.56872
21
-4.85297
0
LINE
8
BLACK
6
CONTINUOUS
10
8.56872
20
-4.85297
11
8.58169
21
-4.83804
0
LINE
8
BLACK
6
CONTINUOUS
10
8.58169
20
-4.83804
11
8.59571
21
-4.82411
0
LINE
8
BLACK
6
CONTINUOUS
10
8.59571
20
-4.82411
11
8.61072
21
-4.81124
0
LINE
8
BLACK
6
CONTINUOUS
10
8.61072
20
-4.81124
11
8.62663
21
-4.79951
0
LINE
8
BLACK
6
CONTINUOUS
10
8.62663
20
-4.79951
11
8.64335
21
-4.78897
0
LINE
8
BLACK
6
CONTINUOUS
10
8.64335
20
-4.78897
11
8.6608
21
-4.77969
0
LINE
8
BLACK
6
CONTINUOUS
10
8.6608
20
-4.77969
11
8.67889
21
-4.77171
0
LINE
8
BLACK
6
CONTINUOUS
10
8.67889
20
-4.77171
11
8.69751
21
-4.76508
0
LINE
8
BLACK
6
CONTINUOUS
10
8.69751
20
-4.76508
11
8.69751
21
-4.76508
0
LINE
8
BLACK
6
CONTINUOUS
10
8.69751
20
-4.76508
11
8.69751
21
-4.76508
0
LINE
8
BLACK
6
CONTINUOUS
10
8.69751
20
-4.76508
11
8.73742
21
-4.75308
0
LINE
8
BLACK
6
CONTINUOUS
10
8.73742
20
-4.75308
11
8.77763
21
-4.74215
0
LINE
8
BLACK
6
CONTINUOUS
10
8.77763
20
-4.74215
11
8.81812
21
-4.73231
0
LINE
8
BLACK
6
CONTINUOUS
10
8.81812
20
-4.73231
11
8.85886
21
-4.72356
0
LINE
8
BLACK
6
CONTINUOUS
10
8.85886
20
-4.72356
11
8.89982
21
-4.71591
0
LINE
8
BLACK
6
CONTINUOUS
10
8.89982
20
-4.71591
11
8.94098
21
-4.70936
0
LINE
8
BLACK
6
CONTINUOUS
10
8.94098
20
-4.70936
11
8.98229
21
-4.70392
0
LINE
8
BLACK
6
CONTINUOUS
10
8.98229
20
-4.70392
11
9.02374
21
-4.69959
0
LINE
8
BLACK
6
CONTINUOUS
10
9.02374
20
-4.69959
11
9.0359
21
-4.69848
0
LINE
8
BLACK
6
CONTINUOUS
10
9.0359
20
-4.69848
11
9.0359
21
-4.69848
0
LINE
8
BLACK
6
CONTINUOUS
10
9.0359
20
-4.69848
11
9.09642
21
-4.69353
0
LINE
8
BLACK
6
CONTINUOUS
10
9.09642
20
-4.69353
11
9.15703
21
-4.68968
0
LINE
8
BLACK
6
CONTINUOUS
10
9.15703
20
-4.68968
11
9.2177
21
-4.68693
0
LINE
8
BLACK
6
CONTINUOUS
10
9.2177
20
-4.68693
11
9.27841
21
-4.68528
0
LINE
8
BLACK
6
CONTINUOUS
10
9.27841
20
-4.68528
11
9.33914
21
-4.68473
0
LINE
8
BLACK
6
CONTINUOUS
10
9.33914
20
-4.68473
11
9.33914
21
-4.68473
0
LINE
8
BLACK
6
CONTINUOUS
10
9.33914
20
-4.68473
11
9.56748
21
-4.68473
0
LINE
8
BLACK
6
CONTINUOUS
10
9.56748
20
-4.68473
11
9.5675
21
-4.68473
0
LINE
8
BLACK
6
CONTINUOUS
10
9.5675
20
-4.68473
11
9.56752
21
-4.68473
0
LINE
8
BLACK
6
CONTINUOUS
10
9.56752
20
-4.68473
11
9.8814
21
-4.69678
0
LINE
8
BLACK
6
CONTINUOUS
10
9.8814
20
-4.69678
11
9.88142
21
-4.69679
0
LINE
8
BLACK
6
CONTINUOUS
10
9.88142
20
-4.69679
11
9.88144
21
-4.69678
0
LINE
8
BLACK
6
CONTINUOUS
10
9.88144
20
-4.69678
11
9.89329
21
-4.6977
0
LINE
8
BLACK
6
CONTINUOUS
10
9.89329
20
-4.6977
11
10.632
21
-4.72606
0
LINE
8
BLACK
6
CONTINUOUS
10
10.632
20
-4.72606
11
11.2135
21
-4.72606
0
LINE
8
BLACK
6
CONTINUOUS
10
11.2135
20
-4.72606
11
11.214
21
-4.72624
0
LINE
8
BLACK
6
CONTINUOUS
10
11.214
20
-4.72624
11
11.2384
21
-4.7255
0
LINE
8
BLACK
6
CONTINUOUS
10
11.2384
20
-4.7255
11
11.2632
21
-4.72325
0
LINE
8
BLACK
6
CONTINUOUS
10
11.2632
20
-4.72325
11
11.2879
21
-4.7195
0
LINE
8
BLACK
6
CONTINUOUS
10
11.2879
20
-4.7195
11
11.3122
21
-4.71428
0
LINE
8
BLACK
6
CONTINUOUS
10
11.3122
20
-4.71428
11
11.3362
21
-4.7076
0
LINE
8
BLACK
6
CONTINUOUS
10
11.3362
20
-4.7076
11
11.3597
21
-4.69948
0
LINE
8
BLACK
6
CONTINUOUS
10
11.3597
20
-4.69948
11
11.3828
21
-4.68996
0
LINE
8
BLACK
6
CONTINUOUS
10
11.3828
20
-4.68996
11
11.4052
21
-4.67906
0
LINE
8
BLACK
6
CONTINUOUS
10
11.4052
20
-4.67906
11
11.4269
21
-4.66684
0
LINE
8
BLACK
6
CONTINUOUS
10
11.4269
20
-4.66684
11
11.4478
21
-4.65333
0
LINE
8
BLACK
6
CONTINUOUS
10
11.4478
20
-4.65333
11
11.4678
21
-4.63858
0
LINE
8
BLACK
6
CONTINUOUS
10
11.4678
20
-4.63858
11
11.487
21
-4.62264
0
LINE
8
BLACK
6
CONTINUOUS
10
11.487
20
-4.62264
11
11.5051
21
-4.60558
0
LINE
8
BLACK
6
CONTINUOUS
10
11.5051
20
-4.60558
11
11.5222
21
-4.58746
0
LINE
8
BLACK
6
CONTINUOUS
10
11.5222
20
-4.58746
11
11.5382
21
-4.56834
0
LINE
8
BLACK
6
CONTINUOUS
10
11.5382
20
-4.56834
11
11.5529
21
-4.54829
0
LINE
8
BLACK
6
CONTINUOUS
10
11.5529
20
-4.54829
11
11.5665
21
-4.52739
0
LINE
8
BLACK
6
CONTINUOUS
10
11.5665
20
-4.52739
11
11.5787
21
-4.50571
0
LINE
8
BLACK
6
CONTINUOUS
10
11.5787
20
-4.50571
11
11.5896
21
-4.48332
0
LINE
8
BLACK
6
CONTINUOUS
10
11.5896
20
-4.48332
11
11.5992
21
-4.46032
0
LINE
8
BLACK
6
CONTINUOUS
10
11.5992
20
-4.46032
11
11.6073
21
-4.43679
0
LINE
8
BLACK
6
CONTINUOUS
10
11.6073
20
-4.43679
11
11.614
21
-4.41281
0
LINE
8
BLACK
6
CONTINUOUS
10
11.614
20
-4.41281
11
11.6193
21
-4.38846
0
LINE
8
BLACK
6
CONTINUOUS
10
11.6193
20
-4.38846
11
11.6231
21
-4.36385
0
LINE
8
BLACK
6
CONTINUOUS
10
11.6231
20
-4.36385
11
11.6254
21
-4.33905
0
LINE
8
BLACK
6
CONTINUOUS
10
11.6254
20
-4.33905
11
11.6261
21
-4.31416
0
LINE
8
BLACK
6
CONTINUOUS
10
11.6261
20
-4.31416
11
11.6254
21
-4.28926
0
LINE
8
BLACK
6
CONTINUOUS
10
11.6254
20
-4.28926
11
11.6232
21
-4.26446
0
LINE
8
BLACK
6
CONTINUOUS
10
11.6232
20
-4.26446
11
11.6195
21
-4.24025
0
LINE
8
BLACK
6
CONTINUOUS
10
11.6195
20
-4.24025
11
11.6193
21
-4.23987
0
LINE
8
BLACK
6
CONTINUOUS
10
11.6193
20
-4.23987
11
11.2929
21
-2.44524
0
LINE
8
BLACK
6
CONTINUOUS
10
11.2929
20
-2.44524
11
11.293
21
-2.44479
0
LINE
8
BLACK
6
CONTINUOUS
10
11.293
20
-2.44479
11
11.2861
21
-2.41113
0
LINE
8
BLACK
6
CONTINUOUS
10
11.2861
20
-2.41113
11
11.2778
21
-2.37738
0
LINE
8
BLACK
6
CONTINUOUS
10
11.2778
20
-2.37738
11
11.268
21
-2.34401
0
LINE
8
BLACK
6
CONTINUOUS
10
11.268
20
-2.34401
11
11.2568
21
-2.31108
0
LINE
8
BLACK
6
CONTINUOUS
10
11.2568
20
-2.31108
11
11.2442
21
-2.27866
0
LINE
8
BLACK
6
CONTINUOUS
10
11.2442
20
-2.27866
11
11.2303
21
-2.24679
0
LINE
8
BLACK
6
CONTINUOUS
10
11.2303
20
-2.24679
11
11.2151
21
-2.21553
0
LINE
8
BLACK
6
CONTINUOUS
10
11.2151
20
-2.21553
11
11.1986
21
-2.18494
0
LINE
8
BLACK
6
CONTINUOUS
10
11.1986
20
-2.18494
11
11.1807
21
-2.15508
0
LINE
8
BLACK
6
CONTINUOUS
10
11.1807
20
-2.15508
11
11.1617
21
-2.12599
0
LINE
8
BLACK
6
CONTINUOUS
10
11.1617
20
-2.12599
11
11.1414
21
-2.09773
0
LINE
8
BLACK
6
CONTINUOUS
10
11.1414
20
-2.09773
11
11.12
21
-2.07035
0
LINE
8
BLACK
6
CONTINUOUS
10
11.12
20
-2.07035
11
11.0974
21
-2.04389
0
LINE
8
BLACK
6
CONTINUOUS
10
11.0974
20
-2.04389
11
11.0738
21
-2.01841
0
LINE
8
BLACK
6
CONTINUOUS
10
11.0738
20
-2.01841
11
11.0491
21
-1.99394
0
LINE
8
BLACK
6
CONTINUOUS
10
11.0491
20
-1.99394
11
11.0233
21
-1.97054
0
LINE
8
BLACK
6
CONTINUOUS
10
11.0233
20
-1.97054
11
10.9967
21
-1.94824
0
LINE
8
BLACK
6
CONTINUOUS
10
10.9967
20
-1.94824
11
10.9691
21
-1.92708
0
LINE
8
BLACK
6
CONTINUOUS
10
10.9691
20
-1.92708
11
10.9406
21
-1.90711
0
LINE
8
BLACK
6
CONTINUOUS
10
10.9406
20
-1.90711
11
10.9113
21
-1.88834
0
LINE
8
BLACK
6
CONTINUOUS
10
10.9113
20
-1.88834
11
10.8813
21
-1.87083
0
LINE
8
BLACK
6
CONTINUOUS
10
10.8813
20
-1.87083
11
10.8505
21
-1.8546
0
LINE
8
BLACK
6
CONTINUOUS
10
10.8505
20
-1.8546
11
10.8191
21
-1.83968
0
LINE
8
BLACK
6
CONTINUOUS
10
10.8191
20
-1.83968
11
10.7871
21
-1.82609
0
LINE
8
BLACK
6
CONTINUOUS
10
10.7871
20
-1.82609
11
10.7546
21
-1.81386
0
LINE
8
BLACK
6
CONTINUOUS
10
10.7546
20
-1.81386
11
10.7215
21
-1.80301
0
LINE
8
BLACK
6
CONTINUOUS
10
10.7215
20
-1.80301
11
10.6881
21
-1.79356
0
LINE
8
BLACK
6
CONTINUOUS
10
10.6881
20
-1.79356
11
10.6542
21
-1.78553
0
LINE
8
BLACK
6
CONTINUOUS
10
10.6542
20
-1.78553
11
10.6201
21
-1.77893
0
LINE
8
BLACK
6
CONTINUOUS
10
10.6201
20
-1.77893
11
10.5857
21
-1.77377
0
LINE
8
BLACK
6
CONTINUOUS
10
10.5857
20
-1.77377
11
10.5516
21
-1.77011
0
LINE
8
BLACK
6
CONTINUOUS
10
10.5516
20
-1.77011
11
10.5511
21
-1.77025
0
LINE
8
BLACK
6
CONTINUOUS
10
10.5511
20
-1.77025
11
10.1368
21
-1.73465
0
LINE
8
BLACK
6
CONTINUOUS
10
10.1368
20
-1.73465
11
10.1364
21
-1.73444
0
LINE
8
BLACK
6
CONTINUOUS
10
10.1364
20
-1.73444
11
10.0412
21
-1.72697
0
LINE
8
BLACK
6
CONTINUOUS
10
10.0412
20
-1.72697
11
9.94538
21
-1.72091
0
LINE
8
BLACK
6
CONTINUOUS
10
9.94538
20
-1.72091
11
9.84951
21
-1.71628
0
LINE
8
BLACK
6
CONTINUOUS
10
9.84951
20
-1.71628
11
9.75358
21
-1.71308
0
LINE
8
BLACK
6
CONTINUOUS
10
9.75358
20
-1.71308
11
9.65762
21
-1.71133
0
LINE
8
BLACK
6
CONTINUOUS
10
9.65762
20
-1.71133
11
9.56164
21
-1.71101
0
LINE
8
BLACK
6
CONTINUOUS
10
9.56164
20
-1.71101
11
9.46567
21
-1.71213
0
LINE
8
BLACK
6
CONTINUOUS
10
9.46567
20
-1.71213
11
9.36972
21
-1.71469
0
LINE
8
BLACK
6
CONTINUOUS
10
9.36972
20
-1.71469
11
9.27382
21
-1.71868
0
LINE
8
BLACK
6
CONTINUOUS
10
9.27382
20
-1.71868
11
9.178
21
-1.72411
0
LINE
8
BLACK
6
CONTINUOUS
10
9.178
20
-1.72411
11
9.08226
21
-1.73098
0
LINE
8
BLACK
6
CONTINUOUS
10
9.08226
20
-1.73098
11
8.98664
21
-1.73928
0
LINE
8
BLACK
6
CONTINUOUS
10
8.98664
20
-1.73928
11
8.89115
21
-1.74901
0
LINE
8
BLACK
6
CONTINUOUS
10
8.89115
20
-1.74901
11
8.79583
21
-1.76017
0
LINE
8
BLACK
6
CONTINUOUS
10
8.79583
20
-1.76017
11
8.70067
21
-1.77276
0
LINE
8
BLACK
6
CONTINUOUS
10
8.70067
20
-1.77276
11
8.60572
21
-1.78677
0
LINE
8
BLACK
6
CONTINUOUS
10
8.60572
20
-1.78677
11
8.51099
21
-1.8022
0
LINE
8
BLACK
6
CONTINUOUS
10
8.51099
20
-1.8022
11
8.4165
21
-1.81905
0
LINE
8
BLACK
6
CONTINUOUS
10
8.4165
20
-1.81905
11
8.32227
21
-1.83731
0
LINE
8
BLACK
6
CONTINUOUS
10
8.32227
20
-1.83731
11
8.22833
21
-1.85698
0
LINE
8
BLACK
6
CONTINUOUS
10
8.22833
20
-1.85698
11
8.13469
21
-1.87806
0
LINE
8
BLACK
6
CONTINUOUS
10
8.13469
20
-1.87806
11
8.04138
21
-1.90054
0
LINE
8
BLACK
6
CONTINUOUS
10
8.04138
20
-1.90054
11
7.94842
21
-1.92441
0
LINE
8
BLACK
6
CONTINUOUS
10
7.94842
20
-1.92441
11
7.85624
21
-1.94956
0
LINE
8
BLACK
6
CONTINUOUS
10
7.85624
20
-1.94956
11
7.85587
21
-1.94985
0
LINE
8
BLACK
6
CONTINUOUS
10
7.85587
20
-1.94985
11
7.54897
21
-2.03606
0
LINE
8
BLACK
6
CONTINUOUS
10
7.54897
20
-2.03606
11
7.45682
21
-2.06116
0
LINE
8
BLACK
6
CONTINUOUS
10
7.45682
20
-2.06116
11
7.36429
21
-2.08483
0
LINE
8
BLACK
6
CONTINUOUS
10
7.36429
20
-2.08483
11
7.27141
21
-2.10704
0
LINE
8
BLACK
6
CONTINUOUS
10
7.27141
20
-2.10704
11
7.17819
21
-2.12779
0
LINE
8
BLACK
6
CONTINUOUS
10
7.17819
20
-2.12779
11
7.08465
21
-2.14709
0
LINE
8
BLACK
6
CONTINUOUS
10
7.08465
20
-2.14709
11
6.99082
21
-2.16492
0
LINE
8
BLACK
6
CONTINUOUS
10
6.99082
20
-2.16492
11
6.89673
21
-2.18128
0
LINE
8
BLACK
6
CONTINUOUS
10
6.89673
20
-2.18128
11
6.80239
21
-2.19616
0
LINE
8
BLACK
6
CONTINUOUS
10
6.80239
20
-2.19616
11
6.70783
21
-2.20956
0
LINE
8
BLACK
6
CONTINUOUS
10
6.70783
20
-2.20956
11
6.61308
21
-2.22149
0
LINE
8
BLACK
6
CONTINUOUS
10
6.61308
20
-2.22149
11
6.51814
21
-2.23193
0
LINE
8
BLACK
6
CONTINUOUS
10
6.51814
20
-2.23193
11
6.42306
21
-2.24088
0
LINE
8
BLACK
6
CONTINUOUS
10
6.42306
20
-2.24088
11
6.32785
21
-2.24835
0
LINE
8
BLACK
6
CONTINUOUS
10
6.32785
20
-2.24835
11
6.23253
21
-2.25432
0
LINE
8
BLACK
6
CONTINUOUS
10
6.23253
20
-2.25432
11
6.13713
21
-2.2588
0
LINE
8
BLACK
6
CONTINUOUS
10
6.13713
20
-2.2588
11
6.04167
21
-2.26179
0
LINE
8
BLACK
6
CONTINUOUS
10
6.04167
20
-2.26179
11
5.94618
21
-2.26329
0
LINE
8
BLACK
6
CONTINUOUS
10
5.94618
20
-2.26329
11
5.85067
21
-2.26329
0
LINE
8
BLACK
6
CONTINUOUS
10
5.85067
20
-2.26329
11
5.75518
21
-2.26179
0
LINE
8
BLACK
6
CONTINUOUS
10
5.75518
20
-2.26179
11
5.65972
21
-2.2588
0
LINE
8
BLACK
6
CONTINUOUS
10
5.65972
20
-2.2588
11
5.56432
21
-2.25432
0
LINE
8
BLACK
6
CONTINUOUS
10
5.56432
20
-2.25432
11
5.469
21
-2.24835
0
LINE
8
BLACK
6
CONTINUOUS
10
5.469
20
-2.24835
11
5.37379
21
-2.24088
0
LINE
8
BLACK
6
CONTINUOUS
10
5.37379
20
-2.24088
11
5.27871
21
-2.23193
0
LINE
8
BLACK
6
CONTINUOUS
10
5.27871
20
-2.23193
11
5.18377
21
-2.22149
0
LINE
8
BLACK
6
CONTINUOUS
10
5.18377
20
-2.22149
11
5.08902
21
-2.20956
0
LINE
8
BLACK
6
CONTINUOUS
10
5.08902
20
-2.20956
11
4.99446
21
-2.19616
0
LINE
8
BLACK
6
CONTINUOUS
10
4.99446
20
-2.19616
11
4.90012
21
-2.18128
0
LINE
8
BLACK
6
CONTINUOUS
10
4.90012
20
-2.18128
11
4.80603
21
-2.16492
0
LINE
8
BLACK
6
CONTINUOUS
10
4.80603
20
-2.16492
11
4.7122
21
-2.14709
0
LINE
8
BLACK
6
CONTINUOUS
10
4.7122
20
-2.14709
11
4.61866
21
-2.12779
0
LINE
8
BLACK
6
CONTINUOUS
10
4.61866
20
-2.12779
11
4.52544
21
-2.10704
0
LINE
8
BLACK
6
CONTINUOUS
10
4.52544
20
-2.10704
11
4.43256
21
-2.08483
0
LINE
8
BLACK
6
CONTINUOUS
10
4.43256
20
-2.08483
11
4.34003
21
-2.06116
0
LINE
8
BLACK
6
CONTINUOUS
10
4.34003
20
-2.06116
11
4.24788
21
-2.03606
0
LINE
8
BLACK
6
CONTINUOUS
10
4.24788
20
-2.03606
11
3.94098
21
-1.94985
0
LINE
8
BLACK
6
CONTINUOUS
10
3.94098
20
-1.94985
11
3.94061
21
-1.94956
0
LINE
8
BLACK
6
CONTINUOUS
10
5.88413
20
-6.09568
11
5.88658
21
-6.08795
0
LINE
8
BLACK
6
CONTINUOUS
10
5.88658
20
-6.08795
11
5.89049
21
-6.08084
0
LINE
8
BLACK
6
CONTINUOUS
10
5.89049
20
-6.08084
11
5.89571
21
-6.07462
0
LINE
8
BLACK
6
CONTINUOUS
10
5.89571
20
-6.07462
11
5.90203
21
-6.06953
0
LINE
8
BLACK
6
CONTINUOUS
10
5.90203
20
-6.06953
11
5.90923
21
-6.06577
0
LINE
8
BLACK
6
CONTINUOUS
10
5.90923
20
-6.06577
11
5.91701
21
-6.06348
0
LINE
8
BLACK
6
CONTINUOUS
10
5.91701
20
-6.06348
11
5.92509
21
-6.06275
0
LINE
8
BLACK
6
CONTINUOUS
10
5.92509
20
-6.06275
11
5.93316
21
-6.0636
0
LINE
8
BLACK
6
CONTINUOUS
10
5.93316
20
-6.0636
11
5.94092
21
-6.066
0
LINE
8
BLACK
6
CONTINUOUS
10
5.94092
20
-6.066
11
5.94806
21
-6.06986
0
LINE
8
BLACK
6
CONTINUOUS
10
5.94806
20
-6.06986
11
5.95431
21
-6.07503
0
LINE
8
BLACK
6
CONTINUOUS
10
5.95431
20
-6.07503
11
5.95944
21
-6.08132
0
LINE
8
BLACK
6
CONTINUOUS
10
5.95944
20
-6.08132
11
5.96325
21
-6.08848
0
LINE
8
BLACK
6
CONTINUOUS
10
5.96325
20
-6.08848
11
5.9656
21
-6.09625
0
LINE
8
BLACK
6
CONTINUOUS
10
5.9656
20
-6.09625
11
5.96639
21
-6.10433
0
LINE
8
BLACK
6
CONTINUOUS
10
5.96639
20
-6.10433
11
5.96637
21
-6.10549
0
LINE
8
BLACK
6
CONTINUOUS
10
5.96637
20
-6.10549
11
5.96535
21
-6.11354
0
LINE
8
BLACK
6
CONTINUOUS
10
5.96535
20
-6.11354
11
5.96279
21
-6.12124
0
LINE
8
BLACK
6
CONTINUOUS
10
5.96279
20
-6.12124
11
5.95878
21
-6.1283
0
LINE
8
BLACK
6
CONTINUOUS
10
5.95878
20
-6.1283
11
5.95348
21
-6.13444
0
LINE
8
BLACK
6
CONTINUOUS
10
5.95348
20
-6.13444
11
5.94708
21
-6.13944
0
LINE
8
BLACK
6
CONTINUOUS
10
5.94708
20
-6.13944
11
5.93984
21
-6.1431
0
LINE
8
BLACK
6
CONTINUOUS
10
5.93984
20
-6.1431
11
5.93202
21
-6.14528
0
LINE
8
BLACK
6
CONTINUOUS
10
5.93202
20
-6.14528
11
5.92393
21
-6.14591
0
LINE
8
BLACK
6
CONTINUOUS
10
5.92393
20
-6.14591
11
5.91587
21
-6.14494
0
LINE
8
BLACK
6
CONTINUOUS
10
5.91587
20
-6.14494
11
5.90816
21
-6.14244
0
LINE
8
BLACK
6
CONTINUOUS
10
5.90816
20
-6.14244
11
5.90107
21
-6.13848
0
LINE
8
BLACK
6
CONTINUOUS
10
5.90107
20
-6.13848
11
5.89489
21
-6.13322
0
LINE
8
BLACK
6
CONTINUOUS
10
5.89489
20
-6.13322
11
5.88985
21
-6.12686
0
LINE
8
BLACK
6
CONTINUOUS
10
5.88985
20
-6.12686
11
5.88614
21
-6.11964
0
LINE
8
BLACK
6
CONTINUOUS
10
5.88614
20
-6.11964
11
5.8839
21
-6.11184
0
LINE
8
BLACK
6
CONTINUOUS
10
5.8839
20
-6.11184
11
5.88323
21
-6.1038
0
LINE
8
BLACK
6
CONTINUOUS
10
5.88323
20
-6.1038
11
5.88322
21
-6.10375
0
LINE
8
BLACK
6
CONTINUOUS
10
5.88322
20
-6.10375
11
5.88413
21
-6.09568
0
LINE
8
BLACK
6
CONTINUOUS
10
5.88963
20
-6.11826
11
5.89301
21
-6.12482
0
LINE
8
BLACK
6
CONTINUOUS
10
5.89301
20
-6.12482
11
5.89759
21
-6.13061
0
LINE
8
BLACK
6
CONTINUOUS
10
5.89759
20
-6.13061
11
5.90321
21
-6.13539
0
LINE
8
BLACK
6
CONTINUOUS
10
5.90321
20
-6.13539
11
5.90966
21
-6.139
0
LINE
8
BLACK
6
CONTINUOUS
10
5.90966
20
-6.139
11
5.91668
21
-6.14128
0
LINE
8
BLACK
6
CONTINUOUS
10
5.91668
20
-6.14128
11
5.92401
21
-6.14215
0
LINE
8
BLACK
6
CONTINUOUS
10
5.92401
20
-6.14215
11
5.93137
21
-6.14159
0
LINE
8
BLACK
6
CONTINUOUS
10
5.93137
20
-6.14159
11
5.93848
21
-6.1396
0
LINE
8
BLACK
6
CONTINUOUS
10
5.93848
20
-6.1396
11
5.94507
21
-6.13627
0
LINE
8
BLACK
6
CONTINUOUS
10
5.94507
20
-6.13627
11
5.95089
21
-6.13173
0
LINE
8
BLACK
6
CONTINUOUS
10
5.95089
20
-6.13173
11
5.95571
21
-6.12614
0
LINE
8
BLACK
6
CONTINUOUS
10
5.95571
20
-6.12614
11
5.95936
21
-6.11972
0
LINE
8
BLACK
6
CONTINUOUS
10
5.95936
20
-6.11972
11
5.96169
21
-6.11271
0
LINE
8
BLACK
6
CONTINUOUS
10
5.96169
20
-6.11271
11
5.96262
21
-6.10539
0
LINE
8
BLACK
6
CONTINUOUS
10
5.96262
20
-6.10539
11
5.96263
21
-6.10433
0
LINE
8
BLACK
6
CONTINUOUS
10
5.96263
20
-6.10433
11
5.96191
21
-6.09698
0
LINE
8
BLACK
6
CONTINUOUS
10
5.96191
20
-6.09698
11
5.95978
21
-6.08992
0
LINE
8
BLACK
6
CONTINUOUS
10
5.95978
20
-6.08992
11
5.95631
21
-6.0834
0
LINE
8
BLACK
6
CONTINUOUS
10
5.95631
20
-6.0834
11
5.95165
21
-6.07768
0
LINE
8
BLACK
6
CONTINUOUS
10
5.95165
20
-6.07768
11
5.94596
21
-6.07297
0
LINE
8
BLACK
6
CONTINUOUS
10
5.94596
20
-6.07297
11
5.93946
21
-6.06946
0
LINE
8
BLACK
6
CONTINUOUS
10
5.93946
20
-6.06946
11
5.93241
21
-6.06727
0
LINE
8
BLACK
6
CONTINUOUS
10
5.93241
20
-6.06727
11
5.92507
21
-6.0665
0
LINE
8
BLACK
6
CONTINUOUS
10
5.92507
20
-6.0665
11
5.91771
21
-6.06717
0
LINE
8
BLACK
6
CONTINUOUS
10
5.91771
20
-6.06717
11
5.91063
21
-6.06926
0
LINE
8
BLACK
6
CONTINUOUS
10
5.91063
20
-6.06926
11
5.90409
21
-6.07268
0
LINE
8
BLACK
6
CONTINUOUS
10
5.90409
20
-6.07268
11
5.89834
21
-6.0773
0
LINE
8
BLACK
6
CONTINUOUS
10
5.89834
20
-6.0773
11
5.89359
21
-6.08296
0
LINE
8
BLACK
6
CONTINUOUS
10
5.89359
20
-6.08296
11
5.89003
21
-6.08943
0
LINE
8
BLACK
6
CONTINUOUS
10
5.89003
20
-6.08943
11
5.8878
21
-6.09647
0
LINE
8
BLACK
6
CONTINUOUS
10
5.8878
20
-6.09647
11
5.88698
21
-6.1038
0
LINE
8
BLACK
6
CONTINUOUS
10
5.88698
20
-6.1038
11
5.8876
21
-6.11116
0
LINE
8
BLACK
6
CONTINUOUS
10
5.8876
20
-6.11116
11
5.88963
21
-6.11826
0
LINE
8
BLACK
6
CONTINUOUS
10
3.29988
20
-5.46143
11
3.30233
21
-5.4537
0
LINE
8
BLACK
6
CONTINUOUS
10
3.30233
20
-5.4537
11
3.30624
21
-5.44659
0
LINE
8
BLACK
6
CONTINUOUS
10
3.30624
20
-5.44659
11
3.31146
21
-5.44037
0
LINE
8
BLACK
6
CONTINUOUS
10
3.31146
20
-5.44037
11
3.31778
21
-5.43528
0
LINE
8
BLACK
6
CONTINUOUS
10
3.31778
20
-5.43528
11
3.32497
21
-5.43152
0
LINE
8
BLACK
6
CONTINUOUS
10
3.32497
20
-5.43152
11
3.33276
21
-5.42923
0
LINE
8
BLACK
6
CONTINUOUS
10
3.33276
20
-5.42923
11
3.34084
21
-5.4285
0
LINE
8
BLACK
6
CONTINUOUS
10
3.34084
20
-5.4285
11
3.34891
21
-5.42934
0
LINE
8
BLACK
6
CONTINUOUS
10
3.34891
20
-5.42934
11
3.35667
21
-5.43174
0
LINE
8
BLACK
6
CONTINUOUS
10
3.35667
20
-5.43174
11
3.3638
21
-5.4356
0
LINE
8
BLACK
6
CONTINUOUS
10
3.3638
20
-5.4356
11
3.37006
21
-5.44078
0
LINE
8
BLACK
6
CONTINUOUS
10
3.37006
20
-5.44078
11
3.37519
21
-5.44707
0
LINE
8
BLACK
6
CONTINUOUS
10
3.37519
20
-5.44707
11
3.379
21
-5.45423
0
LINE
8
BLACK
6
CONTINUOUS
10
3.379
20
-5.45423
11
3.38134
21
-5.462
0
LINE
8
BLACK
6
CONTINUOUS
10
3.38134
20
-5.462
11
3.38214
21
-5.47008
0
LINE
8
BLACK
6
CONTINUOUS
10
3.38214
20
-5.47008
11
3.38212
21
-5.47124
0
LINE
8
BLACK
6
CONTINUOUS
10
3.38212
20
-5.47124
11
3.3811
21
-5.47929
0
LINE
8
BLACK
6
CONTINUOUS
10
3.3811
20
-5.47929
11
3.37854
21
-5.48699
0
LINE
8
BLACK
6
CONTINUOUS
10
3.37854
20
-5.48699
11
3.37453
21
-5.49405
0
LINE
8
BLACK
6
CONTINUOUS
10
3.37453
20
-5.49405
11
3.36923
21
-5.50019
0
LINE
8
BLACK
6
CONTINUOUS
10
3.36923
20
-5.50019
11
3.36283
21
-5.50519
0
LINE
8
BLACK
6
CONTINUOUS
10
3.36283
20
-5.50519
11
3.35559
21
-5.50885
0
LINE
8
BLACK
6
CONTINUOUS
10
3.35559
20
-5.50885
11
3.34777
21
-5.51103
0
LINE
8
BLACK
6
CONTINUOUS
10
3.34777
20
-5.51103
11
3.33968
21
-5.51165
0
LINE
8
BLACK
6
CONTINUOUS
10
3.33968
20
-5.51165
11
3.33162
21
-5.51069
0
LINE
8
BLACK
6
CONTINUOUS
10
3.33162
20
-5.51069
11
3.3239
21
-5.50818
0
LINE
8
BLACK
6
CONTINUOUS
10
3.3239
20
-5.50818
11
3.31682
21
-5.50423
0
LINE
8
BLACK
6
CONTINUOUS
10
3.31682
20
-5.50423
11
3.31064
21
-5.49897
0
LINE
8
BLACK
6
CONTINUOUS
10
3.31064
20
-5.49897
11
3.3056
21
-5.49261
0
LINE
8
BLACK
6
CONTINUOUS
10
3.3056
20
-5.49261
11
3.30189
21
-5.48539
0
LINE
8
BLACK
6
CONTINUOUS
10
3.30189
20
-5.48539
11
3.29965
21
-5.47759
0
LINE
8
BLACK
6
CONTINUOUS
10
3.29965
20
-5.47759
11
3.29898
21
-5.46955
0
LINE
8
BLACK
6
CONTINUOUS
10
3.29898
20
-5.46955
11
3.29897
21
-5.4695
0
LINE
8
BLACK
6
CONTINUOUS
10
3.29897
20
-5.4695
11
3.29988
21
-5.46143
0
LINE
8
BLACK
6
CONTINUOUS
10
3.30538
20
-5.484
11
3.30875
21
-5.49057
0
LINE
8
BLACK
6
CONTINUOUS
10
3.30875
20
-5.49057
11
3.31334
21
-5.49636
0
LINE
8
BLACK
6
CONTINUOUS
10
3.31334
20
-5.49636
11
3.31896
21
-5.50114
0
LINE
8
BLACK
6
CONTINUOUS
10
3.31896
20
-5.50114
11
3.32541
21
-5.50474
0
LINE
8
BLACK
6
CONTINUOUS
10
3.32541
20
-5.50474
11
3.33243
21
-5.50703
0
LINE
8
BLACK
6
CONTINUOUS
10
3.33243
20
-5.50703
11
3.33976
21
-5.5079
0
LINE
8
BLACK
6
CONTINUOUS
10
3.33976
20
-5.5079
11
3.34712
21
-5.50733
0
LINE
8
BLACK
6
CONTINUOUS
10
3.34712
20
-5.50733
11
3.35423
21
-5.50535
0
LINE
8
BLACK
6
CONTINUOUS
10
3.35423
20
-5.50535
11
3.36082
21
-5.50202
0
LINE
8
BLACK
6
CONTINUOUS
10
3.36082
20
-5.50202
11
3.36664
21
-5.49747
0
LINE
8
BLACK
6
CONTINUOUS
10
3.36664
20
-5.49747
11
3.37146
21
-5.49188
0
LINE
8
BLACK
6
CONTINUOUS
10
3.37146
20
-5.49188
11
3.37511
21
-5.48547
0
LINE
8
BLACK
6
CONTINUOUS
10
3.37511
20
-5.48547
11
3.37744
21
-5.47846
0
LINE
8
BLACK
6
CONTINUOUS
10
3.37744
20
-5.47846
11
3.37837
21
-5.47114
0
LINE
8
BLACK
6
CONTINUOUS
10
3.37837
20
-5.47114
11
3.37838
21
-5.47008
0
LINE
8
BLACK
6
CONTINUOUS
10
3.37838
20
-5.47008
11
3.37766
21
-5.46273
0
LINE
8
BLACK
6
CONTINUOUS
10
3.37766
20
-5.46273
11
3.37553
21
-5.45566
0
LINE
8
BLACK
6
CONTINUOUS
10
3.37553
20
-5.45566
11
3.37206
21
-5.44914
0
LINE
8
BLACK
6
CONTINUOUS
10
3.37206
20
-5.44914
11
3.36739
21
-5.44342
0
LINE
8
BLACK
6
CONTINUOUS
10
3.36739
20
-5.44342
11
3.3617
21
-5.43872
0
LINE
8
BLACK
6
CONTINUOUS
10
3.3617
20
-5.43872
11
3.35521
21
-5.43521
0
LINE
8
BLACK
6
CONTINUOUS
10
3.35521
20
-5.43521
11
3.34816
21
-5.43302
0
LINE
8
BLACK
6
CONTINUOUS
10
3.34816
20
-5.43302
11
3.34082
21
-5.43225
0
LINE
8
BLACK
6
CONTINUOUS
10
3.34082
20
-5.43225
11
3.33346
21
-5.43292
0
LINE
8
BLACK
6
CONTINUOUS
10
3.33346
20
-5.43292
11
3.32638
21
-5.435
0
LINE
8
BLACK
6
CONTINUOUS
10
3.32638
20
-5.435
11
3.31984
21
-5.43842
0
LINE
8
BLACK
6
CONTINUOUS
10
3.31984
20
-5.43842
11
3.31408
21
-5.44305
0
LINE
8
BLACK
6
CONTINUOUS
10
3.31408
20
-5.44305
11
3.30934
21
-5.44871
0
LINE
8
BLACK
6
CONTINUOUS
10
3.30934
20
-5.44871
11
3.30578
21
-5.45518
0
LINE
8
BLACK
6
CONTINUOUS
10
3.30578
20
-5.45518
11
3.30355
21
-5.46221
0
LINE
8
BLACK
6
CONTINUOUS
10
3.30355
20
-5.46221
11
3.30273
21
-5.46955
0
LINE
8
BLACK
6
CONTINUOUS
10
3.30273
20
-5.46955
11
3.30334
21
-5.47691
0
LINE
8
BLACK
6
CONTINUOUS
10
3.30334
20
-5.47691
11
3.30538
21
-5.484
0
LINE
8
BLACK
6
CONTINUOUS
10
8.39476
20
-5.43072
11
8.39721
21
-5.42299
0
LINE
8
BLACK
6
CONTINUOUS
10
8.39721
20
-5.42299
11
8.40112
21
-5.41588
0
LINE
8
BLACK
6
CONTINUOUS
10
8.40112
20
-5.41588
11
8.40634
21
-5.40966
0
LINE
8
BLACK
6
CONTINUOUS
10
8.40634
20
-5.40966
11
8.41266
21
-5.40457
0
LINE
8
BLACK
6
CONTINUOUS
10
8.41266
20
-5.40457
11
8.41986
21
-5.40081
0
LINE
8
BLACK
6
CONTINUOUS
10
8.41986
20
-5.40081
11
8.42764
21
-5.39852
0
LINE
8
BLACK
6
CONTINUOUS
10
8.42764
20
-5.39852
11
8.43572
21
-5.39779
0
LINE
8
BLACK
6
CONTINUOUS
10
8.43572
20
-5.39779
11
8.44379
21
-5.39864
0
LINE
8
BLACK
6
CONTINUOUS
10
8.44379
20
-5.39864
11
8.45155
21
-5.40104
0
LINE
8
BLACK
6
CONTINUOUS
10
8.45155
20
-5.40104
11
8.45869
21
-5.4049
0
LINE
8
BLACK
6
CONTINUOUS
10
8.45869
20
-5.4049
11
8.46494
21
-5.41007
0
LINE
8
BLACK
6
CONTINUOUS
10
8.46494
20
-5.41007
11
8.47007
21
-5.41636
0
LINE
8
BLACK
6
CONTINUOUS
10
8.47007
20
-5.41636
11
8.47388
21
-5.42352
0
LINE
8
BLACK
6
CONTINUOUS
10
8.47388
20
-5.42352
11
8.47622
21
-5.43129
0
LINE
8
BLACK
6
CONTINUOUS
10
8.47622
20
-5.43129
11
8.47702
21
-5.43937
0
LINE
8
BLACK
6
CONTINUOUS
10
8.47702
20
-5.43937
11
8.477
21
-5.44053
0
LINE
8
BLACK
6
CONTINUOUS
10
8.477
20
-5.44053
11
8.47598
21
-5.44858
0
LINE
8
BLACK
6
CONTINUOUS
10
8.47598
20
-5.44858
11
8.47342
21
-5.45628
0
LINE
8
BLACK
6
CONTINUOUS
10
8.47342
20
-5.45628
11
8.46941
21
-5.46334
0
LINE
8
BLACK
6
CONTINUOUS
10
8.46941
20
-5.46334
11
8.46411
21
-5.46948
0
LINE
8
BLACK
6
CONTINUOUS
10
8.46411
20
-5.46948
11
8.45771
21
-5.47448
0
LINE
8
BLACK
6
CONTINUOUS
10
8.45771
20
-5.47448
11
8.45047
21
-5.47814
0
LINE
8
BLACK
6
CONTINUOUS
10
8.45047
20
-5.47814
11
8.44265
21
-5.48032
0
LINE
8
BLACK
6
CONTINUOUS
10
8.44265
20
-5.48032
11
8.43456
21
-5.48094
0
LINE
8
BLACK
6
CONTINUOUS
10
8.43456
20
-5.48094
11
8.4265
21
-5.47998
0
LINE
8
BLACK
6
CONTINUOUS
10
8.4265
20
-5.47998
11
8.41878
21
-5.47748
0
LINE
8
BLACK
6
CONTINUOUS
10
8.41878
20
-5.47748
11
8.4117
21
-5.47352
0
LINE
8
BLACK
6
CONTINUOUS
10
8.4117
20
-5.47352
11
8.40552
21
-5.46826
0
LINE
8
BLACK
6
CONTINUOUS
10
8.40552
20
-5.46826
11
8.40048
21
-5.4619
0
LINE
8
BLACK
6
CONTINUOUS
10
8.40048
20
-5.4619
11
8.39677
21
-5.45468
0
LINE
8
BLACK
6
CONTINUOUS
10
8.39677
20
-5.45468
11
8.39453
21
-5.44688
0
LINE
8
BLACK
6
CONTINUOUS
10
8.39453
20
-5.44688
11
8.39386
21
-5.43884
0
LINE
8
BLACK
6
CONTINUOUS
10
8.39386
20
-5.43884
11
8.39385
21
-5.43879
0
LINE
8
BLACK
6
CONTINUOUS
10
8.39385
20
-5.43879
11
8.39476
21
-5.43072
0
LINE
8
BLACK
6
CONTINUOUS
10
8.40026
20
-5.4533
11
8.40364
21
-5.45986
0
LINE
8
BLACK
6
CONTINUOUS
10
8.40364
20
-5.45986
11
8.40822
21
-5.46565
0
LINE
8
BLACK
6
CONTINUOUS
10
8.40822
20
-5.46565
11
8.41384
21
-5.47043
0
LINE
8
BLACK
6
CONTINUOUS
10
8.41384
20
-5.47043
11
8.42029
21
-5.47404
0
LINE
8
BLACK
6
CONTINUOUS
10
8.42029
20
-5.47404
11
8.42731
21
-5.47632
0
LINE
8
BLACK
6
CONTINUOUS
10
8.42731
20
-5.47632
11
8.43464
21
-5.47719
0
LINE
8
BLACK
6
CONTINUOUS
10
8.43464
20
-5.47719
11
8.442
21
-5.47662
0
LINE
8
BLACK
6
CONTINUOUS
10
8.442
20
-5.47662
11
8.44911
21
-5.47464
0
LINE
8
BLACK
6
CONTINUOUS
10
8.44911
20
-5.47464
11
8.4557
21
-5.47131
0
LINE
8
BLACK
6
CONTINUOUS
10
8.4557
20
-5.47131
11
8.46152
21
-5.46676
0
LINE
8
BLACK
6
CONTINUOUS
10
8.46152
20
-5.46676
11
8.46634
21
-5.46118
0
LINE
8
BLACK
6
CONTINUOUS
10
8.46634
20
-5.46118
11
8.46999
21
-5.45476
0
LINE
8
BLACK
6
CONTINUOUS
10
8.46999
20
-5.45476
11
8.47232
21
-5.44775
0
LINE
8
BLACK
6
CONTINUOUS
10
8.47232
20
-5.44775
11
8.47325
21
-5.44043
0
LINE
8
BLACK
6
CONTINUOUS
10
8.47325
20
-5.44043
11
8.47326
21
-5.43937
0
LINE
8
BLACK
6
CONTINUOUS
10
8.47326
20
-5.43937
11
8.47254
21
-5.43202
0
LINE
8
BLACK
6
CONTINUOUS
10
8.47254
20
-5.43202
11
8.47041
21
-5.42495
0
LINE
8
BLACK
6
CONTINUOUS
10
8.47041
20
-5.42495
11
8.46694
21
-5.41844
0
LINE
8
BLACK
6
CONTINUOUS
10
8.46694
20
-5.41844
11
8.46228
21
-5.41271
0
LINE
8
BLACK
6
CONTINUOUS
10
8.46228
20
-5.41271
11
8.45659
21
-5.40801
0
LINE
8
BLACK
6
CONTINUOUS
10
8.45659
20
-5.40801
11
8.45009
21
-5.4045
0
LINE
8
BLACK
6
CONTINUOUS
10
8.45009
20
-5.4045
11
8.44304
21
-5.40231
0
LINE
8
BLACK
6
CONTINUOUS
10
8.44304
20
-5.40231
11
8.4357
21
-5.40154
0
LINE
8
BLACK
6
CONTINUOUS
10
8.4357
20
-5.40154
11
8.42834
21
-5.40221
0
LINE
8
BLACK
6
CONTINUOUS
10
8.42834
20
-5.40221
11
8.42126
21
-5.4043
0
LINE
8
BLACK
6
CONTINUOUS
10
8.42126
20
-5.4043
11
8.41472
21
-5.40772
0
LINE
8
BLACK
6
CONTINUOUS
10
8.41472
20
-5.40772
11
8.40897
21
-5.41234
0
LINE
8
BLACK
6
CONTINUOUS
10
8.40897
20
-5.41234
11
8.40422
21
-5.418
0
LINE
8
BLACK
6
CONTINUOUS
10
8.40422
20
-5.418
11
8.40066
21
-5.42447
0
LINE
8
BLACK
6
CONTINUOUS
10
8.40066
20
-5.42447
11
8.39843
21
-5.4315
0
LINE
8
BLACK
6
CONTINUOUS
10
8.39843
20
-5.4315
11
8.39761
21
-5.43884
0
LINE
8
BLACK
6
CONTINUOUS
10
8.39761
20
-5.43884
11
8.39823
21
-5.4462
0
LINE
8
BLACK
6
CONTINUOUS
10
8.39823
20
-5.4462
11
8.40026
21
-5.4533
0
LINE
8
BLACK
6
CONTINUOUS
10
0.363656
20
-4.39411
11
0.366109
21
-4.38637
0
LINE
8
BLACK
6
CONTINUOUS
10
0.366109
20
-4.38637
11
0.370019
21
-4.37926
0
LINE
8
BLACK
6
CONTINUOUS
10
0.370019
20
-4.37926
11
0.375236
21
-4.37305
0
LINE
8
BLACK
6
CONTINUOUS
10
0.375236
20
-4.37305
11
0.381561
21
-4.36796
0
LINE
8
BLACK
6
CONTINUOUS
10
0.381561
20
-4.36796
11
0.388753
21
-4.3642
0
LINE
8
BLACK
6
CONTINUOUS
10
0.388753
20
-4.3642
11
0.396539
21
-4.36191
0
LINE
8
BLACK
6
CONTINUOUS
10
0.396539
20
-4.36191
11
0.404621
21
-4.36117
0
LINE
8
BLACK
6
CONTINUOUS
10
0.404621
20
-4.36117
11
0.412692
21
-4.36202
0
LINE
8
BLACK
6
CONTINUOUS
10
0.412692
20
-4.36202
11
0.420445
21
-4.36442
0
LINE
8
BLACK
6
CONTINUOUS
10
0.420445
20
-4.36442
11
0.427584
21
-4.36828
0
LINE
8
BLACK
6
CONTINUOUS
10
0.427584
20
-4.36828
11
0.433837
21
-4.37345
0
LINE
8
BLACK
6
CONTINUOUS
10
0.433837
20
-4.37345
11
0.438967
21
-4.37974
0
LINE
8
BLACK
6
CONTINUOUS
10
0.438967
20
-4.37974
11
0.442777
21
-4.38691
0
LINE
8
BLACK
6
CONTINUOUS
10
0.442777
20
-4.38691
11
0.445123
21
-4.39468
0
LINE
8
BLACK
6
CONTINUOUS
10
0.445123
20
-4.39468
11
0.445915
21
-4.40276
0
LINE
8
BLACK
6
CONTINUOUS
10
0.445915
20
-4.40276
11
0.445898
21
-4.40392
0
LINE
8
BLACK
6
CONTINUOUS
10
0.445898
20
-4.40392
11
0.444881
21
-4.41197
0
LINE
8
BLACK
6
CONTINUOUS
10
0.444881
20
-4.41197
11
0.442319
21
-4.41967
0
LINE
8
BLACK
6
CONTINUOUS
10
0.442319
20
-4.41967
11
0.438311
21
-4.42673
0
LINE
8
BLACK
6
CONTINUOUS
10
0.438311
20
-4.42673
11
0.433008
21
-4.43287
0
LINE
8
BLACK
6
CONTINUOUS
10
0.433008
20
-4.43287
11
0.426612
21
-4.43787
0
LINE
8
BLACK
6
CONTINUOUS
10
0.426612
20
-4.43787
11
0.419368
21
-4.44153
0
LINE
8
BLACK
6
CONTINUOUS
10
0.419368
20
-4.44153
11
0.411552
21
-4.44371
0
LINE
8
BLACK
6
CONTINUOUS
10
0.411552
20
-4.44371
11
0.40346
21
-4.44433
0
LINE
8
BLACK
6
CONTINUOUS
10
0.40346
20
-4.44433
11
0.395401
21
-4.44337
0
LINE
8
BLACK
6
CONTINUOUS
10
0.395401
20
-4.44337
11
0.387683
21
-4.44086
0
LINE
8
BLACK
6
CONTINUOUS
10
0.387683
20
-4.44086
11
0.380598
21
-4.4369
0
LINE
8
BLACK
6
CONTINUOUS
10
0.380598
20
-4.4369
11
0.374418
21
-4.43164
0
LINE
8
BLACK
6
CONTINUOUS
10
0.374418
20
-4.43164
11
0.369377
21
-4.42528
0
LINE
8
BLACK
6
CONTINUOUS
10
0.369377
20
-4.42528
11
0.365667
21
-4.41806
0
LINE
8
BLACK
6
CONTINUOUS
10
0.365667
20
-4.41806
11
0.36343
21
-4.41026
0
LINE
8
BLACK
6
CONTINUOUS
10
0.36343
20
-4.41026
11
0.362755
21
-4.40223
0
LINE
8
BLACK
6
CONTINUOUS
10
0.362755
20
-4.40223
11
0.362751
21
-4.40218
0
LINE
8
BLACK
6
CONTINUOUS
10
0.362751
20
-4.40218
11
0.363656
21
-4.39411
0
LINE
8
BLACK
6
CONTINUOUS
10
0.369158
20
-4.41668
11
0.372533
21
-4.42325
0
LINE
8
BLACK
6
CONTINUOUS
10
0.372533
20
-4.42325
11
0.377119
21
-4.42903
0
LINE
8
BLACK
6
CONTINUOUS
10
0.377119
20
-4.42903
11
0.382741
21
-4.43382
0
LINE
8
BLACK
6
CONTINUOUS
10
0.382741
20
-4.43382
11
0.389186
21
-4.43742
0
LINE
8
BLACK
6
CONTINUOUS
10
0.389186
20
-4.43742
11
0.396207
21
-4.4397
0
LINE
8
BLACK
6
CONTINUOUS
10
0.396207
20
-4.4397
11
0.403538
21
-4.44058
0
LINE
8
BLACK
6
CONTINUOUS
10
0.403538
20
-4.44058
11
0.4109
21
-4.44001
0
LINE
8
BLACK
6
CONTINUOUS
10
0.4109
20
-4.44001
11
0.418011
21
-4.43802
0
LINE
8
BLACK
6
CONTINUOUS
10
0.418011
20
-4.43802
11
0.424601
21
-4.4347
0
LINE
8
BLACK
6
CONTINUOUS
10
0.424601
20
-4.4347
11
0.430418
21
-4.43015
0
LINE
8
BLACK
6
CONTINUOUS
10
0.430418
20
-4.43015
11
0.435243
21
-4.42456
0
LINE
8
BLACK
6
CONTINUOUS
10
0.435243
20
-4.42456
11
0.438889
21
-4.41814
0
LINE
8
BLACK
6
CONTINUOUS
10
0.438889
20
-4.41814
11
0.44122
21
-4.41114
0
LINE
8
BLACK
6
CONTINUOUS
10
0.44122
20
-4.41114
11
0.442145
21
-4.40381
0
LINE
8
BLACK
6
CONTINUOUS
10
0.442145
20
-4.40381
11
0.44216
21
-4.40276
0
LINE
8
BLACK
6
CONTINUOUS
10
0.44216
20
-4.40276
11
0.441439
21
-4.39541
0
LINE
8
BLACK
6
CONTINUOUS
10
0.441439
20
-4.39541
11
0.439305
21
-4.38834
0
LINE
8
BLACK
6
CONTINUOUS
10
0.439305
20
-4.38834
11
0.435839
21
-4.38182
0
LINE
8
BLACK
6
CONTINUOUS
10
0.435839
20
-4.38182
11
0.431173
21
-4.3761
0
LINE
8
BLACK
6
CONTINUOUS
10
0.431173
20
-4.3761
11
0.425484
21
-4.37139
0
LINE
8
BLACK
6
CONTINUOUS
10
0.425484
20
-4.37139
11
0.41899
21
-4.36788
0
LINE
8
BLACK
6
CONTINUOUS
10
0.41899
20
-4.36788
11
0.411937
21
-4.3657
0
LINE
8
BLACK
6
CONTINUOUS
10
0.411937
20
-4.3657
11
0.404595
21
-4.36493
0
LINE
8
BLACK
6
CONTINUOUS
10
0.404595
20
-4.36493
11
0.397242
21
-4.3656
0
LINE
8
BLACK
6
CONTINUOUS
10
0.397242
20
-4.3656
11
0.39016
21
-4.36768
0
LINE
8
BLACK
6
CONTINUOUS
10
0.39016
20
-4.36768
11
0.383617
21
-4.3711
0
LINE
8
BLACK
6
CONTINUOUS
10
0.383617
20
-4.3711
11
0.377863
21
-4.37573
0
LINE
8
BLACK
6
CONTINUOUS
10
0.377863
20
-4.37573
11
0.373117
21
-4.38138
0
LINE
8
BLACK
6
CONTINUOUS
10
0.373117
20
-4.38138
11
0.369561
21
-4.38785
0
LINE
8
BLACK
6
CONTINUOUS
10
0.369561
20
-4.38785
11
0.367328
21
-4.39489
0
LINE
8
BLACK
6
CONTINUOUS
10
0.367328
20
-4.39489
11
0.366505
21
-4.40223
0
LINE
8
BLACK
6
CONTINUOUS
10
0.366505
20
-4.40223
11
0.367123
21
-4.40958
0
LINE
8
BLACK
6
CONTINUOUS
10
0.367123
20
-4.40958
11
0.369158
21
-4.41668
0
LINE
8
BLACK
6
CONTINUOUS
10
11.34
20
-4.38348
11
11.3425
21
-4.37574
0
LINE
8
BLACK
6
CONTINUOUS
10
11.3425
20
-4.37574
11
11.3464
21
-4.36863
0
LINE
8
BLACK
6
CONTINUOUS
10
11.3464
20
-4.36863
11
11.3516
21
-4.36242
0
LINE
8
BLACK
6
CONTINUOUS
10
11.3516
20
-4.36242
11
11.3579
21
-4.35733
0
LINE
8
BLACK
6
CONTINUOUS
10
11.3579
20
-4.35733
11
11.3651
21
-4.35357
0
LINE
8
BLACK
6
CONTINUOUS
10
11.3651
20
-4.35357
11
11.3729
21
-4.35128
0
LINE
8
BLACK
6
CONTINUOUS
10
11.3729
20
-4.35128
11
11.381
21
-4.35054
0
LINE
8
BLACK
6
CONTINUOUS
10
11.381
20
-4.35054
11
11.3891
21
-4.35139
0
LINE
8
BLACK
6
CONTINUOUS
10
11.3891
20
-4.35139
11
11.3968
21
-4.35379
0
LINE
8
BLACK
6
CONTINUOUS
10
11.3968
20
-4.35379
11
11.404
21
-4.35765
0
LINE
8
BLACK
6
CONTINUOUS
10
11.404
20
-4.35765
11
11.4102
21
-4.36282
0
LINE
8
BLACK
6
CONTINUOUS
10
11.4102
20
-4.36282
11
11.4153
21
-4.36911
0
LINE
8
BLACK
6
CONTINUOUS
10
11.4153
20
-4.36911
11
11.4192
21
-4.37628
0
LINE
8
BLACK
6
CONTINUOUS
10
11.4192
20
-4.37628
11
11.4215
21
-4.38405
0
LINE
8
BLACK
6
CONTINUOUS
10
11.4215
20
-4.38405
11
11.4223
21
-4.39213
0
LINE
8
BLACK
6
CONTINUOUS
10
11.4223
20
-4.39213
11
11.4223
21
-4.39329
0
LINE
8
BLACK
6
CONTINUOUS
10
11.4223
20
-4.39329
11
11.4213
21
-4.40134
0
LINE
8
BLACK
6
CONTINUOUS
10
11.4213
20
-4.40134
11
11.4187
21
-4.40904
0
LINE
8
BLACK
6
CONTINUOUS
10
11.4187
20
-4.40904
11
11.4147
21
-4.4161
0
LINE
8
BLACK
6
CONTINUOUS
10
11.4147
20
-4.4161
11
11.4094
21
-4.42224
0
LINE
8
BLACK
6
CONTINUOUS
10
11.4094
20
-4.42224
11
11.403
21
-4.42724
0
LINE
8
BLACK
6
CONTINUOUS
10
11.403
20
-4.42724
11
11.3957
21
-4.4309
0
LINE
8
BLACK
6
CONTINUOUS
10
11.3957
20
-4.4309
11
11.3879
21
-4.43308
0
LINE
8
BLACK
6
CONTINUOUS
10
11.3879
20
-4.43308
11
11.3798
21
-4.4337
0
LINE
8
BLACK
6
CONTINUOUS
10
11.3798
20
-4.4337
11
11.3718
21
-4.43274
0
LINE
8
BLACK
6
CONTINUOUS
10
11.3718
20
-4.43274
11
11.3641
21
-4.43023
0
LINE
8
BLACK
6
CONTINUOUS
10
11.3641
20
-4.43023
11
11.357
21
-4.42627
0
LINE
8
BLACK
6
CONTINUOUS
10
11.357
20
-4.42627
11
11.3508
21
-4.42101
0
LINE
8
BLACK
6
CONTINUOUS
10
11.3508
20
-4.42101
11
11.3458
21
-4.41465
0
LINE
8
BLACK
6
CONTINUOUS
10
11.3458
20
-4.41465
11
11.342
21
-4.40743
0
LINE
8
BLACK
6
CONTINUOUS
10
11.342
20
-4.40743
11
11.3398
21
-4.39963
0
LINE
8
BLACK
6
CONTINUOUS
10
11.3398
20
-4.39963
11
11.3391
21
-4.3916
0
LINE
8
BLACK
6
CONTINUOUS
10
11.3391
20
-4.3916
11
11.3391
21
-4.39155
0
LINE
8
BLACK
6
CONTINUOUS
10
11.3391
20
-4.39155
11
11.34
21
-4.38348
0
LINE
8
BLACK
6
CONTINUOUS
10
11.3455
20
-4.40605
11
11.3489
21
-4.41262
0
LINE
8
BLACK
6
CONTINUOUS
10
11.3489
20
-4.41262
11
11.3535
21
-4.4184
0
LINE
8
BLACK
6
CONTINUOUS
10
11.3535
20
-4.4184
11
11.3591
21
-4.42319
0
LINE
8
BLACK
6
CONTINUOUS
10
11.3591
20
-4.42319
11
11.3656
21
-4.42679
0
LINE
8
BLACK
6
CONTINUOUS
10
11.3656
20
-4.42679
11
11.3726
21
-4.42907
0
LINE
8
BLACK
6
CONTINUOUS
10
11.3726
20
-4.42907
11
11.3799
21
-4.42995
0
LINE
8
BLACK
6
CONTINUOUS
10
11.3799
20
-4.42995
11
11.3873
21
-4.42938
0
LINE
8
BLACK
6
CONTINUOUS
10
11.3873
20
-4.42938
11
11.3944
21
-4.42739
0
LINE
8
BLACK
6
CONTINUOUS
10
11.3944
20
-4.42739
11
11.401
21
-4.42407
0
LINE
8
BLACK
6
CONTINUOUS
10
11.401
20
-4.42407
11
11.4068
21
-4.41952
0
LINE
8
BLACK
6
CONTINUOUS
10
11.4068
20
-4.41952
11
11.4116
21
-4.41393
0
LINE
8
BLACK
6
CONTINUOUS
10
11.4116
20
-4.41393
11
11.4153
21
-4.40751
0
LINE
8
BLACK
6
CONTINUOUS
10
11.4153
20
-4.40751
11
11.4176
21
-4.40051
0
LINE
8
BLACK
6
CONTINUOUS
10
11.4176
20
-4.40051
11
11.4185
21
-4.39318
0
LINE
8
BLACK
6
CONTINUOUS
10
11.4185
20
-4.39318
11
11.4185
21
-4.39213
0
LINE
8
BLACK
6
CONTINUOUS
10
11.4185
20
-4.39213
11
11.4178
21
-4.38478
0
LINE
8
BLACK
6
CONTINUOUS
10
11.4178
20
-4.38478
11
11.4157
21
-4.37771
0
LINE
8
BLACK
6
CONTINUOUS
10
11.4157
20
-4.37771
11
11.4122
21
-4.37119
0
LINE
8
BLACK
6
CONTINUOUS
10
11.4122
20
-4.37119
11
11.4076
21
-4.36547
0
LINE
8
BLACK
6
CONTINUOUS
10
11.4076
20
-4.36547
11
11.4019
21
-4.36076
0
LINE
8
BLACK
6
CONTINUOUS
10
11.4019
20
-4.36076
11
11.3954
21
-4.35725
0
LINE
8
BLACK
6
CONTINUOUS
10
11.3954
20
-4.35725
11
11.3883
21
-4.35507
0
LINE
8
BLACK
6
CONTINUOUS
10
11.3883
20
-4.35507
11
11.381
21
-4.3543
0
LINE
8
BLACK
6
CONTINUOUS
10
11.381
20
-4.3543
11
11.3736
21
-4.35497
0
LINE
8
BLACK
6
CONTINUOUS
10
11.3736
20
-4.35497
11
11.3665
21
-4.35705
0
LINE
8
BLACK
6
CONTINUOUS
10
11.3665
20
-4.35705
11
11.36
21
-4.36047
0
LINE
8
BLACK
6
CONTINUOUS
10
11.36
20
-4.36047
11
11.3542
21
-4.3651
0
LINE
8
BLACK
6
CONTINUOUS
10
11.3542
20
-4.3651
11
11.3495
21
-4.37075
0
LINE
8
BLACK
6
CONTINUOUS
10
11.3495
20
-4.37075
11
11.3459
21
-4.37722
0
LINE
8
BLACK
6
CONTINUOUS
10
11.3459
20
-4.37722
11
11.3437
21
-4.38426
0
LINE
8
BLACK
6
CONTINUOUS
10
11.3437
20
-4.38426
11
11.3429
21
-4.3916
0
LINE
8
BLACK
6
CONTINUOUS
10
11.3429
20
-4.3916
11
11.3435
21
-4.39895
0
LINE
8
BLACK
6
CONTINUOUS
10
11.3435
20
-4.39895
11
11.3455
21
-4.40605
0
LINE
8
BLACK
6
CONTINUOUS
10
3.74018
20
-3.60946
11
3.74264
21
-3.60173
0
LINE
8
BLACK
6
CONTINUOUS
10
3.74264
20
-3.60173
11
3.74655
21
-3.59462
0
LINE
8
BLACK
6
CONTINUOUS
10
3.74655
20
-3.59462
11
3.75176
21
-3.5884
0
LINE
8
BLACK
6
CONTINUOUS
10
3.75176
20
-3.5884
11
3.75809
21
-3.58331
0
LINE
8
BLACK
6
CONTINUOUS
10
3.75809
20
-3.58331
11
3.76528
21
-3.57955
0
LINE
8
BLACK
6
CONTINUOUS
10
3.76528
20
-3.57955
11
3.77307
21
-3.57726
0
LINE
8
BLACK
6
CONTINUOUS
10
3.77307
20
-3.57726
11
3.78115
21
-3.57653
0
LINE
8
BLACK
6
CONTINUOUS
10
3.78115
20
-3.57653
11
3.78922
21
-3.57738
0
LINE
8
BLACK
6
CONTINUOUS
10
3.78922
20
-3.57738
11
3.79697
21
-3.57978
0
LINE
8
BLACK
6
CONTINUOUS
10
3.79697
20
-3.57978
11
3.80411
21
-3.58364
0
LINE
8
BLACK
6
CONTINUOUS
10
3.80411
20
-3.58364
11
3.81036
21
-3.58881
0
LINE
8
BLACK
6
CONTINUOUS
10
3.81036
20
-3.58881
11
3.81549
21
-3.5951
0
LINE
8
BLACK
6
CONTINUOUS
10
3.81549
20
-3.5951
11
3.8193
21
-3.60226
0
LINE
8
BLACK
6
CONTINUOUS
10
3.8193
20
-3.60226
11
3.82165
21
-3.61003
0
LINE
8
BLACK
6
CONTINUOUS
10
3.82165
20
-3.61003
11
3.82244
21
-3.61811
0
LINE
8
BLACK
6
CONTINUOUS
10
3.82244
20
-3.61811
11
3.82242
21
-3.61927
0
LINE
8
BLACK
6
CONTINUOUS
10
3.82242
20
-3.61927
11
3.82141
21
-3.62732
0
LINE
8
BLACK
6
CONTINUOUS
10
3.82141
20
-3.62732
11
3.81885
21
-3.63502
0
LINE
8
BLACK
6
CONTINUOUS
10
3.81885
20
-3.63502
11
3.81484
21
-3.64208
0
LINE
8
BLACK
6
CONTINUOUS
10
3.81484
20
-3.64208
11
3.80953
21
-3.64822
0
LINE
8
BLACK
6
CONTINUOUS
10
3.80953
20
-3.64822
11
3.80314
21
-3.65322
0
LINE
8
BLACK
6
CONTINUOUS
10
3.80314
20
-3.65322
11
3.79589
21
-3.65688
0
LINE
8
BLACK
6
CONTINUOUS
10
3.79589
20
-3.65688
11
3.78808
21
-3.65906
0
LINE
8
BLACK
6
CONTINUOUS
10
3.78808
20
-3.65906
11
3.77999
21
-3.65969
0
LINE
8
BLACK
6
CONTINUOUS
10
3.77999
20
-3.65969
11
3.77193
21
-3.65872
0
LINE
8
BLACK
6
CONTINUOUS
10
3.77193
20
-3.65872
11
3.76421
21
-3.65622
0
LINE
8
BLACK
6
CONTINUOUS
10
3.76421
20
-3.65622
11
3.75712
21
-3.65226
0
LINE
8
BLACK
6
CONTINUOUS
10
3.75712
20
-3.65226
11
3.75094
21
-3.647
0
LINE
8
BLACK
6
CONTINUOUS
10
3.75094
20
-3.647
11
3.7459
21
-3.64064
0
LINE
8
BLACK
6
CONTINUOUS
10
3.7459
20
-3.64064
11
3.74219
21
-3.63342
0
LINE
8
BLACK
6
CONTINUOUS
10
3.74219
20
-3.63342
11
3.73996
21
-3.62562
0
LINE
8
BLACK
6
CONTINUOUS
10
3.73996
20
-3.62562
11
3.73928
21
-3.61758
0
LINE
8
BLACK
6
CONTINUOUS
10
3.73928
20
-3.61758
11
3.73928
21
-3.61753
0
LINE
8
BLACK
6
CONTINUOUS
10
3.73928
20
-3.61753
11
3.74018
21
-3.60946
0
LINE
8
BLACK
6
CONTINUOUS
10
3.74568
20
-3.63204
11
3.74906
21
-3.6386
0
LINE
8
BLACK
6
CONTINUOUS
10
3.74906
20
-3.6386
11
3.75365
21
-3.64439
0
LINE
8
BLACK
6
CONTINUOUS
10
3.75365
20
-3.64439
11
3.75927
21
-3.64917
0
LINE
8
BLACK
6
CONTINUOUS
10
3.75927
20
-3.64917
11
3.76571
21
-3.65278
0
LINE
8
BLACK
6
CONTINUOUS
10
3.76571
20
-3.65278
11
3.77273
21
-3.65506
0
LINE
8
BLACK
6
CONTINUOUS
10
3.77273
20
-3.65506
11
3.78006
21
-3.65593
0
LINE
8
BLACK
6
CONTINUOUS
10
3.78006
20
-3.65593
11
3.78743
21
-3.65536
0
LINE
8
BLACK
6
CONTINUOUS
10
3.78743
20
-3.65536
11
3.79454
21
-3.65338
0
LINE
8
BLACK
6
CONTINUOUS
10
3.79454
20
-3.65338
11
3.80113
21
-3.65005
0
LINE
8
BLACK
6
CONTINUOUS
10
3.80113
20
-3.65005
11
3.80694
21
-3.6455
0
LINE
8
BLACK
6
CONTINUOUS
10
3.80694
20
-3.6455
11
3.81177
21
-3.63992
0
LINE
8
BLACK
6
CONTINUOUS
10
3.81177
20
-3.63992
11
3.81542
21
-3.6335
0
LINE
8
BLACK
6
CONTINUOUS
10
3.81542
20
-3.6335
11
3.81775
21
-3.62649
0
LINE
8
BLACK
6
CONTINUOUS
10
3.81775
20
-3.62649
11
3.81867
21
-3.61917
0
LINE
8
BLACK
6
CONTINUOUS
10
3.81867
20
-3.61917
11
3.81869
21
-3.61811
0
LINE
8
BLACK
6
CONTINUOUS
10
3.81869
20
-3.61811
11
3.81797
21
-3.61076
0
LINE
8
BLACK
6
CONTINUOUS
10
3.81797
20
-3.61076
11
3.81583
21
-3.60369
0
LINE
8
BLACK
6
CONTINUOUS
10
3.81583
20
-3.60369
11
3.81237
21
-3.59718
0
LINE
8
BLACK
6
CONTINUOUS
10
3.81237
20
-3.59718
11
3.8077
21
-3.59145
0
LINE
8
BLACK
6
CONTINUOUS
10
3.8077
20
-3.59145
11
3.80201
21
-3.58675
0
LINE
8
BLACK
6
CONTINUOUS
10
3.80201
20
-3.58675
11
3.79552
21
-3.58324
0
LINE
8
BLACK
6
CONTINUOUS
10
3.79552
20
-3.58324
11
3.78846
21
-3.58105
0
LINE
8
BLACK
6
CONTINUOUS
10
3.78846
20
-3.58105
11
3.78112
21
-3.58028
0
LINE
8
BLACK
6
CONTINUOUS
10
3.78112
20
-3.58028
11
3.77377
21
-3.58095
0
LINE
8
BLACK
6
CONTINUOUS
10
3.77377
20
-3.58095
11
3.76669
21
-3.58304
0
LINE
8
BLACK
6
CONTINUOUS
10
3.76669
20
-3.58304
11
3.76014
21
-3.58646
0
LINE
8
BLACK
6
CONTINUOUS
10
3.76014
20
-3.58646
11
3.75439
21
-3.59108
0
LINE
8
BLACK
6
CONTINUOUS
10
3.75439
20
-3.59108
11
3.74964
21
-3.59674
0
LINE
8
BLACK
6
CONTINUOUS
10
3.74964
20
-3.59674
11
3.74609
21
-3.60321
0
LINE
8
BLACK
6
CONTINUOUS
10
3.74609
20
-3.60321
11
3.74385
21
-3.61025
0
LINE
8
BLACK
6
CONTINUOUS
10
3.74385
20
-3.61025
11
3.74303
21
-3.61758
0
LINE
8
BLACK
6
CONTINUOUS
10
3.74303
20
-3.61758
11
3.74365
21
-3.62494
0
LINE
8
BLACK
6
CONTINUOUS
10
3.74365
20
-3.62494
11
3.74568
21
-3.63204
0
LINE
8
BLACK
6
CONTINUOUS
10
7.97613
20
-3.60432
11
7.97859
21
-3.59656
0
LINE
8
BLACK
6
CONTINUOUS
10
7.97859
20
-3.59656
11
7.98251
21
-3.58943
0
LINE
8
BLACK
6
CONTINUOUS
10
7.98251
20
-3.58943
11
7.98775
21
-3.58319
0
LINE
8
BLACK
6
CONTINUOUS
10
7.98775
20
-3.58319
11
7.99409
21
-3.57809
0
LINE
8
BLACK
6
CONTINUOUS
10
7.99409
20
-3.57809
11
8.0013
21
-3.57432
0
LINE
8
BLACK
6
CONTINUOUS
10
8.0013
20
-3.57432
11
8.00911
21
-3.57202
0
LINE
8
BLACK
6
CONTINUOUS
10
8.00911
20
-3.57202
11
8.01722
21
-3.57128
0
LINE
8
BLACK
6
CONTINUOUS
10
8.01722
20
-3.57128
11
8.02532
21
-3.57214
0
LINE
8
BLACK
6
CONTINUOUS
10
8.02532
20
-3.57214
11
8.03309
21
-3.57454
0
LINE
8
BLACK
6
CONTINUOUS
10
8.03309
20
-3.57454
11
8.04025
21
-3.57841
0
LINE
8
BLACK
6
CONTINUOUS
10
8.04025
20
-3.57841
11
8.04652
21
-3.5836
0
LINE
8
BLACK
6
CONTINUOUS
10
8.04652
20
-3.5836
11
8.05167
21
-3.58991
0
LINE
8
BLACK
6
CONTINUOUS
10
8.05167
20
-3.58991
11
8.05549
21
-3.5971
0
LINE
8
BLACK
6
CONTINUOUS
10
8.05549
20
-3.5971
11
8.05784
21
-3.60489
0
LINE
8
BLACK
6
CONTINUOUS
10
8.05784
20
-3.60489
11
8.05864
21
-3.61299
0
LINE
8
BLACK
6
CONTINUOUS
10
8.05864
20
-3.61299
11
8.05862
21
-3.61416
0
LINE
8
BLACK
6
CONTINUOUS
10
8.05862
20
-3.61416
11
8.0576
21
-3.62223
0
LINE
8
BLACK
6
CONTINUOUS
10
8.0576
20
-3.62223
11
8.05503
21
-3.62996
0
LINE
8
BLACK
6
CONTINUOUS
10
8.05503
20
-3.62996
11
8.05101
21
-3.63703
0
LINE
8
BLACK
6
CONTINUOUS
10
8.05101
20
-3.63703
11
8.04569
21
-3.6432
0
LINE
8
BLACK
6
CONTINUOUS
10
8.04569
20
-3.6432
11
8.03928
21
-3.64821
0
LINE
8
BLACK
6
CONTINUOUS
10
8.03928
20
-3.64821
11
8.03201
21
-3.65188
0
LINE
8
BLACK
6
CONTINUOUS
10
8.03201
20
-3.65188
11
8.02417
21
-3.65407
0
LINE
8
BLACK
6
CONTINUOUS
10
8.02417
20
-3.65407
11
8.01606
21
-3.65469
0
LINE
8
BLACK
6
CONTINUOUS
10
8.01606
20
-3.65469
11
8.00797
21
-3.65373
0
LINE
8
BLACK
6
CONTINUOUS
10
8.00797
20
-3.65373
11
8.00023
21
-3.65121
0
LINE
8
BLACK
6
CONTINUOUS
10
8.00023
20
-3.65121
11
7.99313
21
-3.64724
0
LINE
8
BLACK
6
CONTINUOUS
10
7.99313
20
-3.64724
11
7.98693
21
-3.64197
0
LINE
8
BLACK
6
CONTINUOUS
10
7.98693
20
-3.64197
11
7.98187
21
-3.63559
0
LINE
8
BLACK
6
CONTINUOUS
10
7.98187
20
-3.63559
11
7.97815
21
-3.62835
0
LINE
8
BLACK
6
CONTINUOUS
10
7.97815
20
-3.62835
11
7.97591
21
-3.62052
0
LINE
8
BLACK
6
CONTINUOUS
10
7.97591
20
-3.62052
11
7.97523
21
-3.61246
0
LINE
8
BLACK
6
CONTINUOUS
10
7.97523
20
-3.61246
11
7.97522
21
-3.61241
0
LINE
8
BLACK
6
CONTINUOUS
10
7.97522
20
-3.61241
11
7.97613
21
-3.60432
0
LINE
8
BLACK
6
CONTINUOUS
10
7.98164
20
-3.62696
11
7.98503
21
-3.63355
0
LINE
8
BLACK
6
CONTINUOUS
10
7.98503
20
-3.63355
11
7.98963
21
-3.63936
0
LINE
8
BLACK
6
CONTINUOUS
10
7.98963
20
-3.63936
11
7.99527
21
-3.64416
0
LINE
8
BLACK
6
CONTINUOUS
10
7.99527
20
-3.64416
11
8.00173
21
-3.64777
0
LINE
8
BLACK
6
CONTINUOUS
10
8.00173
20
-3.64777
11
8.00878
21
-3.65006
0
LINE
8
BLACK
6
CONTINUOUS
10
8.00878
20
-3.65006
11
8.01613
21
-3.65094
0
LINE
8
BLACK
6
CONTINUOUS
10
8.01613
20
-3.65094
11
8.02352
21
-3.65037
0
LINE
8
BLACK
6
CONTINUOUS
10
8.02352
20
-3.65037
11
8.03065
21
-3.64838
0
LINE
8
BLACK
6
CONTINUOUS
10
8.03065
20
-3.64838
11
8.03727
21
-3.64504
0
LINE
8
BLACK
6
CONTINUOUS
10
8.03727
20
-3.64504
11
8.0431
21
-3.64048
0
LINE
8
BLACK
6
CONTINUOUS
10
8.0431
20
-3.64048
11
8.04794
21
-3.63487
0
LINE
8
BLACK
6
CONTINUOUS
10
8.04794
20
-3.63487
11
8.0516
21
-3.62843
0
LINE
8
BLACK
6
CONTINUOUS
10
8.0516
20
-3.62843
11
8.05394
21
-3.6214
0
LINE
8
BLACK
6
CONTINUOUS
10
8.05394
20
-3.6214
11
8.05487
21
-3.61405
0
LINE
8
BLACK
6
CONTINUOUS
10
8.05487
20
-3.61405
11
8.05488
21
-3.61299
0
LINE
8
BLACK
6
CONTINUOUS
10
8.05488
20
-3.61299
11
8.05416
21
-3.60562
0
LINE
8
BLACK
6
CONTINUOUS
10
8.05416
20
-3.60562
11
8.05202
21
-3.59853
0
LINE
8
BLACK
6
CONTINUOUS
10
8.05202
20
-3.59853
11
8.04854
21
-3.59199
0
LINE
8
BLACK
6
CONTINUOUS
10
8.04854
20
-3.59199
11
8.04386
21
-3.58625
0
LINE
8
BLACK
6
CONTINUOUS
10
8.04386
20
-3.58625
11
8.03815
21
-3.58153
0
LINE
8
BLACK
6
CONTINUOUS
10
8.03815
20
-3.58153
11
8.03164
21
-3.578
0
LINE
8
BLACK
6
CONTINUOUS
10
8.03164
20
-3.578
11
8.02456
21
-3.57581
0
LINE
8
BLACK
6
CONTINUOUS
10
8.02456
20
-3.57581
11
8.01719
21
-3.57504
0
LINE
8
BLACK
6
CONTINUOUS
10
8.01719
20
-3.57504
11
8.00982
21
-3.57571
0
LINE
8
BLACK
6
CONTINUOUS
10
8.00982
20
-3.57571
11
8.00271
21
-3.5778
0
LINE
8
BLACK
6
CONTINUOUS
10
8.00271
20
-3.5778
11
7.99615
21
-3.58123
0
LINE
8
BLACK
6
CONTINUOUS
10
7.99615
20
-3.58123
11
7.99037
21
-3.58587
0
LINE
8
BLACK
6
CONTINUOUS
10
7.99037
20
-3.58587
11
7.98561
21
-3.59155
0
LINE
8
BLACK
6
CONTINUOUS
10
7.98561
20
-3.59155
11
7.98204
21
-3.59804
0
LINE
8
BLACK
6
CONTINUOUS
10
7.98204
20
-3.59804
11
7.9798
21
-3.6051
0
LINE
8
BLACK
6
CONTINUOUS
10
7.9798
20
-3.6051
11
7.97898
21
-3.61246
0
LINE
8
BLACK
6
CONTINUOUS
10
7.97898
20
-3.61246
11
7.9796
21
-3.61984
0
LINE
8
BLACK
6
CONTINUOUS
10
7.9796
20
-3.61984
11
7.98164
21
-3.62696
0
LINE
8
BLACK
6
CONTINUOUS
10
6.89673
20
-2.27954
11
6.89918
21
-2.27181
0
LINE
8
BLACK
6
CONTINUOUS
10
6.89918
20
-2.27181
11
6.90309
21
-2.2647
0
LINE
8
BLACK
6
CONTINUOUS
10
6.90309
20
-2.2647
11
6.90831
21
-2.25848
0
LINE
8
BLACK
6
CONTINUOUS
10
6.90831
20
-2.25848
11
6.91463
21
-2.25339
0
LINE
8
BLACK
6
CONTINUOUS
10
6.91463
20
-2.25339
11
6.92182
21
-2.24963
0
LINE
8
BLACK
6
CONTINUOUS
10
6.92182
20
-2.24963
11
6.92961
21
-2.24734
0
LINE
8
BLACK
6
CONTINUOUS
10
6.92961
20
-2.24734
11
6.93769
21
-2.24661
0
LINE
8
BLACK
6
CONTINUOUS
10
6.93769
20
-2.24661
11
6.94576
21
-2.24745
0
LINE
8
BLACK
6
CONTINUOUS
10
6.94576
20
-2.24745
11
6.95352
21
-2.24985
0
LINE
8
BLACK
6
CONTINUOUS
10
6.95352
20
-2.24985
11
6.96066
21
-2.25371
0
LINE
8
BLACK
6
CONTINUOUS
10
6.96066
20
-2.25371
11
6.96691
21
-2.25889
0
LINE
8
BLACK
6
CONTINUOUS
10
6.96691
20
-2.25889
11
6.97204
21
-2.26518
0
LINE
8
BLACK
6
CONTINUOUS
10
6.97204
20
-2.26518
11
6.97585
21
-2.27234
0
LINE
8
BLACK
6
CONTINUOUS
10
6.97585
20
-2.27234
11
6.97819
21
-2.28011
0
LINE
8
BLACK
6
CONTINUOUS
10
6.97819
20
-2.28011
11
6.97899
21
-2.28819
0
LINE
8
BLACK
6
CONTINUOUS
10
6.97899
20
-2.28819
11
6.97897
21
-2.28935
0
LINE
8
BLACK
6
CONTINUOUS
10
6.97897
20
-2.28935
11
6.97795
21
-2.2974
0
LINE
8
BLACK
6
CONTINUOUS
10
6.97795
20
-2.2974
11
6.97539
21
-2.3051
0
LINE
8
BLACK
6
CONTINUOUS
10
6.97539
20
-2.3051
11
6.97138
21
-2.31216
0
LINE
8
BLACK
6
CONTINUOUS
10
6.97138
20
-2.31216
11
6.96608
21
-2.3183
0
LINE
8
BLACK
6
CONTINUOUS
10
6.96608
20
-2.3183
11
6.95968
21
-2.3233
0
LINE
8
BLACK
6
CONTINUOUS
10
6.95968
20
-2.3233
11
6.95244
21
-2.32696
0
LINE
8
BLACK
6
CONTINUOUS
10
6.95244
20
-2.32696
11
6.94462
21
-2.32914
0
LINE
8
BLACK
6
CONTINUOUS
10
6.94462
20
-2.32914
11
6.93653
21
-2.32976
0
LINE
8
BLACK
6
CONTINUOUS
10
6.93653
20
-2.32976
11
6.92847
21
-2.3288
0
LINE
8
BLACK
6
CONTINUOUS
10
6.92847
20
-2.3288
11
6.92075
21
-2.32629
0
LINE
8
BLACK
6
CONTINUOUS
10
6.92075
20
-2.32629
11
6.91367
21
-2.32234
0
LINE
8
BLACK
6
CONTINUOUS
10
6.91367
20
-2.32234
11
6.90749
21
-2.31708
0
LINE
8
BLACK
6
CONTINUOUS
10
6.90749
20
-2.31708
11
6.90245
21
-2.31072
0
LINE
8
BLACK
6
CONTINUOUS
10
6.90245
20
-2.31072
11
6.89874
21
-2.3035
0
LINE
8
BLACK
6
CONTINUOUS
10
6.89874
20
-2.3035
11
6.8965
21
-2.2957
0
LINE
8
BLACK
6
CONTINUOUS
10
6.8965
20
-2.2957
11
6.89583
21
-2.28766
0
LINE
8
BLACK
6
CONTINUOUS
10
6.89583
20
-2.28766
11
6.89582
21
-2.28761
0
LINE
8
BLACK
6
CONTINUOUS
10
6.89582
20
-2.28761
11
6.89673
21
-2.27954
0
LINE
8
BLACK
6
CONTINUOUS
10
6.90223
20
-2.30211
11
6.9056
21
-2.30868
0
LINE
8
BLACK
6
CONTINUOUS
10
6.9056
20
-2.30868
11
6.91019
21
-2.31447
0
LINE
8
BLACK
6
CONTINUOUS
10
6.91019
20
-2.31447
11
6.91581
21
-2.31925
0
LINE
8
BLACK
6
CONTINUOUS
10
6.91581
20
-2.31925
11
6.92226
21
-2.32285
0
LINE
8
BLACK
6
CONTINUOUS
10
6.92226
20
-2.32285
11
6.92928
21
-2.32514
0
LINE
8
BLACK
6
CONTINUOUS
10
6.92928
20
-2.32514
11
6.93661
21
-2.32601
0
LINE
8
BLACK
6
CONTINUOUS
10
6.93661
20
-2.32601
11
6.94397
21
-2.32544
0
LINE
8
BLACK
6
CONTINUOUS
10
6.94397
20
-2.32544
11
6.95108
21
-2.32346
0
LINE
8
BLACK
6
CONTINUOUS
10
6.95108
20
-2.32346
11
6.95767
21
-2.32013
0
LINE
8
BLACK
6
CONTINUOUS
10
6.95767
20
-2.32013
11
6.96349
21
-2.31558
0
LINE
8
BLACK
6
CONTINUOUS
10
6.96349
20
-2.31558
11
6.96831
21
-2.30999
0
LINE
8
BLACK
6
CONTINUOUS
10
6.96831
20
-2.30999
11
6.97196
21
-2.30358
0
LINE
8
BLACK
6
CONTINUOUS
10
6.97196
20
-2.30358
11
6.97429
21
-2.29657
0
LINE
8
BLACK
6
CONTINUOUS
10
6.97429
20
-2.29657
11
6.97522
21
-2.28925
0
LINE
8
BLACK
6
CONTINUOUS
10
6.97522
20
-2.28925
11
6.97523
21
-2.28819
0
LINE
8
BLACK
6
CONTINUOUS
10
6.97523
20
-2.28819
11
6.97451
21
-2.28084
0
LINE
8
BLACK
6
CONTINUOUS
10
6.97451
20
-2.28084
11
6.97238
21
-2.27377
0
LINE
8
BLACK
6
CONTINUOUS
10
6.97238
20
-2.27377
11
6.96891
21
-2.26725
0
LINE
8
BLACK
6
CONTINUOUS
10
6.96891
20
-2.26725
11
6.96424
21
-2.26153
0
LINE
8
BLACK
6
CONTINUOUS
10
6.96424
20
-2.26153
11
6.95856
21
-2.25683
0
LINE
8
BLACK
6
CONTINUOUS
10
6.95856
20
-2.25683
11
6.95206
21
-2.25332
0
LINE
8
BLACK
6
CONTINUOUS
10
6.95206
20
-2.25332
11
6.94501
21
-2.25113
0
LINE
8
BLACK
6
CONTINUOUS
10
6.94501
20
-2.25113
11
6.93767
21
-2.25036
0
LINE
8
BLACK
6
CONTINUOUS
10
6.93767
20
-2.25036
11
6.93031
21
-2.25103
0
LINE
8
BLACK
6
CONTINUOUS
10
6.93031
20
-2.25103
11
6.92323
21
-2.25311
0
LINE
8
BLACK
6
CONTINUOUS
10
6.92323
20
-2.25311
11
6.91669
21
-2.25653
0
LINE
8
BLACK
6
CONTINUOUS
10
6.91669
20
-2.25653
11
6.91093
21
-2.26116
0
LINE
8
BLACK
6
CONTINUOUS
10
6.91093
20
-2.26116
11
6.90619
21
-2.26682
0
LINE
8
BLACK
6
CONTINUOUS
10
6.90619
20
-2.26682
11
6.90263
21
-2.27329
0
LINE
8
BLACK
6
CONTINUOUS
10
6.90263
20
-2.27329
11
6.9004
21
-2.28032
0
LINE
8
BLACK
6
CONTINUOUS
10
6.9004
20
-2.28032
11
6.89958
21
-2.28766
0
LINE
8
BLACK
6
CONTINUOUS
10
6.89958
20
-2.28766
11
6.90019
21
-2.29502
0
LINE
8
BLACK
6
CONTINUOUS
10
6.90019
20
-2.29502
11
6.90223
21
-2.30211
0
LINE
8
BLACK
6
CONTINUOUS
10
4.82271
20
-2.27049
11
4.82516
21
-2.26275
0
LINE
8
BLACK
6
CONTINUOUS
10
4.82516
20
-2.26275
11
4.82907
21
-2.25564
0
LINE
8
BLACK
6
CONTINUOUS
10
4.82907
20
-2.25564
11
4.83429
21
-2.24942
0
LINE
8
BLACK
6
CONTINUOUS
10
4.83429
20
-2.24942
11
4.84062
21
-2.24434
0
LINE
8
BLACK
6
CONTINUOUS
10
4.84062
20
-2.24434
11
4.84781
21
-2.24058
0
LINE
8
BLACK
6
CONTINUOUS
10
4.84781
20
-2.24058
11
4.85559
21
-2.23829
0
LINE
8
BLACK
6
CONTINUOUS
10
4.85559
20
-2.23829
11
4.86368
21
-2.23755
0
LINE
8
BLACK
6
CONTINUOUS
10
4.86368
20
-2.23755
11
4.87175
21
-2.2384
0
LINE
8
BLACK
6
CONTINUOUS
10
4.87175
20
-2.2384
11
4.8795
21
-2.2408
0
LINE
8
BLACK
6
CONTINUOUS
10
4.8795
20
-2.2408
11
4.88664
21
-2.24466
0
LINE
8
BLACK
6
CONTINUOUS
10
4.88664
20
-2.24466
11
4.89289
21
-2.24983
0
LINE
8
BLACK
6
CONTINUOUS
10
4.89289
20
-2.24983
11
4.89802
21
-2.25612
0
LINE
8
BLACK
6
CONTINUOUS
10
4.89802
20
-2.25612
11
4.90183
21
-2.26329
0
LINE
8
BLACK
6
CONTINUOUS
10
4.90183
20
-2.26329
11
4.90418
21
-2.27106
0
LINE
8
BLACK
6
CONTINUOUS
10
4.90418
20
-2.27106
11
4.90497
21
-2.27913
0
LINE
8
BLACK
6
CONTINUOUS
10
4.90497
20
-2.27913
11
4.90495
21
-2.28029
0
LINE
8
BLACK
6
CONTINUOUS
10
4.90495
20
-2.28029
11
4.90394
21
-2.28835
0
LINE
8
BLACK
6
CONTINUOUS
10
4.90394
20
-2.28835
11
4.90137
21
-2.29605
0
LINE
8
BLACK
6
CONTINUOUS
10
4.90137
20
-2.29605
11
4.89737
21
-2.3031
0
LINE
8
BLACK
6
CONTINUOUS
10
4.89737
20
-2.3031
11
4.89206
21
-2.30925
0
LINE
8
BLACK
6
CONTINUOUS
10
4.89206
20
-2.30925
11
4.88567
21
-2.31424
0
LINE
8
BLACK
6
CONTINUOUS
10
4.88567
20
-2.31424
11
4.87842
21
-2.3179
0
LINE
8
BLACK
6
CONTINUOUS
10
4.87842
20
-2.3179
11
4.87061
21
-2.32009
0
LINE
8
BLACK
6
CONTINUOUS
10
4.87061
20
-2.32009
11
4.86251
21
-2.32071
0
LINE
8
BLACK
6
CONTINUOUS
10
4.86251
20
-2.32071
11
4.85446
21
-2.31975
0
LINE
8
BLACK
6
CONTINUOUS
10
4.85446
20
-2.31975
11
4.84674
21
-2.31724
0
LINE
8
BLACK
6
CONTINUOUS
10
4.84674
20
-2.31724
11
4.83965
21
-2.31328
0
LINE
8
BLACK
6
CONTINUOUS
10
4.83965
20
-2.31328
11
4.83347
21
-2.30802
0
LINE
8
BLACK
6
CONTINUOUS
10
4.83347
20
-2.30802
11
4.82843
21
-2.30166
0
LINE
8
BLACK
6
CONTINUOUS
10
4.82843
20
-2.30166
11
4.82472
21
-2.29444
0
LINE
8
BLACK
6
CONTINUOUS
10
4.82472
20
-2.29444
11
4.82249
21
-2.28664
0
LINE
8
BLACK
6
CONTINUOUS
10
4.82249
20
-2.28664
11
4.82181
21
-2.27861
0
LINE
8
BLACK
6
CONTINUOUS
10
4.82181
20
-2.27861
11
4.82181
21
-2.27855
0
LINE
8
BLACK
6
CONTINUOUS
10
4.82181
20
-2.27855
11
4.82271
21
-2.27049
0
LINE
8
BLACK
6
CONTINUOUS
10
4.82821
20
-2.29306
11
4.83159
21
-2.29963
0
LINE
8
BLACK
6
CONTINUOUS
10
4.83159
20
-2.29963
11
4.83617
21
-2.30541
0
LINE
8
BLACK
6
CONTINUOUS
10
4.83617
20
-2.30541
11
4.8418
21
-2.3102
0
LINE
8
BLACK
6
CONTINUOUS
10
4.8418
20
-2.3102
11
4.84824
21
-2.3138
0
LINE
8
BLACK
6
CONTINUOUS
10
4.84824
20
-2.3138
11
4.85526
21
-2.31608
0
LINE
8
BLACK
6
CONTINUOUS
10
4.85526
20
-2.31608
11
4.86259
21
-2.31695
0
LINE
8
BLACK
6
CONTINUOUS
10
4.86259
20
-2.31695
11
4.86995
21
-2.31639
0
LINE
8
BLACK
6
CONTINUOUS
10
4.86995
20
-2.31639
11
4.87707
21
-2.3144
0
LINE
8
BLACK
6
CONTINUOUS
10
4.87707
20
-2.3144
11
4.88366
21
-2.31107
0
LINE
8
BLACK
6
CONTINUOUS
10
4.88366
20
-2.31107
11
4.88947
21
-2.30653
0
LINE
8
BLACK
6
CONTINUOUS
10
4.88947
20
-2.30653
11
4.8943
21
-2.30094
0
LINE
8
BLACK
6
CONTINUOUS
10
4.8943
20
-2.30094
11
4.89794
21
-2.29452
0
LINE
8
BLACK
6
CONTINUOUS
10
4.89794
20
-2.29452
11
4.90027
21
-2.28751
0
LINE
8
BLACK
6
CONTINUOUS
10
4.90027
20
-2.28751
11
4.9012
21
-2.28019
0
LINE
8
BLACK
6
CONTINUOUS
10
4.9012
20
-2.28019
11
4.90121
21
-2.27913
0
LINE
8
BLACK
6
CONTINUOUS
10
4.90121
20
-2.27913
11
4.90049
21
-2.27179
0
LINE
8
BLACK
6
CONTINUOUS
10
4.90049
20
-2.27179
11
4.89836
21
-2.26472
0
LINE
8
BLACK
6
CONTINUOUS
10
4.89836
20
-2.26472
11
4.89489
21
-2.2582
0
LINE
8
BLACK
6
CONTINUOUS
10
4.89489
20
-2.2582
11
4.89023
21
-2.25248
0
LINE
8
BLACK
6
CONTINUOUS
10
4.89023
20
-2.25248
11
4.88454
21
-2.24777
0
LINE
8
BLACK
6
CONTINUOUS
10
4.88454
20
-2.24777
11
4.87805
21
-2.24426
0
LINE
8
BLACK
6
CONTINUOUS
10
4.87805
20
-2.24426
11
4.87099
21
-2.24208
0
LINE
8
BLACK
6
CONTINUOUS
10
4.87099
20
-2.24208
11
4.86365
21
-2.24131
0
LINE
8
BLACK
6
CONTINUOUS
10
4.86365
20
-2.24131
11
4.8563
21
-2.24197
0
LINE
8
BLACK
6
CONTINUOUS
10
4.8563
20
-2.24197
11
4.84921
21
-2.24406
0
LINE
8
BLACK
6
CONTINUOUS
10
4.84921
20
-2.24406
11
4.84267
21
-2.24748
0
LINE
8
BLACK
6
CONTINUOUS
10
4.84267
20
-2.24748
11
4.83692
21
-2.25211
0
LINE
8
BLACK
6
CONTINUOUS
10
4.83692
20
-2.25211
11
4.83217
21
-2.25776
0
LINE
8
BLACK
6
CONTINUOUS
10
4.83217
20
-2.25776
11
4.82862
21
-2.26423
0
LINE
8
BLACK
6
CONTINUOUS
10
4.82862
20
-2.26423
11
4.82638
21
-2.27127
0
LINE
8
BLACK
6
CONTINUOUS
10
4.82638
20
-2.27127
11
4.82556
21
-2.27861
0
LINE
8
BLACK
6
CONTINUOUS
10
4.82556
20
-2.27861
11
4.82618
21
-2.28596
0
LINE
8
BLACK
6
CONTINUOUS
10
4.82618
20
-2.28596
11
4.82821
21
-2.29306
0
LINE
8
BLACK
6
CONTINUOUS
10
10.876
20
-2.14726
11
10.8785
21
-2.13952
0
LINE
8
BLACK
6
CONTINUOUS
10
10.8785
20
-2.13952
11
10.8824
21
-2.13241
0
LINE
8
BLACK
6
CONTINUOUS
10
10.8824
20
-2.13241
11
10.8876
21
-2.12619
0
LINE
8
BLACK
6
CONTINUOUS
10
10.8876
20
-2.12619
11
10.8939
21
-2.12111
0
LINE
8
BLACK
6
CONTINUOUS
10
10.8939
20
-2.12111
11
10.9011
21
-2.11735
0
LINE
8
BLACK
6
CONTINUOUS
10
10.9011
20
-2.11735
11
10.9089
21
-2.11506
0
LINE
8
BLACK
6
CONTINUOUS
10
10.9089
20
-2.11506
11
10.917
21
-2.11432
0
LINE
8
BLACK
6
CONTINUOUS
10
10.917
20
-2.11432
11
10.925
21
-2.11517
0
LINE
8
BLACK
6
CONTINUOUS
10
10.925
20
-2.11517
11
10.9328
21
-2.11757
0
LINE
8
BLACK
6
CONTINUOUS
10
10.9328
20
-2.11757
11
10.9399
21
-2.12143
0
LINE
8
BLACK
6
CONTINUOUS
10
10.9399
20
-2.12143
11
10.9462
21
-2.1266
0
LINE
8
BLACK
6
CONTINUOUS
10
10.9462
20
-2.1266
11
10.9513
21
-2.13289
0
LINE
8
BLACK
6
CONTINUOUS
10
10.9513
20
-2.13289
11
10.9551
21
-2.14006
0
LINE
8
BLACK
6
CONTINUOUS
10
10.9551
20
-2.14006
11
10.9575
21
-2.14783
0
LINE
8
BLACK
6
CONTINUOUS
10
10.9575
20
-2.14783
11
10.9583
21
-2.15591
0
LINE
8
BLACK
6
CONTINUOUS
10
10.9583
20
-2.15591
11
10.9583
21
-2.15707
0
LINE
8
BLACK
6
CONTINUOUS
10
10.9583
20
-2.15707
11
10.9572
21
-2.16512
0
LINE
8
BLACK
6
CONTINUOUS
10
10.9572
20
-2.16512
11
10.9547
21
-2.17282
0
LINE
8
BLACK
6
CONTINUOUS
10
10.9547
20
-2.17282
11
10.9507
21
-2.17988
0
LINE
8
BLACK
6
CONTINUOUS
10
10.9507
20
-2.17988
11
10.9454
21
-2.18602
0
LINE
8
BLACK
6
CONTINUOUS
10
10.9454
20
-2.18602
11
10.939
21
-2.19102
0
LINE
8
BLACK
6
CONTINUOUS
10
10.939
20
-2.19102
11
10.9317
21
-2.19468
0
LINE
8
BLACK
6
CONTINUOUS
10
10.9317
20
-2.19468
11
10.9239
21
-2.19686
0
LINE
8
BLACK
6
CONTINUOUS
10
10.9239
20
-2.19686
11
10.9158
21
-2.19748
0
LINE
8
BLACK
6
CONTINUOUS
10
10.9158
20
-2.19748
11
10.9078
21
-2.19652
0
LINE
8
BLACK
6
CONTINUOUS
10
10.9078
20
-2.19652
11
10.9
21
-2.19401
0
LINE
8
BLACK
6
CONTINUOUS
10
10.9
20
-2.19401
11
10.893
21
-2.19005
0
LINE
8
BLACK
6
CONTINUOUS
10
10.893
20
-2.19005
11
10.8868
21
-2.18479
0
LINE
8
BLACK
6
CONTINUOUS
10
10.8868
20
-2.18479
11
10.8817
21
-2.17843
0
LINE
8
BLACK
6
CONTINUOUS
10
10.8817
20
-2.17843
11
10.878
21
-2.17121
0
LINE
8
BLACK
6
CONTINUOUS
10
10.878
20
-2.17121
11
10.8758
21
-2.16341
0
LINE
8
BLACK
6
CONTINUOUS
10
10.8758
20
-2.16341
11
10.8751
21
-2.15538
0
LINE
8
BLACK
6
CONTINUOUS
10
10.8751
20
-2.15538
11
10.8751
21
-2.15532
0
LINE
8
BLACK
6
CONTINUOUS
10
10.8751
20
-2.15532
11
10.876
21
-2.14726
0
LINE
8
BLACK
6
CONTINUOUS
10
10.8815
20
-2.16983
11
10.8849
21
-2.1764
0
LINE
8
BLACK
6
CONTINUOUS
10
10.8849
20
-2.1764
11
10.8895
21
-2.18218
0
LINE
8
BLACK
6
CONTINUOUS
10
10.8895
20
-2.18218
11
10.8951
21
-2.18697
0
LINE
8
BLACK
6
CONTINUOUS
10
10.8951
20
-2.18697
11
10.9015
21
-2.19057
0
LINE
8
BLACK
6
CONTINUOUS
10
10.9015
20
-2.19057
11
10.9086
21
-2.19285
0
LINE
8
BLACK
6
CONTINUOUS
10
10.9086
20
-2.19285
11
10.9159
21
-2.19373
0
LINE
8
BLACK
6
CONTINUOUS
10
10.9159
20
-2.19373
11
10.9233
21
-2.19316
0
LINE
8
BLACK
6
CONTINUOUS
10
10.9233
20
-2.19316
11
10.9304
21
-2.19117
0
LINE
8
BLACK
6
CONTINUOUS
10
10.9304
20
-2.19117
11
10.937
21
-2.18785
0
LINE
8
BLACK
6
CONTINUOUS
10
10.937
20
-2.18785
11
10.9428
21
-2.1833
0
LINE
8
BLACK
6
CONTINUOUS
10
10.9428
20
-2.1833
11
10.9476
21
-2.17771
0
LINE
8
BLACK
6
CONTINUOUS
10
10.9476
20
-2.17771
11
10.9512
21
-2.17129
0
LINE
8
BLACK
6
CONTINUOUS
10
10.9512
20
-2.17129
11
10.9536
21
-2.16429
0
LINE
8
BLACK
6
CONTINUOUS
10
10.9536
20
-2.16429
11
10.9545
21
-2.15696
0
LINE
8
BLACK
6
CONTINUOUS
10
10.9545
20
-2.15696
11
10.9545
21
-2.15591
0
LINE
8
BLACK
6
CONTINUOUS
10
10.9545
20
-2.15591
11
10.9538
21
-2.14856
0
LINE
8
BLACK
6
CONTINUOUS
10
10.9538
20
-2.14856
11
10.9517
21
-2.14149
0
LINE
8
BLACK
6
CONTINUOUS
10
10.9517
20
-2.14149
11
10.9482
21
-2.13497
0
LINE
8
BLACK
6
CONTINUOUS
10
10.9482
20
-2.13497
11
10.9435
21
-2.12925
0
LINE
8
BLACK
6
CONTINUOUS
10
10.9435
20
-2.12925
11
10.9378
21
-2.12454
0
LINE
8
BLACK
6
CONTINUOUS
10
10.9378
20
-2.12454
11
10.9313
21
-2.12103
0
LINE
8
BLACK
6
CONTINUOUS
10
10.9313
20
-2.12103
11
10.9243
21
-2.11885
0
LINE
8
BLACK
6
CONTINUOUS
10
10.9243
20
-2.11885
11
10.9169
21
-2.11808
0
LINE
8
BLACK
6
CONTINUOUS
10
10.9169
20
-2.11808
11
10.9096
21
-2.11875
0
LINE
8
BLACK
6
CONTINUOUS
10
10.9096
20
-2.11875
11
10.9025
21
-2.12083
0
LINE
8
BLACK
6
CONTINUOUS
10
10.9025
20
-2.12083
11
10.896
21
-2.12425
0
LINE
8
BLACK
6
CONTINUOUS
10
10.896
20
-2.12425
11
10.8902
21
-2.12888
0
LINE
8
BLACK
6
CONTINUOUS
10
10.8902
20
-2.12888
11
10.8855
21
-2.13453
0
LINE
8
BLACK
6
CONTINUOUS
10
10.8855
20
-2.13453
11
10.8819
21
-2.141
0
LINE
8
BLACK
6
CONTINUOUS
10
10.8819
20
-2.141
11
10.8797
21
-2.14804
0
LINE
8
BLACK
6
CONTINUOUS
10
10.8797
20
-2.14804
11
10.8789
21
-2.15538
0
LINE
8
BLACK
6
CONTINUOUS
10
10.8789
20
-2.15538
11
10.8795
21
-2.16273
0
LINE
8
BLACK
6
CONTINUOUS
10
10.8795
20
-2.16273
11
10.8815
21
-2.16983
0
LINE
8
BLACK
6
CONTINUOUS
10
0.834522
20
-2.13427
11
0.836976
21
-2.12653
0
LINE
8
BLACK
6
CONTINUOUS
10
0.836976
20
-2.12653
11
0.840885
21
-2.11942
0
LINE
8
BLACK
6
CONTINUOUS
10
0.840885
20
-2.11942
11
0.846102
21
-2.1132
0
LINE
8
BLACK
6
CONTINUOUS
10
0.846102
20
-2.1132
11
0.852427
21
-2.10812
0
LINE
8
BLACK
6
CONTINUOUS
10
0.852427
20
-2.10812
11
0.859619
21
-2.10436
0
LINE
8
BLACK
6
CONTINUOUS
10
0.859619
20
-2.10436
11
0.867405
21
-2.10207
0
LINE
8
BLACK
6
CONTINUOUS
10
0.867405
20
-2.10207
11
0.875487
21
-2.10133
0
LINE
8
BLACK
6
CONTINUOUS
10
0.875487
20
-2.10133
11
0.883558
21
-2.10218
0
LINE
8
BLACK
6
CONTINUOUS
10
0.883558
20
-2.10218
11
0.891311
21
-2.10458
0
LINE
8
BLACK
6
CONTINUOUS
10
0.891311
20
-2.10458
11
0.89845
21
-2.10844
0
LINE
8
BLACK
6
CONTINUOUS
10
0.89845
20
-2.10844
11
0.904704
21
-2.11361
0
LINE
8
BLACK
6
CONTINUOUS
10
0.904704
20
-2.11361
11
0.909833
21
-2.1199
0
LINE
8
BLACK
6
CONTINUOUS
10
0.909833
20
-2.1199
11
0.913643
21
-2.12707
0
LINE
8
BLACK
6
CONTINUOUS
10
0.913643
20
-2.12707
11
0.915989
21
-2.13484
0
LINE
8
BLACK
6
CONTINUOUS
10
0.915989
20
-2.13484
11
0.916781
21
-2.14291
0
LINE
8
BLACK
6
CONTINUOUS
10
0.916781
20
-2.14291
11
0.916765
21
-2.14407
0
LINE
8
BLACK
6
CONTINUOUS
10
0.916765
20
-2.14407
11
0.915747
21
-2.15213
0
LINE
8
BLACK
6
CONTINUOUS
10
0.915747
20
-2.15213
11
0.913186
21
-2.15983
0
LINE
8
BLACK
6
CONTINUOUS
10
0.913186
20
-2.15983
11
0.909177
21
-2.16688
0
LINE
8
BLACK
6
CONTINUOUS
10
0.909177
20
-2.16688
11
0.903874
21
-2.17303
0
LINE
8
BLACK
6
CONTINUOUS
10
0.903874
20
-2.17303
11
0.897479
21
-2.17802
0
LINE
8
BLACK
6
CONTINUOUS
10
0.897479
20
-2.17802
11
0.890235
21
-2.18168
0
LINE
8
BLACK
6
CONTINUOUS
10
0.890235
20
-2.18168
11
0.882418
21
-2.18387
0
LINE
8
BLACK
6
CONTINUOUS
10
0.882418
20
-2.18387
11
0.874326
21
-2.18449
0
LINE
8
BLACK
6
CONTINUOUS
10
0.874326
20
-2.18449
11
0.866267
21
-2.18353
0
LINE
8
BLACK
6
CONTINUOUS
10
0.866267
20
-2.18353
11
0.858549
21
-2.18102
0
LINE
8
BLACK
6
CONTINUOUS
10
0.858549
20
-2.18102
11
0.851464
21
-2.17706
0
LINE
8
BLACK
6
CONTINUOUS
10
0.851464
20
-2.17706
11
0.845284
21
-2.1718
0
LINE
8
BLACK
6
CONTINUOUS
10
0.845284
20
-2.1718
11
0.840243
21
-2.16544
0
LINE
8
BLACK
6
CONTINUOUS
10
0.840243
20
-2.16544
11
0.836533
21
-2.15822
0
LINE
8
BLACK
6
CONTINUOUS
10
0.836533
20
-2.15822
11
0.834296
21
-2.15042
0
LINE
8
BLACK
6
CONTINUOUS
10
0.834296
20
-2.15042
11
0.833621
21
-2.14239
0
LINE
8
BLACK
6
CONTINUOUS
10
0.833621
20
-2.14239
11
0.833617
21
-2.14233
0
LINE
8
BLACK
6
CONTINUOUS
10
0.833617
20
-2.14233
11
0.834522
21
-2.13427
0
LINE
8
BLACK
6
CONTINUOUS
10
0.840024
20
-2.15684
11
0.843399
21
-2.16341
0
LINE
8
BLACK
6
CONTINUOUS
10
0.843399
20
-2.16341
11
0.847985
21
-2.16919
0
LINE
8
BLACK
6
CONTINUOUS
10
0.847985
20
-2.16919
11
0.853607
21
-2.17398
0
LINE
8
BLACK
6
CONTINUOUS
10
0.853607
20
-2.17398
11
0.860052
21
-2.17758
0
LINE
8
BLACK
6
CONTINUOUS
10
0.860052
20
-2.17758
11
0.867074
21
-2.17986
0
LINE
8
BLACK
6
CONTINUOUS
10
0.867074
20
-2.17986
11
0.874405
21
-2.18073
0
LINE
8
BLACK
6
CONTINUOUS
10
0.874405
20
-2.18073
11
0.881766
21
-2.18017
0
LINE
8
BLACK
6
CONTINUOUS
10
0.881766
20
-2.18017
11
0.888877
21
-2.17818
0
LINE
8
BLACK
6
CONTINUOUS
10
0.888877
20
-2.17818
11
0.895467
21
-2.17485
0
LINE
8
BLACK
6
CONTINUOUS
10
0.895467
20
-2.17485
11
0.901284
21
-2.17031
0
LINE
8
BLACK
6
CONTINUOUS
10
0.901284
20
-2.17031
11
0.906109
21
-2.16472
0
LINE
8
BLACK
6
CONTINUOUS
10
0.906109
20
-2.16472
11
0.909755
21
-2.1583
0
LINE
8
BLACK
6
CONTINUOUS
10
0.909755
20
-2.1583
11
0.912086
21
-2.15129
0
LINE
8
BLACK
6
CONTINUOUS
10
0.912086
20
-2.15129
11
0.913011
21
-2.14397
0
LINE
8
BLACK
6
CONTINUOUS
10
0.913011
20
-2.14397
11
0.913026
21
-2.14291
0
LINE
8
BLACK
6
CONTINUOUS
10
0.913026
20
-2.14291
11
0.912305
21
-2.13557
0
LINE
8
BLACK
6
CONTINUOUS
10
0.912305
20
-2.13557
11
0.910172
21
-2.1285
0
LINE
8
BLACK
6
CONTINUOUS
10
0.910172
20
-2.1285
11
0.906705
21
-2.12198
0
LINE
8
BLACK
6
CONTINUOUS
10
0.906705
20
-2.12198
11
0.902039
21
-2.11626
0
LINE
8
BLACK
6
CONTINUOUS
10
0.902039
20
-2.11626
11
0.896351
21
-2.11155
0
LINE
8
BLACK
6
CONTINUOUS
10
0.896351
20
-2.11155
11
0.889856
21
-2.10804
0
LINE
8
BLACK
6
CONTINUOUS
10
0.889856
20
-2.10804
11
0.882803
21
-2.10586
0
LINE
8
BLACK
6
CONTINUOUS
10
0.882803
20
-2.10586
11
0.875461
21
-2.10509
0
LINE
8
BLACK
6
CONTINUOUS
10
0.875461
20
-2.10509
11
0.868108
21
-2.10575
0
LINE
8
BLACK
6
CONTINUOUS
10
0.868108
20
-2.10575
11
0.861026
21
-2.10784
0
LINE
8
BLACK
6
CONTINUOUS
10
0.861026
20
-2.10784
11
0.854483
21
-2.11126
0
LINE
8
BLACK
6
CONTINUOUS
10
0.854483
20
-2.11126
11
0.848729
21
-2.11589
0
LINE
8
BLACK
6
CONTINUOUS
10
0.848729
20
-2.11589
11
0.843984
21
-2.12154
0
LINE
8
BLACK
6
CONTINUOUS
10
0.843984
20
-2.12154
11
0.840427
21
-2.12801
0
LINE
8
BLACK
6
CONTINUOUS
10
0.840427
20
-2.12801
11
0.838194
21
-2.13505
0
LINE
8
BLACK
6
CONTINUOUS
10
0.838194
20
-2.13505
11
0.837371
21
-2.14239
0
LINE
8
BLACK
6
CONTINUOUS
10
0.837371
20
-2.14239
11
0.837989
21
-2.14974
0
LINE
8
BLACK
6
CONTINUOUS
10
0.837989
20
-2.14974
11
0.840024
21
-2.15684
  0
ENDSEC
  0
EOF
