0
SECTION
2
HEADER
9
$INSUNITS
70
4
9
$ACADVER
1
AC1014
9
$HANDSEED
5
FFFF
0
ENDSEC
0
SECTION
2
TABLES
0
TABLE
2
VPORT
5
8
100
AcDbSymbolTable
0
ENDTAB
0
TABLE
2
LTYPE
5
5
100
AcDbSymbolTable
0
LTYPE
5
14
100
AcDbSymbolTableRecord
100
AcDbLinetypeTableRecord
2
BYBLOCK
70
0
0
LTYPE
5
15
100
AcDbSymbolTableRecord
100
AcDbLinetypeTableRecord
2
BYLAYER
70
0
0
ENDTAB
0
TABLE
2
LAYER
5
2
100
AcDbSymbolTable
70
2
0
LAYER
5
50
100
AcDbSymbolTableRecord
100
AcDbLayerTableRecord
2
0
70
0
6
CONTINUOUS
0
ENDTAB
0
TABLE
2
STYLE
5
3
100
AcDbSymbolTable
70
1
0
STYLE
5
11
100
AcDbSymbolTableRecord
100
AcDbTextStyleTableRecord
2
STANDARD
70
0
0
ENDTAB
0
TABLE
2
VIEW
5
6
100
AcDbSymbolTable
70
0
0
ENDTAB
0
TABLE
2
UCS
5
7
100
AcDbSymbolTable
70
0
0
ENDTAB
0
TABLE
2
APPID
5
9
100
AcDbSymbolTable
70
2
0
APPID
5
12
100
AcDbSymbolTableRecord
100
AcDbRegAppTableRecord
2
ACAD
70
0
0
ENDTAB
0
TABLE
2
DIMSTYLE
5
A
100
AcDbSymbolTable
70
1
0
ENDTAB
0
TABLE
2
BLOCK_RECORD
5
1
100
AcDbSymbolTable
70
1
0
BLOCK_RECORD
5
1F
100
AcDbSymbolTableRecord
100
AcDbBlockTableRecord
2
*MODEL_SPACE
0
BLOCK_RECORD
5
1B
100
AcDbSymbolTableRecord
100
AcDbBlockTableRecord
2
*PAPER_SPACE
0
ENDTAB
0
ENDSEC
0
SECTION
2
BLOCKS
0
BLOCK
5
20
100
AcDbEntity
100
AcDbBlockBegin
2
*MODEL_SPACE
0
ENDBLK
5
21
100
AcDbEntity
100
AcDbBlockEnd
0
BLOCK
5
1C
100
AcDbEntity
100
AcDbBlockBegin
2
*PAPER_SPACE
0
ENDBLK
5
1D
100
AcDbEntity
100
AcDbBlockEnd
0
ENDSEC
0
SECTION
2
ENTITIES
0
LWPOLYLINE
5
100
100
AcDbEntity
8
0
100
AcDbPolyline
90
38
70
1
43
0.0
10
-55.968775448186747
20
240.00000089406967
10
-51.356337421442994
20
240.00000089406967
42
0.023742386278981162
10
-50.645269226732985
20
240.03378484961502
10
-35.219361976823379
20
241.50291887341595
42
-0.24625218577628155
10
-26.622560533488251
20
237.98979831379035
10
-26.247547266261066
20
237.54452638548227
42
0.22121643229291579
10
-20.511014378469664
20
234.87590201021766
10
-15.030196740146781
20
234.87590201021766
10
-15.099999662488749
20
234.79999475181143
42
-0.18649398617248866
10
-28.799359665135
20
228.07942610273
10
-39.322162978013949
20
227.17528974412113
42
-0.090131323596089025
10
-97.267599660767004
20
232.64205120767002
10
-105.06299283033265
20
234.83177360401811
42
0.13778297828002192
10
-188.89699999999897
20
234.83176999999625
10
-196.69239373870761
20
232.64204894979883
42
-0.090131322211000189
10
-254.63783010738001
20
227.17528875018999
10
-265.16064068235744
20
228.07943005863041
42
-0.18627497955483899
10
-278.77709506496501
20
234.71371261007107
10
-278.92633836751281
20
234.87590201021766
10
-273.44763263636986
20
234.87590201021766
42
0.22121643229291837
10
-267.71109974857859
20
237.54452638548224
10
-267.33608648135134
20
237.98979831379043
42
-0.24625218577627886
10
-258.73928503801625
20
241.50291887341592
10
-242.95864625488039
20
240.00000089406967
10
-237.9898715666539
20
240.00000089406967
42
0.032091817076118148
10
-221.99345436287504
20
241.02776756481683
10
-207.77015697401492
20
242.86303174402457
42
0.042231978347975964
10
-190.46345362434107
20
246.6013746295352
10
-160.87323872817063
20
255.66240660167944
42
0.41421356237308971
10
-157.62860042678557
20
260.29623032439332
10
-163.62972080975106
20
294.33027524981185
10
-146.97932350741976
20
297.26618953371371
10
-130.32892620508855
20
294.33027524981185
10
-136.33004658805402
20
260.29623032439338
42
0.41421356237309015
10
-133.08540828666901
20
255.66240660167946
10
-103.49519339050282
20
246.60137462953654
42
0.04223197834797663
10
-86.188490040820213
20
242.863031744024
10
-71.965192651963832
20
241.02776756481674
42
0.032091817076116406
0
ARC
5
101
100
AcDbEntity
8
0
100
AcDbCircle
10
-125.94906278673001
20
297.89893922580001
30
0
40
0.25399999999999795
210
0
220
0
230
1
100
AcDbArc
50
169.99999999663754
51
260.00000000300804
0
CIRCLE
5
102
100
AcDbEntity
8
0
100
AcDbCircle
10
-120.69000000000001
20
241.03000000000003
30
0
40
1.0062305898749999
210
0
220
0
230
1
0
CIRCLE
5
103
100
AcDbEntity
8
0
100
AcDbCircle
10
-173.37
20
241.26000000000002
30
0
40
1.0062305898749999
210
0
220
0
230
1
0
ENDSEC
0
SECTION
2
OBJECTS
0
DICTIONARY
5
C
100
AcDbDictionary
3
ACAD_GROUP
350
D
3
ACAD_MLINESTYLE
350
17
0
DICTIONARY
5
D
100
AcDbDictionary
0
DICTIONARY
5
1A
330
C
100
AcDbDictionary
0
DICTIONARY
5
17
100
AcDbDictionary
0
ENDSEC
0
EOF
